<?xml version="1.0" standalone="no"?>
<!DOCTYPE svg PUBLIC "-//W3C//DTD SVG 20010904//EN"
 "http://www.w3.org/TR/2001/REC-SVG-20010904/DTD/svg10.dtd">
<svg version="1.0" xmlns="http://www.w3.org/2000/svg"
 width="512.000000pt" height="512.000000pt" viewBox="0 0 512.000000 512.000000"
 preserveAspectRatio="xMidYMid meet">
<metadata>
Created by potrace 1.11, written by Peter Selinger 2001-2013
</metadata>
<g transform="translate(0.000000,512.000000) scale(0.100000,-0.100000)"
fill="#000000" stroke="none">
<path d="M1727 5020 c-3 -11 -1 -23 4 -26 5 -3 9 6 9 20 0 31 -6 34 -13 6z"/>
<path d="M1765 5020 c3 -5 8 -10 11 -10 2 0 4 5 4 10 0 6 -5 10 -11 10 -5 0
-7 -4 -4 -10z"/>
<path d="M1815 4990 c-4 -12 -4 -24 -1 -27 3 -4 6 0 6 8 0 10 2 11 8 2 5 -9
12 -6 21 10 8 12 10 19 6 15 -5 -4 -14 -3 -21 3 -9 7 -14 4 -19 -11z"/>
<path d="M1747 4961 c-4 -17 -3 -21 5 -13 5 5 8 16 6 23 -3 8 -7 3 -11 -10z"/>
<path d="M2000 4956 c0 -2 7 -7 16 -10 8 -3 12 -2 9 4 -6 10 -25 14 -25 6z"/>
<path d="M1777 4935 c-4 -11 -10 -27 -13 -35 -3 -8 1 -5 11 8 9 12 15 28 13
34 -3 7 -7 4 -11 -7z"/>
<path d="M2054 4925 c-3 -8 -4 -20 -2 -27 3 -7 7 -1 10 15 6 29 1 36 -8 12z"/>
<path d="M1978 4909 c-12 -20 -13 -27 -3 -36 10 -9 14 -9 19 3 3 9 1 12 -4 9
-6 -3 -10 -2 -10 4 0 5 5 11 12 13 6 2 9 10 7 17 -4 10 -10 6 -21 -10z"/>
<path d="M1800 4881 c0 -25 6 -27 13 -6 4 8 2 17 -3 20 -6 4 -10 -3 -10 -14z"/>
<path d="M2206 4883 c-6 -14 -5 -15 5 -6 7 7 10 15 7 18 -3 3 -9 -2 -12 -12z"/>
<path d="M1771 4876 c-8 -10 -9 -16 -1 -21 5 -3 10 -5 11 -3 4 18 7 38 4 38
-1 0 -8 -6 -14 -14z"/>
<path d="M2090 4880 c0 -5 5 -10 10 -10 6 0 10 5 10 10 0 6 -4 10 -10 10 -5 0
-10 -4 -10 -10z"/>
<path d="M2035 4870 c3 -5 8 -10 11 -10 2 0 4 5 4 10 0 6 -5 10 -11 10 -5 0
-7 -4 -4 -10z"/>
<path d="M2324 4854 c4 -13 1 -26 -9 -34 -8 -7 -15 -17 -15 -23 0 -6 7 -1 16
11 8 12 20 19 26 16 5 -4 4 4 -2 17 -17 33 -24 38 -16 13z"/>
<path d="M1841 4844 c0 -11 3 -14 6 -6 3 7 2 16 -1 19 -3 4 -6 -2 -5 -13z"/>
<path d="M1895 4850 c3 -5 8 -10 11 -10 2 0 4 5 4 10 0 6 -5 10 -11 10 -5 0
-7 -4 -4 -10z"/>
<path d="M2185 4852 c-6 -4 -16 -20 -23 -37 l-13 -30 25 29 c30 34 37 57 11
38z"/>
<path d="M2130 4835 c-11 -13 -10 -14 4 -9 9 3 16 10 16 15 0 13 -6 11 -20 -6z"/>
<path d="M2050 4831 c0 -5 5 -13 10 -16 6 -3 10 -2 10 4 0 5 -4 13 -10 16 -5
3 -10 2 -10 -4z"/>
<path d="M2367 4803 c-6 -34 -5 -37 10 -14 6 10 8 23 3 30 -5 9 -9 3 -13 -16z"/>
<path d="M2094 4809 c-3 -6 -2 -15 3 -20 5 -5 9 -1 10 11 2 22 -2 25 -13 9z"/>
<path d="M2176 4795 c-3 -9 -6 -22 -5 -28 0 -7 5 -1 10 12 5 13 8 26 5 28 -2
2 -6 -3 -10 -12z"/>
<path d="M2270 4775 c-7 -9 -10 -18 -7 -21 3 -3 10 4 17 15 13 25 8 27 -10 6z"/>
<path d="M2292 4758 c-14 -14 -16 -28 -3 -28 5 0 11 9 14 20 6 23 5 24 -11 8z"/>
<path d="M2351 4731 c-10 -6 -11 -14 -3 -26 9 -17 10 -16 17 4 8 27 4 33 -14
22z"/>
<path d="M2315 4659 c-4 -6 -5 -12 -2 -15 2 -3 7 2 10 11 7 17 1 20 -8 4z"/>
<path d="M2615 4660 c-13 -21 25 -60 211 -215 182 -153 364 -327 444 -424 l45
-54 -30 7 c-16 4 -47 23 -68 43 -57 51 -151 109 -215 133 -91 34 -282 25 -282
-14 0 -7 21 -23 48 -35 l47 -21 -100 7 c-148 12 -356 8 -475 -8 -58 -7 -111
-13 -117 -12 -7 0 -13 -5 -13 -11 0 -7 -17 -32 -37 -55 -35 -42 -37 -43 -45
-21 -7 18 -11 20 -23 10 -8 -7 -15 -17 -15 -23 0 -6 7 -2 15 9 14 19 14 19 15
-2 0 -12 -7 -25 -16 -28 -25 -10 -32 -7 -30 11 0 12 -7 19 -22 21 -12 2 -22 0
-21 -5 4 -22 -3 -31 -21 -26 -11 3 -20 9 -20 14 0 5 -6 8 -12 6 -7 -1 -12 3
-11 10 4 18 -27 9 -130 -41 -238 -114 -454 -306 -609 -541 -184 -278 -297
-551 -350 -845 -27 -150 -29 -411 -5 -552 17 -95 17 -97 -8 -195 -58 -237 -76
-454 -46 -558 21 -70 82 -129 150 -144 60 -13 170 0 255 29 l53 18 64 -65
c244 -247 606 -457 904 -524 l60 -13 -96 -6 c-114 -7 -159 -23 -159 -55 0 -37
42 -48 205 -54 l150 -6 -80 -16 c-107 -22 -157 -44 -153 -66 13 -67 163 -43
380 59 l108 51 62 -29 c44 -20 80 -28 118 -29 53 0 55 1 58 28 2 16 -4 40 -13
54 -9 13 -15 26 -13 28 2 1 26 5 54 7 l51 5 16 -76 c8 -42 18 -84 22 -94 7
-17 2 -18 -91 -10 -226 19 -364 1 -364 -46 0 -38 52 -53 210 -61 80 -4 132 -8
116 -8 -39 -3 -144 -31 -178 -48 -32 -17 -34 -26 -12 -48 38 -39 205 -1 389
87 l90 43 63 -29 c42 -19 81 -30 115 -31 52 -1 52 -1 55 32 2 19 -4 44 -13 59
-25 38 -128 82 -205 86 l-65 4 -13 49 c-7 27 -11 62 -10 78 3 28 6 30 108 52
223 50 443 142 613 257 l93 64 60 -23 c245 -92 419 -62 480 81 39 93 27 293
-32 536 l-26 107 20 93 c36 163 45 288 39 504 -14 444 -103 792 -286 1118 -30
53 -61 97 -68 97 -8 0 -35 -5 -60 -11 -36 -9 -47 -9 -53 1 -6 9 -11 7 -19 -9
-13 -23 -41 -29 -41 -7 0 7 -8 20 -17 27 -14 12 -16 12 -8 0 4 -8 8 -28 7 -45
0 -17 4 -36 10 -43 6 -7 8 -25 5 -40 -4 -16 -4 -22 -1 -15 8 17 24 15 24 -4 0
-8 4 -13 9 -10 9 6 24 -30 21 -53 -1 -7 3 -10 9 -7 10 7 27 -31 22 -53 -1 -7
2 -10 7 -7 15 9 32 -41 26 -74 -4 -19 -2 -30 5 -30 6 0 11 6 12 13 0 6 9 -10
20 -38 15 -35 19 -61 15 -88 -4 -26 -3 -36 4 -32 6 3 7 12 4 18 -4 7 -1 7 7
-1 12 -11 12 -15 -3 -26 -21 -15 -24 -35 -10 -66 10 -21 12 -22 11 -5 -2 38 1
55 10 55 15 0 25 -128 12 -144 -7 -8 -11 -18 -10 -22 4 -21 -2 -35 -12 -29 -6
4 -9 0 -7 -10 5 -27 -45 -58 -96 -60 -29 -1 -46 2 -46 9 0 6 -4 5 -9 -3 -8
-12 -19 -10 -64 13 -64 31 -99 84 -93 139 2 17 4 38 5 45 1 7 6 10 13 6 6 -4
8 -3 5 3 -11 17 21 70 61 103 31 26 43 30 77 27 22 -3 51 -8 64 -12 21 -7 23
-6 19 13 -4 12 -2 20 3 16 13 -8 11 4 -6 29 -8 13 -16 33 -18 45 -2 12 -6 25
-10 28 -14 14 -7 26 8 14 11 -9 15 -9 15 -1 0 6 -10 16 -22 21 -13 5 -17 9
-10 9 6 1 12 6 12 12 0 5 -4 8 -9 4 -13 -8 -34 32 -25 48 4 6 4 9 -1 5 -10 -9
-85 133 -78 146 4 5 1 6 -5 2 -13 -8 -43 33 -35 48 3 6 3 8 -2 4 -11 -10 -38
20 -29 33 4 7 3 9 -2 6 -6 -3 -32 17 -59 44 -29 29 -43 50 -34 50 8 1 24 3 37
4 21 2 23 -1 17 -24 -4 -19 -3 -22 5 -11 5 8 10 22 10 31 0 12 13 18 43 23 23
4 53 10 66 13 17 4 22 2 17 -6 -4 -6 -2 -11 3 -11 6 0 11 6 11 13 0 8 7 14 15
15 8 1 22 3 30 4 24 2 19 13 -40 80 -70 80 -179 176 -275 240 l-75 50 -6 122
c-9 186 -52 322 -133 421 -30 36 -112 93 -158 111 -36 13 -17 -43 77 -236 52
-107 108 -235 125 -284 33 -99 34 -106 21 -106 -4 0 -16 21 -26 48 -31 83
-119 255 -170 332 -106 160 -268 294 -403 334 -77 22 -197 32 -207 16z m-658
-712 c-3 -8 -6 -5 -6 6 -1 11 2 17 5 13 3 -3 4 -12 1 -19z m-218 -594 c96 -4
184 -9 196 -13 22 -6 22 -7 8 -55 l-14 -49 -42 6 c-23 3 -109 11 -192 17 -82
6 -160 15 -171 20 -14 5 -23 20 -27 42 -6 44 -1 51 37 44 17 -2 109 -8 205
-12z m1194 -81 l109 -6 -7 -36 c-10 -54 -23 -71 -53 -71 -50 0 -444 38 -449
43 -2 3 -7 24 -10 48 l-6 42 154 -7 c85 -3 203 -9 262 -13z m-1483 -586 c0
-11 -1 -18 -3 -16 -1 2 -8 11 -15 20 -9 13 -9 16 3 16 8 0 15 -9 15 -20z
m-103 -52 c-4 -31 -15 -43 -12 -13 4 35 5 38 10 38 3 0 4 -11 2 -25z m-84
-145 c-3 -11 0 -20 6 -20 6 0 11 -7 11 -15 0 -20 -16 -19 -24 1 -9 23 -7 54 3
54 5 0 7 -9 4 -20z m48 -28 c-15 -5 -14 -29 2 -35 9 -3 9 -7 -2 -20 -8 -10 -9
-17 -3 -17 6 0 10 -9 9 -19 0 -11 -4 -18 -8 -15 -4 2 -9 -2 -12 -8 -2 -7 -4
22 -3 64 0 43 4 72 8 65 5 -8 8 -6 9 8 1 20 1 20 6 0 3 -10 0 -21 -6 -23z
m-50 -63 c-5 -13 -10 -19 -10 -12 -1 15 10 45 15 40 3 -2 0 -15 -5 -28z m216
-1 c-3 -8 -6 -5 -6 6 -1 11 2 17 5 13 3 -3 4 -12 1 -19z m-203 -65 c11 -14 14
-23 8 -19 -7 4 -13 -7 -17 -31 -14 -84 -22 -86 -21 -6 1 46 3 83 6 83 3 0 14
-12 24 -27z m183 -125 c-3 -8 -6 -5 -6 6 -1 11 2 17 5 13 3 -3 4 -12 1 -19z
m-210 -40 c-3 -8 -6 -5 -6 6 -1 11 2 17 5 13 3 -3 4 -12 1 -19z m184 -82 c5 3
9 0 9 -6 0 -15 -23 -7 -26 8 -1 7 0 8 3 2 2 -5 9 -8 14 -4z m-134 -88 c-3 -8
-6 -5 -6 6 -1 11 2 17 5 13 3 -3 4 -12 1 -19z"/>
<path d="M2315 4590 c-4 -6 -11 -7 -17 -4 -6 4 -8 -1 -3 -16 4 -13 3 -20 -2
-17 -5 3 -10 -3 -10 -14 -1 -10 2 -19 8 -19 5 0 9 5 9 11 0 5 5 7 12 3 7 -4 8
-3 4 5 -10 16 3 53 16 45 7 -4 8 -2 4 4 -9 15 -13 15 -21 2z"/>
<path d="M1755 4570 c3 -5 8 -10 11 -10 2 0 4 5 4 10 0 6 -5 10 -11 10 -5 0
-7 -4 -4 -10z"/>
<path d="M1772 4519 c-7 -12 -11 -24 -8 -27 3 -3 6 0 6 7 0 7 5 9 10 6 6 -3
10 3 10 14 0 26 -2 26 -18 0z"/>
<path d="M2280 4490 c-1 -8 -2 -19 -1 -24 1 -5 -4 -4 -12 3 -12 9 -16 7 -20
-9 -3 -11 -1 -23 4 -26 10 -6 2 -53 -12 -68 -12 -13 -11 -26 2 -26 5 0 7 5 4
10 -3 6 -2 10 4 10 8 0 21 39 26 75 1 6 5 18 9 27 4 10 6 23 3 30 -4 10 -6 9
-7 -2z"/>
<path d="M1766 4472 c-2 -4 -1 -14 5 -22 7 -12 9 -10 9 8 0 23 -5 28 -14 14z"/>
<path d="M1593 4458 c4 -10 2 -18 -3 -18 -5 0 -6 -8 -3 -17 6 -14 8 -14 16 5
8 17 7 26 -3 35 -10 10 -12 9 -7 -5z"/>
<path d="M1550 4430 c-1 -8 -1 -19 0 -25 1 -5 3 -16 3 -23 0 -7 4 -9 8 -5 5 5
4 22 0 38 -5 17 -10 23 -11 15z"/>
<path d="M1467 4416 c-4 -9 -10 -15 -15 -12 -4 2 -8 -4 -9 -14 -1 -13 3 -17
13 -13 8 3 14 13 15 22 0 10 2 11 6 3 5 -13 23 -7 23 9 0 6 -4 8 -9 5 -5 -4
-11 -1 -13 6 -3 7 -7 5 -11 -6z"/>
<path d="M1650 4409 c-7 -11 -9 -26 -7 -33 3 -7 -6 -25 -19 -39 -15 -16 -20
-28 -13 -32 6 -4 13 2 16 14 6 23 19 28 26 9 3 -7 6 1 6 18 1 16 6 35 13 42 9
9 9 12 0 12 -6 0 -9 7 -6 15 9 22 -4 18 -16 -6z"/>
<path d="M1527 4381 c-4 -17 -3 -21 5 -13 5 5 8 16 6 23 -3 8 -7 3 -11 -10z"/>
<path d="M2206 4375 c-9 -26 -7 -32 5 -12 6 10 9 21 6 23 -2 3 -7 -2 -11 -11z"/>
<path d="M1571 4339 c-13 -39 -14 -42 -1 -34 13 8 13 -8 -1 -38 -9 -20 -7 -32
10 -66 12 -22 17 -41 11 -41 -5 0 -10 -4 -10 -10 0 -5 7 -10 15 -10 17 0 34
30 27 49 -3 9 0 11 7 7 7 -4 9 -16 6 -25 -8 -26 18 -46 34 -27 7 8 12 23 11
33 -4 35 0 54 10 48 6 -4 8 -16 5 -28 -5 -19 -4 -19 9 3 19 31 20 43 4 35 -7
-4 -6 -1 3 7 9 7 14 19 11 27 -3 8 0 11 6 7 11 -6 24 18 15 28 -11 10 -23 7
-23 -6 0 -22 -15 -38 -38 -43 -24 -4 -28 11 -11 35 9 13 10 12 5 -2 -3 -10 -1
-20 4 -23 11 -7 12 21 1 48 -5 15 -10 10 -25 -23 -20 -45 -33 -50 -16 -6 5 15
6 25 1 22 -5 -3 -15 -26 -22 -51 -7 -25 -17 -45 -22 -45 -5 0 -5 9 -2 20 7 21
-10 28 -18 8 -3 -8 -6 -7 -6 4 -1 23 19 34 30 17 7 -12 9 -11 9 1 0 9 -7 25
-15 37 -10 14 -13 32 -9 48 9 36 -2 31 -15 -6z m93 -145 c-2 -37 -14 -61 -14
-28 0 10 -3 29 -6 42 -4 15 -2 22 8 22 9 0 13 -11 12 -36z"/>
<path d="M1497 4353 c-4 -3 -7 -11 -7 -17 0 -6 5 -5 12 2 6 6 9 14 7 17 -3 3
-9 2 -12 -2z"/>
<path d="M1513 4311 c0 -11 5 -17 9 -15 4 3 8 -2 8 -11 0 -9 -5 -13 -11 -9 -8
5 -8 1 0 -14 6 -11 11 -31 10 -44 0 -17 -5 -11 -18 21 -11 28 -20 39 -24 30
-3 -8 -6 0 -7 16 -1 26 -3 27 -9 10 -5 -11 -5 -27 0 -36 9 -17 -5 -47 -15 -31
-3 6 -1 13 4 15 6 3 5 4 -2 3 -7 -2 -12 -11 -12 -20 1 -9 -2 -16 -7 -16 -5 0
-9 7 -9 15 0 9 -6 12 -15 9 -21 -8 -19 -17 12 -50 23 -25 28 -26 31 -11 2 9 8
17 13 17 6 0 7 5 3 12 -4 7 -3 8 4 4 9 -5 9 -13 1 -27 -6 -12 -8 -23 -5 -27 3
-3 6 0 6 7 0 7 5 9 11 6 6 -4 8 -14 5 -22 -3 -8 -2 -12 3 -8 5 3 12 -1 15 -7
3 -7 4 -2 3 12 -1 14 -6 31 -11 39 -6 9 -5 12 5 9 8 -3 15 -15 17 -29 6 -50
13 -55 28 -20 17 41 18 62 1 40 -10 -13 -12 -8 -14 34 -1 28 2 56 7 62 10 12
4 23 -22 43 -15 12 -17 11 -15 -7z m-4 -106 c0 -5 -4 -3 -9 5 -5 8 -9 22 -9
30 0 16 17 -16 18 -35z"/>
<path d="M1893 4315 c-3 -9 -3 -19 1 -22 3 -4 6 1 6 10 0 8 6 18 13 20 9 4 9
6 -1 6 -7 1 -15 -6 -19 -14z"/>
<path d="M1444 4296 c-5 -14 -9 -15 -15 -4 -5 7 -9 9 -9 3 0 -5 4 -16 9 -24 7
-11 11 -9 21 9 6 12 9 24 6 27 -3 3 -9 -2 -12 -11z"/>
<path d="M1856 4301 c-4 -6 -2 -11 4 -11 6 0 8 -11 5 -27 -5 -27 -5 -27 5 -5
11 26 -2 64 -14 43z"/>
<path d="M2200 4295 c0 -5 5 -17 10 -25 5 -8 10 -10 10 -5 0 6 -5 17 -10 25
-5 8 -10 11 -10 5z"/>
<path d="M2154 4263 c-17 -40 -24 -74 -14 -68 5 3 11 -1 14 -7 3 -7 4 5 1 27
-4 28 -3 36 4 25 14 -21 22 -8 13 23 l-7 27 -11 -27z"/>
<path d="M1805 4270 c-3 -5 -1 -18 4 -27 9 -16 10 -14 11 10 0 28 -5 34 -15
17z"/>
<path d="M1971 4258 c-1 -15 -5 -30 -11 -33 -5 -3 -10 -11 -10 -18 0 -6 7 -1
16 11 9 13 20 19 27 15 9 -5 9 -3 1 8 -6 8 -14 21 -17 29 -3 9 -6 4 -6 -12z"/>
<path d="M2001 4264 c0 -11 3 -14 6 -6 3 7 2 16 -1 19 -3 4 -6 -2 -5 -13z"/>
<path d="M2026 4269 c-4 -8 -3 -26 2 -39 8 -22 9 -22 14 -4 3 11 2 28 -2 39
-7 17 -9 17 -14 4z"/>
<path d="M1832 4250 c0 -14 2 -19 5 -12 2 6 2 18 0 25 -3 6 -5 1 -5 -13z"/>
<path d="M2190 4261 c0 -6 4 -13 10 -16 6 -3 7 1 4 9 -7 18 -14 21 -14 7z"/>
<path d="M1874 4225 c-9 -18 -9 -27 0 -34 8 -6 12 1 13 25 1 19 1 34 0 34 -1
0 -7 -11 -13 -25z"/>
<path d="M1216 4224 c-3 -8 -10 -13 -15 -10 -5 3 -15 -2 -22 -11 -12 -14 -12
-16 0 -9 10 6 12 4 7 -10 -3 -11 -1 -26 4 -34 9 -13 10 -13 11 0 1 8 3 20 4
25 2 6 3 16 4 23 0 6 8 12 16 12 8 0 15 7 15 15 0 20 -16 19 -24 -1z"/>
<path d="M1900 4224 c0 -11 3 -24 7 -28 4 -3 8 -16 10 -27 2 -11 11 -28 20
-37 16 -16 16 -16 8 3 -4 11 -8 34 -8 52 0 18 -4 30 -8 27 -4 -2 -12 4 -18 13
-10 17 -10 16 -11 -3z"/>
<path d="M1128 4205 c-4 -16 -10 -41 -14 -55 -5 -23 -4 -22 11 5 9 16 15 41
13 55 -3 24 -3 24 -10 -5z"/>
<path d="M1160 4219 c0 -5 5 -7 10 -4 6 3 10 8 10 11 0 2 -4 4 -10 4 -5 0 -10
-5 -10 -11z"/>
<path d="M2064 4193 c0 -28 3 -37 9 -27 5 8 4 27 -1 42 -8 25 -9 23 -8 -15z"/>
<path d="M1043 4213 c-13 -2 -23 -12 -24 -21 -1 -9 -2 -32 -4 -49 -2 -31 -1
-32 24 -26 14 3 27 10 29 14 2 4 11 5 20 2 9 -3 14 -3 10 2 -4 4 -3 16 3 27 8
15 7 24 -7 39 -9 10 -20 18 -23 18 -3 -1 -16 -4 -28 -6z m49 -52 c-4 -12 -7
-11 -12 4 -6 17 -8 16 -14 -8 -3 -15 -11 -27 -16 -27 -14 0 -12 16 6 51 14 29
16 30 29 13 7 -10 10 -25 7 -33z"/>
<path d="M1780 4211 c0 -7 -4 -9 -10 -6 -5 3 -10 2 -10 -4 0 -5 5 -13 10 -16
11 -7 26 22 16 32 -3 4 -6 1 -6 -6z"/>
<path d="M955 4201 c-11 -5 -24 -6 -28 -4 -4 3 -16 2 -25 -2 -9 -4 -36 -7 -59
-6 -44 3 -54 -7 -29 -28 10 -8 16 -9 21 -1 10 16 25 2 24 -23 -1 -20 -2 -20
-9 3 -7 21 -8 22 -9 5 -1 -11 11 -37 25 -58 14 -21 35 -65 48 -98 12 -33 25
-57 28 -54 3 3 3 -5 1 -18 -3 -14 2 -29 11 -36 9 -8 16 -19 16 -25 0 -6 -5 -4
-10 4 -8 12 -10 12 -10 1 0 -8 8 -20 18 -28 9 -8 12 -12 6 -9 -17 8 -25 -33
-11 -55 7 -11 15 -19 18 -19 12 0 -3 -45 -19 -57 -9 -7 -12 -13 -8 -13 5 0 1
-11 -8 -25 -20 -30 -20 -36 -1 -29 8 4 15 14 15 23 0 9 5 23 11 31 9 12 10 11
6 -8 -3 -13 -1 -20 5 -16 5 3 8 15 5 25 -3 11 -1 19 4 19 10 0 6 92 -6 145
-15 66 -47 155 -56 155 -5 0 -9 12 -9 27 0 14 -3 23 -7 20 -3 -4 -12 5 -20 19
-17 33 -16 37 2 31 8 -4 17 -2 20 3 3 4 17 7 31 5 22 -2 25 1 20 21 -5 18 -3
22 9 18 11 -5 13 -2 9 10 -4 11 -2 16 7 14 8 -2 15 7 17 20 4 24 -14 28 -53
13z m-28 -73 c-3 -8 -6 -5 -6 6 -1 11 2 17 5 13 3 -3 4 -12 1 -19z"/>
<path d="M1830 4201 c0 -5 5 -13 10 -16 6 -3 10 -2 10 4 0 5 -4 13 -10 16 -5
3 -10 2 -10 -4z"/>
<path d="M1225 4190 c-3 -5 -2 -10 4 -10 5 0 12 -12 14 -27 3 -20 4 -17 4 10
-1 36 -10 47 -22 27z"/>
<path d="M2100 4180 c0 -11 2 -20 4 -20 2 0 6 9 9 20 3 11 1 20 -4 20 -5 0 -9
-9 -9 -20z"/>
<path d="M1151 4173 c0 -6 -4 -20 -7 -30 -5 -14 -4 -15 5 -7 7 7 11 20 8 30
-3 11 -5 14 -6 7z"/>
<path d="M2026 4168 c3 -5 10 -6 15 -3 13 9 11 12 -6 12 -8 0 -12 -4 -9 -9z"/>
<path d="M2130 4171 c0 -6 4 -13 10 -16 6 -3 7 1 4 9 -7 18 -14 21 -14 7z"/>
<path d="M1765 4149 c-10 -15 4 -79 16 -79 6 0 7 9 3 23 -5 12 -8 32 -9 45 0
25 -1 26 -10 11z"/>
<path d="M1606 4135 c-11 -8 -17 -18 -13 -21 10 -11 37 4 37 21 0 18 0 18 -24
0z"/>
<path d="M1806 4135 c-2 -6 2 -12 10 -12 7 0 15 6 18 12 2 6 -2 12 -10 12 -7
0 -15 -6 -18 -12z"/>
<path d="M1560 4126 c0 -8 5 -18 10 -21 6 -3 10 3 10 14 0 12 -4 21 -10 21 -5
0 -10 -6 -10 -14z"/>
<path d="M1919 4120 c-4 -8 -3 -23 0 -33 7 -18 8 -18 21 -1 8 10 10 15 3 11
-7 -5 -13 1 -15 15 -2 17 -5 19 -9 8z"/>
<path d="M2038 4108 c-4 -10 -1 -19 9 -23 13 -4 14 -8 5 -17 -17 -17 -15 -33
3 -18 17 14 20 40 6 40 -5 0 -11 8 -13 18 -3 15 -4 16 -10 0z"/>
<path d="M1843 4074 c0 -17 2 -22 7 -13 5 6 6 18 3 26 -8 19 -10 16 -10 -13z"/>
<path d="M1247 4083 c-4 -3 -7 -18 -6 -32 1 -26 1 -25 10 3 9 31 7 41 -4 29z"/>
<path d="M1927 4043 c-4 -3 -7 -11 -7 -17 0 -6 5 -4 10 4 8 13 10 13 10 -2 0
-9 4 -19 9 -22 4 -3 6 6 3 19 -4 25 -13 31 -25 18z"/>
<path d="M1880 4012 c0 -11 4 -23 9 -27 6 -3 8 4 6 16 -6 30 -15 37 -15 11z"/>
<path d="M2042 4014 c4 -21 22 -23 26 -1 2 10 -3 17 -13 17 -10 0 -15 -6 -13
-16z"/>
<path d="M1251 4004 c0 -11 3 -14 6 -6 3 7 2 16 -1 19 -3 4 -6 -2 -5 -13z"/>
<path d="M1237 3903 c-10 -9 -9 -63 1 -63 4 0 8 16 8 35 0 38 0 38 -9 28z"/>
<path d="M1111 3839 c1 -8 1 -22 0 -33 -1 -16 -3 -16 -21 5 -17 21 -19 22 -20
6 0 -10 5 -15 10 -12 10 6 15 -13 12 -48 -1 -10 2 -16 7 -13 5 4 11 0 14 -6 2
-7 5 -2 5 12 0 14 3 39 6 57 4 19 3 34 -4 38 -6 4 -11 1 -9 -6z"/>
<path d="M877 3833 c-4 -3 -2 -12 4 -19 6 -7 9 -23 6 -36 -4 -21 -4 -21 -6 3
-2 41 -28 44 -46 6 -9 -18 -13 -24 -10 -14 7 26 -3 20 -19 -11 -8 -16 -12 -39
-9 -52 7 -28 58 -80 76 -79 9 0 9 2 0 6 -15 5 -18 43 -4 43 5 0 12 -13 16 -29
7 -34 30 -33 32 2 2 15 0 18 -6 8 -7 -10 -10 -10 -16 -1 -4 7 -2 16 5 20 7 4
10 12 6 18 -3 6 -2 14 4 17 6 4 9 3 8 -2 -1 -4 2 -19 6 -33 l9 -25 9 24 c6 17
4 31 -7 47 -14 21 -11 59 4 50 4 -3 7 4 7 14 0 10 -4 16 -8 14 -4 -3 -8 2 -8
11 0 11 -5 15 -16 11 -8 -3 -12 -2 -9 4 7 11 -18 14 -28 3z m13 -123 c-8 -33
-11 -33 -14 0 -1 13 15 41 21 36 1 0 -2 -17 -7 -36z m-45 -10 c-11 -18 -22
-11 -19 13 4 33 4 33 15 14 5 -9 7 -22 4 -27z"/>
<path d="M1179 3822 c6 -12 10 -26 7 -31 -3 -4 1 -8 8 -8 17 0 9 32 -12 49
-13 12 -14 10 -3 -10z"/>
<path d="M1229 3813 c-13 -16 -12 -17 4 -4 9 7 17 15 17 17 0 8 -8 3 -21 -13z"/>
<path d="M1050 3800 c-1 -3 -3 -12 -6 -20 -16 -60 -16 -72 -3 -68 8 3 14 11
15 19 3 37 7 42 14 19 7 -22 8 -22 9 -4 1 17 -26 68 -29 54z"/>
<path d="M1250 3790 c0 -5 5 -10 11 -10 5 0 7 5 4 10 -3 6 -8 10 -11 10 -2 0
-4 -4 -4 -10z"/>
<path d="M1160 3771 c0 -6 4 -13 10 -16 6 -3 7 1 4 9 -7 18 -14 21 -14 7z"/>
<path d="M1215 3748 c5 -27 -4 -31 -35 -14 -8 4 -4 -2 10 -14 23 -21 25 -21
37 -3 7 10 17 24 23 31 7 7 7 12 1 12 -5 0 -13 -5 -17 -12 -5 -8 -10 -6 -16 8
-6 15 -7 13 -3 -8z"/>
<path d="M943 3739 c9 -6 15 -14 12 -20 -4 -5 -1 -9 4 -9 6 0 11 9 11 20 0 14
-7 20 -22 20 -21 -1 -21 -2 -5 -11z"/>
<path d="M1134 3725 c-4 -8 -10 -12 -15 -9 -5 3 -9 -1 -9 -9 0 -8 -9 -17 -20
-20 -11 -3 -18 -1 -15 3 3 5 1 11 -5 15 -16 10 -11 -32 6 -49 21 -22 26 -20
19 7 l-6 22 13 -22 c13 -21 14 -21 24 -5 14 22 28 82 19 82 -3 0 -8 -7 -11
-15z"/>
<path d="M1087 3723 c-4 -3 -7 -11 -7 -17 0 -6 5 -5 12 2 6 6 9 14 7 17 -3 3
-9 2 -12 -2z"/>
<path d="M1217 3693 c-11 -10 -8 -53 4 -53 6 0 8 10 5 23 -3 12 -3 16 0 9 8
-17 24 -5 17 13 -6 16 -16 19 -26 8z"/>
<path d="M4196 3594 c-9 -22 3 -32 14 -14 12 19 12 30 1 30 -5 0 -12 -7 -15
-16z"/>
<path d="M4142 3591 c-5 -3 -12 -30 -16 -60 -6 -48 -5 -53 10 -47 14 5 15 4 5
-8 -8 -10 -9 -16 -1 -21 5 -3 10 0 11 7 0 7 4 4 9 -7 7 -16 9 -13 9 17 1 20 5
39 10 42 12 8 21 46 11 46 -5 0 -11 -8 -14 -17 -3 -10 -3 -2 0 18 4 35 -9 46
-34 30z m10 -50 c2 -17 1 -28 -4 -25 -8 5 -12 54 -4 54 2 0 6 -13 8 -29z"/>
<path d="M4112 3565 c0 -16 2 -22 5 -12 2 9 2 23 0 30 -3 6 -5 -1 -5 -18z"/>
<path d="M3937 3497 c4 -18 3 -19 -6 -7 -13 18 -14 1 -1 -20 10 -17 15 -14 24
16 4 14 2 24 -8 27 -10 4 -12 0 -9 -16z"/>
<path d="M3980 3509 c0 -5 5 -7 10 -4 6 3 10 8 10 11 0 2 -4 4 -10 4 -5 0 -10
-5 -10 -11z"/>
<path d="M3868 3505 c-10 -11 3 -35 18 -35 8 0 14 7 14 16 0 8 -4 13 -9 10 -5
-4 -11 -1 -13 5 -2 5 -6 7 -10 4z"/>
<path d="M4001 3484 c0 -11 3 -14 6 -6 3 7 2 16 -1 19 -3 4 -6 -2 -5 -13z"/>
<path d="M4043 3484 c-2 -7 -3 -23 0 -36 l4 -23 8 23 c4 12 11 22 14 22 4 0 8
6 8 13 0 17 -27 18 -34 1z"/>
<path d="M4095 3471 c1 -17 -2 -31 -7 -31 -5 0 -6 -5 -2 -11 4 -8 12 -2 21 16
13 24 13 29 1 42 -13 12 -15 10 -13 -16z"/>
<path d="M3731 3423 c0 -25 1 -26 9 -8 12 27 12 35 0 35 -5 0 -10 -12 -9 -27z"/>
<path d="M3976 3437 c3 -10 9 -15 12 -12 3 3 0 11 -7 18 -10 9 -11 8 -5 -6z"/>
<path d="M4116 3435 c-3 -8 -1 -15 4 -15 13 0 22 18 11 24 -5 3 -11 -1 -15 -9z"/>
<path d="M3860 3413 c0 -22 2 -25 10 -13 13 20 13 40 0 40 -5 0 -10 -12 -10
-27z"/>
<path d="M3700 3419 c0 -5 5 -7 10 -4 6 3 10 8 10 11 0 2 -4 4 -10 4 -5 0 -10
-5 -10 -11z"/>
<path d="M3820 2885 c0 -8 2 -15 4 -15 2 0 6 7 10 15 3 8 1 15 -4 15 -6 0 -10
-7 -10 -15z"/>
<path d="M3961 2884 c0 -11 3 -14 6 -6 3 7 2 16 -1 19 -3 4 -6 -2 -5 -13z"/>
<path d="M3865 2860 c-3 -5 -1 -10 4 -10 6 0 11 5 11 10 0 6 -2 10 -4 10 -3 0
-8 -4 -11 -10z"/>
<path d="M3921 2854 c0 -11 3 -14 6 -6 3 7 2 16 -1 19 -3 4 -6 -2 -5 -13z"/>
<path d="M3835 2849 c-4 -6 -5 -12 -2 -15 2 -3 7 2 10 11 7 17 1 20 -8 4z"/>
<path d="M3775 2830 c-4 -6 -10 -8 -15 -5 -5 3 -12 1 -15 -5 -4 -6 -3 -10 2
-9 21 4 24 -3 10 -24 -13 -21 -13 -23 3 -23 10 0 16 4 14 8 -8 13 6 49 17 43
5 -4 9 -2 9 4 0 15 -18 23 -25 11z"/>
<path d="M3905 2820 c-3 -5 -4 -14 0 -19 3 -5 1 -12 -5 -16 -5 -3 -10 -14 -10
-23 1 -15 2 -15 11 1 10 18 20 67 13 67 -1 0 -6 -4 -9 -10z"/>
<path d="M3813 2805 c0 -8 4 -12 9 -9 4 3 8 9 8 15 0 5 -4 9 -8 9 -5 0 -9 -7
-9 -15z"/>
<path d="M3916 2763 c-6 -14 -5 -15 5 -6 7 7 10 15 7 18 -3 3 -9 -2 -12 -12z"/>
<path d="M4021 2764 c0 -11 3 -14 6 -6 3 7 2 16 -1 19 -3 4 -6 -2 -5 -13z"/>
<path d="M3858 2628 c-7 -17 17 -46 29 -34 3 3 1 6 -5 6 -6 0 -12 10 -14 23
-3 18 -4 19 -10 5z"/>
</g>
</svg>
