<?xml version="1.0" encoding="UTF-8" standalone="no"?>
<!-- Created with Inkscape (http://www.inkscape.org/) -->

<svg
   width="297mm"
   height="210mm"
   viewBox="0 0 297 210"
   version="1.1"
   id="svg1"
   inkscape:version="1.4.2 (ebf0e940d0, 2025-05-08)"
   sodipodi:docname="set-1.svg"
   xmlns:inkscape="http://www.inkscape.org/namespaces/inkscape"
   xmlns:sodipodi="http://sodipodi.sourceforge.net/DTD/sodipodi-0.dtd"
   xmlns:xlink="http://www.w3.org/1999/xlink"
   xmlns="http://www.w3.org/2000/svg"
   xmlns:svg="http://www.w3.org/2000/svg">
  <sodipodi:namedview
     id="namedview1"
     pagecolor="#ffffff"
     bordercolor="#000000"
     borderopacity="0.25"
     inkscape:showpageshadow="false"
     inkscape:pageopacity="0.0"
     inkscape:pagecheckerboard="0"
     inkscape:deskcolor="#d1d1d1"
     inkscape:document-units="mm"
     inkscape:zoom="0.125"
     inkscape:cx="-704"
     inkscape:cy="-360"
     inkscape:window-width="1378"
     inkscape:window-height="1044"
     inkscape:window-x="0"
     inkscape:window-y="0"
     inkscape:window-maximized="0"
     inkscape:current-layer="layer1">
    <inkscape:page
       x="0"
       y="0"
       width="297"
       height="210"
       id="page1"
       margin="0"
       bleed="0" />
  </sodipodi:namedview>
  <defs
     id="defs1">
    <linearGradient
       id="linearGradient4"
       inkscape:collect="always">
      <stop
         style="stop-color:#73556b;stop-opacity:0.80000001;"
         offset="0"
         id="stop4" />
      <stop
         style="stop-color:#4c6c73;stop-opacity:0.80000001;"
         offset="0.5"
         id="stop6" />
      <stop
         style="stop-color:#4c7357;stop-opacity:0.80000001;"
         offset="1"
         id="stop5" />
    </linearGradient>
    <rect
       x="63.345512"
       y="74.160599"
       width="242.36572"
       height="185.65302"
       id="rect2" />
    <rect
       x="392.52505"
       y="49.928761"
       width="372.82928"
       height="202.35471"
       id="rect3" />
    <rect
       x="63.345512"
       y="74.160599"
       width="313.08881"
       height="224.88014"
       id="rect2-3" />
    <rect
       x="63.345512"
       y="74.160599"
       width="321.11334"
       height="229.46387"
       id="rect2-9" />
    <rect
       x="392.52505"
       y="49.928761"
       width="372.82928"
       height="202.35471"
       id="rect3-7" />
    <rect
       x="63.345512"
       y="74.160599"
       width="273.08234"
       height="226.94212"
       id="rect2-3-7" />
    <rect
       x="63.345512"
       y="74.160599"
       width="313.08881"
       height="224.88014"
       id="rect2-3-2" />
    <rect
       x="63.345512"
       y="74.160599"
       width="287.55536"
       height="198.73756"
       id="rect2-3-26" />
    <rect
       x="63.345512"
       y="74.160599"
       width="293.91931"
       height="210.75838"
       id="rect89" />
    <rect
       x="63.345512"
       y="74.160599"
       width="293.91931"
       height="210.75838"
       id="rect91" />
    <rect
       x="63.345512"
       y="74.160599"
       width="293.91931"
       height="210.75838"
       id="rect93" />
    <rect
       x="63.345512"
       y="74.160599"
       width="258.36572"
       height="174.24025"
       id="rect194" />
    <rect
       x="392.52505"
       y="49.928761"
       width="302.82928"
       height="199.65646"
       id="rect195" />
    <rect
       x="63.345512"
       y="74.160599"
       width="313.08881"
       height="224.88014"
       id="rect196" />
    <rect
       x="63.345512"
       y="74.160599"
       width="321.11334"
       height="229.46387"
       id="rect197" />
    <rect
       x="392.52505"
       y="49.928761"
       width="306.82928"
       height="199.58658"
       id="rect198" />
    <rect
       x="63.345512"
       y="74.160599"
       width="336.74368"
       height="277.88013"
       id="rect199" />
    <rect
       x="63.345512"
       y="74.160599"
       width="295.08881"
       height="225.88014"
       id="rect200" />
    <rect
       x="63.345512"
       y="74.160599"
       width="293.91931"
       height="210.75838"
       id="rect201" />
    <rect
       x="63.345512"
       y="74.160599"
       width="293.91931"
       height="210.75838"
       id="rect205" />
    <rect
       x="63.345512"
       y="74.160599"
       width="293.91931"
       height="210.75838"
       id="rect359" />
    <rect
       x="63.345512"
       y="74.160599"
       width="293.91931"
       height="210.75838"
       id="rect361" />
    <rect
       x="63.345512"
       y="74.160599"
       width="293.91931"
       height="210.75838"
       id="rect363" />
    <rect
       x="63.345512"
       y="74.160599"
       width="293.91931"
       height="210.75838"
       id="rect365" />
    <rect
       x="63.345512"
       y="74.160599"
       width="610.09491"
       height="527.01996"
       id="rect85" />
    <rect
       x="63.345512"
       y="74.160599"
       width="610.09491"
       height="527.01996"
       id="rect1214" />
    <rect
       x="63.345512"
       y="74.160599"
       width="610.09491"
       height="527.01996"
       id="rect1222" />
    <rect
       x="63.345512"
       y="74.160599"
       width="610.09491"
       height="527.01996"
       id="rect1223" />
    <rect
       x="63.345512"
       y="74.160599"
       width="242.36572"
       height="185.65302"
       id="rect2-6" />
    <rect
       x="392.52505"
       y="49.928761"
       width="372.82928"
       height="202.35471"
       id="rect3-73" />
    <rect
       x="63.345512"
       y="74.160599"
       width="313.08881"
       height="224.88014"
       id="rect2-3-6" />
    <rect
       x="63.345512"
       y="74.160599"
       width="321.11334"
       height="229.46387"
       id="rect2-9-5" />
    <rect
       x="392.52505"
       y="49.928761"
       width="372.82928"
       height="202.35471"
       id="rect3-7-6" />
    <rect
       x="63.345512"
       y="74.160599"
       width="273.08234"
       height="226.94212"
       id="rect2-3-7-3" />
    <rect
       x="63.345512"
       y="74.160599"
       width="313.08881"
       height="224.88014"
       id="rect2-3-2-9" />
    <rect
       x="63.345512"
       y="74.160599"
       width="287.55536"
       height="198.73756"
       id="rect2-3-26-4" />
    <rect
       x="63.345512"
       y="74.160599"
       width="258.36572"
       height="174.24025"
       id="rect194-4" />
    <rect
       x="392.52505"
       y="49.928761"
       width="302.82928"
       height="199.65646"
       id="rect195-4" />
    <rect
       x="63.345512"
       y="74.160599"
       width="313.08881"
       height="224.88014"
       id="rect196-4" />
    <rect
       x="63.345512"
       y="74.160599"
       width="321.11334"
       height="229.46387"
       id="rect197-4" />
    <rect
       x="392.52505"
       y="49.928761"
       width="274.289"
       height="197.71754"
       id="rect198-7" />
    <rect
       x="63.345512"
       y="74.160599"
       width="336.74368"
       height="277.88013"
       id="rect199-6" />
    <rect
       x="63.345512"
       y="74.160599"
       width="295.08881"
       height="225.88014"
       id="rect200-3" />
    <rect
       x="63.345512"
       y="74.160599"
       width="293.91931"
       height="210.75838"
       id="rect201-1" />
    <clipPath
       clipPathUnits="userSpaceOnUse"
       id="clipPath4">
      <rect
         style="fill:#ffffff;stroke-width:1.12233;stroke-miterlimit:10"
         id="rect5"
         width="471.38046"
         height="666.66663"
         x="-0.0005208333"
         y="2.85679e-05" />
    </clipPath>
    <linearGradient
       inkscape:collect="always"
       xlink:href="#linearGradient4"
       id="linearGradient5"
       x1="85.011765"
       y1="388.36423"
       x2="382.01175"
       y2="598.3642"
       gradientUnits="userSpaceOnUse" />
  </defs>
  <g
     inkscape:label="Layer 1"
     inkscape:groupmode="layer"
     id="layer1"
     transform="translate(-85.011766,-388.36419)">
    <g
       id="g127"
       transform="matrix(0,-0.44550001,-0.44550001,0,382.01177,598.36399)"
       clip-path="url(#clipPath4)">
      <path
         id="path5"
         d="M 7070.7033,5000 V 1.2851853e-4 L -0.00390625,0 v 5000"
         style="fill:#e1e7ea;fill-opacity:1;fill-rule:nonzero;stroke:none"
         transform="matrix(0.13333333,0,0,-0.13333333,0,666.66667)"
         sodipodi:nodetypes="cccc" />
      <path
         id="path6"
         d="M 1378.61,0 H 0.0117188 V 1244.9 C 98.3125,1263 202.113,1243.6 304.813,1166.7 c 11.996,-9 23.597,-18.6 34.8,-28.8 98.996,-89 170.098,-218.002 250.496,-320.502 66.504,-84.898 129.903,-160.5 197.301,-231.296 19.703,-20.704 39.801,-41 60.399,-60.903 C 864.41,509 881.313,493.102 898.715,477.301 924.41,454 951.012,430.898 979.012,408 c 14.398,-11.801 29.098,-23.602 44.198,-35.301 6.6,-5.199 13.3,-10.301 20.1,-15.5 121.2,-92.398 275.8,-208.297 335.3,-357.199"
         style="fill:#e4c4d1;fill-opacity:1;fill-rule:nonzero;stroke:none"
         transform="matrix(0.13333333,0,0,-0.13333333,0,666.66667)" />
      <path
         id="path7"
         d="m 4555.31,4670.4 c -2.7,-98.9 -13.1,-197.1 -33.2,-293.3 -5.6,-27.1 -12.1,-54 -19.3,-80.8 -18.4,-67.5 -42.1,-133.7 -71.8,-198.2 -2.7,-5.7 -5.4,-11.4 -8.1,-17.1 -13.2,-27.5 -27,-54.5 -41.2,-81.1 -39.2,-73.7 -81.8,-144.5 -125.6,-214.4 -95.3,-151.8 -196.6,-298.9 -283,-460.9 -92.9,-174.3 -206.3,-411.4 -416.4,-459.2 -196.6,-44.6 -390.7,-11.3 -578.3,55.4 -188.2,66.9 -323.3,147.4 -469.9,282.5 -16.1,14.8 -31.9,29.7 -47.5,44.5 -116,109.9 -221.9,218.2 -355.8,311.7 -73.7,51.4 -148.8,99 -222.3,147.1 -160.9,104.9 -314.9,211.6 -434.1,364.1 -13.3,17 -26.2,34.6 -38.6,52.9 -16,23.6 -31.2,48.2 -45.6,74 -36.2,65 -63,131.7 -82.2,199.6 -4.4,15.4 -8.4,30.8 -11.9,46.3 -42.2,181 -34,369.6 -8.2,556.5 h 3277.4 c 7.9,-68.8 13.3,-138.2 15.3,-207.7 1.3,-40.6 1.5,-81.3 0.3,-121.9"
         style="fill:#e4c4d1;fill-opacity:1;fill-rule:nonzero;stroke:none"
         transform="matrix(0.13333333,0,0,-0.13333333,0,666.66667)" />
      <path
         id="path8"
         style="fill:#e4c4d1;fill-opacity:1;fill-rule:nonzero;stroke:none"
         d="m 6023.8065,1573.4001 c -216.7,-0.6 -445.7961,-46.1966 -658.3961,-131.6966 -78.5,-31.4 -154.7023,-68.304 -227.2023,-110.504 -49.1,-28.3 -96.3969,-59.0998 -141.5969,-92.1998 -31.8,-23.3 -62.4997,-47.6039 -91.9997,-73.1039 -134,-115.8 -247.5011,-293.49778 -243.2011,-481.89578 0.4,-16.898 1.5973,-33.70096 3.4973,-50.50196 14.7,-131.5 69.1982,-258.60279 70.1982,-392.80179 0.3,-39.597 -26.9953,-135.4966 -54.6953,-240.69559774796 h 2390.296 V 321.58642 c -0.6655,0.43587 -1.3354,0.87788 -2.0009,1.31366 -45.6,29.5 -92.4916,56.99439 -139.4916,82.79539 -13.1,7.199 -25.6003,14.20125 -37.6003,21.20125 -33.4,19.403 -62.9026,38.29933 -88.9026,58.40133 -87,66.898 -134.3001,146.00394 -157.7001,295.50394 -29.6,189.199 11.5948,373.50061 -85.2052,547.70061 -117.6,211.8 -314.3994,245.4975 -535.9994,244.8975 z"
         transform="matrix(0.13333333,0,0,-0.13333333,0,666.66667)" />
      <path
         id="path9"
         d="m 2451.11,3049.53 c 0,-0.1 0,-0.3 -0.1,-0.6 -0.1,0 -0.1,0 -0.2,0 0.1,0.3 0.2,0.5 0.3,0.6"
         style="fill:#567595;fill-opacity:1;fill-rule:nonzero;stroke:none"
         transform="matrix(0.13333333,0,0,-0.13333333,0,666.66667)" />
      <path
         id="path10"
         d="m 2451.01,3043.93 c -0.9,-0.1 -0.2,3.5 0,5 0.8,-0.2 1.7,-0.3 2.5,-0.5 3,-5.1 -11.2,-11.8 -2.5,-4.5"
         style="fill:#567595;fill-opacity:1;fill-rule:nonzero;stroke:none"
         transform="matrix(0.13333333,0,0,-0.13333333,0,666.66667)" />
      <path
         id="path11"
         d="m 6321.51,4840.5 c 4.1,-254 -211.7,-476.9 -334.5,-684.1 -98.6,-166.2 -232.6,-290.9 -409.1,-377.9 -38.5,-19 -78.6,-36.8 -119.9,-53.2 -184.2,-73 -392.1,-117.5 -588.1,-111.2 -25.6,0.7 -51,2.4 -76.1,5 -204.8,21.2 -374.5,80.6 -537.7,166.4 -114.3,60 -225.5,133 -343.3,214.9 -235,163.3 -373.4,348.4 -490.4,603.8 -70.3,153.5 -69.7,283.5 -20.4,395.8 h 2896.1 c 14.1,-56.3 22.6,-111.2 23.4,-159.5"
         style="fill:#b1c9e5;fill-opacity:1;fill-rule:nonzero;stroke:none"
         transform="matrix(0.13333333,0,0,-0.13333333,0,666.66667)" />
      <path
         id="path12"
         d="m 4987.3,2389.68 c 26.96,117.04 -49.2,333.65 -122.01,425.86 -78.56,99.48 -228.13,76.07 -339.04,73.06 -150.6,-4.08 -222.74,-58.2 -289.89,-200.13 -96.26,-203.43 -50.63,-356.18 148.35,-471.69 202.27,-117.42 539.11,-102.63 602.59,172.9"
         style="fill:#a599b1;fill-opacity:1;fill-rule:nonzero;stroke:none"
         transform="matrix(0.13333333,0,0,-0.13333333,0,666.66667)" />
      <path
         id="path13"
         d="m 2451.01,3043.93 c -0.9,-0.1 -0.2,3.5 0,5 0.8,-0.2 1.7,-0.3 2.5,-0.5 3,-5.1 -11.2,-11.8 -2.5,-4.5"
         style="fill:#7fb8dc;fill-opacity:1;fill-rule:nonzero;stroke:none"
         transform="matrix(0.13333333,0,0,-0.13333333,0,666.66667)" />
      <path
         id="path14"
         d="m 5718.41,4128.5 c -67.3,-105.9 -174.7,-178.9 -297.1,-226.6 -172.9,-67.4 -375.7,-84.4 -538.5,-72.6 -9.8,0.7 -19.6,1.6 -29.4,2.5 -171,17.6 -329,78.7 -471.7,168.1 -115.8,72.5 -221.6,163.7 -316.3,265.3 -115.8,124.2 -248.6,277.2 -320,433.6 -37.9,83 -32.9,198.9 4.9,301.2 h 185.9 c -24.2,-39.9 -45.8,-78.8 -54.1,-114.4 -41.4,-177.4 54.4,-309.5 157.9,-439.6 114.4,-143.9 239.2,-265 391,-347.9 73.1,-40.1 152.5,-71.2 240,-91.8 73,-17.2 151.7,-43.5 230.2,-58.4 64.7,-12.5 129.3,-17.2 190.6,-2.7 60.6,14.3 104.1,43.2 168.1,50.1 29.4,3.2 61.4,0.7 92.5,1.4 24.9,0.6 49.2,3.2 71.3,12.3 113.5,46.7 211.7,203.3 275.2,300.8 83.5,128.3 156,254.9 243.9,379.2 63.2,89.4 71.4,201.6 55.9,311 h 111.6 c 15.4,-317.9 -227.1,-612.3 -391.9,-871.5"
         style="fill:#c3dcf7;fill-opacity:1;fill-rule:nonzero;stroke:none"
         transform="matrix(0.13333333,0,0,-0.13333333,0,666.66667)" />
      <path
         id="path15"
         d="m 701.63136,123.22402 c -4.99734,-0.36267 -10.37734,0.16666 -16.06934,1.76 -28.66133,8.02533 -36.748,50.64133 -16.67066,71.88 17.936,18.97066 54.57866,16.77199 65.78266,-6.75867 13.852,-29.092 -2.45733,-64.66533 -33.04266,-66.88133"
         style="fill:#8fa8c6;fill-opacity:1;fill-rule:nonzero;stroke:none;stroke-width:0.133333" />
      <path
         id="path16"
         d="m 5803.81,5000 c -2.8,-66.5 -19,-140 -25.7,-172.8 -20.1,-98.7 -53,-215.6 -121.6,-292 -125.5,-140 -347.7,-259.7 -537.2,-272.1 -175,-11.4 -353.8,-59.2 -523.2,-0.6 -31.4,10.9 -62.8,21.6 -93.3,33.8 -73.4,29.4 -141.3,67.2 -190.1,135.1 -57.4,79.8 -132.9,160.3 -169.4,252.8 -30.2,76.6 -33.3,148.7 -17.2,229.1 4.9,24.6 7.5,55.7 12,86.7 h 67.1 c -3.3,-18.1 -6.5,-36.1 -9.3,-54.1 -16.5,-102.7 -33.5,-227.7 36.1,-314.6 80.1,-100 177.3,-192.2 290.1,-254.2 42.3,-23.4 86.8,-42.5 133.4,-56.2 172.4,-50.6 360,10 535.7,29 96.8,10.5 185.1,83.3 269.7,128.1 82.4,43.6 131.8,92.2 177.1,174.1 49.4,89.5 75.1,209.7 82.8,311.2 0.4,5.8 -0.6,19.5 -1.7,36.7 h 84.7"
         style="fill:#c3dcf7;fill-opacity:1;fill-rule:nonzero;stroke:none"
         transform="matrix(0.13333333,0,0,-0.13333333,0,666.66667)" />
      <path
         id="path17"
         d="m 5499.21,5000 c -13.1,-83.7 -56.3,-181.5 -75.4,-221 -70.6,-145.8 -192.8,-249 -354.5,-283.7 -92.9,-19.9 -219.5,3.1 -305.2,42.6 -69,31.8 -153.8,74.2 -208.8,132.5 -9,9.5 -17.2,19.4 -24.4,29.7 -47.6,68.2 -77.4,148.8 -81.3,232.3 -0.7,14.3 -1.4,40 0,67.6 h 72.3 c -3.8,-73.5 3.1,-145.5 33.1,-207.7 9.1,-18.8 20.3,-36.6 33.9,-53.3 32.8,-40.1 84.7,-63.4 128.8,-88.6 61.9,-35.4 134.1,-68.1 201.6,-90.9 102.9,-34.8 269.4,18.4 351,87.4 60.9,51.5 97.3,136.6 124.8,209.4 17.5,46.5 26.6,94.8 33.7,143.7 h 70.4"
         style="fill:#c3dcf7;fill-opacity:1;fill-rule:nonzero;stroke:none"
         transform="matrix(0.13333333,0,0,-0.13333333,0,666.66667)" />
      <path
         id="path18"
         d="m 5243.01,5000 c -11.2,-29.5 -27.8,-56.6 -42.1,-72.9 -46.8,-53.2 -128.1,-91.2 -199.2,-83.3 -56.8,6.4 -144.1,34.6 -182,80.3 -19.6,23.6 -28.7,49.3 -31.6,75.9 h 80.5 c 4.3,-19.1 13.9,-37.5 31.3,-54.7 38.2,-37.6 106.4,-47.9 156.7,-40.2 62.7,9.6 79.7,43.9 96.9,94.9 h 89.5"
         style="fill:#c3dcf7;fill-opacity:1;fill-rule:nonzero;stroke:none"
         transform="matrix(0.13333333,0,0,-0.13333333,0,666.66667)" />
      <path
         id="path19"
         style="fill:#e4c4d1;fill-opacity:1;fill-rule:nonzero;stroke:none"
         d="m 7070.7066,3072.5474 c -14.2898,-0.7974 -28.5323,-1.944 -42.6983,-3.4451 -276.1,-29.4 -324.097,-249.5997 -391.897,-480.9997 -100.7021,-343.9825 73.8663,-791.7512 434.5953,-894.9941 z"
         transform="matrix(0.13333333,0,0,-0.13333333,0,666.66667)" />
      <path
         id="path20"
         d="m 3722.41,0 h -20.1 c -17.6,53.1016 -34.2,106.602 -47.9,159.699 -3.3,12.602 -6.3,25 -9.2,37.5 -4.1,17.5 -7.9,34.801 -11.6,52.102 -0.6,2.898 -1.3,5.801 -1.9,8.699 -19.9,91.699 -38.6,178.402 -84.1,259.398 -17.8,31.801 -36.5,62.602 -56,92.801 -9.7,15.301 -19.6,30.403 -29.7,45.403 -42.1,62.296 -86.9,122.898 -133.2,185.597 -13.5,18.199 -27,36.5 -40.5,54.903 l -5.6,7.699 c -48.1,65.5 -97.4,132.699 -120.5,209.499 -8.6,28.1 -13.6,57.4 -13.8,88.5 -0.2,32.3 -0.3,65.1 -0.3,98.1 0,16.3 0,32.5 -0.1,48.9 -0.3,152 -2.4,306.5 -22.7,454.8 -1.5,11.1 -3.2,22.2 -4.9,33.2 -7.7,48.9 -17.5,97.1 -30.2,144.1 -1.1,4.4 -2.3,8.7 -3.5,13.1 -5.5,19.7 -10.4,43.7 -15.7,69 -15.3,73.8 -34.3,165.6 -79.1,208.6 -3.8,3.6 -3.9,9.6 -0.1,13.2 3.7,3.7 9.8,3.7 13.6,0.1 49,-47 68.7,-142 84.5,-218.3 5.2,-25 10.1,-48.7 15.5,-67.7 7.4,-26.4 13.9,-53.2 19.6,-80.2 27.2,-128.5 36.9,-263.2 40.3,-398.4 2,-73.7 2,-147.5 2.1,-220.6 v -8.3 c 0,-30.1 0.1,-60 0.3,-89.6 0.7,-110.1 66.7,-200.1 130.7,-287.198 l 5.6,-7.602 c 13.5,-18.398 27,-36.699 40.5,-54.898 16,-21.801 31.9,-43.301 47.6,-64.704 27.5,-37.597 54.3,-75 80.1,-112.898 32.5,-47.898 63.5,-96.699 92.4,-148.199 36.3,-64.5 55.9,-131.801 72.2,-202.102 4.8,-20.597 9.3,-41.398 13.9,-62.5 4.3,-20.097 8.7,-40.199 13.4,-60.5 4,-17.398 8.4,-34.797 13.1,-52.398 13.3,-49.5002 28.9,-99.301 45.3,-148.801"
         style="fill:#a3acb8;fill-opacity:1;fill-rule:nonzero;stroke:none"
         transform="matrix(0.13333333,0,0,-0.13333333,0,666.66667)" />
      <path
         id="path21"
         d="m 3114.6,1943.96 c -13.95,14.64 -22.62,37.69 -36.85,55.27 -30.04,37.08 -70.16,53.86 -97.54,94.21 -48.15,70.97 -97.66,126.6 -111.46,212.96 -13.46,84.24 -1.89,176.17 3.26,260.79 3.21,52.56 -3.84,136.77 23.67,184.05 92.17,-83.41 161.69,-206.05 216.09,-320.57 53.5,-112.6 67.05,-207.87 40.53,-328.76 -11.71,-53.38 -24.5,-106.7 -27.86,-161.68 -2.73,-44.72 20.91,-102.77 -2.09,-142.31 l -7.75,146.04"
         style="fill:#a3acb8;fill-opacity:1;fill-rule:nonzero;stroke:none"
         transform="matrix(0.13333333,0,0,-0.13333333,0,666.66667)" />
      <path
         id="path22"
         d="m 3153.32,1338.86 c -24.32,182.8 67.62,334.21 154.67,484.68 52.55,90.82 123.4,191.19 214.46,249.64 18.69,-96.5 -36.24,-211.95 -68.46,-301.59 -30.66,-85.3 -59.31,-171.9 -112.5,-246.92 -63.3,-89.31 -159.8,-166.6 -188.89,-274.26 -1.69,29.36 11.95,58.37 0.72,88.45"
         style="fill:#a3acb8;fill-opacity:1;fill-rule:nonzero;stroke:none"
         transform="matrix(0.13333333,0,0,-0.13333333,0,666.66667)" />
      <path
         id="path23"
         d="m 3178.6,1084.27 c -30.53,59.14 -74.36,107.33 -119.27,157.27 -70.12,78.01 -126.22,165.99 -198.6,242.33 -102.78,108.37 -134.23,209.7 -145.21,358.9 -4.62,62.81 -18.13,182.51 33.3,231.08 34.02,-23.55 44.35,-79.33 68.01,-112.71 48.22,-68.01 93.08,-134.06 138.92,-203.51 52.03,-78.82 132.86,-160.93 164.83,-248.54 39.04,-106.92 23.19,-221.72 33.44,-331.74 l 24.58,-93.08"
         style="fill:#a3acb8;fill-opacity:1;fill-rule:nonzero;stroke:none"
         transform="matrix(0.13333333,0,0,-0.13333333,0,666.66667)" />
      <path
         id="path24"
         d="m 3409.46,741.961 c -25.81,70.711 -60.67,139.598 -55.87,216.809 7.66,123.14 79.86,240.59 151.58,338.76 52.1,71.33 120.57,129.94 193.25,180.46 64.2,44.63 126.52,138.03 197.51,164.29 33.99,-201.15 -12.07,-534.17 -168.32,-683.26 -84.18,-80.321 -258.48,-168.25 -256.37,-302.981 -15.41,21.512 -36.46,32.801 -61.78,85.922"
         style="fill:#a3acb8;fill-opacity:1;fill-rule:nonzero;stroke:none"
         transform="matrix(0.13333333,0,0,-0.13333333,0,666.66667)" />
      <path
         id="path25"
         d="m 3437.08,673.52 c -59.32,43.031 -90.36,114.039 -153.91,152.371 -111.27,67.121 -270.79,87.16 -397.27,112.179 -115.41,22.828 -223.07,52.621 -337.09,80.44 140.75,-177.131 238.29,-351.498 491.82,-381.19 99.78,-11.691 206,-22.398 306.49,-26.621 53.92,-2.258 113.32,11.27 163.47,-5.25 -25.38,40.731 -83.47,72.91 -73.51,68.071"
         style="fill:#a3acb8;fill-opacity:1;fill-rule:nonzero;stroke:none"
         transform="matrix(0.13333333,0,0,-0.13333333,0,666.66667)" />
      <path
         id="path26"
         d="m 3643.23,266.23 c -8.87,7.559 -6.73,26.809 -6.92,37.489 -0.69,38.691 6.26,77.172 22.87,112.332 42.93,90.941 119.18,158.898 192.42,226.969 67.43,62.66 144.07,112.609 217.14,168.41 31.81,24.3 61.04,50.742 85.27,82.281 12.07,15.699 23.27,36.16 38.16,49.07 3.81,-35.672 -5.79,-80.019 -10.41,-115.222 -9.92,-75.438 -21.37,-151.379 -41.4,-224.907 -20.62,-75.722 -69.33,-139.8 -137.28,-181.281 -81.51,-49.769 -172.86,-84.301 -250.87,-139.57 -41.46,-29.371 -61.95,-65.242 -70.62,-112.961 -2.34,-12.879 -2.98,-18.961 -8.95,-29.66 -0.09,-1.188 -0.02,-1.168 0.23,0.031 -20.79,38.621 -19.34,96.551 -29.64,127.019"
         style="fill:#a3acb8;fill-opacity:1;fill-rule:nonzero;stroke:none"
         transform="matrix(0.13333333,0,0,-0.13333333,0,666.66667)" />
      <path
         id="path27"
         d="m 3649.41,189.539 c -6.2,14.891 -4.43,31.762 -10.08,47.152 -9.99,27.231 -32.11,48.84 -56.51,64.418 -38.64,24.68 -84.68,36.602 -126.82,54.082 -35.7,14.809 -70.48,31.36 -104.44,49.661 -39.08,21.078 -75.89,43.718 -103.59,78.48 -5.78,7.25 -20.99,35.57 -33.79,35.258 -30.46,-0.711 -21.65,-100.488 -19.8,-114.488 19.69,-149.582 191.98,-190.954 321.23,-214.043 41.09,-7.348 111.27,-4.809 142.46,-33.43 -1.23,1.793 -0.96,3.191 -1.67,5.051 l -6.99,27.859"
         style="fill:#a3acb8;fill-opacity:1;fill-rule:nonzero;stroke:none"
         transform="matrix(0.13333333,0,0,-0.13333333,0,666.66667)" />
      <path
         id="path28"
         d="m 1817.01,5000 h 87 c -20.1,-75.8 -45.5,-151.2 -76,-226.4 -96.9,-238.7 -225.3,-479.1 -379.2,-702.9 -183,-266.3 -401.8,-509.1 -645.798,-697.8 C 623.313,3234 299.012,3033.3 0.0117188,2945.5 v 130.4 C 303.41,3113.8 613.012,3293.4 840.613,3472.5 c 191.597,150.8 390.597,371 525.597,581.2 14.9,23.3 29.7,46.5 44,69.9 131.7,212.1 244,428.5 338.1,663.1 27.4,68.3 50,139.7 68.7,213.3"
         style="fill:#9598a7;fill-opacity:1;fill-rule:nonzero;stroke:none"
         transform="matrix(0.13333333,0,0,-0.13333333,0,666.66667)" />
      <path
         id="path29"
         d="m 1572.11,5000 c -15.1,-68.6 -43.5,-139.9 -56.8,-188.4 -44.2,-161.4 -128.7,-293.5 -232.9,-414.4 -58.1,-67.4 -122.3,-131.2 -189.1,-194.6 C 864.91,3985.7 569.012,3796.6 252.809,3750.4 175.813,3739.2 89.2109,3733.3 0.0117188,3734.6 V 3848 c 31.4999812,-2.1 64.2968812,-1.5 98.4999812,2.1 109.0003,11.4 217.9023,26.5 323.0003,58.4 103.797,31.5 217.797,73.6 315.199,121.1 105.801,51.6 190.898,136.2 283.899,206.1 81.1,60.9 174,128.8 249.9,207.8 43.1,45 80.7,93.5 107.5,146.5 35.4,70.1 64.9,147.1 88.9,221.5 13.8,42.6 20.1,119.3 34.5,188.5 h 70.7"
         style="fill:#9598a7;fill-opacity:1;fill-rule:nonzero;stroke:none"
         transform="matrix(0.13333333,0,0,-0.13333333,0,666.66667)" />
      <path
         id="path30"
         d="m 3201.46,3434.18 c -35.5,-59.11 -22.33,-137.16 48.72,-167.02 73.81,-31.02 128.84,55.76 119.76,121.68 -10.89,79.09 -135.1,129.31 -168.48,45.34"
         style="fill:#a3acb8;fill-opacity:1;fill-rule:nonzero;stroke:none"
         transform="matrix(0.13333333,0,0,-0.13333333,0,666.66667)" />
      <path
         id="path31"
         d="m 3198.96,4058.86 c -19.75,-28.7 -42.09,-115.07 12.38,-117.82 36.55,-1.85 58.01,41.53 56.54,71.71 -1.26,25.99 -37.74,82.28 -68.92,46.11"
         style="fill:#a3acb8;fill-opacity:1;fill-rule:nonzero;stroke:none"
         transform="matrix(0.13333333,0,0,-0.13333333,0,666.66667)" />
      <path
         id="path32"
         d="m 3184.02,3627.13 c -2.07,45.23 -62.14,61.51 -79.3,17.61 -10.64,-27.22 3.13,-72.67 36.83,-74.08 28.13,-1.16 43.62,31.28 42.47,56.47"
         style="fill:#a3acb8;fill-opacity:1;fill-rule:nonzero;stroke:none"
         transform="matrix(0.13333333,0,0,-0.13333333,0,666.66667)" />
      <path
         id="path33"
         d="m 3169.28,3237.38 c -1.32,15.26 -22.8,41.32 -38.8,42.69 -17.96,1.53 -28.66,-17.06 -34.51,-33.09 -10.67,-29.27 -0.35,-77.22 39.78,-68.07 20.97,4.78 35.27,38.41 33.53,58.47"
         style="fill:#a3acb8;fill-opacity:1;fill-rule:nonzero;stroke:none"
         transform="matrix(0.13333333,0,0,-0.13333333,0,666.66667)" />
      <path
         id="path34"
         d="m 3697.02,3350.3 c -10.79,-16 -15.81,-38.82 -12.31,-53.6 4.85,-20.48 19.75,-38.16 41.66,-40.31 32.61,-3.19 57.26,26.43 53.5,57.46 -2.62,21.7 -34.58,59.45 -59.22,54.42 -9.42,-1.93 -17.47,-8.84 -23.63,-17.97"
         style="fill:#a3acb8;fill-opacity:1;fill-rule:nonzero;stroke:none"
         transform="matrix(0.13333333,0,0,-0.13333333,0,666.66667)" />
      <path
         id="path35"
         d="m 2982.92,3404.11 c 15.7,65.75 -80.93,68.07 -65.91,7.02 9.34,-37.96 55.23,-51.76 65.91,-7.02"
         style="fill:#a3acb8;fill-opacity:1;fill-rule:nonzero;stroke:none"
         transform="matrix(0.13333333,0,0,-0.13333333,0,666.66667)" />
      <path
         id="path36"
         d="m 4003.69,3581.02 c 53.84,56.43 -53.17,118.56 -70.91,52.5 -12.51,-46.57 30.99,-94.36 70.91,-52.5"
         style="fill:#a3acb8;fill-opacity:1;fill-rule:nonzero;stroke:none"
         transform="matrix(0.13333333,0,0,-0.13333333,0,666.66667)" />
      <path
         id="path37"
         d="m 814.19373,493.23295 c -18.81531,11.45976 -26.29574,52.44815 2.97017,56.47419 19.93442,2.74339 32.64439,-11.00587 33.66406,-27.79644 0.92448,-15.22359 -11.43854,-35.09007 -36.63423,-28.67775"
         style="fill:#8fa8c6;fill-opacity:1;fill-rule:nonzero;stroke:none;stroke-width:0.19998" />
      <path
         id="path38"
         d="m 6227.39,761.621 c -30.2,10.328 -61.34,-30.59 -75.26,-51.5 -30.77,-46.199 -16.32,-85.379 17.37,-126.59 48.62,-59.449 119.69,-31.191 146.36,31.258 19.39,45.41 21.27,98.883 -25.86,124.152 -13.92,7.461 -35.95,20.098 -62.61,22.68"
         style="fill:#a3acb8;fill-opacity:1;fill-rule:nonzero;stroke:none"
         transform="matrix(0.13333333,0,0,-0.13333333,0,666.66667)" />
      <path
         id="path39"
         d="m 784.94686,465.23197 c -4.19505,-1.45185 -8.52126,4.29504 -10.45695,7.23087 -4.27333,6.48795 -2.26783,11.98908 2.41591,17.77189 6.75269,8.34623 16.62576,4.38012 20.33213,-4.38767 2.69304,-6.37452 2.95325,-13.88329 -3.59213,-17.43162 -1.93569,-1.0454 -4.99471,-2.8224 -8.69896,-3.18347"
         style="fill:#8fa8c6;fill-opacity:1;fill-rule:nonzero;stroke:none;stroke-width:0.19998" />
      <path
         id="path40"
         d="m 5800.57,756.609 c -17.68,-29.461 -35.55,-66.32 -19.62,-100.617 12.8,-27.551 55.8,-58.082 87.46,-53.203 51.55,7.961 80.05,85.66 59.04,127.941 -14.4,28.989 -98.12,72.68 -126.88,25.879"
         style="fill:#a3acb8;fill-opacity:1;fill-rule:nonzero;stroke:none"
         transform="matrix(0.13333333,0,0,-0.13333333,0,666.66667)" />
      <path
         id="path41"
         d="m 5856.52,951.871 c 3.55,19.461 -10.74,58.669 -34.09,60.379 -13.08,0.95 -23.74,-14.102 -30.55,-23.551 -9.38,-13.039 -9.74,-27.988 -8.59,-43.5 1.42,-19.269 9.94,-38.379 31.93,-38.621 22.95,-0.246 37.84,26.344 41.3,45.293"
         style="fill:#a3acb8;fill-opacity:1;fill-rule:nonzero;stroke:none"
         transform="matrix(0.13333333,0,0,-0.13333333,0,666.66667)" />
      <path
         id="path42"
         d="m 6242.57,1027.63 c -26.97,-23.22 -47.89,-70.829 -2.87,-85.7 28.24,-9.321 57.59,7.3 61.29,37.468 3.31,26.902 -23.7,64.282 -58.42,48.232"
         style="fill:#a3acb8;fill-opacity:1;fill-rule:nonzero;stroke:none"
         transform="matrix(0.13333333,0,0,-0.13333333,0,666.66667)" />
      <path
         id="path43"
         d="m 6050.25,507.961 c -17.41,-19.332 -13.58,-70.191 19.03,-69 20.99,0.769 29.13,21.559 29.11,39.891 -0.02,18.058 -10.12,31.136 -28.05,33.5 -8.68,1.14 -15.94,2.25 -20.09,-4.391"
         style="fill:#a3acb8;fill-opacity:1;fill-rule:nonzero;stroke:none"
         transform="matrix(0.13333333,0,0,-0.13333333,0,666.66667)" />
      <path
         id="path44"
         d="m 867.57854,480.90927 c -3.68098,3.65041 -2.87286,13.267 4.02581,13.04204 4.44045,-0.14556 6.16247,-4.07387 6.15824,-7.53902 -0.004,-3.41599 -2.13878,-5.88867 -5.934,-6.33481 -1.83626,-0.21551 -3.37211,-0.42346 -4.25005,0.83179"
         style="fill:#8fa8c6;fill-opacity:1;fill-rule:nonzero;stroke:none;stroke-width:0.19998" />
      <path
         id="path45"
         d="m 5719.11,797.898 c 5.44,39.293 -57.43,26.051 -42.04,-4.566 9.72,-19.363 38.88,-18.211 42.04,4.566"
         style="fill:#a3acb8;fill-opacity:1;fill-rule:nonzero;stroke:none"
         transform="matrix(0.13333333,0,0,-0.13333333,0,666.66667)" />
      <path
         id="path46"
         d="m 6409.03,965.891 c -4.93,40.039 -60.31,19.711 -47.89,-13.161 4.21,-11.14 14.54,-19.878 26.97,-17.941 14,2.18 22.61,17.359 20.92,31.102"
         style="fill:#a3acb8;fill-opacity:1;fill-rule:nonzero;stroke:none"
         transform="matrix(0.13333333,0,0,-0.13333333,0,666.66667)" />
      <path
         id="path47"
         d="m 6378.48,575.539 c -6.18,-2.34 -11.65,-7.988 -15.41,-18.07 -8.39,-22.508 -5.71,-68.899 25.2,-72.77 19.59,-2.457 36.44,25.86 38.19,42.332 2.69,25.489 -26.8,56.5 -47.98,48.508"
         style="fill:#a3acb8;fill-opacity:1;fill-rule:nonzero;stroke:none"
         transform="matrix(0.13333333,0,0,-0.13333333,0,666.66667)" />
      <path
         id="path48"
         d="m 6027.53,823.641 c -9.1,-3.43 -17.16,-11.75 -22.68,-26.59 -12.35,-33.121 -8.4,-101.403 37.09,-107.102 28.82,-3.609 53.63,38.063 56.19,62.313 3.97,37.519 -39.44,83.136 -70.6,71.379"
         style="fill:#a3acb8;fill-opacity:1;fill-rule:nonzero;stroke:none"
         transform="matrix(0.13333333,0,0,-0.13333333,0,666.66667)" />
      <path
         id="path49"
         d="m 5675.59,1158.94 c -5.23,-6.77 -7.09,-15.47 -1.66,-23.95 13.77,-21.53 44.71,-7.43 43.54,15.74 -1.46,28.79 -30.14,23.38 -41.88,8.21"
         style="fill:#a3acb8;fill-opacity:1;fill-rule:nonzero;stroke:none"
         transform="matrix(0.13333333,0,0,-0.13333333,0,666.66667)" />
      <path
         id="path50"
         d="m 6457.14,736.648 c -5.23,-6.769 -7.09,-15.468 -1.67,-23.937 13.77,-21.539 44.72,-7.441 43.54,15.738 -1.45,28.793 -30.15,23.383 -41.87,8.199"
         style="fill:#a3acb8;fill-opacity:1;fill-rule:nonzero;stroke:none"
         transform="matrix(0.13333333,0,0,-0.13333333,0,666.66667)" />
      <path
         id="path51"
         d="m 5849.03,429.191 c -4.01,-5.32 -5.43,-12.171 -1.28,-18.832 10.54,-16.929 34.24,-5.839 33.35,12.371 -1.12,22.649 -23.09,18.391 -32.07,6.461"
         style="fill:#a3acb8;fill-opacity:1;fill-rule:nonzero;stroke:none"
         transform="matrix(0.13333333,0,0,-0.13333333,0,666.66667)" />
      <path
         id="path52"
         d="m 4631.99,1249.05 c -292.76,-99.25 -199.4,-558.62 65.17,-626.03 255.63,-65.141 452.78,123.359 422.51,380.63 -28.95,245.96 -255.56,377.55 -487.68,245.4"
         style="fill:#8fa8c6;fill-opacity:1;fill-rule:nonzero;stroke:none"
         transform="matrix(0.13333333,0,0,-0.13333333,0,666.66667)" />
      <path
         id="path53"
         d="m 5190.02,1505.3 c -133.86,-71.11 -42.2,-301.58 103.12,-248.22 68.63,25.2 102.73,95.24 81.04,163.49 -23.28,73.24 -123.82,150.47 -184.16,84.73"
         style="fill:#8fa8c6;fill-opacity:1;fill-rule:nonzero;stroke:none"
         transform="matrix(0.13333333,0,0,-0.13333333,0,666.66667)" />
      <path
         id="path54"
         d="m 1108.91,2555.72 c -25.46,-3.68 -52.81,-9.73 -83.32,-18.32 -230.067,-64.77 -484.082,-227.04 -495.031,-491.11 -8.379,-202.09 143.457,-366.08 232.148,-532.91 125.035,-235.19 250.823,-475.97 522.573,-553.329 311.66,-88.719 693.94,66.259 812.05,375.369 67.5,176.66 115.1,445.64 79.84,635.08 -33.4,179.47 -177.37,277.29 -326.2,360.27 -152.92,85.26 -321.74,117.23 -482.59,180.9 -100.97,39.97 -168.04,57.27 -259.47,44.05"
         style="fill:#7280a6;fill-opacity:1;fill-rule:nonzero;stroke:none"
         transform="matrix(0.13333333,0,0,-0.13333333,0,666.66667)" />
      <path
         id="path55"
         d="m 1717.48,1060.84 c -20.5,-17.01 -52.27,-11.3 -77.01,-11.19 -58.6,0.23 -119.18,-4.59 -177.58,0.46 -88.85,7.68 -190.14,42.15 -261.77,96.53 -128.01,97.21 -206.679,248.48 -309.593,369.27 -103.332,121.28 -184.367,252.57 -188.007,418.17 -2.379,108.06 27.91,228.83 87.609,320 46.851,71.54 106.953,100.4 188.789,118.8 92.812,20.86 193.132,41.9 288.132,28.56 66.11,-9.28 129.33,-32.67 193.92,-48.74 79.59,-19.81 156.36,-36.54 231.51,-68.88 90.63,-39.01 161.92,-72.36 218.84,-158.2 56.5,-85.22 84.76,-203.3 117.48,-300.15 46.51,-137.69 103.77,-324.41 25.65,-461.46 -31.39,-55.07 -70.04,-124.12 -121.15,-161.06 -29.31,-21.19 -55.66,-37.63 -82.27,-62.5 -34.6,39.51 59.69,93.11 82.39,116.26 41.38,42.18 76.58,99.59 93.39,157.25 11.77,40.41 6.29,79.64 2.65,120.07 -6.36,70.48 -8.61,136.45 -27.11,205.62 -32.18,120.26 -59.31,248.27 -132.67,350.86 -87.09,121.78 -219.42,172.34 -360.05,203.51 -127.44,28.25 -264.25,77.36 -395.57,67.16 -166.931,-12.97 -284.244,-82.95 -337.275,-248.13 -39.164,-122.01 -45.035,-266.73 26.953,-376.29 92.282,-140.46 219.242,-249.11 291.362,-402.38 66.88,-142.12 208.02,-213.61 361.68,-198.34 66.77,6.64 230.41,-37.7 270.91,36.91 l -11.21,-112.11"
         style="fill:#94a0c2;fill-opacity:1;fill-rule:nonzero;stroke:none"
         transform="matrix(0.13333333,0,0,-0.13333333,0,666.66667)" />
      <path
         id="path56"
         d="m 1724.95,1251.43 c -54.96,-21.26 -106.33,-26.46 -163.88,-8.5 -54.68,17.05 -106.49,15.62 -162.77,27.02 -55.21,11.17 -115.95,26.92 -162.13,60.9 -36.98,27.21 -54.61,67.58 -82.77,102.75 -29.91,37.36 -51.81,80.33 -82.86,116.49 -32.53,37.91 -71.63,69.68 -99.501,111.45 -52.203,78.25 -63.84,189.51 -57.902,281.96 19.621,305.4 469.933,329.3 669.903,192.69 107.64,-73.53 216.44,-172.98 275.76,-291.29 66.13,-131.88 69.22,-287.47 23.82,-425.49 -6.12,-18.62 -46.17,-114.46 -64.5,-59.99 -6.89,20.49 29.2,89.54 32.95,116.22 6.38,45.39 10.96,92.67 4.74,138.2 -14.73,107.88 -39.94,234.99 -107.33,323.34 -57.33,75.15 -153.08,140.02 -237.34,181.28 -144.96,70.97 -357.2,66.05 -494.72,-24.38 -57.127,-37.56 -71.076,-127.62 -75.389,-192.25 -6.39,-95.77 28.922,-153.95 99.139,-216.02 84.66,-74.82 99.86,-179.62 171.91,-259.88 61.51,-68.54 120.91,-78.82 205.52,-99.97 68.56,-17.14 133.95,-40.48 205.43,-40.06 37.11,0.21 133.68,-6.74 150.5,29.05 l -48.58,-63.52"
         style="fill:#94a0c2;fill-opacity:1;fill-rule:nonzero;stroke:none"
         transform="matrix(0.13333333,0,0,-0.13333333,0,666.66667)" />
      <path
         id="path58"
         d="m 249.51466,473.34134 c -43.008,12.55067 -50.49067,85.42267 4.088,84.292 22.68933,-0.46933 50.204,-20.32813 50.04933,-44.648 -0.11866,-18.5 -33.90533,-57.104 -54.13733,-39.644"
         style="fill:#8fb5b2;fill-opacity:1;fill-rule:nonzero;stroke:none;stroke-width:0.133333" />
      <path
         id="path59"
         d="m 239.879,4586.67 c -26.024,-15.31 -42.172,-44.15 -9.969,-68.46 30.613,-23.1 72.594,-8.29 79.238,29.76 9.766,55.88 -37.23,57.54 -69.269,38.7"
         style="fill:#567595;fill-opacity:1;fill-rule:nonzero;stroke:none"
         transform="matrix(0.13333333,0,0,-0.13333333,0,666.66667)" />
      <path
         id="path60"
         d="m 440.191,4732.92 c -47.816,-12.74 4.004,-102.41 40.559,-56.44 23.27,29.26 1.387,68 -40.559,56.44"
         style="fill:#567595;fill-opacity:1;fill-rule:nonzero;stroke:none"
         transform="matrix(0.13333333,0,0,-0.13333333,0,666.66667)" />
      <path
         id="path61"
         d="m 421.039,4527.48 c -57.066,-2.02 -28.066,-101.31 18.422,-107.8 34.949,-4.88 58.777,29.23 56.082,61.87 -3.992,48.38 -40.512,44.65 -74.504,45.93"
         style="fill:#567595;fill-opacity:1;fill-rule:nonzero;stroke:none"
         transform="matrix(0.13333333,0,0,-0.13333333,0,666.66667)" />
      <path
         id="path62"
         d="m 572.512,4609.3 c -68.125,-29.37 17.718,-147.8 54.988,-67.12 14.754,31.95 -15.211,88.59 -54.988,67.12"
         style="fill:#567595;fill-opacity:1;fill-rule:nonzero;stroke:none"
         transform="matrix(0.13333333,0,0,-0.13333333,0,666.66667)" />
      <path
         id="path63"
         d="m 562.063,4396.89 c -32.25,-11.39 -36.762,-70.85 -6.29,-86.5 21.973,-11.28 44.493,3.77 53.079,24.41 10.722,25.79 -21.5,77.41 -46.789,62.09"
         style="fill:#567595;fill-opacity:1;fill-rule:nonzero;stroke:none"
         transform="matrix(0.13333333,0,0,-0.13333333,0,666.66667)" />
      <path
         id="path64"
         d="m 245.191,4262.84 c -40.793,-38.74 41.207,-89.8 56.516,-29.7 9.453,37.09 -36.426,55.46 -58.254,26.21 l 1.738,3.49"
         style="fill:#567595;fill-opacity:1;fill-rule:nonzero;stroke:none"
         transform="matrix(0.13333333,0,0,-0.13333333,0,666.66667)" />
      <path
         id="path65"
         d="m 789.734,4474.87 c -20.394,-19.37 20.602,-44.91 28.258,-14.85 4.727,18.54 -18.215,27.73 -29.129,13.11 l 0.871,1.74"
         style="fill:#567595;fill-opacity:1;fill-rule:nonzero;stroke:none"
         transform="matrix(0.13333333,0,0,-0.13333333,0,666.66667)" />
      <path
         id="path66"
         d="m 155.531,4737.73 c -20.398,-19.36 20.598,-44.89 28.254,-14.84 4.727,18.55 -18.211,27.73 -29.125,13.11 l 0.871,1.73"
         style="fill:#567595;fill-opacity:1;fill-rule:nonzero;stroke:none"
         transform="matrix(0.13333333,0,0,-0.13333333,0,666.66667)" />
      <path
         id="path67"
         d="m 291.344,4746.6 c -20.399,-19.37 20.601,-44.9 28.258,-14.85 4.722,18.55 -18.211,27.73 -29.129,13.11 l 0.871,1.74"
         style="fill:#567595;fill-opacity:1;fill-rule:nonzero;stroke:none"
         transform="matrix(0.13333333,0,0,-0.13333333,0,666.66667)" />
      <path
         id="path68"
         d="m 360.719,4827.45 c -10.199,-9.68 10.301,-22.45 14.129,-7.42 2.363,9.27 -9.11,13.86 -14.567,6.55 l 0.438,0.87"
         style="fill:#567595;fill-opacity:1;fill-rule:nonzero;stroke:none"
         transform="matrix(0.13333333,0,0,-0.13333333,0,666.66667)" />
      <path
         id="path69"
         d="m 676.277,4100.93 c -10.199,-9.68 10.301,-22.45 14.129,-7.43 2.36,9.28 -9.105,13.87 -14.562,6.56 l 0.433,0.87"
         style="fill:#567595;fill-opacity:1;fill-rule:nonzero;stroke:none"
         transform="matrix(0.13333333,0,0,-0.13333333,0,666.66667)" />
      <path
         id="path70"
         d="m 137.277,4161.33 c -10.195,-9.68 10.305,-22.45 14.133,-7.42 2.363,9.27 -9.109,13.86 -14.566,6.55 l 0.433,0.87"
         style="fill:#567595;fill-opacity:1;fill-rule:nonzero;stroke:none"
         transform="matrix(0.13333333,0,0,-0.13333333,0,666.66667)" />
      <path
         id="path71"
         d="m 1005.06,4719.83 c -10.853,-10.3 10.95,-23.88 15.02,-7.9 2.51,9.86 -9.69,14.75 -15.49,6.97 l 0.47,0.93"
         style="fill:#567595;fill-opacity:1;fill-rule:nonzero;stroke:none"
         transform="matrix(0.13333333,0,0,-0.13333333,0,666.66667)" />
      <path
         id="path72"
         d="m 206.195,4853.06 c -10.195,-9.68 10.301,-22.45 14.129,-7.42 2.364,9.27 -9.105,13.86 -14.566,6.55 l 0.437,0.87"
         style="fill:#567595;fill-opacity:1;fill-rule:nonzero;stroke:none"
         transform="matrix(0.13333333,0,0,-0.13333333,0,666.66667)" />
      <path
         id="path73"
         d="m 541.203,4245.45 c -10.199,-9.68 10.305,-22.44 14.125,-7.42 2.363,9.27 -9.105,13.86 -14.558,6.56 l 0.433,0.86"
         style="fill:#567595;fill-opacity:1;fill-rule:nonzero;stroke:none"
         transform="matrix(0.13333333,0,0,-0.13333333,0,666.66667)" />
      <path
         id="path74"
         d="m 408.852,4346.41 c -53.961,-47.02 40.804,-106.45 58.324,-38.82 8.637,33.37 -39.707,72.96 -58.324,38.82"
         style="fill:#567595;fill-opacity:1;fill-rule:nonzero;stroke:none"
         transform="matrix(0.13333333,0,0,-0.13333333,0,666.66667)" />
      <path
         id="path75"
         d="m 779.918,4613.85 c -0.668,-0.34 -1.336,-0.71 -2,-1.1 -21.816,-13.05 -23.508,-46.45 -5.355,-62.76 17.902,-16.09 47.238,-6.22 57.308,15.23 13.981,29.78 -21.367,63.23 -49.953,48.63"
         style="fill:#567595;fill-opacity:1;fill-rule:nonzero;stroke:none"
         transform="matrix(0.13333333,0,0,-0.13333333,0,666.66667)" />
      <path
         id="path76"
         d="m 606.414,4777.82 c -9.156,-6.14 -14.906,-17.38 -12.613,-34.46 2.242,-16.65 10.836,-37.91 30.156,-40 16.563,-1.8 39.41,21.16 42.348,36.91 6.812,36.49 -37.094,52.84 -59.891,37.55"
         style="fill:#567595;fill-opacity:1;fill-rule:nonzero;stroke:none"
         transform="matrix(0.13333333,0,0,-0.13333333,0,666.66667)" />
      <path
         id="path77"
         d="m 697.867,4339.44 c -18.972,-14.67 -19.324,-43.25 -9.015,-64.53 15.574,-32.15 48.05,-18.6 58.839,10.63 10.379,28.09 -30.136,79.37 -49.824,53.9"
         style="fill:#567595;fill-opacity:1;fill-rule:nonzero;stroke:none"
         transform="matrix(0.13333333,0,0,-0.13333333,0,666.66667)" />
      <path
         id="path78"
         d="m 547,4123.36 c 0.75,20.57 -22.363,33.3 -33.547,14.41 -7.441,-12.57 -12.316,-34.04 4.969,-41.29 16.23,-6.79 28.094,13.6 28.578,26.88"
         style="fill:#567595;fill-opacity:1;fill-rule:nonzero;stroke:none"
         transform="matrix(0.13333333,0,0,-0.13333333,0,666.66667)" />
      <path
         id="path79"
         d="m 547,4875.49 c 0.75,20.57 -22.363,33.3 -33.547,14.41 -7.441,-12.57 -12.316,-34.04 4.969,-41.28 16.23,-6.8 28.094,13.6 28.578,26.87"
         style="fill:#567595;fill-opacity:1;fill-rule:nonzero;stroke:none"
         transform="matrix(0.13333333,0,0,-0.13333333,0,666.66667)" />
      <path
         id="path80"
         d="m 340.395,4058.95 c 0.75,20.56 -22.364,33.28 -33.551,14.39 -7.438,-12.56 -12.317,-34.03 4.969,-41.27 16.23,-6.8 28.093,13.59 28.582,26.88"
         style="fill:#567595;fill-opacity:1;fill-rule:nonzero;stroke:none"
         transform="matrix(0.13333333,0,0,-0.13333333,0,666.66667)" />
      <path
         id="path81"
         d="m 143.078,4421.5 c 0.746,20.57 -22.367,33.3 -33.551,14.41 -7.441,-12.57 -12.3122,-34.04 4.969,-41.28 16.234,-6.8 28.094,13.6 28.582,26.87"
         style="fill:#567595;fill-opacity:1;fill-rule:nonzero;stroke:none"
         transform="matrix(0.13333333,0,0,-0.13333333,0,666.66667)" />
      <path
         id="path82"
         d="m 873.355,4754.38 c 0.754,20.56 -22.363,33.29 -33.542,14.4 -7.442,-12.57 -12.321,-34.04 4.964,-41.28 16.231,-6.8 28.098,13.6 28.578,26.88"
         style="fill:#567595;fill-opacity:1;fill-rule:nonzero;stroke:none"
         transform="matrix(0.13333333,0,0,-0.13333333,0,666.66667)" />
      <path
         id="path83"
         d="M 1946.91,0 H 228.41 c 78.301,251 310.102,478.102 559,586.102 115.903,50.398 235.6,74.796 345.1,63.699 109.5,-11.102 203.6,-78.5 300.3,-123.801 119.6,-56.102 246.2,-95.5 338.4,-196.199 83.9,-91.602 132.9,-211 175.7,-329.801"
         style="fill:#a4c5c1;fill-opacity:1;fill-rule:nonzero;stroke:none"
         transform="matrix(0.13333333,0,0,-0.13333333,0,666.66667)" />
      <path
         id="path84"
         d="M 339.613,1137.9 C 332.914,1125.4 325.512,1114 317.313,1104 260.109,1034.4 132.809,1003.4 52.9141,971.5 34.7109,964.199 17.2109,956.898 0.0117188,950.699 V 1769.9 C 87.7109,1766.1 172.809,1754.4 243.914,1694.1 c 61.899,-52.6 115.199,-123.6 133.598,-202.5 21.402,-91.9 14.297,-256.3 -37.899,-353.7"
         style="fill:#a3acb8;fill-opacity:1;fill-rule:nonzero;stroke:none"
         transform="matrix(0.13333333,0,0,-0.13333333,0,666.66667)" />
      <path
         id="path85"
         d="m 5224.61,2431.5 c -41.2,-401.2 -235.7,-511.7 -294.4,-536 -134.8,-55.9 -264.7,3.5 -390.3,60.9 -30.9,14.1 -62.8,28.7 -93.6,41 -34.5,13.6 -71.1,21.8 -106.4,29.7 -64.6,14.5 -125.6,28.2 -173.8,72.2 -77.2,70.5 -123.9,193.4 -140.3,243 -13.7,41.1 -20.3,85.4 -20.3,131.4 0,123.1 47.8,258 136.8,375.3 70.2,92.6 158.9,163.7 249.9,200.3 65.1,26.2 159.1,54.8 258.7,54.8 17,0 34.1,-0.9 51.2,-2.7 333.5,-35 558.1,-323 522.5,-669.9 z m -520.4,689.8 c -122.2,12.9 -241.2,-22 -319.5,-53.4 -94.2,-37.9 -186,-111.4 -258.4,-206.8 -126,-166.3 -171.9,-367.5 -119.5,-525.1 17,-51 65.1,-177.8 145.8,-251.5 52.1,-47.6 118.6,-62.5 182.9,-76.9 34.6,-7.7 70.4,-15.8 103.4,-28.8 30.4,-12.1 60.6,-25.9 92.6,-40.6 92.3,-42.1 186.7,-85.3 285.1,-85.3 39.7,0 80.1,7 121.3,24.1 242.2,100.4 295.9,448.2 306.6,552.4 36.8,358.3 -195.5,655.7 -540.3,691.9"
         style="fill:#ccc2d4;fill-opacity:1;fill-rule:nonzero;stroke:none"
         transform="matrix(0.13333333,0,0,-0.13333333,0,666.66667)" />
      <path
         id="path87"
         d="m 5441.21,2394.9 c -8.5,-229.3 -112.2,-536 -319.8,-667.6 -119.1,-75.5 -254.1,-82 -401.1,-19.1 -35.8,15.2 -71,30.5 -106.1,45.7 -116.6,50.7 -226.8,98.5 -346.6,141.7 -127.7,46.1 -231.2,126.6 -316.4,246.3 -104.5,146.8 -141.9,315.4 -107.9,487.6 32,162.9 127.5,317.2 268.8,434.3 l 1.4,1.4 c 85.7,104.8 183.8,157.2 375.1,200.3 79.4,17.9 154.1,26.8 223.7,26.8 110.1,0 207.7,-22.3 291.5,-66.9 283.2,-150.8 450.7,-469 437.4,-830.5 z m -428,848.1 c -141.2,75.2 -319.2,89.3 -529,42 -195.8,-44.1 -296.8,-98.2 -385.6,-206.4 -144.4,-120 -242.1,-278.1 -275,-445.3 -35,-177.7 3.5,-351.6 111.3,-503 87.6,-123.1 194.3,-206 325.9,-253.5 119.2,-43 229.1,-90.7 345.4,-141.2 35.1,-15.2 70.4,-30.6 106.2,-45.8 69.5,-29.7 136.4,-44.5 200.4,-44.5 77.5,0 150.9,21.7 219.3,65.1 213.7,135.5 320.4,449.4 329.1,683.7 13.6,369.3 -158,694.5 -448,848.9"
         style="fill:#ccc2d4;fill-opacity:1;fill-rule:nonzero;stroke:none"
         transform="matrix(0.13333333,0,0,-0.13333333,0,666.66667)" />
      <path
         id="path88"
         d="m 6021.31,1753.1 c -117.8,-18.2 -224.8,9.9 -293.6,77 -64.5,62.9 -91.2,152.8 -77.4,260.2 9.1,70.5 42.8,117.6 82.6,167.7 15.6,19.7 28.5,41.1 40.9,61.8 16.8,28 32.7,54.5 55,76.9 44.2,44.6 85.4,60.6 127.5,60.6 47.1,0 95.1,-20.1 149.1,-42.8 11.9,-5 24,-10.1 36.3,-15 l 0.3,-0.1 c 83.2,-30.6 194.5,-89.2 200,-243.5 6.8,-190.5 -140.1,-375 -320.7,-402.8 z m 340.7,403.5 c -4.5,124.8 -74.1,210.4 -213,261.5 -12.1,4.9 -24.1,9.9 -35.9,14.9 -100.4,42.1 -195.3,82 -298.5,-22.2 -24,-24.1 -41.3,-52.9 -58,-80.8 -12.1,-20.1 -24.5,-40.9 -39.4,-59.6 -41.7,-52.4 -77,-102 -86.7,-177.5 -14.5,-112.2 15.1,-210.6 83.2,-277.1 58.9,-57.4 143.4,-88.1 238.6,-88.1 23.4,0 47.5,1.9 72,5.6 190.2,29.3 344.8,223.2 337.7,423.3"
         style="fill:#ccc2d4;fill-opacity:1;fill-rule:nonzero;stroke:none"
         transform="matrix(0.13333333,0,0,-0.13333333,0,666.66667)" />
      <path
         id="path89"
         d="m 6011.11,1865.4 c -80.4,-12.4 -153.5,6.7 -200.4,52.4 -43.8,42.7 -62,104.1 -52.6,177.3 6.2,48 28.3,78.9 56.5,114.4 10.9,13.8 19.9,28.6 28.5,43 11.5,19.3 22.4,37.4 37.6,52.7 29.8,30 57.7,40.8 86.1,40.8 32.1,0 64.9,-13.7 101.7,-29.2 8.3,-3.5 16.7,-7 25.2,-10.4 l 0.3,-0.1 c 56.7,-20.9 132.5,-60.8 136.3,-165.6 4.6,-130.2 -95.8,-256.3 -219.2,-275.3 z m 239.1,276 c -3.1,87.7 -51.9,147.8 -149.2,183.6 -8.4,3.4 -16.6,6.8 -24.7,10.2 -70.5,29.6 -137,57.5 -209.8,-15.9 -16.9,-17 -28.9,-37.1 -40.6,-56.5 -8.2,-13.8 -16.8,-28.1 -27,-40.9 -29.1,-36.6 -53.8,-71.2 -60.6,-124.3 -10.1,-78.5 10.7,-147.5 58.5,-194.1 41.2,-40.3 100.5,-61.8 167.1,-61.8 16.4,0 33.2,1.3 50.3,3.9 132.9,20.5 241,156 236,295.8"
         style="fill:#a3acb8;fill-opacity:1;fill-rule:nonzero;stroke:none"
         transform="matrix(0.13333333,0,0,-0.13333333,0,666.66667)" />
      <path
         id="path91"
         d="m 6021.91,1968.11 c 93.05,2.11 175.99,137.22 84.09,194.5 -86.31,53.78 -204.06,4.38 -198.92,-101.95 3.42,-70.65 44.08,-94.15 114.83,-92.55"
         style="fill:#567595;fill-opacity:1;fill-rule:nonzero;stroke:none"
         transform="matrix(0.13333333,0,0,-0.13333333,0,666.66667)" />
      <path
         id="path93"
         style="fill:#a3acb8;fill-opacity:1;fill-rule:nonzero;stroke:none"
         d="m 7070.7066,777.93977 c -40.2367,-33.8739 -79.3487,-69.64516 -117.3942,-107.33734 -57.1,-56.602 -107.1012,-118.80438 -150.6012,-185.30438 -94.7,-145 -158.4054,-310.79738 -196.8054,-485.29737774796 h 136.9078 C 6749.0135,26.500639 6755.6099,53.201785 6762.7099,79.803351 c 28.2,106.199199 71.5039,229.894369 128.9039,347.093369 49.3835,101.01558 109.2772,197.24382 179.0928,273.50231 z"
         transform="matrix(0.13333333,0,0,-0.13333333,0,666.66667)" />
      <path
         id="path94"
         style="fill:#a3acb8;fill-opacity:1;fill-rule:nonzero;stroke:none"
         d="m 7070.7066,327.49354 c -0.6586,-1.53123 -1.3447,-3.06223 -2.0009,-4.59346 -45,-105.699 -82.0955,-212.00141 -101.3955,-322.89940774796 h 57.8968 C 7025.607,6.0006176 7026.1076,11.896082 7026.6076,17.896029 c 6.9849,76.987689 21.2188,152.447791 44.099,224.200901 z"
         transform="matrix(0.13333333,0,0,-0.13333333,0,666.66667)" />
      <path
         id="path95"
         d="m 2088.03,3819.9 c -114.97,-25.53 -242.09,-121.11 -283.89,-221.92 -51.9,-125.2 -77.32,-270.73 10.84,-385.27 132.99,-172.76 372.11,-256.76 553.53,-101.47 135.58,116.04 136.07,316.69 79.26,471.07 -39.25,106.65 -190.9,247.62 -309.48,244.12 -16.27,-0.48 -33.13,-2.73 -50.26,-6.53"
         style="fill:#7280a6;fill-opacity:1;fill-rule:nonzero;stroke:none"
         transform="matrix(0.13333333,0,0,-0.13333333,0,666.66667)" />
      <path
         id="path96"
         d="m 2522.92,4073.22 c -122.32,-103.03 23.79,-318.33 158.04,-318.88 138.77,-0.57 209.06,90.37 194.29,224.01 -9.7,87.72 -57.78,174.95 -152.79,188.64 -78.84,11.36 -137.98,-18.16 -199.54,-93.77"
         style="fill:#7280a6;fill-opacity:1;fill-rule:nonzero;stroke:none"
         transform="matrix(0.13333333,0,0,-0.13333333,0,666.66667)" />
      <path
         id="path97"
         d="m 1331.54,3523.41 c -66.36,-24.37 -125.76,-100.32 -76.85,-164.18 58.54,-76.41 173.44,-87.14 214.59,9.96 32.86,77.55 -17.09,171.26 -107.21,161.55 -10.1,-1.09 -20.4,-3.61 -30.53,-7.33"
         style="fill:#71a6cc;fill-opacity:1;fill-rule:nonzero;stroke:none"
         transform="matrix(0.13333333,0,0,-0.13333333,0,666.66667)" />
      <path
         id="path98"
         d="m 2093.65,4795.34 c -66.36,-24.37 -125.75,-100.32 -76.84,-164.17 58.53,-76.41 173.44,-87.14 214.58,9.96 32.87,77.54 -17.09,171.26 -107.21,161.54 -10.1,-1.09 -20.39,-3.61 -30.53,-7.33"
         style="fill:#71a6cc;fill-opacity:1;fill-rule:nonzero;stroke:none"
         transform="matrix(0.13333333,0,0,-0.13333333,0,666.66667)" />
      <path
         id="path99"
         d="m 5124.79,387.922 c -66.36,-24.371 -125.75,-100.32 -76.84,-164.172 58.53,-76.418 173.44,-87.141 214.58,9.949 32.87,77.551 -17.09,171.27 -107.21,161.551 -10.1,-1.09 -20.4,-3.609 -30.53,-7.328"
         style="fill:#8fa8c6;fill-opacity:1;fill-rule:nonzero;stroke:none"
         transform="matrix(0.13333333,0,0,-0.13333333,0,666.66667)" />
      <path
         id="path100"
         d="m 3063.21,254.301 c -69.1,64.398 -153.6,120.898 -235.2,175.5 -24.6,16.398 -48.8,32.597 -72.2,48.801 l -43.9,30.3 29.9,-44.203 c 38.4,-56.5 54.9,-127.199 70.8,-195.5 12.5,-53.5 25.4,-108.699 48.6,-158.398 20.2,-43.0002 42.9,-79.301 68.1,-110.801 h 25.5 c -28.2,33.1992 -53.3,71.8984 -75.5,119.301 -22.3,47.801 -35,102 -47.2,154.398 -13,55.602 -26.3,112.801 -51.4,163.699 11.9,-8 24,-16.097 36.1,-24.199 C 2897.91,359 2981.61,303 3049.61,239.699 3125.91,168.602 3168.41,90.8984 3194.41,0 h 20.9 c -26.8,96.5 -71,178.699 -152.1,254.301"
         style="fill:#a3acb8;fill-opacity:1;fill-rule:nonzero;stroke:none"
         transform="matrix(0.13333333,0,0,-0.13333333,0,666.66667)" />
      <path
         id="path101"
         d="m 2728.61,0 h -20.1 c 8.1,75.3984 12.7,152.398 3,230.398 -10.4,85 -32.2,165.602 -66.6,246.5 -17.1,40.403 -40.8,80.102 -63.7,118.5 -26.3,44 -53.3,89.204 -71.3,136.704 -74.7,-137.403 -109.1,-266.602 -102.2,-384.5 7.6,-131.903 52.9,-241 109.5,-347.602 h -22.6 c -55.4,105.699 -99.2,214.5 -106.9,346.5 -7.4,127.301 31.5,266.898 115.6,415 l 11.3,19.902 6.9,-21.902 c 16.8,-53.199 47.3,-104.301 76.8,-153.801 23.3,-39 47.3,-79.297 65.1,-121 35,-82.597 57.3,-165 68,-251.801 9.8,-79.398 5.3,-157.0972 -2.8,-232.898"
         style="fill:#a3acb8;fill-opacity:1;fill-rule:nonzero;stroke:none"
         transform="matrix(0.13333333,0,0,-0.13333333,0,666.66667)" />
      <path
         id="path102"
         d="M 4416.61,211.602 C 4416.81,120.801 4372.31,58.3008 4315.91,0 h -28.1 c 59.7,59.3984 109,121.199 108.8,211.602 0,44.5 -1.5,89.597 -3,133.296 -1.4,42.704 -2.9,86.704 -3,130.301 -98.2,-39.898 -221.6,-155.398 -306.8,-253.398 -62.2,-71.5 -94.5,-150.3987 -105.8,-221.801 h -19.9 c 16.1,89.6016 61.3,178.5 110.6,235 31.3,36 194.6,218.102 328.7,264.102 l 13.3,4.597 -0.1,-14.097 c -0.2,-48 1.4,-96.801 3,-144 1.5,-43.903 3,-89.2 3,-134"
         style="fill:#a3acb8;fill-opacity:1;fill-rule:nonzero;stroke:none"
         transform="matrix(0.13333333,0,0,-0.13333333,0,666.66667)" />
      <path
         id="path103"
         style="fill:#9598a7;fill-opacity:1;fill-rule:nonzero;stroke:none"
         d="m 7073.1947,4327.1885 c -0.9946,-0.5887 -1.991,87.9031 -2.984,87.3106 -20.4,-12.1 -39.8971,-25.101 -58.6971,-39.001 -10,-7.1 -19.8008,-14.6017 -29.5008,-22.2017 l -0.2001,-0.2001 c -82.9,-65.9 -152.4991,-144.5953 -220.3991,-221.4953 -0.3,-0.4 -0.7049,-0.9049 -1.1049,-1.3049 -5.1,-5.7 -10.1028,-11.4951 -15.3028,-17.2951 -30.5,-34.5 -61.8921,-69.7006 -94.3921,-103.1006 -67.6,-69.7 -152.0054,-130.0971 -233.6054,-188.4971 l -2.0966,-1.5051 c -9.4,-6.8 -18.8001,-13.5008 -28.1001,-20.2008 -16.3,-11.7 -36.7057,-23.1949 -58.3057,-35.4949 -42.8,-24.2 -87.096,-49.3039 -111.896,-82.4039 -3.3,-4.4 -2.399,-10.6979 2.001,-13.9979 1.8,-1.3 3.9028,-2.0009 6.0028,-2.0009 3,0 5.995,1.4019 7.995,4.0019 22.3,29.8 64.6975,53.8013 105.7975,77.0013 22,12.5 42.9065,24.2955 60.1065,36.6955 9.9,7.2 19.9968,14.4058 30.1968,21.7058 13.2,9.4 26.4012,18.8917 39.6012,28.4917 44.4,32 88.6,64.9034 129.8,100.0034 22.5,19.3 44.0998,39.102 64.2998,59.802 0.9,0.8 1.6968,1.6969 2.4968,2.4969 38.3,39.3 74.8997,80.9003 110.3997,121.1003 79.7,90.3 161.7067,183.3976 264.5067,254.1976 10.9037,7.5169 22.0115,-74.3244 33.3809,-67.3534 z"
         transform="matrix(0.13333333,0,0,-0.13333333,0,666.66667)"
         sodipodi:nodetypes="cccccccccccccccscccccccccccc" />
      <path
         id="path104"
         d="m 868.99935,145.47398 c -4.124,-0.23334 -8.32133,0.94 -12.296,1.85733 -5.82,1.344 -13.28933,2.408 -17.57866,6.84267 -2.37467,2.45466 -3.65467,5.75733 -5.84667,8.32133 -1.83067,2.14133 -3.78133,4.296 -5.65333,6.40667 -3.75067,4.22933 -8.39467,7.49066 -12.37467,11.504 -4.184,4.21866 -8.384,8.692 -11.86,13.41466 -5.05067,6.86134 -12.94933,15.316 -13.968,24.01733 5.06933,-6.41733 16.476,-10.11999 23.93867,-12.96666 11.07333,-4.224 22.492,-9.55333 30.41866,-18.584 8.85867,-10.09067 15.688,-21.704 23.25334,-32.68533 3.164,-4.592 6.81466,-8.94 9.69733,-13.63067 -0.724,0.304 -1.23067,-0.084 -1.92,0.0347 l -5.81067,5.468"
         style="fill:#9598a7;fill-opacity:1;fill-rule:nonzero;stroke:none;stroke-width:0.133333" />
      <path
         id="path105"
         d="m 6630.93,3978.8 c -100.1,-107.96 -52.09,-243.66 -42.3,-370.76 5.96,-77.3 16.81,-160.26 8.59,-237.65 -1.93,-18.19 -31.64,-86.99 -10.82,-96.35 29.25,-13.16 97.39,91.6 109.08,107.05 40.12,53.03 59.34,90.54 63.1,158.34 6.66,120.15 -44.83,226.02 -77.88,338.37 -15.33,52.1 -39.92,104.9 1.5,152.27 l -51.27,-51.27"
         style="fill:#9598a7;fill-opacity:1;fill-rule:nonzero;stroke:none"
         transform="matrix(0.13333333,0,0,-0.13333333,0,666.66667)" />
      <path
         id="path106"
         d="m 6787.31,4147.99 c -23.37,-31.19 -76.58,-14.84 -109.42,-12.8 -32.86,2.03 -66.9,9.44 -99.87,7.58 -50.76,-2.88 -106.25,-14.82 -155.26,-27.35 -68.63,-17.54 -145.34,-38.92 -205.09,-77.79 -43.02,-27.98 -74.5,-69.96 -117,-98.88 -51.05,-34.74 -104.02,-61.54 -138.69,-113.38 30.58,4.01 60.52,14.42 91.04,21.47 50.99,11.75 103.68,12.07 154.48,24.17 109.45,26.07 206.12,84.2 306.66,132.05 66.01,31.42 128.89,67.86 195.88,97.19 18.6,8.14 67.82,17.76 77.27,47.74"
         style="fill:#9598a7;fill-opacity:1;fill-rule:nonzero;stroke:none"
         transform="matrix(0.13333333,0,0,-0.13333333,0,666.66667)" />
      <path
         id="path107"
         d="m 7018.08,4374.77 c -142.78,14.57 -288.19,55.99 -431.26,72.45 -72.9,8.39 -138.29,-7.79 -196.15,-66.31 -26.64,-26.95 -49.53,-66.6 -73.63,-95.58 154.92,-59.17 306.35,-39.73 451.67,5.08 84.89,26.18 175.86,32.28 249.37,84.36"
         style="fill:#9598a7;fill-opacity:1;fill-rule:nonzero;stroke:none"
         transform="matrix(0.13333333,0,0,-0.13333333,0,666.66667)" />
      <path
         id="path108"
         style="fill:#9598a7;fill-opacity:1;fill-rule:nonzero;stroke:none"
         d="m 7070.7066,4403.0589 c -63.1102,-46.8117 -92.09,-167.1933 -109.8342,-230.9693 -22.67,-81.45 -16.4655,-158.4834 9.4045,-237.8334 42.37,-129.94 85.131,-273.5288 86.571,-411.4888 4.5134,6.3786 9.1517,12.797 13.8587,19.2525 z"
         transform="matrix(0.13333333,0,0,-0.13333333,0,666.66667)" />
      <path
         id="path109"
         style="fill:#9598a7;fill-opacity:1;stroke-width:1.29731;stroke-miterlimit:10"
         d="m 912.43126,15.957656 c -3.75567,0.07667 -7.5384,0.66116 -10.92107,1.29916 -7.07067,1.332 -11.0274,5.272226 -16.86473,9.249559 -2.74666,1.870667 -11.95001,7.275251 -11.07534,11.495251 2.352,0.546667 5.02167,0.269897 7.38433,0.33523 6.448,0.178667 13.64204,0.531088 20.27271,1.513754 13.98666,2.073333 25.14877,8.288244 36.35677,16.573577 1.67369,1.237365 3.4018,2.375693 5.17693,3.412616 V 34.217821 c -1.33059,-2.143921 -2.8349,-4.128213 -4.71178,-5.758065 -4.38533,-3.806667 -9.44466,-8.44754 -14.85799,-10.752874 -3.27467,-1.394 -7.00417,-1.825893 -10.75983,-1.749226 z" />
      <path
         id="path110"
         d="m 6173.15,3039.52 c -9.95,73.52 -147.11,22.75 -79.46,-34.87 26.79,-22.82 89.41,-9.22 79.46,34.87"
         style="fill:#567595;fill-opacity:1;fill-rule:nonzero;stroke:none"
         transform="matrix(0.13333333,0,0,-0.13333333,0,666.66667)" />
      <path
         id="path111"
         d="m 5998.45,3053.82 c -2.28,34.13 -58.34,54.5 -81.61,29.36 -16.78,-18.12 -8.35,-43.86 9.22,-57.69 21.93,-17.27 80.33,-0.15 72.39,28.33"
         style="fill:#567595;fill-opacity:1;fill-rule:nonzero;stroke:none"
         transform="matrix(0.13333333,0,0,-0.13333333,0,666.66667)" />
      <path
         id="path112"
         d="m 5985.16,2866.54 c -13.16,24.87 -48.79,-7.74 -21.91,-23.21 16.59,-9.55 31.61,10.07 20.47,24.52 l 1.44,-1.31"
         style="fill:#567595;fill-opacity:1;fill-rule:nonzero;stroke:none"
         transform="matrix(0.13333333,0,0,-0.13333333,0,666.66667)" />
      <path
         id="path113"
         d="m 6302.83,3183.27 c -13.15,24.86 -48.79,-7.75 -21.91,-23.21 16.59,-9.55 31.62,10.07 20.47,24.52 l 1.44,-1.31"
         style="fill:#567595;fill-opacity:1;fill-rule:nonzero;stroke:none"
         transform="matrix(0.13333333,0,0,-0.13333333,0,666.66667)" />
      <path
         id="path114"
         d="m 6163.06,2593.2 c -6.99,13.22 -25.94,-4.12 -11.65,-12.35 8.82,-5.07 16.81,5.36 10.89,13.04 l 0.76,-0.69"
         style="fill:#567595;fill-opacity:1;fill-rule:nonzero;stroke:none"
         transform="matrix(0.13333333,0,0,-0.13333333,0,666.66667)" />
      <path
         id="path115"
         d="m 5790.27,3017.21 c -7,13.22 -25.95,-4.11 -11.65,-12.34 8.81,-5.08 16.8,5.35 10.88,13.04 l 0.77,-0.7"
         style="fill:#567595;fill-opacity:1;fill-rule:nonzero;stroke:none"
         transform="matrix(0.13333333,0,0,-0.13333333,0,666.66667)" />
      <path
         id="path116"
         d="m 6121.65,2838.55 c -0.14,0.75 -0.32,1.49 -0.53,2.23 -6.68,24.52 -38.39,35.15 -58.99,22.07 -20.32,-12.91 -18.71,-43.82 -0.77,-59.3 24.92,-21.48 66.65,3.54 60.29,35"
         style="fill:#567595;fill-opacity:1;fill-rule:nonzero;stroke:none"
         transform="matrix(0.13333333,0,0,-0.13333333,0,666.66667)" />
      <path
         id="path117"
         d="m 6326.3,2961.48 c -3.45,10.47 -12.72,19.03 -29.79,21.43 -16.64,2.32 -39.42,-0.22 -46.64,-18.27 -6.2,-15.47 9.76,-43.65 24.14,-50.73 33.3,-16.39 60.87,21.5 52.29,47.57"
         style="fill:#567595;fill-opacity:1;fill-rule:nonzero;stroke:none"
         transform="matrix(0.13333333,0,0,-0.13333333,0,666.66667)" />
      <path
         id="path118"
         d="m 5867.65,2846.89 c -9.01,22.23 -36.44,30.27 -59.71,26.07 -35.16,-6.33 -30.86,-41.26 -5.62,-59.53 24.26,-17.56 84.56,7.64 65.33,33.46"
         style="fill:#567595;fill-opacity:1;fill-rule:nonzero;stroke:none"
         transform="matrix(0.13333333,0,0,-0.13333333,0,666.66667)" />
      <path
         id="path119"
         d="m 6436.37,2992.38 c 19.6,-6.26 38.08,12.57 22.9,28.43 -10.09,10.55 -29.45,21.03 -41.08,6.34 -10.93,-13.8 5.52,-30.72 18.18,-34.77"
         style="fill:#567595;fill-opacity:1;fill-rule:nonzero;stroke:none"
         transform="matrix(0.13333333,0,0,-0.13333333,0,666.66667)" />
      <path
         id="path120"
         d="m 6019.41,2689.09 c 19.61,-6.26 38.09,12.57 22.91,28.43 -10.1,10.55 -29.46,21.03 -41.09,6.34 -10.93,-13.81 5.52,-30.73 18.18,-34.77"
         style="fill:#567595;fill-opacity:1;fill-rule:nonzero;stroke:none"
         transform="matrix(0.13333333,0,0,-0.13333333,0,666.66667)" />
      <path
         id="path121"
         d="m 6231.81,2710.72 c 19.61,-6.27 38.09,12.57 22.91,28.43 -10.1,10.55 -29.46,21.03 -41.09,6.33 -10.92,-13.8 5.53,-30.72 18.18,-34.76"
         style="fill:#567595;fill-opacity:1;fill-rule:nonzero;stroke:none"
         transform="matrix(0.13333333,0,0,-0.13333333,0,666.66667)" />
      <path
         id="path122"
         d="m 6065.5,3175.88 c -19.45,-6.72 -22.97,-32.87 -1.32,-36.48 14.41,-2.4 36.19,0.8 36.7,19.54 0.48,17.59 -22.82,21.28 -35.38,16.94"
         style="fill:#567595;fill-opacity:1;fill-rule:nonzero;stroke:none"
         transform="matrix(0.13333333,0,0,-0.13333333,0,666.66667)" />
      <path
         id="path123"
         d="m 1361.31,0 h -76 c -10.1,20.6992 -18.9,40.6992 -25.2,49.8008 -39.5,56.6012 -72.1,122.8982 -151.9,122.3012 C 1031.61,171.5 984.508,87.6016 957.609,0 h -56.394 c 5.898,13.5 10.199,28.6016 13.894,41.8008 C 944.012,143.301 976.613,207 1095.01,211 c 107.7,3.602 199.1,-83.5 249.4,-172.5 4.6,-8 11.8,-22.6992 16.9,-38.5"
         style="fill:#b6dbd0;fill-opacity:1;fill-rule:nonzero;stroke:none"
         transform="matrix(0.13333333,0,0,-0.13333333,0,666.66667)" />
      <path
         id="path124"
         d="m 1545.61,0 h -52.9 c -9.2,61.4023 -14.9,121.5 -49.6,181.801 -38.8,67.398 -126,145.898 -198.6,176.699 -70.4,29.801 -147.9,31 -221.3,14.199 -7.7,-1.699 -15.3,-3.699 -22.8,-5.801 C 877.711,332.199 813.012,259.301 795.211,130.398 790.512,96.8008 782.41,38.6016 798.914,0 h -93.402 c 38.5,66.4023 61.496,174.699 73,209.602 38.601,117.097 100.097,167.699 200.5,198.398 19.5,6 40.498,11.199 63.098,16 89.7,19 164.3,16.898 244.1,-35.199 83.7,-54.801 171.3,-130.199 217.9,-219.801 19.6,-37.598 49.2,-113 41.5,-169"
         style="fill:#b6dbd0;fill-opacity:1;fill-rule:nonzero;stroke:none"
         transform="matrix(0.13333333,0,0,-0.13333333,0,666.66667)" />
      <path
         id="path125"
         d="m 1769.81,0 h -73.3 c -5.3,36.6992 -10.3,73.1992 -21.8,99.1016 -46.6,104.5004 -120.9,222.0004 -215.6,290.3984 -110.8,80 -250.2,88.5 -380.8,102.301 -60.8,6.5 -121.697,1.199 -179.595,-14.5 C 790.512,447.898 692.41,382.102 624.012,288.801 584.012,234.301 534.508,84.6016 571.613,0 H 452.008 c 1.305,204.301 147.004,396.102 321.707,492.398 24.398,13.403 49.199,24.204 74.094,32.801 140.203,48 287.701,23.801 431.201,-14.801 204.5,-55 404.7,-221.199 473.3,-424.9996 3.4,-10.1992 11.2,-45.5 17.5,-85.3984"
         style="fill:#b6dbd0;fill-opacity:1;fill-rule:nonzero;stroke:none"
         transform="matrix(0.13333333,0,0,-0.13333333,0,666.66667)" />
      <path
         id="path126"
         d="m 459.96677,142.31203 c -3.80848,-0.73169 -7.70869,-0.41173 -11.30905,1.27519 -13.71003,6.42772 -20.94211,24.44505 -14.52678,38.96856 4.89821,11.0885 12.87988,30.58337 27.64607,24.36271 9.02666,-3.80204 19.3131,-29.51757 19.48989,-39.09326 0.22599,-12.22722 -10.14772,-23.37455 -21.30013,-25.5132"
         style="fill:#8fb5b2;fill-opacity:1;fill-rule:nonzero;stroke:none;stroke-width:0.229447" />
      <path
         id="path127"
         d="m 488.12429,201.2924 c -12.96938,7.80407 -22.85081,29.00467 -10.25512,43.1988 9.99555,11.2673 22.42118,23.50395 30.69151,4.42317 5.63886,-13.01305 9.86577,-29.15054 2.52854,-41.9942 -5.79997,-10.15445 -14.96983,-10.43678 -22.96493,-5.62777"
         style="fill:#8fb5b2;fill-opacity:1;fill-rule:nonzero;stroke:none;stroke-width:0.229447" />
    </g>
    <rect
       style="fill:#33e100;fill-opacity:1;stroke-width:1.35945;stroke-linecap:round;stroke-linejoin:round;paint-order:stroke fill markers"
       id="rect352"
       width="105"
       height="1"
       x="1684.1918"
       y="64.753448" />
    <rect
       style="fill:url(#linearGradient5);stroke-width:2;stroke-miterlimit:10"
       id="rect4"
       width="297"
       height="210"
       x="85.011765"
       y="388.3642"
       inkscape:export-filename="/home/jaybaeta/Documents/20-29 Atlas/23 Development/allisfoundintime.com/website/images/article/rect4.jpg"
       inkscape:export-xdpi="164.20203"
       inkscape:export-ydpi="164.20203" />
  </g>
</svg>
