<?xml version="1.0" encoding="UTF-8" standalone="no"?>
<svg
   xmlns:dc="http://purl.org/dc/elements/1.1/"
   xmlns:cc="http://creativecommons.org/ns#"
   xmlns:rdf="http://www.w3.org/1999/02/22-rdf-syntax-ns#"
   xmlns:svg="http://www.w3.org/2000/svg"
   xmlns="http://www.w3.org/2000/svg"
   xmlns:sodipodi="http://sodipodi.sourceforge.net/DTD/sodipodi-0.dtd"
   xmlns:inkscape="http://www.inkscape.org/namespaces/inkscape"
   id="Layer_1"
   version="1.1"
   viewBox="0 0 440.5899 501.74079"
   xml:space="preserve"
   sodipodi:docname="book.svg"
   width="440.5899"
   height="501.74078"
   inkscape:version="0.92.3 (unknown)"><metadata
     id="metadata61"><rdf:RDF><cc:Work
         rdf:about=""><dc:format>image/svg+xml</dc:format><dc:type
           rdf:resource="http://purl.org/dc/dcmitype/StillImage" /><dc:title></dc:title></cc:Work></rdf:RDF></metadata><defs
     id="defs59" /><sodipodi:namedview
     pagecolor="#ffffff"
     bordercolor="#666666"
     borderopacity="1"
     objecttolerance="10"
     gridtolerance="10"
     guidetolerance="10"
     inkscape:pageopacity="0"
     inkscape:pageshadow="2"
     inkscape:window-width="1366"
     inkscape:window-height="768"
     id="namedview57"
     showgrid="false"
     inkscape:zoom="0.4609375"
     inkscape:cx="150.30485"
     inkscape:cy="503.517"
     inkscape:window-x="0"
     inkscape:window-y="0"
     inkscape:window-maximized="1"
     inkscape:current-layer="g988"
     fit-margin-top="0"
     fit-margin-left="0"
     fit-margin-right="0"
     fit-margin-bottom="0" /><style
     type="text/css"
     id="style2">
	.st0{fill:#F16723;}
	.st1{fill:#FBD20A;}
	.st2{fill:#4E9BD4;}
	.st3{fill:#FFFFFF;}
	.st4{fill:#3769A5;}
</style><g
     id="g988"
     transform="translate(21.45276,34.711864)"><path
       class="st0"
       d="m 44.618647,317.60339 h -3.5 v -3.5 c 0,-1.9 -1.6,-3.5 -3.5,-3.5 -1.9,0 -3.5,1.6 -3.5,3.5 v 3.5 h -3.5 c -1.9,0 -3.5,1.6 -3.5,3.5 0,1.9 1.6,3.5 3.5,3.5 h 3.5 v 3.5 c 0,1.9 1.6,3.5 3.5,3.5 1.9,0 3.5,-1.6 3.5,-3.5 v -3.5 h 3.5 c 1.9,0 3.5,-1.6 3.5,-3.5 0,-1.9 -1.6,-3.5 -3.5,-3.5 z"
       id="path20"
       style="fill:#9be136;fill-opacity:1"
       inkscape:connector-curvature="0" /><path
       class="st2"
       d="m 332.60678,430.99831 h -3.5 v -3.5 c 0,-1.9 -1.6,-3.5 -3.5,-3.5 -1.9,0 -3.5,1.6 -3.5,3.5 v 3.5 h -3.5 c -1.9,0 -3.5,1.6 -3.5,3.5 0,1.9 1.6,3.5 3.5,3.5 h 3.5 v 3.5 c 0,1.9 1.6,3.5 3.5,3.5 1.9,0 3.5,-1.6 3.5,-3.5 v -3.5 h 3.5 c 1.9,0 3.5,-1.6 3.5,-3.5 0,-1.9 -1.6,-3.5 -3.5,-3.5 z"
       id="path24"
       style="fill:#e1af36;fill-opacity:1"
       inkscape:connector-curvature="0" /><g
       id="g1006"
       transform="rotate(-16.364543,201.45,221.1)"><path
         inkscape:connector-curvature="0"
         style="fill:#e13636;fill-opacity:1"
         id="path4"
         d="m 382.8,282.8 c -5.7,0 -10.3,-4.6 -10.3,-10.3 0,-5.7 4.6,-10.3 10.3,-10.3 5.7,0 10.3,4.6 10.3,10.3 0,5.7 -4.6,10.3 -10.3,10.3 z m 0,-13.6 c -1.8,0 -3.3,1.5 -3.3,3.3 0,1.8 1.5,3.3 3.3,3.3 1.8,0 3.3,-1.5 3.3,-3.3 0,-1.8 -1.5,-3.3 -3.3,-3.3 z"
         class="st0" /><circle
         style="fill:#e13636;fill-opacity:1"
         id="circle6"
         r="2.0999999"
         cy="352.39999"
         cx="22.200003" /><circle
         style="fill:#e13636;fill-opacity:1"
         id="circle8"
         r="2.0999999"
         cy="133.2"
         cx="10.499998" /><circle
         style="fill:#e13636;fill-opacity:1"
         id="circle10"
         r="2.0999999"
         cy="104.10001"
         cx="387.5" /><circle
         style="fill:#e13636;fill-opacity:1"
         id="circle12"
         r="2.0999999"
         cy="3.5000007"
         cx="129" /><circle
         style="fill:#e13636;fill-opacity:1"
         id="circle14"
         r="2.0999999"
         cy="241.59999"
         cx="373.19998" /><circle
         style="fill:#e13636;fill-opacity:1"
         id="circle16"
         r="2.0999999"
         cy="336"
         cx="392.39999" /><path
         inkscape:connector-curvature="0"
         style="fill:#e17236;fill-opacity:1"
         id="path18"
         d="M 39.6,35.3 C 33,35.3 27.7,30 27.7,23.4 c 0,-6.6 5.3,-11.9 11.9,-11.9 6.6,0 11.9,5.3 11.9,11.9 0,6.6 -5.3,11.9 -11.9,11.9 z m 0,-16.8 c -2.7,0 -4.9,2.2 -4.9,4.9 0,2.7 2.2,4.9 4.9,4.9 2.7,0 4.9,-2.2 4.9,-4.9 0,-2.7 -2.2,-4.9 -4.9,-4.9 z"
         class="st1" /><circle
         style="fill:#e13636;fill-opacity:1"
         id="circle22"
         r="3.0999999"
         cy="77.200005"
         cx="376.39999" /><path
         style="fill:#0b486b;fill-opacity:1"
         inkscape:connector-curvature="0"
         id="path34"
         d="m 82.6,372.3 c -1.9,0 -3.5,-1.6 -3.5,-3.5 V 336 c 0,-1.9 1.6,-3.5 3.5,-3.5 1.9,0 3.5,1.6 3.5,3.5 v 32.8 c 0,1.9 -1.6,3.5 -3.5,3.5 z"
         class="st3" /><g
         id="g42"
         transform="translate(-58.6,-34.7)"
         style="fill:#00203b;fill-opacity:1"><path
           inkscape:connector-curvature="0"
           id="path38"
           d="m 409,316 c -3.3,0 -6,2.7 -6,6 v 118 c 0,13 -10.5,23.5 -23.5,23.5 h -239 C 127.5,463.5 117,453 117,440 V 242 c 0,-3.3 -2.7,-6 -6,-6 -3.3,0 -6,2.7 -6,6 v 198 c 0,19.6 15.9,35.5 35.5,35.5 h 239 c 19.6,0 35.5,-15.9 35.5,-35.5 V 322 c 0,-3.3 -2.7,-6 -6,-6 z"
           style="fill:#0b486b;fill-opacity:1" /><path
           inkscape:connector-curvature="0"
           id="path40"
           d="m 414.9,144 c 0,-0.1 0,-0.1 0,-0.2 0,-0.3 -0.1,-0.5 -0.2,-0.8 0,0 0,-0.1 0,-0.1 -0.1,-0.2 -0.2,-0.5 -0.3,-0.7 0,0 0,-0.1 -0.1,-0.1 -0.1,-0.2 -0.3,-0.5 -0.4,-0.7 0,0 -0.1,-0.1 -0.1,-0.1 -0.1,-0.2 -0.3,-0.4 -0.5,-0.6 0,0 0,-0.1 -0.1,-0.1 -0.2,-0.2 -0.4,-0.4 -0.6,-0.5 0,0 -0.1,-0.1 -0.1,-0.1 -0.2,-0.2 -0.4,-0.3 -0.7,-0.4 0,0 0,0 0,0 -0.2,-0.1 -0.5,-0.2 -0.7,-0.3 0,0 -0.1,0 -0.1,0 V 100.9 70.7 c 0,-3.3 -2.7,-6 -6,-6 H 148.1 c -23.8,0 -43.1,19.3 -43.1,43.1 0,1 0,2 0.1,3 -0.1,0.4 -0.1,0.8 -0.1,1.1 v 80.6 c 0,3.3 2.7,6 6,6 3.3,0 6,-2.7 6,-6 v -54.9 c 7.9,8.2 18.9,13.3 31.1,13.3 H 403 v 156.3 c 0,3.3 2.7,6 6,6 3.3,0 6,-2.7 6,-6 V 144.9 c 0,-0.3 0,-0.6 -0.1,-0.9 z M 399,138.9 H 148.1 c -9.1,0 -17.3,-3.9 -23,-10.2 v -10.8 c 0,-13.3 10.9,-24.2 24.2,-24.2 h 242.5 c 4,0 7.2,3.2 7.2,7.1 z m 0,-55.8 c -2.2,-0.9 -4.7,-1.4 -7.2,-1.4 H 149.3 c -13.3,0 -24.9,7.2 -31.2,17.8 3.6,-13.1 15.7,-22.8 30,-22.8 H 399 Z"
           style="fill:#0b486b;fill-opacity:1" /></g><path
         style="fill:#0b486b;fill-opacity:1"
         inkscape:connector-curvature="0"
         id="path44"
         d="m 82.6,156.4 c -1.9,0 -3.5,-1.6 -3.5,-3.5 0,-15.5 12.6,-28.1 28.1,-28.1 1.9,0 3.5,1.6 3.5,3.5 0,1.9 -1.6,3.5 -3.5,3.5 -11.6,0 -21.1,9.5 -21.1,21.1 0,1.9 -1.6,3.5 -3.5,3.5 z"
         class="st3" /><path
         style="fill:#0b486b;fill-opacity:1"
         inkscape:connector-curvature="0"
         id="path46"
         d="m 82.6,174.8 c -1.9,0 -3.5,-1.6 -3.5,-3.5 v -5.5 c 0,-1.9 1.6,-3.5 3.5,-3.5 1.9,0 3.5,1.6 3.5,3.5 v 5.5 c 0,1.9 -1.6,3.5 -3.5,3.5 z"
         class="st3" /><path
         inkscape:connector-curvature="0"
         id="path50"
         d="m 243.6,241.1 h -89.7 c -9.6,0 -17.5,-7.9 -17.5,-17.5 V 180 c 0,-9.6 7.9,-17.5 17.5,-17.5 h 89.7 c 9.6,0 17.5,7.9 17.5,17.5 v 43.6 c 0,9.6 -7.9,17.5 -17.5,17.5 z m -89.7,-66.6 c -3,0 -5.5,2.5 -5.5,5.5 v 43.6 c 0,3 2.5,5.5 5.5,5.5 h 89.7 c 3,0 5.5,-2.5 5.5,-5.5 V 180 c 0,-3 -2.5,-5.5 -5.5,-5.5 z"
         style="fill:#0b486b;fill-opacity:1" /></g><path
       class="st1"
       d="m 223.60509,-27.711864 h -3.5 v -3.5 c 0,-1.9 -1.6,-3.5 -3.5,-3.5 -1.9,0 -3.5,1.6 -3.5,3.5 v 3.5 h -3.5 c -1.9,0 -3.5,1.6 -3.5,3.5 0,1.9 1.6,3.5 3.5,3.5 h 3.5 v 3.5 c 0,1.9 1.6,3.5 3.5,3.5 1.9,0 3.5,-1.6 3.5,-3.5 v -3.5 h 3.5 c 1.9,0 3.5,-1.6 3.5,-3.5 0,-1.9 -1.6,-3.5 -3.5,-3.5 z"
       id="path52"
       style="fill:#38e04d;fill-opacity:1"
       inkscape:connector-curvature="0" /></g></svg>