<?xml version="1.0" encoding="UTF-8" standalone="no"?>
<!-- Created with Inkscape (http://www.inkscape.org/) -->

<svg
   xmlns:dc="http://purl.org/dc/elements/1.1/"
   xmlns:cc="http://creativecommons.org/ns#"
   xmlns:rdf="http://www.w3.org/1999/02/22-rdf-syntax-ns#"
   xmlns:svg="http://www.w3.org/2000/svg"
   xmlns="http://www.w3.org/2000/svg"
   xmlns:sodipodi="http://sodipodi.sourceforge.net/DTD/sodipodi-0.dtd"
   xmlns:inkscape="http://www.inkscape.org/namespaces/inkscape"
   width="147mm"
   height="289mm"
   viewBox="0 0 147 289"
   version="1.1"
   id="svg8"
   inkscape:version="0.92.3 (unknown)"
   sodipodi:docname="cc-0.svg">
  <defs
     id="defs2" />
  <sodipodi:namedview
     id="base"
     pagecolor="#ffffff"
     bordercolor="#666666"
     borderopacity="1.0"
     inkscape:pageopacity="0.0"
     inkscape:pageshadow="2"
     inkscape:zoom="0.32"
     inkscape:cx="62.593659"
     inkscape:cy="684.11336"
     inkscape:document-units="mm"
     inkscape:current-layer="g4768"
     showgrid="false"
     inkscape:window-width="1366"
     inkscape:window-height="768"
     inkscape:window-x="0"
     inkscape:window-y="0"
     inkscape:window-maximized="1" />
  <metadata
     id="metadata5">
    <rdf:RDF>
      <cc:Work
         rdf:about="">
        <dc:format>image/svg+xml</dc:format>
        <dc:type
           rdf:resource="http://purl.org/dc/dcmitype/StillImage" />
        <dc:title />
      </cc:Work>
    </rdf:RDF>
  </metadata>
  <g
     inkscape:label="Layer 1"
     inkscape:groupmode="layer"
     id="layer1"
     transform="translate(0,-8)">
    <g
       id="g2557"
       transform="matrix(0.42911236,0,0,0.42911236,-485.1733,-186.91932)">
      <g
         id="g4768"
         transform="translate(2022.8378,18.643089)">
        <path
           id="path958"
           d="m -765.67855,464.43453 -4.63223,2.4096 c -1.31493,-2.7303 -3.51949,-2.7791 -3.82905,-2.7791 -3.08583,0 -4.63223,2.0373 -4.63223,6.1131 0,3.2867 1.28425,6.1131 4.63223,6.1131 2.01771,0 3.43722,-0.9886 4.2627,-2.9645 l 4.25993,2.1613 c -0.86036,1.605 -3.58224,5.4354 -9.07761,5.4354 -3.15136,0 -10.31305,-1.439 -10.31305,-10.7439 0,-8.1838 5.99596,-10.7453 10.12759,-10.7453 4.28363,0 7.34854,1.6663 9.20172,5.0003 z m 19.94703,0 -4.57088,2.4096 c -1.32469,-2.7568 -3.58642,-2.7791 -3.8904,-2.7791 -3.08723,0 -4.63223,2.0373 -4.63223,6.1131 0,3.2839 1.28704,6.1131 4.63223,6.1131 2.01492,0 3.43722,-0.9886 4.25852,-2.9645 l 4.32268,2.1613 c -0.29283,0.523 -2.98265,5.4354 -9.07622,5.4354 -3.16391,0 -10.31305,-1.3762 -10.31305,-10.7439 0,-8.181 5.99178,-10.7453 10.12759,-10.7453 4.28223,0 7.33181,1.6663 9.14176,5.0003 z m -19.7058,-28.8392 c -19.91497,0 -34.52001,16.0441 -34.52001,34.5814 0,19.3112 15.84049,34.5814 34.52001,34.5814 18.11756,0 34.64272,-14.0655 34.64272,-34.5814 0,-19.2247 -14.8672,-34.5814 -34.64272,-34.5814 z m 0.12131,62.8614 c -15.69268,0 -28.40412,-12.9735 -28.40412,-28.28 0,-14.6999 11.91243,-28.3442 28.40691,-28.3442 15.69129,0 28.28142,12.4745 28.28142,28.3428 -0.002,16.9686 -13.89948,28.2814 -28.28421,28.2814 z"
           inkscape:connector-curvature="0"
           style="opacity:0.95999995;fill:#0b486b;fill-opacity:1;stroke-width:0.13944097" />
        <path
           id="path947"
           d="m -676.49985,435.59533 c 19.77273,0 34.63713,15.3525 34.63713,34.5814 0,20.5117 -16.52375,34.5813 -34.63713,34.5813 -18.68509,0 -34.52558,-15.2688 -34.52558,-34.5813 0,-18.5317 14.59946,-34.5814 34.52558,-34.5814 z m 0.11155,6.233 c -16.48192,0 -28.40413,13.6513 -28.40413,28.3484 0,15.3106 12.71702,28.2786 28.40413,28.2786 14.39031,0 28.27863,-11.3087 28.27863,-28.2786 0.014,-15.8684 -12.57758,-28.3484 -28.27863,-28.3484 z m -0.0558,8.4362 c -11.42021,0 -14.2927,10.7788 -14.2927,19.9122 0,9.1333 2.87249,19.9121 14.2927,19.9121 11.42022,0 14.2927,-10.7788 14.2927,-19.9121 0,-9.1334 -2.87248,-19.9122 -14.2927,-19.9122 z m 0,7.5158 c 0.46016,0 0.89243,0.07 1.28286,0.1674 0.8227,0.7111 1.22708,1.6872 0.43227,3.0537 l -7.59953,13.9721 c -0.23706,-1.7709 -0.26494,-3.5 -0.26494,-4.7968 0,-4.0159 0.27888,-12.3964 6.14934,-12.3964 z m 5.68919,6.4422 c 0.40438,2.1474 0.46016,4.3785 0.46016,5.9542 0,4.0298 -0.27888,12.3962 -6.14935,12.3962 -1.88245,0 -4.54577,-1.0736 -2.80276,-3.6811 z"
           inkscape:connector-curvature="0"
           style="fill:#0b486b;fill-opacity:1;stroke-width:0.13944097" />
        <flowRoot
           transform="matrix(2.2273435,0,0,2.2273435,-1465.0102,283.69019)"
           style="font-style:normal;font-variant:normal;font-weight:normal;font-stretch:normal;font-size:26.66666794px;line-height:1;font-family:'IBM Plex Mono';-inkscape-font-specification:'IBM Plex Mono';text-align:center;letter-spacing:0px;word-spacing:0px;text-anchor:middle;fill:#212529;fill-opacity:1;stroke:none;"
           id="flowRoot6821-8"
           xml:space="preserve"><flowRegion
             style="font-style:normal;font-variant:normal;font-weight:normal;font-stretch:normal;font-size:26.66666794px;line-height:1;font-family:'IBM Plex Mono';-inkscape-font-specification:'IBM Plex Mono';text-align:center;text-anchor:middle;fill:#212529;fill-opacity:1;"
             id="flowRegion6817-9"><rect
               style="font-style:normal;font-variant:normal;font-weight:normal;font-stretch:normal;font-size:26.66666794px;line-height:1;font-family:'IBM Plex Mono';-inkscape-font-specification:'IBM Plex Mono';text-align:center;text-anchor:middle;fill:#212529;fill-opacity:1;"
               y="116.46788"
               x="194.28572"
               height="547.63959"
               width="239.2652"
               id="rect6815-7" /></flowRegion><flowPara
             style="font-style:normal;font-variant:normal;font-weight:normal;font-stretch:normal;font-family:'IBM Plex Mono';-inkscape-font-specification:'IBM Plex Mono';fill:#212529;fill-opacity:1;"
             id="flowPara6819-3">CC</flowPara></flowRoot>        <flowRoot
           transform="matrix(2.2273435,0,0,2.2273435,-1375.6811,283.6902)"
           style="font-style:normal;font-variant:normal;font-weight:normal;font-stretch:normal;font-size:26.66666794px;line-height:1;font-family:Static;-inkscape-font-specification:Static;text-align:center;letter-spacing:0px;word-spacing:0px;text-anchor:middle;fill:#212529;fill-opacity:1;stroke:none"
           id="flowRoot6821-8-6"
           xml:space="preserve"><flowRegion
             style="font-style:normal;font-variant:normal;font-weight:normal;font-stretch:normal;font-size:26.66666794px;line-height:1;font-family:Static;-inkscape-font-specification:Static;text-align:center;text-anchor:middle;fill:#212529;fill-opacity:1"
             id="flowRegion6817-9-1"><rect
               style="font-style:normal;font-variant:normal;font-weight:normal;font-stretch:normal;font-size:26.66666794px;line-height:1;font-family:Static;-inkscape-font-specification:Static;text-align:center;text-anchor:middle;fill:#212529;fill-opacity:1"
               y="116.46788"
               x="194.28572"
               height="547.63959"
               width="239.2652"
               id="rect6815-7-2" /></flowRegion><flowPara
             id="flowPara6819-3-9"
             style="font-style:normal;font-variant:normal;font-weight:normal;font-stretch:normal;font-family:'IBM Plex Mono';-inkscape-font-specification:'IBM Plex Mono';fill:#212529;fill-opacity:1">0</flowPara></flowRoot>        <flowRoot
           transform="matrix(0,2.3839995,-2.3839995,0,-368.17208,-43.713056)"
           style="font-style:normal;font-variant:normal;font-weight:normal;font-stretch:normal;font-size:26.66666794px;line-height:1;font-family:Static;-inkscape-font-specification:Static;text-align:center;letter-spacing:0px;word-spacing:0px;text-anchor:middle;fill:#212529;fill-opacity:1;stroke:none"
           id="flowRoot6821-8-6-3"
           xml:space="preserve"><flowRegion
             style="font-style:normal;font-variant:normal;font-weight:normal;font-stretch:normal;font-size:26.66666794px;line-height:1;font-family:Static;-inkscape-font-specification:Static;text-align:center;text-anchor:middle;fill:#212529;fill-opacity:1"
             id="flowRegion6817-9-1-6"><rect
               style="font-style:normal;font-variant:normal;font-weight:normal;font-stretch:normal;font-size:26.66666794px;line-height:1;font-family:Static;-inkscape-font-specification:Static;text-align:center;text-anchor:middle;fill:#212529;fill-opacity:1"
               y="116.46788"
               x="194.28572"
               height="547.63959"
               width="239.2652"
               id="rect6815-7-2-2" /></flowRegion><flowPara
             id="flowPara6819-3-9-2"
             style="font-style:normal;font-variant:normal;font-weight:normal;font-stretch:normal;font-family:'IBM Plex Mono';-inkscape-font-specification:'IBM Plex Mono';fill:#212529;fill-opacity:1">ZERO</flowPara></flowRoot>      </g>
      <g
         style="fill:#212529;fill-opacity:1"
         transform="matrix(5.3285521,0,0,5.3285521,1046.4725,-434.84441)"
         id="g2833" />
      <g
         style="fill:#212529;fill-opacity:1"
         transform="translate(23.18588)"
         id="g1762" />
    </g>
  </g>
</svg>
