<?xml version="1.0" encoding="UTF-8" standalone="no"?>
<!-- Created with Inkscape (http://www.inkscape.org/) -->

<svg
   xmlns:dc="http://purl.org/dc/elements/1.1/"
   xmlns:cc="http://creativecommons.org/ns#"
   xmlns:rdf="http://www.w3.org/1999/02/22-rdf-syntax-ns#"
   xmlns:svg="http://www.w3.org/2000/svg"
   xmlns="http://www.w3.org/2000/svg"
   xmlns:sodipodi="http://sodipodi.sourceforge.net/DTD/sodipodi-0.dtd"
   xmlns:inkscape="http://www.inkscape.org/namespaces/inkscape"
   width="147mm"
   height="250mm"
   viewBox="0 0 147 250"
   version="1.1"
   id="svg8"
   inkscape:version="0.92.3 (unknown)"
   sodipodi:docname="cc-by-nc-sa.svg">
  <defs
     id="defs2" />
  <sodipodi:namedview
     id="base"
     pagecolor="#ffffff"
     bordercolor="#666666"
     borderopacity="1.0"
     inkscape:pageopacity="0.0"
     inkscape:pageshadow="2"
     inkscape:zoom="0.45254834"
     inkscape:cx="-13.057217"
     inkscape:cy="439.95305"
     inkscape:document-units="mm"
     inkscape:current-layer="g4587"
     showgrid="false"
     inkscape:window-width="1366"
     inkscape:window-height="768"
     inkscape:window-x="0"
     inkscape:window-y="0"
     inkscape:window-maximized="1" />
  <metadata
     id="metadata5">
    <rdf:RDF>
      <cc:Work
         rdf:about="">
        <dc:format>image/svg+xml</dc:format>
        <dc:type
           rdf:resource="http://purl.org/dc/dcmitype/StillImage" />
        <dc:title></dc:title>
      </cc:Work>
    </rdf:RDF>
  </metadata>
  <g
     inkscape:label="Layer 1"
     inkscape:groupmode="layer"
     id="layer1"
     transform="translate(0,-47)">
    <g
       id="g2557"
       transform="matrix(0.42911236,0,0,0.42911236,-485.1733,-186.91932)">
      <g
         id="g4553"
         transform="translate(766.71547,18.643049)">
        <g
           id="g4587">
          <g
             id="g3966"
             transform="translate(0,90.885287)">
            <path
               id="path958-7"
               d="m 401.51192,464.43456 -4.63223,2.40954 c -1.31493,-2.73025 -3.51949,-2.77906 -3.82905,-2.77906 -3.08583,0 -4.63223,2.03723 -4.63223,6.11309 0,3.28663 1.28425,6.11309 4.63223,6.11309 2.01771,0 3.43722,-0.98863 4.2627,-2.96451 l 4.25993,2.16133 c -0.86036,1.60497 -3.58223,5.43541 -9.07761,5.43541 -3.15136,0 -10.31305,-1.43903 -10.31305,-10.74393 0,-8.18378 5.99596,-10.74532 10.12759,-10.74532 4.28363,-0.002 7.34854,1.66632 9.20172,5.00036 z m 19.94703,0 -4.57088,2.40954 c -1.32469,-2.75675 -3.58642,-2.77906 -3.8904,-2.77906 -3.08723,0 -4.63223,2.03723 -4.63223,6.11309 0,3.28384 1.28704,6.11309 4.63223,6.11309 2.01493,0 3.43722,-0.98863 4.25852,-2.96451 l 4.32268,2.16133 c -0.29283,0.52291 -2.98265,5.43541 -9.07621,5.43541 -3.16392,0 -10.31306,-1.37628 -10.31306,-10.74393 0,-8.18099 5.99178,-10.74532 10.12759,-10.74532 4.28224,-0.002 7.33182,1.66632 9.14176,5.00036 z m -19.7058,-28.83919 c -19.91497,0 -34.52001,16.04408 -34.52001,34.58137 0,19.31117 15.84049,34.58135 34.52001,34.58135 18.11756,0 34.64272,-14.06541 34.64272,-34.58135 0,-19.22473 -14.8672,-34.58137 -34.64272,-34.58137 z m 0.12131,62.86139 c -15.69268,0 -28.40412,-12.97359 -28.40412,-28.28002 0,-14.69987 11.91243,-28.34417 28.40692,-28.34417 15.69129,0 28.28141,12.47439 28.28141,28.34278 -0.002,16.96856 -13.89947,28.28141 -28.28421,28.28141 z"
               inkscape:connector-curvature="0"
               style="opacity:0.95999995;fill:#0b486b;fill-opacity:1;stroke-width:0.13944097" />
            <path
               id="path815-7"
               d="m 500.075,461.58717 v 14.13931 h -3.94618 v 16.80264 h -10.75091 v -16.78869 h -3.94617 v -14.15326 c 0,-0.61354 0.2231,-1.14341 0.64143,-1.57568 0.43226,-0.43227 0.96214,-0.65537 1.57568,-0.65537 h 14.20903 c 0.57171,0 1.08764,0.2231 1.5478,0.65537 0.43227,0.44621 0.66932,0.96214 0.66932,1.57568 z m -14.15326,-8.88239 c 0,-3.24897 1.60357,-4.88043 4.81071,-4.88043 3.20714,0 4.81071,1.63146 4.81071,4.88043 0,3.20714 -1.60357,4.81072 -4.81071,4.81072 -3.20714,0 -4.81071,-1.60358 -4.81071,-4.81072 z m 4.76888,-17.10941 c 19.77273,0 34.6371,15.35245 34.6371,34.58136 0,20.51177 -16.52372,34.58136 -34.6371,34.58136 -18.68509,0 -34.52558,-15.26878 -34.52558,-34.58136 0,-18.5317 14.59946,-34.58136 34.52558,-34.58136 z m 0.11155,6.23301 c -16.48192,0 -28.40413,13.65128 -28.40413,28.34835 0,15.31062 12.71702,28.27863 28.40413,28.27863 14.39031,0 28.27862,-11.30866 28.27862,-28.27863 0.0137,-15.86838 -12.57757,-28.34835 -28.27862,-28.34835 z"
               inkscape:connector-curvature="0"
               style="fill:#0b486b;fill-opacity:1;stroke-width:0.13944097" />
            <path
               id="path848-6"
               d="m 579.62249,435.59537 c 19.49387,0 34.63713,15.04568 34.63713,34.58137 0,20.52571 -16.52374,34.58136 -34.63713,34.58136 -18.75478,0 -34.52557,-15.45006 -34.52557,-34.58136 0,-18.53171 14.59948,-34.58137 34.52557,-34.58137 z m -26.74479,25.25277 c -1.03185,2.84459 -1.54776,5.95413 -1.54776,9.3286 0,15.464 12.8425,28.22285 28.40412,28.22285 17.06757,0 24.70895,-14.19508 24.8902,-14.5158 l -13.0238,-5.80075 c -1.0737,5.17327 -5.74495,7.39038 -9.50988,7.72503 v 5.3127 h -4.0159 v -5.32664 c -3.83461,-0.0418 -7.33455,-1.42229 -10.49989,-4.1414 l 4.75494,-4.81071 c 4.42028,4.09957 12.0477,4.43423 12.0477,-0.30677 0,-0.86453 -0.30678,-1.56174 -0.92029,-2.10556 -1.98007,-0.83664 -0.25102,-0.014 -30.57944,-13.58155 z m 26.85636,-19.07553 c -5.35454,0 -15.67319,1.21314 -23.77471,12.96801 l 13.219,5.92625 c 1.39445,-4.36451 5.63344,-5.98202 8.89633,-6.17724 v -5.3127 h 4.0159 v 5.3127 c 3.16534,0.16733 6.05178,1.24103 8.64536,3.20714 l -4.50392,4.62944 c -5.95413,-4.16928 -11.64332,-1.11552 -9.76091,1.5478 7.44618,3.36053 6.10754,2.76094 12.96804,5.80074 l 17.72292,7.90631 c 0.57172,-2.42628 0.86453,-4.89438 0.86453,-7.40432 0,-7.94814 -2.76091,-14.6413 -8.2688,-20.06556 -5.48007,-5.5637 -12.15927,-8.33857 -20.02374,-8.33857 z"
               inkscape:connector-curvature="0"
               style="fill:#0b486b;fill-opacity:1;stroke-width:0.13944097" />
            <path
               id="path903-0"
               d="m 668.55434,435.59537 c 19.77272,0 34.63713,15.35245 34.63713,34.58136 0,20.51177 -16.52374,34.58136 -34.63713,34.58136 -18.68511,0 -34.52557,-15.26878 -34.52557,-34.58136 0,-18.5317 14.59943,-34.58136 34.52557,-34.58136 z m 0.11157,6.23301 c -16.48195,0 -28.40417,13.65128 -28.40417,28.34835 0,15.31062 12.71702,28.27863 28.40417,28.27863 14.39031,0 28.27863,-11.30866 28.27863,-28.27863 0.0142,-15.86838 -12.57762,-28.34835 -28.27863,-28.34835 z m -15.43613,23.46792 c 1.81274,-11.6991 11.22497,-13.3445 15.18511,-13.3445 13.9162,0 17.77873,11.50388 17.77873,18.71297 0,8.86845 -5.71707,18.53171 -17.97394,18.53171 -5.42426,0 -13.8186,-2.78882 -15.25483,-13.52577 h 8.71502 c 0.20918,4.19717 2.73308,6.30273 7.59954,6.30273 3.24898,0 8.08761,-2.53782 8.08761,-11.54571 0,-11.50388 -6.84658,-11.23894 -7.90631,-11.23894 -4.61549,0 -7.20912,2.03583 -7.78084,6.10751 h 2.53782 l -6.86049,6.8605 -6.83257,-6.8605 z"
               inkscape:connector-curvature="0"
               style="fill:#0b486b;fill-opacity:1;stroke-width:0.13944097" />
            <g
               id="flowRoot6821-8"
               style="font-style:normal;font-variant:normal;font-weight:normal;font-stretch:normal;font-size:26.66666794px;line-height:1;font-family:'IBM Plex Mono';-inkscape-font-specification:'IBM Plex Mono';text-align:center;letter-spacing:0px;word-spacing:0px;text-anchor:middle;fill:#212529;fill-opacity:1;stroke:none"
               transform="matrix(2.2273435,0,0,2.2273435,-297.59558,281.7091)"
               aria-label="CC">
              <path
                 id="path3822"
                 style="font-style:normal;font-variant:normal;font-weight:normal;font-stretch:normal;font-size:22.1459465px;font-family:'IBM Plex Mono';-inkscape-font-specification:'IBM Plex Mono';fill:#212529;fill-opacity:1"
                 d="m 307.79219,137.5345 q -2.83468,0 -4.22987,-2.05957 -1.37305,-2.05957 -1.37305,-5.93511 0,-3.87554 1.37305,-5.93512 1.39519,-2.05957 4.22987,-2.05957 1.06301,0 1.83812,0.2879 0.7751,0.28789 1.32875,0.7751 0.55365,0.48722 0.93013,1.1073 0.37648,0.59794 0.66438,1.21803 l -1.59451,0.73082 q -0.19931,-0.50936 -0.46506,-0.95228 -0.26575,-0.46507 -0.64223,-0.79725 -0.35434,-0.35434 -0.8637,-0.55365 -0.48721,-0.19932 -1.19588,-0.19932 -1.83811,0 -2.7461,1.3952 -0.88583,1.39519 -0.88583,3.72052 v 2.52463 q 0,2.32533 0.88583,3.72052 0.90799,1.3952 2.7461,1.3952 0.70867,0 1.19588,-0.19932 0.50936,-0.19931 0.8637,-0.5315 0.37648,-0.35433 0.64223,-0.79725 0.26575,-0.46507 0.46506,-0.97442 l 1.59451,0.73081 q -0.2879,0.64223 -0.66438,1.24018 -0.37648,0.59794 -0.93013,1.08515 -0.55365,0.48721 -1.32875,0.77511 -0.77511,0.28789 -1.83812,0.28789 z"
                 inkscape:connector-curvature="0" />
              <path
                 id="path3824"
                 style="font-style:normal;font-variant:normal;font-weight:normal;font-stretch:normal;font-size:22.1459465px;font-family:'IBM Plex Mono';-inkscape-font-specification:'IBM Plex Mono';fill:#212529;fill-opacity:1"
                 d="m 321.07111,137.5345 q -2.83468,0 -4.22988,-2.05957 -1.37304,-2.05957 -1.37304,-5.93511 0,-3.87554 1.37304,-5.93512 1.3952,-2.05957 4.22988,-2.05957 1.06301,0 1.83811,0.2879 0.77511,0.28789 1.32876,0.7751 0.55365,0.48722 0.93013,1.1073 0.37648,0.59794 0.66438,1.21803 l -1.59451,0.73082 q -0.19931,-0.50936 -0.46506,-0.95228 -0.26576,-0.46507 -0.64224,-0.79725 -0.35433,-0.35434 -0.86369,-0.55365 -0.48721,-0.19932 -1.19588,-0.19932 -1.83811,0 -2.7461,1.3952 -0.88584,1.39519 -0.88584,3.72052 v 2.52463 q 0,2.32533 0.88584,3.72052 0.90799,1.3952 2.7461,1.3952 0.70867,0 1.19588,-0.19932 0.50936,-0.19931 0.86369,-0.5315 0.37648,-0.35433 0.64224,-0.79725 0.26575,-0.46507 0.46506,-0.97442 l 1.59451,0.73081 q -0.2879,0.64223 -0.66438,1.24018 -0.37648,0.59794 -0.93013,1.08515 -0.55365,0.48721 -1.32876,0.77511 -0.7751,0.28789 -1.83811,0.28789 z"
                 inkscape:connector-curvature="0" />
            </g>
            <g
               id="flowRoot6821-8-3"
               style="font-style:normal;font-variant:normal;font-weight:normal;font-stretch:normal;font-size:26.66666794px;line-height:1;font-family:'IBM Plex Mono';-inkscape-font-specification:'IBM Plex Mono';text-align:center;letter-spacing:0px;word-spacing:0px;text-anchor:middle;fill:#212529;fill-opacity:1;stroke:none"
               transform="matrix(2.2273435,0,0,2.2273435,-210.2175,281.11718)"
               aria-label="BY">
              <path
                 id="path3827"
                 style="font-style:normal;font-variant:normal;font-weight:normal;font-stretch:normal;font-size:22.1459465px;font-family:'IBM Plex Mono';-inkscape-font-specification:'IBM Plex Mono';fill:#212529;fill-opacity:1"
                 d="m 302.58789,121.81088 h 5.24859 q 1.99314,0 3.12258,1.08515 1.12945,1.08515 1.12945,2.90112 0,1.3952 -0.68653,2.19245 -0.66438,0.79725 -1.72738,1.12944 v 0.0664 q 1.30661,0.31004 2.14815,1.17374 0.84155,0.84154 0.84155,2.4582 0,0.93013 -0.31004,1.74953 -0.31005,0.8194 -0.88584,1.41734 -0.55365,0.59794 -1.32876,0.95227 -0.75296,0.33219 -1.6388,0.33219 h -5.91297 z m 5.35932,13.84122 q 1.28447,0 2.01529,-0.5758 0.73081,-0.57579 0.73081,-1.77167 v -0.90799 q 0,-1.17373 -0.73081,-1.74953 -0.73082,-0.59794 -2.01529,-0.59794 h -3.49906 v 5.60293 z m -0.31004,-7.131 q 1.17374,0 1.83811,-0.50935 0.66438,-0.53151 0.66438,-1.59451 v -0.86369 q 0,-1.06301 -0.66438,-1.59451 -0.66437,-0.53151 -1.83811,-0.53151 h -3.18902 v 5.09357 z"
                 inkscape:connector-curvature="0" />
              <path
                 id="path3829"
                 style="font-style:normal;font-variant:normal;font-weight:normal;font-stretch:normal;font-size:22.1459465px;font-family:'IBM Plex Mono';-inkscape-font-specification:'IBM Plex Mono';fill:#212529;fill-opacity:1"
                 d="m 319.63162,137.26875 v -6.06799 l -5.33717,-9.38988 h 2.12601 l 2.2146,4.03056 1.8824,3.52121 h 0.0886 l 1.9267,-3.52121 2.2146,-4.03056 h 2.08172 l -5.33718,9.38988 v 6.06799 z"
                 inkscape:connector-curvature="0" />
            </g>
            <g
               id="flowRoot6821-8-35"
               style="font-style:normal;font-variant:normal;font-weight:normal;font-stretch:normal;font-size:26.66666794px;line-height:1;font-family:'IBM Plex Mono';-inkscape-font-specification:'IBM Plex Mono';text-align:center;letter-spacing:0px;word-spacing:0px;text-anchor:middle;fill:#212529;fill-opacity:1;stroke:none"
               transform="matrix(2.2273435,0,0,2.2273435,-119.97845,281.7091)"
               aria-label="NC">
              <path
                 id="path3832"
                 style="font-style:normal;font-variant:normal;font-weight:normal;font-stretch:normal;font-size:22.1459465px;font-family:'IBM Plex Mono';-inkscape-font-specification:'IBM Plex Mono';fill:#212529;fill-opacity:1"
                 d="m 304.24884,124.1805 h -0.15502 v 13.08825 h -1.68309 v -15.45787 h 2.63536 l 5.27074,12.95538 h 0.15502 v -12.95538 h 1.68309 v 15.45787 h -2.63536 z"
                 inkscape:connector-curvature="0" />
              <path
                 id="path3834"
                 style="font-style:normal;font-variant:normal;font-weight:normal;font-stretch:normal;font-size:22.1459465px;font-family:'IBM Plex Mono';-inkscape-font-specification:'IBM Plex Mono';fill:#212529;fill-opacity:1"
                 d="m 321.07111,137.5345 q -2.83468,0 -4.22988,-2.05957 -1.37304,-2.05957 -1.37304,-5.93511 0,-3.87554 1.37304,-5.93512 1.3952,-2.05957 4.22988,-2.05957 1.06301,0 1.83811,0.2879 0.77511,0.28789 1.32876,0.7751 0.55365,0.48722 0.93013,1.1073 0.37648,0.59794 0.66438,1.21803 l -1.59451,0.73082 q -0.19931,-0.50936 -0.46506,-0.95228 -0.26576,-0.46507 -0.64224,-0.79725 -0.35433,-0.35434 -0.86369,-0.55365 -0.48721,-0.19932 -1.19588,-0.19932 -1.83811,0 -2.7461,1.3952 -0.88584,1.39519 -0.88584,3.72052 v 2.52463 q 0,2.32533 0.88584,3.72052 0.90799,1.3952 2.7461,1.3952 0.70867,0 1.19588,-0.19932 0.50936,-0.19931 0.86369,-0.5315 0.37648,-0.35433 0.64224,-0.79725 0.26575,-0.46507 0.46506,-0.97442 l 1.59451,0.73081 q -0.2879,0.64223 -0.66438,1.24018 -0.37648,0.59794 -0.93013,1.08515 -0.55365,0.48721 -1.32876,0.77511 -0.7751,0.28789 -1.83811,0.28789 z"
                 inkscape:connector-curvature="0" />
            </g>
            <g
               id="flowRoot6821-8-2"
               style="font-style:normal;font-variant:normal;font-weight:normal;font-stretch:normal;font-size:26.66666794px;line-height:1;font-family:'IBM Plex Mono';-inkscape-font-specification:'IBM Plex Mono';text-align:center;letter-spacing:0px;word-spacing:0px;text-anchor:middle;fill:#212529;fill-opacity:1;stroke:none"
               transform="matrix(2.2273435,0,0,2.2273435,-30.972611,281.7091)"
               aria-label="SA">
              <path
                 id="path3837"
                 style="font-style:normal;font-variant:normal;font-weight:normal;font-stretch:normal;font-size:22.1459465px;font-family:'IBM Plex Mono';-inkscape-font-specification:'IBM Plex Mono';fill:#212529;fill-opacity:1"
                 d="m 307.23854,137.5345 q -2.08172,0 -3.41047,-0.75296 -1.32876,-0.77511 -2.19245,-1.97099 l 1.3509,-1.1073 q 0.90799,1.12945 1.90455,1.6831 1.01872,0.55364 2.41391,0.55364 1.68309,0 2.56893,-0.7751 0.88584,-0.77511 0.88584,-2.17031 0,-1.12944 -0.64223,-1.74953 -0.64224,-0.64223 -2.23674,-0.90798 l -1.72739,-0.2879 q -1.12944,-0.19931 -1.90455,-0.59794 -0.75296,-0.39863 -1.21803,-0.95227 -0.46506,-0.5758 -0.66437,-1.24018 -0.19932,-0.68652 -0.19932,-1.41734 0,-2.12601 1.3952,-3.21116 1.39519,-1.08515 3.76481,-1.08515 1.86026,0 3.12258,0.62009 1.28446,0.62008 2.05957,1.74953 l -1.30661,1.12944 q -0.64223,-0.84155 -1.55022,-1.37305 -0.90798,-0.5315 -2.34747,-0.5315 -1.57236,0 -2.41391,0.66438 -0.84154,0.66437 -0.84154,1.99313 0,1.04086 0.62008,1.70524 0.64224,0.64223 2.28104,0.93013 l 1.66094,0.2879 q 1.12945,0.19931 1.90455,0.59794 0.77511,0.39862 1.24018,0.95227 0.48721,0.55365 0.68652,1.24017 0.19931,0.68653 0.19931,1.43949 0,2.14816 -1.41734,3.36619 -1.39519,1.21802 -3.98627,1.21802 z"
                 inkscape:connector-curvature="0" />
              <path
                 id="path3839"
                 style="font-style:normal;font-variant:normal;font-weight:normal;font-stretch:normal;font-size:22.1459465px;font-family:'IBM Plex Mono';-inkscape-font-specification:'IBM Plex Mono';fill:#212529;fill-opacity:1"
                 d="m 324.57017,137.26875 -1.30661,-4.40704 h -5.42576 l -1.30661,4.40704 h -1.9267 l 4.73924,-15.45787 h 2.4582 l 4.73923,15.45787 z m -3.91983,-13.48688 h -0.19932 l -2.1703,7.46318 h 4.53992 z"
                 inkscape:connector-curvature="0" />
            </g>
            <g
               id="flowRoot6821-8-6-3-3"
               style="font-style:normal;font-variant:normal;font-weight:normal;font-stretch:normal;font-size:20.69070435px;line-height:1;font-family:Static;-inkscape-font-specification:Static;text-align:center;letter-spacing:0px;word-spacing:0px;text-anchor:middle;fill:#212529;fill-opacity:1;stroke:none"
               transform="matrix(0,2.3839995,-2.3839995,0,878.59949,78.456286)"
               aria-label="NONCOMMERCIAL">
              <path
                 id="path3842"
                 style="font-style:normal;font-variant:normal;font-weight:normal;font-stretch:normal;font-size:20.69070435px;font-family:'IBM Plex Mono';-inkscape-font-specification:'IBM Plex Mono';fill:#212529;fill-opacity:1"
                 d="m 236.64934,120.37929 h -0.14483 v 12.22821 h -1.5725 v -14.44211 h 2.4622 l 4.92438,12.10406 h 0.14484 v -12.10406 h 1.57249 v 14.44211 h -2.46219 z"
                 inkscape:connector-curvature="0" />
              <path
                 id="path3844"
                 style="font-style:normal;font-variant:normal;font-weight:normal;font-stretch:normal;font-size:20.69070435px;font-family:'IBM Plex Mono';-inkscape-font-specification:'IBM Plex Mono';fill:#212529;fill-opacity:1"
                 d="m 251.89031,132.85579 q -1.32421,0 -2.27598,-0.49658 -0.95177,-0.51727 -1.57249,-1.46904 -0.62072,-0.95177 -0.91039,-2.33805 -0.28967,-1.38628 -0.28967,-3.16568 0,-1.75871 0.28967,-3.14498 0.28967,-1.40697 0.91039,-2.35874 0.62072,-0.95178 1.57249,-1.44835 0.95177,-0.51727 2.27598,-0.51727 1.3242,0 2.27598,0.51727 0.95177,0.49657 1.57249,1.44835 0.62072,0.95177 0.91039,2.35874 0.28967,1.38627 0.28967,3.14498 0,1.7794 -0.28967,3.16568 -0.28967,1.38628 -0.91039,2.33805 -0.62072,0.95177 -1.57249,1.46904 -0.95178,0.49658 -2.27598,0.49658 z m 0,-1.51042 q 0.86901,0 1.46904,-0.33105 0.60003,-0.35175 0.99315,-0.97247 0.39313,-0.62072 0.55865,-1.48973 0.18622,-0.8897 0.18622,-1.98631 v -2.35874 q 0,-1.07591 -0.18622,-1.96561 -0.16552,-0.8897 -0.55865,-1.51042 -0.39312,-0.62073 -0.99315,-0.95178 -0.60003,-0.35174 -1.46904,-0.35174 -0.86901,0 -1.46904,0.35174 -0.60003,0.33105 -0.99316,0.95178 -0.39312,0.62072 -0.57933,1.51042 -0.16553,0.8897 -0.16553,1.96561 v 2.35874 q 0,1.09661 0.16553,1.98631 0.18621,0.86901 0.57933,1.48973 0.39313,0.62072 0.99316,0.97247 0.60003,0.33105 1.46904,0.33105 z"
                 inkscape:connector-curvature="0" />
              <path
                 id="path3846"
                 style="font-style:normal;font-variant:normal;font-weight:normal;font-stretch:normal;font-size:20.69070435px;font-family:'IBM Plex Mono';-inkscape-font-specification:'IBM Plex Mono';fill:#212529;fill-opacity:1"
                 d="m 261.46202,120.37929 h -0.14483 v 12.22821 h -1.5725 v -14.44211 h 2.4622 l 4.92439,12.10406 h 0.14483 v -12.10406 h 1.57249 v 14.44211 h -2.46219 z"
                 inkscape:connector-curvature="0" />
              <path
                 id="path3848"
                 style="font-style:normal;font-variant:normal;font-weight:normal;font-stretch:normal;font-size:20.69070435px;font-family:'IBM Plex Mono';-inkscape-font-specification:'IBM Plex Mono';fill:#212529;fill-opacity:1"
                 d="m 277.17888,132.85579 q -2.64842,0 -3.95193,-1.92424 -1.28282,-1.92423 -1.28282,-5.54511 0,-3.62087 1.28282,-5.54511 1.30351,-1.92423 3.95193,-1.92423 0.99315,0 1.71732,0.26898 0.72418,0.26898 1.24145,0.72417 0.51726,0.4552 0.86901,1.03454 0.35174,0.55865 0.62072,1.13799 l -1.48973,0.68279 q -0.18622,-0.47589 -0.43451,-0.8897 -0.24829,-0.4345 -0.60003,-0.74487 -0.33105,-0.33105 -0.80694,-0.51726 -0.45519,-0.18622 -1.11729,-0.18622 -1.71733,0 -2.56565,1.30352 -0.82763,1.30351 -0.82763,3.47603 v 2.35874 q 0,2.17253 0.82763,3.47604 0.84832,1.30352 2.56565,1.30352 0.6621,0 1.11729,-0.18622 0.47589,-0.18622 0.80694,-0.49658 0.35174,-0.33105 0.60003,-0.74486 0.24829,-0.43451 0.43451,-0.91039 l 1.48973,0.68279 q -0.26898,0.60003 -0.62072,1.15868 -0.35175,0.55865 -0.86901,1.01384 -0.51727,0.4552 -1.24145,0.72418 -0.72417,0.26898 -1.71732,0.26898 z"
                 inkscape:connector-curvature="0" />
              <path
                 id="path3850"
                 style="font-style:normal;font-variant:normal;font-weight:normal;font-stretch:normal;font-size:20.69070435px;font-family:'IBM Plex Mono';-inkscape-font-specification:'IBM Plex Mono';fill:#212529;fill-opacity:1"
                 d="m 289.10933,132.85579 q -1.3242,0 -2.27598,-0.49658 -0.95177,-0.51727 -1.57249,-1.46904 -0.62072,-0.95177 -0.91039,-2.33805 -0.28967,-1.38628 -0.28967,-3.16568 0,-1.75871 0.28967,-3.14498 0.28967,-1.40697 0.91039,-2.35874 0.62072,-0.95178 1.57249,-1.44835 0.95178,-0.51727 2.27598,-0.51727 1.32421,0 2.27598,0.51727 0.95177,0.49657 1.57249,1.44835 0.62072,0.95177 0.91039,2.35874 0.28967,1.38627 0.28967,3.14498 0,1.7794 -0.28967,3.16568 -0.28967,1.38628 -0.91039,2.33805 -0.62072,0.95177 -1.57249,1.46904 -0.95177,0.49658 -2.27598,0.49658 z m 0,-1.51042 q 0.86901,0 1.46904,-0.33105 0.60003,-0.35175 0.99315,-0.97247 0.39313,-0.62072 0.55865,-1.48973 0.18622,-0.8897 0.18622,-1.98631 v -2.35874 q 0,-1.07591 -0.18622,-1.96561 -0.16552,-0.8897 -0.55865,-1.51042 -0.39312,-0.62073 -0.99315,-0.95178 -0.60003,-0.35174 -1.46904,-0.35174 -0.86901,0 -1.46904,0.35174 -0.60003,0.33105 -0.99315,0.95178 -0.39313,0.62072 -0.57934,1.51042 -0.16553,0.8897 -0.16553,1.96561 v 2.35874 q 0,1.09661 0.16553,1.98631 0.18621,0.86901 0.57934,1.48973 0.39312,0.62072 0.99315,0.97247 0.60003,0.33105 1.46904,0.33105 z"
                 inkscape:connector-curvature="0" />
              <path
                 id="path3852"
                 style="font-style:normal;font-variant:normal;font-weight:normal;font-stretch:normal;font-size:20.69070435px;font-family:'IBM Plex Mono';-inkscape-font-specification:'IBM Plex Mono';fill:#212529;fill-opacity:1"
                 d="m 304.72273,125.36575 v -4.57264 h -0.16552 l -3.04154,7.42796 -3.04153,-7.42796 h -0.16553 v 4.57264 7.24175 h -1.59318 v -14.44211 h 2.23459 l 2.54496,6.37273 h 0.12415 l 2.54495,-6.37273 h 2.15184 v 14.44211 h -1.59319 z"
                 inkscape:connector-curvature="0" />
              <path
                 id="path3854"
                 style="font-style:normal;font-variant:normal;font-weight:normal;font-stretch:normal;font-size:20.69070435px;font-family:'IBM Plex Mono';-inkscape-font-specification:'IBM Plex Mono';fill:#212529;fill-opacity:1"
                 d="m 317.12907,125.36575 v -4.57264 h -0.16553 l -3.04153,7.42796 -3.04153,-7.42796 h -0.16553 v 4.57264 7.24175 h -1.59318 v -14.44211 h 2.23459 l 2.54496,6.37273 h 0.12414 l 2.54496,-6.37273 h 2.15183 v 14.44211 h -1.59318 z"
                 inkscape:connector-curvature="0" />
              <path
                 id="path3856"
                 style="font-style:normal;font-variant:normal;font-weight:normal;font-stretch:normal;font-size:20.69070435px;font-family:'IBM Plex Mono';-inkscape-font-specification:'IBM Plex Mono';fill:#212529;fill-opacity:1"
                 d="m 321.9833,132.6075 v -14.44211 h 8.89701 v 1.51042 h -7.15899 v 4.86231 h 6.9107 v 1.51043 h -6.9107 v 5.04853 h 7.15899 v 1.51042 z"
                 inkscape:connector-curvature="0" />
              <path
                 id="path3858"
                 style="font-style:normal;font-variant:normal;font-weight:normal;font-stretch:normal;font-size:20.69070435px;font-family:'IBM Plex Mono';-inkscape-font-specification:'IBM Plex Mono';fill:#212529;fill-opacity:1"
                 d="m 336.12766,132.6075 h -1.73802 v -14.44211 h 5.25544 q 2.007,0 3.06223,1.09661 1.05522,1.0966 1.05522,3.06222 0,1.75871 -0.91039,2.81394 -0.91039,1.05522 -2.64841,1.22075 l 3.68295,6.24859 h -1.94493 l -3.51742,-6.16583 h -2.29667 z m 3.47604,-7.63487 q 1.09661,0 1.69664,-0.53796 0.62072,-0.55865 0.62072,-1.57249 v -1.07592 q 0,-1.01384 -0.62072,-1.5518 -0.60003,-0.55865 -1.69664,-0.55865 h -3.47604 v 5.29682 z"
                 inkscape:connector-curvature="0" />
              <path
                 id="path3860"
                 style="font-style:normal;font-variant:normal;font-weight:normal;font-stretch:normal;font-size:20.69070435px;font-family:'IBM Plex Mono';-inkscape-font-specification:'IBM Plex Mono';fill:#212529;fill-opacity:1"
                 d="m 351.61692,132.85579 q -2.64841,0 -3.95192,-1.92424 -1.28283,-1.92423 -1.28283,-5.54511 0,-3.62087 1.28283,-5.54511 1.30351,-1.92423 3.95192,-1.92423 0.99315,0 1.71733,0.26898 0.72417,0.26898 1.24144,0.72417 0.51727,0.4552 0.86901,1.03454 0.35174,0.55865 0.62072,1.13799 l -1.48973,0.68279 q -0.18621,-0.47589 -0.4345,-0.8897 -0.24829,-0.4345 -0.60003,-0.74487 -0.33106,-0.33105 -0.80694,-0.51726 -0.4552,-0.18622 -1.1173,-0.18622 -1.71733,0 -2.56565,1.30352 -0.82762,1.30351 -0.82762,3.47603 v 2.35874 q 0,2.17253 0.82762,3.47604 0.84832,1.30352 2.56565,1.30352 0.6621,0 1.1173,-0.18622 0.47588,-0.18622 0.80694,-0.49658 0.35174,-0.33105 0.60003,-0.74486 0.24829,-0.43451 0.4345,-0.91039 l 1.48973,0.68279 q -0.26898,0.60003 -0.62072,1.15868 -0.35174,0.55865 -0.86901,1.01384 -0.51727,0.4552 -1.24144,0.72418 -0.72418,0.26898 -1.71733,0.26898 z"
                 inkscape:connector-curvature="0" />
              <path
                 id="path3862"
                 style="font-style:normal;font-variant:normal;font-weight:normal;font-stretch:normal;font-size:20.69070435px;font-family:'IBM Plex Mono';-inkscape-font-specification:'IBM Plex Mono';fill:#212529;fill-opacity:1"
                 d="m 359.07818,132.6075 v -1.38628 h 3.60019 v -11.66956 h -3.60019 v -1.38627 h 8.93839 v 1.38627 h -3.60018 v 11.66956 h 3.60018 v 1.38628 z"
                 inkscape:connector-curvature="0" />
              <path
                 id="path3864"
                 style="font-style:normal;font-variant:normal;font-weight:normal;font-stretch:normal;font-size:20.69070435px;font-family:'IBM Plex Mono';-inkscape-font-specification:'IBM Plex Mono';fill:#212529;fill-opacity:1"
                 d="m 379.69873,132.6075 -1.22075,-4.11745 h -5.06923 l -1.22075,4.11745 h -1.80009 l 4.42781,-14.44211 h 2.29667 l 4.42781,14.44211 z m -3.66226,-12.60064 h -0.18621 l -2.02769,6.97277 h 4.24159 z"
                 inkscape:connector-curvature="0" />
              <path
                 id="path3866"
                 style="font-style:normal;font-variant:normal;font-weight:normal;font-stretch:normal;font-size:20.69070435px;font-family:'IBM Plex Mono';-inkscape-font-specification:'IBM Plex Mono';fill:#212529;fill-opacity:1"
                 d="m 384.63572,132.6075 v -14.44211 h 1.73802 v 12.93169 h 6.84863 v 1.51042 z"
                 inkscape:connector-curvature="0" />
            </g>
            <g
               id="flowRoot6821-8-6-3-2"
               style="font-style:normal;font-variant:normal;font-weight:normal;font-stretch:normal;font-size:20.69070435px;line-height:1;font-family:Static;-inkscape-font-specification:Static;text-align:center;letter-spacing:0px;word-spacing:0px;text-anchor:middle;fill:#212529;fill-opacity:1;stroke:none"
               transform="matrix(0,2.3839995,-2.3839995,0,967.53134,35.817655)"
               aria-label="SHAREALIKE">
              <path
                 id="path3869"
                 style="font-style:normal;font-variant:normal;font-weight:normal;font-stretch:normal;font-size:20.69070435px;font-family:'IBM Plex Mono';-inkscape-font-specification:'IBM Plex Mono';fill:#212529;fill-opacity:1"
                 d="m 258.0521,132.85579 q -1.94493,0 -3.18637,-0.70349 -1.24144,-0.72417 -2.04838,-1.84147 l 1.26213,-1.03453 q 0.84832,1.05522 1.7794,1.57249 0.95177,0.51727 2.25529,0.51727 1.57249,0 2.40012,-0.72418 0.82763,-0.72417 0.82763,-2.02769 0,-1.05522 -0.60003,-1.63456 -0.60003,-0.60003 -2.08976,-0.84832 l -1.61388,-0.26898 q -1.05522,-0.18622 -1.7794,-0.55865 -0.70348,-0.37243 -1.13799,-0.8897 -0.4345,-0.53796 -0.62072,-1.15868 -0.18621,-0.64141 -0.18621,-1.3242 0,-1.98631 1.30351,-3.00016 1.30351,-1.01384 3.51742,-1.01384 1.73802,0 2.91739,0.57934 1.20006,0.57934 1.92423,1.63456 l -1.22075,1.05523 q -0.60003,-0.78625 -1.44835,-1.28282 -0.84831,-0.49658 -2.19321,-0.49658 -1.46904,0 -2.25529,0.62072 -0.78624,0.62072 -0.78624,1.86216 0,0.97247 0.57934,1.59319 0.60003,0.60003 2.13114,0.86901 l 1.5518,0.26898 q 1.05523,0.18621 1.7794,0.55865 0.72418,0.37243 1.15868,0.8897 0.4552,0.51726 0.64141,1.15868 0.18622,0.64141 0.18622,1.34489 0,2.007 -1.32421,3.14499 -1.30351,1.13799 -3.72432,1.13799 z"
                 inkscape:connector-curvature="0" />
              <path
                 id="path3871"
                 style="font-style:normal;font-variant:normal;font-weight:normal;font-stretch:normal;font-size:20.69070435px;font-family:'IBM Plex Mono';-inkscape-font-specification:'IBM Plex Mono';fill:#212529;fill-opacity:1"
                 d="m 273.31375,126.04855 h -5.62787 v 6.55895 h -1.73802 v -14.44211 h 1.73802 v 6.37273 h 5.62787 v -6.37273 h 1.73802 v 14.44211 h -1.73802 z"
                 inkscape:connector-curvature="0" />
              <path
                 id="path3873"
                 style="font-style:normal;font-variant:normal;font-weight:normal;font-stretch:normal;font-size:20.69070435px;font-family:'IBM Plex Mono';-inkscape-font-specification:'IBM Plex Mono';fill:#212529;fill-opacity:1"
                 d="m 286.65118,132.6075 -1.22075,-4.11745 h -5.06923 l -1.22075,4.11745 h -1.80009 l 4.42781,-14.44211 h 2.29667 l 4.42781,14.44211 z m -3.66226,-12.60064 h -0.18621 l -2.02769,6.97277 h 4.24159 z"
                 inkscape:connector-curvature="0" />
              <path
                 id="path3875"
                 style="font-style:normal;font-variant:normal;font-weight:normal;font-stretch:normal;font-size:20.69070435px;font-family:'IBM Plex Mono';-inkscape-font-specification:'IBM Plex Mono';fill:#212529;fill-opacity:1"
                 d="m 292.70547,132.6075 h -1.73802 v -14.44211 h 5.25544 q 2.007,0 3.06222,1.09661 1.05523,1.0966 1.05523,3.06222 0,1.75871 -0.91039,2.81394 -0.91039,1.05522 -2.64841,1.22075 l 3.68294,6.24859 h -1.94492 l -3.51742,-6.16583 h -2.29667 z m 3.47604,-7.63487 q 1.09661,0 1.69664,-0.53796 0.62072,-0.55865 0.62072,-1.57249 v -1.07592 q 0,-1.01384 -0.62072,-1.5518 -0.60003,-0.55865 -1.69664,-0.55865 h -3.47604 v 5.29682 z"
                 inkscape:connector-curvature="0" />
              <path
                 id="path3877"
                 style="font-style:normal;font-variant:normal;font-weight:normal;font-stretch:normal;font-size:20.69070435px;font-family:'IBM Plex Mono';-inkscape-font-specification:'IBM Plex Mono';fill:#212529;fill-opacity:1"
                 d="m 303.37379,132.6075 v -14.44211 h 8.89701 v 1.51042 h -7.15899 v 4.86231 h 6.9107 v 1.51043 h -6.9107 v 5.04853 h 7.15899 v 1.51042 z"
                 inkscape:connector-curvature="0" />
              <path
                 id="path3879"
                 style="font-style:normal;font-variant:normal;font-weight:normal;font-stretch:normal;font-size:20.69070435px;font-family:'IBM Plex Mono';-inkscape-font-specification:'IBM Plex Mono';fill:#212529;fill-opacity:1"
                 d="m 323.8702,132.6075 -1.22075,-4.11745 h -5.06922 l -1.22076,4.11745 h -1.80009 l 4.42781,-14.44211 h 2.29667 l 4.42781,14.44211 z m -3.66225,-12.60064 h -0.18622 l -2.02769,6.97277 h 4.24159 z"
                 inkscape:connector-curvature="0" />
              <path
                 id="path3881"
                 style="font-style:normal;font-variant:normal;font-weight:normal;font-stretch:normal;font-size:20.69070435px;font-family:'IBM Plex Mono';-inkscape-font-specification:'IBM Plex Mono';fill:#212529;fill-opacity:1"
                 d="m 328.80719,132.6075 v -14.44211 h 1.73802 v 12.93169 h 6.84863 v 1.51042 z"
                 inkscape:connector-curvature="0" />
              <path
                 id="path3883"
                 style="font-style:normal;font-variant:normal;font-weight:normal;font-stretch:normal;font-size:20.69070435px;font-family:'IBM Plex Mono';-inkscape-font-specification:'IBM Plex Mono';fill:#212529;fill-opacity:1"
                 d="m 340.46867,132.6075 v -1.38628 h 3.60018 v -11.66956 h -3.60018 v -1.38627 h 8.93838 v 1.38627 h -3.60018 v 11.66956 h 3.60018 v 1.38628 z"
                 inkscape:connector-curvature="0" />
              <path
                 id="path3885"
                 style="font-style:normal;font-variant:normal;font-weight:normal;font-stretch:normal;font-size:20.69070435px;font-family:'IBM Plex Mono';-inkscape-font-specification:'IBM Plex Mono';fill:#212529;fill-opacity:1"
                 d="m 356.70279,125.53128 -2.06907,2.4415 v 4.63472 h -1.73802 v -14.44211 h 1.73802 v 7.53141 h 0.0621 l 1.90355,-2.40012 4.26228,-5.13129 h 2.08976 l -5.06922,6.08306 5.21406,8.35905 h -2.02769 z"
                 inkscape:connector-curvature="0" />
              <path
                 id="path3887"
                 style="font-style:normal;font-variant:normal;font-weight:normal;font-stretch:normal;font-size:20.69070435px;font-family:'IBM Plex Mono';-inkscape-font-specification:'IBM Plex Mono';fill:#212529;fill-opacity:1"
                 d="m 365.4055,132.6075 v -14.44211 h 8.897 v 1.51042 h -7.15898 v 4.86231 h 6.91069 v 1.51043 h -6.91069 v 5.04853 h 7.15898 v 1.51042 z"
                 inkscape:connector-curvature="0" />
            </g>
            <g
               id="flowRoot6821-8-6-3-9"
               style="font-style:normal;font-variant:normal;font-weight:normal;font-stretch:normal;font-size:20.69070435px;line-height:1;font-family:Static;-inkscape-font-specification:Static;text-align:center;letter-spacing:0px;word-spacing:0px;text-anchor:middle;fill:#212529;fill-opacity:1;stroke:none"
               transform="matrix(0,2.3839995,-2.3839995,0,789.6676,51.296582)"
               aria-label="ATTRIBUTION">
              <path
                 id="path3890"
                 style="font-style:normal;font-variant:normal;font-weight:normal;font-stretch:normal;font-size:20.69070435px;font-family:'IBM Plex Mono';-inkscape-font-specification:'IBM Plex Mono';fill:#212529;fill-opacity:1"
                 d="m 255.63533,132.6075 -1.22076,-4.11745 h -5.06922 l -1.22075,4.11745 h -1.80009 l 4.42781,-14.44211 h 2.29667 l 4.42781,14.44211 z m -3.66226,-12.60064 h -0.18622 l -2.02768,6.97277 h 4.24159 z"
                 inkscape:connector-curvature="0" />
              <path
                 id="path3892"
                 style="font-style:normal;font-variant:normal;font-weight:normal;font-stretch:normal;font-size:20.69070435px;font-family:'IBM Plex Mono';-inkscape-font-specification:'IBM Plex Mono';fill:#212529;fill-opacity:1"
                 d="m 265.16566,119.67581 v 12.93169 h -1.73802 v -12.93169 h -4.82093 v -1.51042 h 11.37988 v 1.51042 z"
                 inkscape:connector-curvature="0" />
              <path
                 id="path3894"
                 style="font-style:normal;font-variant:normal;font-weight:normal;font-stretch:normal;font-size:20.69070435px;font-family:'IBM Plex Mono';-inkscape-font-specification:'IBM Plex Mono';fill:#212529;fill-opacity:1"
                 d="m 277.572,119.67581 v 12.93169 h -1.73802 v -12.93169 h -4.82093 v -1.51042 h 11.37988 v 1.51042 z"
                 inkscape:connector-curvature="0" />
              <path
                 id="path3896"
                 style="font-style:normal;font-variant:normal;font-weight:normal;font-stretch:normal;font-size:20.69070435px;font-family:'IBM Plex Mono';-inkscape-font-specification:'IBM Plex Mono';fill:#212529;fill-opacity:1"
                 d="m 286.5023,132.6075 h -1.73802 v -14.44211 h 5.25544 q 2.007,0 3.06222,1.09661 1.05523,1.0966 1.05523,3.06222 0,1.75871 -0.91039,2.81394 -0.91039,1.05522 -2.64841,1.22075 l 3.68294,6.24859 h -1.94492 l -3.51742,-6.16583 h -2.29667 z m 3.47604,-7.63487 q 1.09661,0 1.69664,-0.53796 0.62072,-0.55865 0.62072,-1.57249 v -1.07592 q 0,-1.01384 -0.62072,-1.5518 -0.60003,-0.55865 -1.69664,-0.55865 h -3.47604 v 5.29682 z"
                 inkscape:connector-curvature="0" />
              <path
                 id="path3898"
                 style="font-style:normal;font-variant:normal;font-weight:normal;font-stretch:normal;font-size:20.69070435px;font-family:'IBM Plex Mono';-inkscape-font-specification:'IBM Plex Mono';fill:#212529;fill-opacity:1"
                 d="m 297.04648,132.6075 v -1.38628 h 3.60018 v -11.66956 h -3.60018 v -1.38627 h 8.93838 v 1.38627 h -3.60018 v 11.66956 h 3.60018 v 1.38628 z"
                 inkscape:connector-curvature="0" />
              <path
                 id="path3900"
                 style="font-style:normal;font-variant:normal;font-weight:normal;font-stretch:normal;font-size:20.69070435px;font-family:'IBM Plex Mono';-inkscape-font-specification:'IBM Plex Mono';fill:#212529;fill-opacity:1"
                 d="m 309.53558,118.16539 h 4.9037 q 1.86216,0 2.91739,1.01384 1.05523,1.01385 1.05523,2.71048 0,1.30352 -0.64142,2.04838 -0.62072,0.74487 -1.61387,1.05523 v 0.0621 q 1.22075,0.28967 2.007,1.09661 0.78624,0.78625 0.78624,2.29667 0,0.86901 -0.28967,1.63456 -0.28967,0.76556 -0.82762,1.32421 -0.51727,0.55865 -1.24145,0.8897 -0.70348,0.31036 -1.53111,0.31036 h -5.52442 z m 5.00715,12.93169 q 1.20006,0 1.88286,-0.53796 0.68279,-0.53796 0.68279,-1.65526 v -0.84832 q 0,-1.0966 -0.68279,-1.63456 -0.6828,-0.55865 -1.88286,-0.55865 h -3.26913 v 5.23475 z m -0.28967,-6.66241 q 1.09661,0 1.71733,-0.47589 0.62072,-0.49657 0.62072,-1.48973 v -0.80693 q 0,-0.99316 -0.62072,-1.48973 -0.62072,-0.49658 -1.71733,-0.49658 h -2.97946 v 4.75886 z"
                 inkscape:connector-curvature="0" />
              <path
                 id="path3902"
                 style="font-style:normal;font-variant:normal;font-weight:normal;font-stretch:normal;font-size:20.69070435px;font-family:'IBM Plex Mono';-inkscape-font-specification:'IBM Plex Mono';fill:#212529;fill-opacity:1"
                 d="m 323.51441,118.16539 v 8.6694 q 0,1.05523 0.0621,1.88286 0.0621,0.82763 0.33105,1.42766 0.26898,0.57934 0.82763,0.8897 0.57934,0.31036 1.59318,0.31036 1.01384,0 1.57249,-0.31036 0.57934,-0.31036 0.84832,-0.8897 0.26898,-0.60003 0.33105,-1.42766 0.0621,-0.82763 0.0621,-1.88286 v -8.6694 h 1.73802 v 8.25559 q 0,1.61387 -0.16553,2.81393 -0.14484,1.20007 -0.64141,2.007 -0.47589,0.80694 -1.38628,1.22075 -0.8897,0.39313 -2.35874,0.39313 -1.46904,0 -2.37943,-0.39313 -0.8897,-0.41381 -1.38628,-1.22075 -0.47588,-0.80693 -0.64141,-2.007 -0.14483,-1.20006 -0.14483,-2.81393 v -8.25559 z"
                 inkscape:connector-curvature="0" />
              <path
                 id="path3904"
                 style="font-style:normal;font-variant:normal;font-weight:normal;font-stretch:normal;font-size:20.69070435px;font-family:'IBM Plex Mono';-inkscape-font-specification:'IBM Plex Mono';fill:#212529;fill-opacity:1"
                 d="m 339.6037,119.67581 v 12.93169 h -1.73802 v -12.93169 h -4.82093 v -1.51042 h 11.37989 v 1.51042 z"
                 inkscape:connector-curvature="0" />
              <path
                 id="path3906"
                 style="font-style:normal;font-variant:normal;font-weight:normal;font-stretch:normal;font-size:20.69070435px;font-family:'IBM Plex Mono';-inkscape-font-specification:'IBM Plex Mono';fill:#212529;fill-opacity:1"
                 d="m 346.67184,132.6075 v -1.38628 h 3.60018 v -11.66956 h -3.60018 v -1.38627 h 8.93839 v 1.38627 h -3.60019 v 11.66956 h 3.60019 v 1.38628 z"
                 inkscape:connector-curvature="0" />
              <path
                 id="path3908"
                 style="font-style:normal;font-variant:normal;font-weight:normal;font-stretch:normal;font-size:20.69070435px;font-family:'IBM Plex Mono';-inkscape-font-specification:'IBM Plex Mono';fill:#212529;fill-opacity:1"
                 d="m 363.54737,132.85579 q -1.3242,0 -2.27597,-0.49658 -0.95178,-0.51727 -1.5725,-1.46904 -0.62072,-0.95177 -0.91039,-2.33805 -0.28967,-1.38628 -0.28967,-3.16568 0,-1.75871 0.28967,-3.14498 0.28967,-1.40697 0.91039,-2.35874 0.62072,-0.95178 1.5725,-1.44835 0.95177,-0.51727 2.27597,-0.51727 1.32421,0 2.27598,0.51727 0.95177,0.49657 1.5725,1.44835 0.62072,0.95177 0.91039,2.35874 0.28967,1.38627 0.28967,3.14498 0,1.7794 -0.28967,3.16568 -0.28967,1.38628 -0.91039,2.33805 -0.62073,0.95177 -1.5725,1.46904 -0.95177,0.49658 -2.27598,0.49658 z m 0,-1.51042 q 0.86901,0 1.46904,-0.33105 0.60004,-0.35175 0.99316,-0.97247 0.39312,-0.62072 0.55865,-1.48973 0.18621,-0.8897 0.18621,-1.98631 v -2.35874 q 0,-1.07591 -0.18621,-1.96561 -0.16553,-0.8897 -0.55865,-1.51042 -0.39312,-0.62073 -0.99316,-0.95178 -0.60003,-0.35174 -1.46904,-0.35174 -0.869,0 -1.46904,0.35174 -0.60003,0.33105 -0.99315,0.95178 -0.39312,0.62072 -0.57934,1.51042 -0.16552,0.8897 -0.16552,1.96561 v 2.35874 q 0,1.09661 0.16552,1.98631 0.18622,0.86901 0.57934,1.48973 0.39312,0.62072 0.99315,0.97247 0.60004,0.33105 1.46904,0.33105 z"
                 inkscape:connector-curvature="0" />
              <path
                 id="path3910"
                 style="font-style:normal;font-variant:normal;font-weight:normal;font-stretch:normal;font-size:20.69070435px;font-family:'IBM Plex Mono';-inkscape-font-specification:'IBM Plex Mono';fill:#212529;fill-opacity:1"
                 d="m 373.11909,120.37929 h -0.14484 v 12.22821 h -1.57249 v -14.44211 h 2.4622 l 4.92438,12.10406 h 0.14484 v -12.10406 h 1.57249 v 14.44211 h -2.46219 z"
                 inkscape:connector-curvature="0" />
            </g>
          </g>
        </g>
      </g>
      <g
         style="fill:#212529;fill-opacity:1"
         transform="matrix(5.3285521,0,0,5.3285521,1046.4725,-434.84441)"
         id="g2833" />
      <g
         style="fill:#212529;fill-opacity:1"
         transform="translate(23.18588)"
         id="g1762" />
    </g>
  </g>
</svg>
