<?xml version="1.0" encoding="UTF-8" standalone="no"?>
<!-- Created with Inkscape (http://www.inkscape.org/) -->

<svg
   xmlns:dc="http://purl.org/dc/elements/1.1/"
   xmlns:cc="http://creativecommons.org/ns#"
   xmlns:rdf="http://www.w3.org/1999/02/22-rdf-syntax-ns#"
   xmlns:svg="http://www.w3.org/2000/svg"
   xmlns="http://www.w3.org/2000/svg"
   xmlns:sodipodi="http://sodipodi.sourceforge.net/DTD/sodipodi-0.dtd"
   xmlns:inkscape="http://www.inkscape.org/namespaces/inkscape"
   width="147mm"
   height="289mm"
   viewBox="0 0 147 289"
   version="1.1"
   id="svg8"
   inkscape:version="0.92.3 (unknown)"
   sodipodi:docname="cc-by-nc-sa.svg">
  <defs
     id="defs2" />
  <sodipodi:namedview
     id="base"
     pagecolor="#ffffff"
     bordercolor="#666666"
     borderopacity="1.0"
     inkscape:pageopacity="0.0"
     inkscape:pageshadow="2"
     inkscape:zoom="0.32"
     inkscape:cx="65.5815"
     inkscape:cy="842.26898"
     inkscape:document-units="mm"
     inkscape:current-layer="g4587"
     showgrid="false"
     inkscape:window-width="1366"
     inkscape:window-height="768"
     inkscape:window-x="0"
     inkscape:window-y="0"
     inkscape:window-maximized="1" />
  <metadata
     id="metadata5">
    <rdf:RDF>
      <cc:Work
         rdf:about="">
        <dc:format>image/svg+xml</dc:format>
        <dc:type
           rdf:resource="http://purl.org/dc/dcmitype/StillImage" />
        <dc:title />
      </cc:Work>
    </rdf:RDF>
  </metadata>
  <g
     inkscape:label="Layer 1"
     inkscape:groupmode="layer"
     id="layer1"
     transform="translate(0,-8)">
    <g
       id="g2557"
       transform="matrix(0.42911236,0,0,0.42911236,-485.1733,-186.91932)">
      <g
         id="g4553"
         transform="translate(766.71547,18.643049)">
        <g
           id="g4587">
          <path
             style="opacity:0.95999995;fill:#0b486b;fill-opacity:1;stroke-width:0.13944097"
             inkscape:connector-curvature="0"
             d="m 401.51192,464.43456 -4.63223,2.40954 c -1.31493,-2.73025 -3.51949,-2.77906 -3.82905,-2.77906 -3.08583,0 -4.63223,2.03723 -4.63223,6.11309 0,3.28663 1.28425,6.11309 4.63223,6.11309 2.01771,0 3.43722,-0.98863 4.2627,-2.96451 l 4.25993,2.16133 c -0.86036,1.60497 -3.58223,5.43541 -9.07761,5.43541 -3.15136,0 -10.31305,-1.43903 -10.31305,-10.74393 0,-8.18378 5.99596,-10.74532 10.12759,-10.74532 4.28363,-0.002 7.34854,1.66632 9.20172,5.00036 z m 19.94703,0 -4.57088,2.40954 c -1.32469,-2.75675 -3.58642,-2.77906 -3.8904,-2.77906 -3.08723,0 -4.63223,2.03723 -4.63223,6.11309 0,3.28384 1.28704,6.11309 4.63223,6.11309 2.01493,0 3.43722,-0.98863 4.25852,-2.96451 l 4.32268,2.16133 c -0.29283,0.52291 -2.98265,5.43541 -9.07621,5.43541 -3.16392,0 -10.31306,-1.37628 -10.31306,-10.74393 0,-8.18099 5.99178,-10.74532 10.12759,-10.74532 4.28224,-0.002 7.33182,1.66632 9.14176,5.00036 z m -19.7058,-28.83919 c -19.91497,0 -34.52001,16.04408 -34.52001,34.58137 0,19.31117 15.84049,34.58135 34.52001,34.58135 18.11756,0 34.64272,-14.06541 34.64272,-34.58135 0,-19.22473 -14.8672,-34.58137 -34.64272,-34.58137 z m 0.12131,62.86139 c -15.69268,0 -28.40412,-12.97359 -28.40412,-28.28002 0,-14.69987 11.91243,-28.34417 28.40692,-28.34417 15.69129,0 28.28141,12.47439 28.28141,28.34278 -0.002,16.96856 -13.89947,28.28141 -28.28421,28.28141 z"
             id="path958-7" />
          <path
             style="fill:#0b486b;fill-opacity:1;stroke-width:0.13944097"
             inkscape:connector-curvature="0"
             d="m 500.075,461.58717 v 14.13931 h -3.94618 v 16.80264 h -10.75091 v -16.78869 h -3.94617 v -14.15326 c 0,-0.61354 0.2231,-1.14341 0.64143,-1.57568 0.43226,-0.43227 0.96214,-0.65537 1.57568,-0.65537 h 14.20903 c 0.57171,0 1.08764,0.2231 1.5478,0.65537 0.43227,0.44621 0.66932,0.96214 0.66932,1.57568 z m -14.15326,-8.88239 c 0,-3.24897 1.60357,-4.88043 4.81071,-4.88043 3.20714,0 4.81071,1.63146 4.81071,4.88043 0,3.20714 -1.60357,4.81072 -4.81071,4.81072 -3.20714,0 -4.81071,-1.60358 -4.81071,-4.81072 z m 4.76888,-17.10941 c 19.77273,0 34.6371,15.35245 34.6371,34.58136 0,20.51177 -16.52372,34.58136 -34.6371,34.58136 -18.68509,0 -34.52558,-15.26878 -34.52558,-34.58136 0,-18.5317 14.59946,-34.58136 34.52558,-34.58136 z m 0.11155,6.23301 c -16.48192,0 -28.40413,13.65128 -28.40413,28.34835 0,15.31062 12.71702,28.27863 28.40413,28.27863 14.39031,0 28.27862,-11.30866 28.27862,-28.27863 0.0137,-15.86838 -12.57757,-28.34835 -28.27862,-28.34835 z"
             id="path815-7" />
          <path
             style="fill:#0b486b;fill-opacity:1;stroke-width:0.13944097"
             inkscape:connector-curvature="0"
             d="m 579.62249,435.59537 c 19.49387,0 34.63713,15.04568 34.63713,34.58137 0,20.52571 -16.52374,34.58136 -34.63713,34.58136 -18.75478,0 -34.52557,-15.45006 -34.52557,-34.58136 0,-18.53171 14.59948,-34.58137 34.52557,-34.58137 z m -26.74479,25.25277 c -1.03185,2.84459 -1.54776,5.95413 -1.54776,9.3286 0,15.464 12.8425,28.22285 28.40412,28.22285 17.06757,0 24.70895,-14.19508 24.8902,-14.5158 l -13.0238,-5.80075 c -1.0737,5.17327 -5.74495,7.39038 -9.50988,7.72503 v 5.3127 h -4.0159 v -5.32664 c -3.83461,-0.0418 -7.33455,-1.42229 -10.49989,-4.1414 l 4.75494,-4.81071 c 4.42028,4.09957 12.0477,4.43423 12.0477,-0.30677 0,-0.86453 -0.30678,-1.56174 -0.92029,-2.10556 -1.98007,-0.83664 -0.25102,-0.014 -30.57944,-13.58155 z m 26.85636,-19.07553 c -5.35454,0 -15.67319,1.21314 -23.77471,12.96801 l 13.219,5.92625 c 1.39445,-4.36451 5.63344,-5.98202 8.89633,-6.17724 v -5.3127 h 4.0159 v 5.3127 c 3.16534,0.16733 6.05178,1.24103 8.64536,3.20714 l -4.50392,4.62944 c -5.95413,-4.16928 -11.64332,-1.11552 -9.76091,1.5478 7.44618,3.36053 6.10754,2.76094 12.96804,5.80074 l 17.72292,7.90631 c 0.57172,-2.42628 0.86453,-4.89438 0.86453,-7.40432 0,-7.94814 -2.76091,-14.6413 -8.2688,-20.06556 -5.48007,-5.5637 -12.15927,-8.33857 -20.02374,-8.33857 z"
             id="path848-6" />
          <path
             style="fill:#0b486b;fill-opacity:1;stroke-width:0.13944097"
             inkscape:connector-curvature="0"
             d="m 668.55434,435.59537 c 19.77272,0 34.63713,15.35245 34.63713,34.58136 0,20.51177 -16.52374,34.58136 -34.63713,34.58136 -18.68511,0 -34.52557,-15.26878 -34.52557,-34.58136 0,-18.5317 14.59943,-34.58136 34.52557,-34.58136 z m 0.11157,6.23301 c -16.48195,0 -28.40417,13.65128 -28.40417,28.34835 0,15.31062 12.71702,28.27863 28.40417,28.27863 14.39031,0 28.27863,-11.30866 28.27863,-28.27863 0.0142,-15.86838 -12.57762,-28.34835 -28.27863,-28.34835 z m -15.43613,23.46792 c 1.81274,-11.6991 11.22497,-13.3445 15.18511,-13.3445 13.9162,0 17.77873,11.50388 17.77873,18.71297 0,8.86845 -5.71707,18.53171 -17.97394,18.53171 -5.42426,0 -13.8186,-2.78882 -15.25483,-13.52577 h 8.71502 c 0.20918,4.19717 2.73308,6.30273 7.59954,6.30273 3.24898,0 8.08761,-2.53782 8.08761,-11.54571 0,-11.50388 -6.84658,-11.23894 -7.90631,-11.23894 -4.61549,0 -7.20912,2.03583 -7.78084,6.10751 h 2.53782 l -6.86049,6.8605 -6.83257,-6.8605 z"
             id="path903-0" />
          <g
             aria-label="CC"
             transform="matrix(2.2273434,0,0,2.2273434,-297.81969,283.6908)"
             style="font-style:normal;font-variant:normal;font-weight:normal;font-stretch:normal;font-size:26.66666794px;line-height:1;font-family:'Alegreya Sans Light';-inkscape-font-specification:'Alegreya Sans Light, ';text-align:center;letter-spacing:0px;word-spacing:0px;text-anchor:middle;fill:#212529;fill-opacity:1;stroke:none"
             id="flowRoot6821-8-84">
            <path
               d="m 308.56984,120.62875 q 1.30667,0 2.50667,0.37333 1.2,0.34667 2.16,1.04 l -0.29333,1.25334 -0.21334,0.0267 q -1.86666,-1.49333 -4.21333,-1.49333 -2.85333,0 -4.37333,1.92 -1.49334,1.92 -1.49334,5.54667 0,3.62666 1.46667,5.54666 1.46667,1.89334 4.21333,1.89334 1.22667,0 2.42667,-0.42667 1.2,-0.45333 2.24,-1.25333 l 0.21333,0.08 -0.10666,1.30666 q -2.29334,1.52 -4.85334,1.52 -3.36,0 -5.2,-2.21333 -1.81333,-2.24 -1.81333,-6.37333 0,-4.18667 1.89333,-6.45334 1.92,-2.29333 5.44,-2.29333 z"
               style=""
               id="path289" />
            <path
               d="m 322.31984,120.62875 q 1.30667,0 2.50667,0.37333 1.2,0.34667 2.16,1.04 l -0.29333,1.25334 -0.21334,0.0267 q -1.86666,-1.49333 -4.21333,-1.49333 -2.85333,0 -4.37333,1.92 -1.49334,1.92 -1.49334,5.54667 0,3.62666 1.46667,5.54666 1.46667,1.89334 4.21333,1.89334 1.22667,0 2.42667,-0.42667 1.2,-0.45333 2.24,-1.25333 l 0.21333,0.08 -0.10666,1.30666 q -2.29334,1.52 -4.85334,1.52 -3.36,0 -5.2,-2.21333 -1.81333,-2.24 -1.81333,-6.37333 0,-4.18667 1.89333,-6.45334 1.92,-2.29333 5.44,-2.29333 z"
               style=""
               id="path291" />
          </g>
          <g
             aria-label="BY"
             transform="matrix(2.2273434,0,0,2.2273434,-210.87062,283.6908)"
             style="font-style:normal;font-variant:normal;font-weight:normal;font-stretch:normal;font-size:26.66666794px;line-height:1;font-family:'Alegreya Sans Light';-inkscape-font-specification:'Alegreya Sans Light, ';text-align:center;letter-spacing:0px;word-spacing:0px;text-anchor:middle;fill:#212529;fill-opacity:1;stroke:none"
             id="flowRoot6821-8-0">
            <path
               d="m 309.02193,128.89542 q 1.81333,0.29333 2.77333,1.36 0.98667,1.04 0.98667,2.82666 0,2.32 -1.68,3.57334 -1.68,1.22666 -4.88,1.22666 -1.86667,0 -3.38667,-0.08 l 0.08,-5.17333 -0.08,-11.86667 4.05333,-0.0267 q 2.24,0 3.46667,1.04 1.22667,1.04 1.22667,2.98666 0,1.54667 -0.66667,2.58667 -0.66667,1.04 -1.89333,1.54667 z m 1.14666,-4 q 0,-1.46667 -0.88,-2.21334 -0.85333,-0.77333 -2.53333,-0.77333 h -2.50667 l -0.0533,6.50667 3.2,0.0533 q 1.36,-0.29333 2.05333,-1.17333 0.72,-0.90667 0.72,-2.4 z m -3.84,11.81333 q 2.42667,0 3.73334,-0.96 1.33333,-0.96 1.33333,-2.74667 0,-1.49333 -0.96,-2.34666 -0.96,-0.85334 -2.77333,-1.04 l -3.46667,0.0267 -0.0267,2.90667 0.0533,4.08 q 1.04,0.08 2.10666,0.08 z"
               style=""
               id="path294" />
            <path
               d="m 321.27484,132.70875 0.0533,5.09333 h -1.38667 l 0.0533,-5.09333 -0.0267,-1.2 -5.38667,-10.74667 h 1.54667 l 0.32,0.82667 4.16,8.26667 h 0.16 l 4.53333,-8.24 0.34667,-0.85334 h 1.52 l -5.86667,10.69334 z"
               style=""
               id="path296" />
          </g>
          <g
             aria-label="NC"
             transform="matrix(2.2273434,0,0,2.2273434,-121.67841,283.6908)"
             style="font-style:normal;font-variant:normal;font-weight:normal;font-stretch:normal;font-size:26.66666794px;line-height:1;font-family:'Alegreya Sans Light';-inkscape-font-specification:'Alegreya Sans Light, ';text-align:center;letter-spacing:0px;word-spacing:0px;text-anchor:middle;fill:#212529;fill-opacity:1;stroke:none"
             id="flowRoot6821-8-64">
            <path
               d="m 313.4688,132.94875 v 4.85333 h -1.41333 l -9.76,-14.72 h -0.13334 l -0.0267,9.25334 0.0267,5.46666 h -1.28 l 0.0533,-5.06666 -0.0267,-11.97334 h 1.44 l 9.73334,14.72 h 0.13333 l 0.0267,-14.64 1.30666,-0.10666 z"
               style=""
               id="path299" />
            <path
               d="m 324.22089,120.62875 q 1.30666,0 2.50666,0.37333 1.2,0.34667 2.16,1.04 l -0.29333,1.25334 -0.21333,0.0267 q -1.86667,-1.49333 -4.21334,-1.49333 -2.85333,0 -4.37333,1.92 -1.49333,1.92 -1.49333,5.54667 0,3.62666 1.46666,5.54666 1.46667,1.89334 4.21334,1.89334 1.22666,0 2.42666,-0.42667 1.2,-0.45333 2.24,-1.25333 l 0.21334,0.08 -0.10667,1.30666 q -2.29333,1.52 -4.85333,1.52 -3.36,0 -5.2,-2.21333 -1.81334,-2.24 -1.81334,-6.37333 0,-4.18667 1.89334,-6.45334 1.92,-2.29333 5.44,-2.29333 z"
               style=""
               id="path301" />
          </g>
          <g
             aria-label="SA"
             transform="matrix(2.2273434,0,0,2.2273434,-31.263983,283.6908)"
             style="font-style:normal;font-variant:normal;font-weight:normal;font-stretch:normal;font-size:26.66666794px;line-height:1;font-family:'Alegreya Sans Light';-inkscape-font-specification:'Alegreya Sans Light, ';text-align:center;letter-spacing:0px;word-spacing:0px;text-anchor:middle;fill:#212529;fill-opacity:1;stroke:none"
             id="flowRoot6821-8-7">
            <path
               d="m 307.09943,120.65542 q 1.76,0 3.54666,0.8 l -0.24,1.28 -0.26666,0.08 q -0.74667,-0.48 -1.6,-0.72 -0.82667,-0.26667 -1.6,-0.26667 -1.12,0 -1.97334,0.48 -0.82666,0.45333 -1.28,1.2 -0.42666,0.74667 -0.42666,1.52 0,0.82667 0.48,1.44 0.48,0.61333 1.17333,1.06667 0.72,0.42666 1.92,0.98666 1.41333,0.69334 2.26667,1.25334 0.88,0.53333 1.49333,1.41333 0.61333,0.85333 0.61333,2.08 0,1.25333 -0.69333,2.34667 -0.66667,1.06666 -1.92,1.70666 -1.22667,0.61334 -2.77333,0.61334 -1.09334,0 -2.24,-0.29334 -1.14667,-0.32 -2.08,-0.90666 l 0.16,-1.41334 0.18666,-0.08 q 0.88,0.77334 1.97334,1.17334 1.09333,0.37333 2.10666,0.37333 1.17334,0 2.05334,-0.48 0.88,-0.48 1.36,-1.25333 0.48,-0.77334 0.48,-1.62667 0,-0.88 -0.50667,-1.52 -0.48,-0.66667 -1.2,-1.09333 -0.69333,-0.42667 -1.94667,-1.04 -1.38666,-0.66667 -2.24,-1.2 -0.85333,-0.53334 -1.44,-1.38667 -0.58666,-0.85333 -0.58666,-2.05333 0,-1.22667 0.64,-2.24 0.66666,-1.04 1.84,-1.62667 1.2,-0.61333 2.72,-0.61333 z"
               style=""
               id="path304" />
            <path
               d="m 326.93901,137.80208 h -1.44 l -0.37333,-1.44 -1.28,-3.68 -4.05334,-0.0533 -3.65333,0.0533 -1.38667,3.62667 -0.4,1.49333 h -1.44 l 6.50667,-17.04 h 1.57333 z m -3.52,-6.34666 -3.17333,-9.09334 h -0.16 l -3.46667,9.09334 3.33333,0.0267 z"
               style=""
               id="path306" />
          </g>
          <g
             aria-label="ATTRIBUTION"
             transform="matrix(0,2.3839994,-2.3839994,0,799.01836,61.666204)"
             style="font-style:normal;font-variant:normal;font-weight:normal;font-stretch:normal;font-size:26.66666794px;line-height:1;font-family:'Alegreya Sans Light';-inkscape-font-specification:'Alegreya Sans Light, ';text-align:center;letter-spacing:0px;word-spacing:0px;text-anchor:middle;fill:#212529;fill-opacity:1;stroke:none"
             id="flowRoot6821-8-6-3-2-6">
            <path
               d="m 256.00151,137.80208 h -1.44 l -0.37334,-1.44 -1.28,-3.68 -4.05333,-0.0533 -3.65333,0.0533 -1.38667,3.62667 -0.4,1.49333 h -1.44 l 6.50667,-17.04 h 1.57333 z m -3.52,-6.34666 -3.17334,-9.09334 h -0.16 l -3.46666,9.09334 3.33333,0.0267 z"
               style=""
               id="path309" />
            <path
               d="m 267.32984,120.92208 -0.13333,1.06667 -2.85334,-0.08 h -2.08 l -0.08,10.64 0.0533,5.25333 h -1.38667 l 0.08,-5.17333 -0.08,-10.72 h -2.08 l -2.90667,0.08 -0.10666,-0.16 0.13333,-1.06667 h 11.30667 z"
               style=""
               id="path311" />
            <path
               d="m 280.19442,120.92208 -0.13333,1.06667 -2.85333,-0.08 h -2.08 l -0.08,10.64 0.0533,5.25333 h -1.38667 l 0.08,-5.17333 -0.08,-10.72 h -2.08 l -2.90666,0.08 -0.10667,-0.16 0.13333,-1.06667 h 11.30667 z"
               style=""
               id="path313" />
            <path
               d="m 289.37901,130.81542 q 2,3.22666 4.61333,6.66666 v 0.18667 q -0.42666,0.21333 -1.2,0.34667 l -0.21333,-0.10667 q -2.58667,-3.70667 -4.37333,-6.77333 h -3.36 v 1.41333 l 0.0533,5.25333 h -1.38667 l 0.08,-5.17333 -0.08,-11.86667 4.53334,-0.0267 q 2.42666,0 3.73333,1.22666 1.30667,1.22667 1.30667,3.54667 0,1.86667 -0.96,3.25333 -0.96,1.36 -2.74667,2.05334 z m -4.50667,-0.90667 3.46667,0.0533 q 1.62667,-0.45333 2.48,-1.54666 0.85333,-1.12 0.85333,-2.82667 0,-1.78667 -0.98666,-2.69333 -0.96,-0.93334 -2.8,-0.98667 l -2.96,0.0533 z"
               style=""
               id="path315" />
            <path
               d="m 299.16859,132.54875 0.0533,5.25333 h -1.38666 l 0.08,-5.17333 -0.08,-11.86667 h 1.41333 z"
               style=""
               id="path317" />
            <path
               d="m 310.84484,128.89542 q 1.81334,0.29333 2.77334,1.36 0.98666,1.04 0.98666,2.82666 0,2.32 -1.68,3.57334 -1.68,1.22666 -4.88,1.22666 -1.86666,0 -3.38666,-0.08 l 0.08,-5.17333 -0.08,-11.86667 4.05333,-0.0267 q 2.24,0 3.46667,1.04 1.22666,1.04 1.22666,2.98666 0,1.54667 -0.66666,2.58667 -0.66667,1.04 -1.89334,1.54667 z m 1.14667,-4 q 0,-1.46667 -0.88,-2.21334 -0.85333,-0.77333 -2.53333,-0.77333 h -2.50667 l -0.0533,6.50667 3.2,0.0533 q 1.36,-0.29333 2.05333,-1.17333 0.72,-0.90667 0.72,-2.4 z m -3.84,11.81333 q 2.42667,0 3.73333,-0.96 1.33334,-0.96 1.33334,-2.74667 0,-1.49333 -0.96,-2.34666 -0.96,-0.85334 -2.77334,-1.04 l -3.46666,0.0267 -0.0267,2.90667 0.0533,4.08 q 1.04,0.08 2.10667,0.08 z"
               style=""
               id="path319" />
            <path
               d="m 330.08818,129.45542 v 2.05333 q 0.0533,3.06667 -1.57333,4.74667 -1.62667,1.68 -4.64,1.68 -2.93334,0 -4.50667,-1.62667 -1.54667,-1.62667 -1.52,-4.69333 v -10.85334 h 1.36 l -0.0533,10.72 q -0.0267,2.56 1.2,3.89334 1.22666,1.33333 3.6,1.33333 2.37333,0 3.6,-1.30667 1.25333,-1.30666 1.22666,-3.78666 l -0.0533,-10.85334 h 1.38667 z"
               style=""
               id="path321" />
            <path
               d="m 344.46526,120.92208 -0.13333,1.06667 -2.85334,-0.08 h -2.08 l -0.08,10.64 0.0533,5.25333 h -1.38667 l 0.08,-5.17333 -0.08,-10.72 h -2.08 l -2.90667,0.08 -0.10666,-0.16 0.13333,-1.06667 h 11.30667 z"
               style=""
               id="path323" />
            <path
               d="m 349.11651,132.54875 0.0533,5.25333 h -1.38667 l 0.08,-5.17333 -0.08,-11.86667 h 1.41333 z"
               style=""
               id="path325" />
            <path
               d="m 359.9786,120.60208 q 3.44,0 5.28,2.18667 1.84,2.16 1.84,6.18667 0,4.34666 -1.94667,6.66666 -1.94666,2.32 -5.54667,2.32 -3.38666,0 -5.22666,-2.21333 -1.84,-2.24 -1.84,-6.37333 0,-4.21334 1.92,-6.48 1.94666,-2.29334 5.52,-2.29334 z m -0.08,1.17334 q -2.93334,0 -4.45334,1.89333 -1.52,1.89333 -1.52,5.57333 0,3.76 1.46667,5.68 1.46667,1.92 4.32,1.92 2.93334,0 4.45334,-1.94666 1.52,-1.94667 1.52,-5.70667 0,-3.68 -1.46667,-5.54667 -1.46667,-1.86666 -4.32,-1.86666 z"
               style=""
               id="path327" />
            <path
               d="m 383.49485,132.94875 v 4.85333 h -1.41334 l -9.76,-14.72 h -0.13333 l -0.0267,9.25334 0.0267,5.46666 h -1.28 l 0.0533,-5.06666 -0.0267,-11.97334 h 1.44 l 9.73333,14.72 h 0.13333 l 0.0267,-14.64 1.30667,-0.10666 z"
               style=""
               id="path329" />
          </g>
          <g
             aria-label="SHAREALIKE"
             transform="matrix(0,2.3839994,-2.3839994,0,976.94568,44.050438)"
             style="font-style:normal;font-variant:normal;font-weight:normal;font-stretch:normal;font-size:26.66666794px;line-height:1;font-family:'Alegreya Sans Light';-inkscape-font-specification:'Alegreya Sans Light, ';text-align:center;letter-spacing:0px;word-spacing:0px;text-anchor:middle;fill:#212529;fill-opacity:1;stroke:none"
             id="flowRoot6821-8-6-3-2-8-5-8">
            <path
               d="m 254.96401,120.65542 q 1.76,0 3.54666,0.8 l -0.24,1.28 -0.26666,0.08 q -0.74667,-0.48 -1.6,-0.72 -0.82667,-0.26667 -1.6,-0.26667 -1.12,0 -1.97334,0.48 -0.82666,0.45333 -1.28,1.2 -0.42666,0.74667 -0.42666,1.52 0,0.82667 0.48,1.44 0.48,0.61333 1.17333,1.06667 0.72,0.42666 1.92,0.98666 1.41333,0.69334 2.26667,1.25334 0.88,0.53333 1.49333,1.41333 0.61333,0.85333 0.61333,2.08 0,1.25333 -0.69333,2.34667 -0.66667,1.06666 -1.92,1.70666 -1.22667,0.61334 -2.77333,0.61334 -1.09334,0 -2.24,-0.29334 -1.14667,-0.32 -2.08,-0.90666 l 0.16,-1.41334 0.18666,-0.08 q 0.88,0.77334 1.97334,1.17334 1.09333,0.37333 2.10666,0.37333 1.17334,0 2.05334,-0.48 0.88,-0.48 1.36,-1.25333 0.48,-0.77334 0.48,-1.62667 0,-0.88 -0.50667,-1.52 -0.48,-0.66667 -1.2,-1.09333 -0.69333,-0.42667 -1.94667,-1.04 -1.38666,-0.66667 -2.24,-1.2 -0.85333,-0.53334 -1.44,-1.38667 -0.58666,-0.85333 -0.58666,-2.05333 0,-1.22667 0.64,-2.24 0.66666,-1.04 1.84,-1.62667 1.2,-0.61333 2.72,-0.61333 z"
               style=""
               id="path332" />
            <path
               d="m 275.65693,132.54875 0.0267,5.25333 h -1.36 l 0.0533,-5.17333 v -2.85333 h -10.00001 v 2.77333 l 0.0533,5.25333 h -1.38667 l 0.0533,-5.17333 -0.0533,-11.86667 h 1.38667 l -0.0267,7.81334 h 9.94667 l -0.0267,-7.81334 h 1.38667 z"
               style=""
               id="path334" />
            <path
               d="m 292.87651,137.80208 h -1.44 l -0.37333,-1.44 -1.28,-3.68 -4.05334,-0.0533 -3.65333,0.0533 -1.38667,3.62667 -0.4,1.49333 h -1.44 l 6.50667,-17.04 h 1.57333 z m -3.52,-6.34666 -3.17333,-9.09334 h -0.16 l -3.46667,9.09334 3.33333,0.0267 z"
               style=""
               id="path336" />
            <path
               d="m 302.08734,130.81542 q 2,3.22666 4.61334,6.66666 v 0.18667 q -0.42667,0.21333 -1.2,0.34667 l -0.21334,-0.10667 q -2.58666,-3.70667 -4.37333,-6.77333 h -3.36 v 1.41333 l 0.0533,5.25333 h -1.38666 l 0.08,-5.17333 -0.08,-11.86667 4.53333,-0.0267 q 2.42667,0 3.73333,1.22666 1.30667,1.22667 1.30667,3.54667 0,1.86667 -0.96,3.25333 -0.96,1.36 -2.74667,2.05334 z m -4.50666,-0.90667 3.46666,0.0533 q 1.62667,-0.45333 2.48,-1.54666 0.85334,-1.12 0.85334,-2.82667 0,-1.78667 -0.98667,-2.69333 -0.96,-0.93334 -2.8,-0.98667 l -2.96,0.0533 z"
               style=""
               id="path338" />
            <path
               d="m 319.66359,136.70875 -0.13333,1.09333 h -8.98667 l 0.08,-5.17333 -0.08,-11.86667 h 8.96 l 0.10667,0.16 -0.16,1.09334 -3.97333,-0.0533 -3.52,0.0267 -0.0533,6.42667 3.33334,0.0267 2.85333,-0.0267 0.10667,0.13333 -0.13334,1.09333 -6.16,-0.0267 -0.0267,2.93333 0.0533,4.05333 3.44,0.0267 4.18667,-0.08 z"
               style=""
               id="path340" />
            <path
               d="m 334.80359,137.80208 h -1.44 l -0.37333,-1.44 -1.28,-3.68 -4.05333,-0.0533 -3.65334,0.0533 -1.38666,3.62667 -0.4,1.49333 h -1.44 l 6.50666,-17.04 h 1.57334 z m -3.52,-6.34666 -3.17333,-9.09334 h -0.16 l -3.46667,9.09334 3.33334,0.0267 z"
               style=""
               id="path342" />
            <path
               d="m 346.22776,136.76208 -0.16,1.04 h -7.97334 l 0.08,-5.17333 -0.08,-11.86667 h 1.41334 l -0.08,11.78667 0.0533,4.05333 h 6.61333 z"
               style=""
               id="path344" />
            <path
               d="m 350.36651,132.54875 0.0533,5.25333 h -1.38667 l 0.08,-5.17333 -0.08,-11.86667 h 1.41333 z"
               style=""
               id="path346" />
            <path
               d="m 357.18943,132.54875 0.0533,5.25333 h -1.38667 l 0.0533,-5.17333 -0.0533,-11.86667 h 1.38667 z m 2.10666,-3.81333 q 3.65334,4.58666 7.84,8.77333 v 0.18667 q -0.4,0.16 -1.25333,0.32 l -0.18667,-0.08 q -4.42666,-4.64 -7.92,-9.12 v -0.10667 l 6.13334,-6.58667 1.12,-1.36 h 1.65333 z"
               style=""
               id="path348" />
            <path
               d="m 379.03859,136.70875 -0.13333,1.09333 h -8.98667 l 0.08,-5.17333 -0.08,-11.86667 h 8.96 l 0.10667,0.16 -0.16,1.09334 -3.97333,-0.0533 -3.52,0.0267 -0.0533,6.42667 3.33334,0.0267 2.85333,-0.0267 0.10667,0.13333 -0.13334,1.09333 -6.16,-0.0267 -0.0267,2.93333 0.0533,4.05333 3.44,0.0267 4.18667,-0.08 z"
               style=""
               id="path350" />
          </g>
          <g
             aria-label="NONCOMMERCIAL"
             transform="matrix(0,2.3839994,-2.3839994,0,887.95025,119.33913)"
             style="font-style:normal;font-variant:normal;font-weight:normal;font-stretch:normal;font-size:26.66666794px;line-height:1;font-family:'Alegreya Sans Light';-inkscape-font-specification:'Alegreya Sans Light, ';text-align:center;letter-spacing:0px;word-spacing:0px;text-anchor:middle;fill:#212529;fill-opacity:1;stroke:none"
             id="flowRoot6821-8-6-3-2-0-3-5">
            <path
               d="m 230.36984,132.94875 v 4.85333 h -1.41333 l -9.76,-14.72 h -0.13334 l -0.0267,9.25334 0.0267,5.46666 h -1.28 l 0.0533,-5.06666 -0.0267,-11.97334 h 1.44 l 9.73333,14.72 h 0.13334 l 0.0267,-14.64 1.30667,-0.10666 z"
               style=""
               id="path353" />
            <path
               d="m 241.22859,120.60208 q 3.44,0 5.28,2.18667 1.84,2.16 1.84,6.18667 0,4.34666 -1.94667,6.66666 -1.94666,2.32 -5.54666,2.32 -3.38667,0 -5.22667,-2.21333 -1.84,-2.24 -1.84,-6.37333 0,-4.21334 1.92,-6.48 1.94667,-2.29334 5.52,-2.29334 z m -0.08,1.17334 q -2.93333,0 -4.45333,1.89333 -1.52,1.89333 -1.52,5.57333 0,3.76 1.46666,5.68 1.46667,1.92 4.32,1.92 2.93334,0 4.45334,-1.94666 1.52,-1.94667 1.52,-5.70667 0,-3.68 -1.46667,-5.54667 -1.46667,-1.86666 -4.32,-1.86666 z"
               style=""
               id="path355" />
            <path
               d="m 264.74484,132.94875 v 4.85333 h -1.41333 l -9.76,-14.72 h -0.13334 l -0.0267,9.25334 0.0267,5.46666 h -1.28 l 0.0533,-5.06666 -0.0267,-11.97334 h 1.44 l 9.73333,14.72 h 0.13334 l 0.0267,-14.64 1.30667,-0.10666 z"
               style=""
               id="path357" />
            <path
               d="m 275.49693,120.62875 q 1.30666,0 2.50666,0.37333 1.2,0.34667 2.16,1.04 l -0.29333,1.25334 -0.21333,0.0267 q -1.86667,-1.49333 -4.21334,-1.49333 -2.85333,0 -4.37333,1.92 -1.49333,1.92 -1.49333,5.54667 0,3.62666 1.46666,5.54666 1.46667,1.89334 4.21334,1.89334 1.22666,0 2.42666,-0.42667 1.2,-0.45333 2.24,-1.25333 l 0.21334,0.08 -0.10667,1.30666 q -2.29333,1.52 -4.85333,1.52 -3.36,0 -5.2,-2.21333 -1.81334,-2.24 -1.81334,-6.37333 0,-4.18667 1.89334,-6.45334 1.92,-2.29333 5.44,-2.29333 z"
               style=""
               id="path359" />
            <path
               d="m 289.35359,120.60208 q 3.44,0 5.28,2.18667 1.84,2.16 1.84,6.18667 0,4.34666 -1.94666,6.66666 -1.94667,2.32 -5.54667,2.32 -3.38667,0 -5.22667,-2.21333 -1.84,-2.24 -1.84,-6.37333 0,-4.21334 1.92,-6.48 1.94667,-2.29334 5.52,-2.29334 z m -0.08,1.17334 q -2.93333,0 -4.45333,1.89333 -1.52,1.89333 -1.52,5.57333 0,3.76 1.46667,5.68 1.46666,1.92 4.32,1.92 2.93333,0 4.45333,-1.94666 1.52,-1.94667 1.52,-5.70667 0,-3.68 -1.46667,-5.54667 -1.46666,-1.86666 -4.32,-1.86666 z"
               style=""
               id="path361" />
            <path
               d="m 316.70985,137.80208 h -1.28 l -0.45334,-5.2 -1.04,-9.44 h -0.16 l -5.2,12.58667 h -1.25333 l -5.01333,-12.58667 h -0.16 l -1.04,9.36 -0.50667,5.28 h -1.22667 l 1.84,-17.04 h 1.57334 l 0.96,2.61334 4.18666,10.53333 h 0.13334 l 4.42666,-10.74667 0.90667,-2.4 h 1.57333 z"
               style=""
               id="path363" />
            <path
               d="m 337.64735,137.80208 h -1.28 l -0.45334,-5.2 -1.04,-9.44 h -0.16 l -5.2,12.58667 h -1.25333 l -5.01333,-12.58667 h -0.16 l -1.04,9.36 -0.50667,5.28 h -1.22667 l 1.84,-17.04 h 1.57334 l 0.96,2.61334 4.18666,10.53333 h 0.13334 l 4.42666,-10.74667 0.90667,-2.4 h 1.57333 z"
               style=""
               id="path365" />
            <path
               d="m 351.27818,136.70875 -0.13333,1.09333 h -8.98667 l 0.08,-5.17333 -0.08,-11.86667 h 8.96 l 0.10667,0.16 -0.16,1.09334 -3.97334,-0.0533 -3.52,0.0267 -0.0533,6.42667 3.33333,0.0267 2.85334,-0.0267 0.10666,0.13333 -0.13333,1.09333 -6.16,-0.0267 -0.0267,2.93333 0.0533,4.05333 3.44,0.0267 4.18666,-0.08 z"
               style=""
               id="path367" />
            <path
               d="m 360.52485,130.81542 q 2,3.22666 4.61334,6.66666 v 0.18667 q -0.42667,0.21333 -1.2,0.34667 l -0.21334,-0.10667 q -2.58666,-3.70667 -4.37333,-6.77333 h -3.36 v 1.41333 l 0.0533,5.25333 h -1.38666 l 0.08,-5.17333 -0.08,-11.86667 4.53333,-0.0267 q 2.42667,0 3.73333,1.22666 1.30667,1.22667 1.30667,3.54667 0,1.86667 -0.96,3.25333 -0.96,1.36 -2.74667,2.05334 z m -4.50666,-0.90667 3.46666,0.0533 q 1.62667,-0.45333 2.48,-1.54666 0.85334,-1.12 0.85334,-2.82667 0,-1.78667 -0.98667,-2.69333 -0.96,-0.93334 -2.8,-0.98667 l -2.96,0.0533 z"
               style=""
               id="path369" />
            <path
               d="m 374.50735,120.62875 q 1.30667,0 2.50667,0.37333 1.2,0.34667 2.16,1.04 l -0.29333,1.25334 -0.21334,0.0267 q -1.86666,-1.49333 -4.21333,-1.49333 -2.85333,0 -4.37333,1.92 -1.49334,1.92 -1.49334,5.54667 0,3.62666 1.46667,5.54666 1.46667,1.89334 4.21333,1.89334 1.22667,0 2.42667,-0.42667 1.2,-0.45333 2.24,-1.25333 l 0.21333,0.08 -0.10666,1.30666 q -2.29334,1.52 -4.85334,1.52 -3.36,0 -5.2,-2.21333 -1.81333,-2.24 -1.81333,-6.37333 0,-4.18667 1.89333,-6.45334 1.92,-2.29333 5.44,-2.29333 z"
               style=""
               id="path371" />
            <path
               d="m 383.96027,132.54875 0.0533,5.25333 h -1.38666 l 0.08,-5.17333 -0.08,-11.86667 h 1.41333 z"
               style=""
               id="path373" />
            <path
               d="m 401.20984,137.80208 h -1.44 l -0.37333,-1.44 -1.28,-3.68 -4.05333,-0.0533 -3.65334,0.0533 -1.38666,3.62667 -0.4,1.49333 h -1.44 l 6.50666,-17.04 h 1.57334 z m -3.52,-6.34666 -3.17333,-9.09334 h -0.16 l -3.46667,9.09334 3.33334,0.0267 z"
               style=""
               id="path375" />
            <path
               d="m 412.63402,136.76208 -0.16,1.04 h -7.97334 l 0.08,-5.17333 -0.08,-11.86667 h 1.41334 l -0.08,11.78667 0.0533,4.05333 h 6.61333 z"
               style=""
               id="path377" />
          </g>
        </g>
      </g>
      <g
         style="fill:#212529;fill-opacity:1"
         transform="matrix(5.3285521,0,0,5.3285521,1046.4725,-434.84441)"
         id="g2833" />
      <g
         style="fill:#212529;fill-opacity:1"
         transform="translate(23.18588)"
         id="g1762" />
    </g>
  </g>
</svg>
