<?xml version="1.0" encoding="UTF-8" standalone="no"?>
<!-- Created with Inkscape (http://www.inkscape.org/) -->

<svg
   xmlns:dc="http://purl.org/dc/elements/1.1/"
   xmlns:cc="http://creativecommons.org/ns#"
   xmlns:rdf="http://www.w3.org/1999/02/22-rdf-syntax-ns#"
   xmlns:svg="http://www.w3.org/2000/svg"
   xmlns="http://www.w3.org/2000/svg"
   xmlns:sodipodi="http://sodipodi.sourceforge.net/DTD/sodipodi-0.dtd"
   xmlns:inkscape="http://www.inkscape.org/namespaces/inkscape"
   width="147mm"
   height="289mm"
   viewBox="0 0 147 289"
   version="1.1"
   id="svg8"
   inkscape:version="0.92.3 (unknown)"
   sodipodi:docname="cc-by-nc-nd.svg">
  <defs
     id="defs2" />
  <sodipodi:namedview
     id="base"
     pagecolor="#ffffff"
     bordercolor="#666666"
     borderopacity="1.0"
     inkscape:pageopacity="0.0"
     inkscape:pageshadow="2"
     inkscape:zoom="0.90509668"
     inkscape:cx="362.01865"
     inkscape:cy="1116.004"
     inkscape:document-units="mm"
     inkscape:current-layer="g4429"
     showgrid="false"
     inkscape:window-width="1366"
     inkscape:window-height="768"
     inkscape:window-x="0"
     inkscape:window-y="0"
     inkscape:window-maximized="1" />
  <metadata
     id="metadata5">
    <rdf:RDF>
      <cc:Work
         rdf:about="">
        <dc:format>image/svg+xml</dc:format>
        <dc:type
           rdf:resource="http://purl.org/dc/dcmitype/StillImage" />
        <dc:title />
      </cc:Work>
    </rdf:RDF>
  </metadata>
  <g
     inkscape:label="Layer 1"
     inkscape:groupmode="layer"
     id="layer1"
     transform="translate(0,-8)">
    <g
       id="g2557"
       transform="matrix(0.42911236,0,0,0.42911236,-485.1733,-186.91932)">
      <g
         style="fill:#212529;fill-opacity:1"
         transform="matrix(5.3285521,0,0,5.3285521,1046.4725,-434.84441)"
         id="g2833" />
      <g
         style="fill:#212529;fill-opacity:1"
         transform="translate(23.18588)"
         id="g1762" />
      <g
         id="g4429"
         transform="translate(0,18.643059)">
        <path
           style="opacity:0.95999995;fill:#0b486b;fill-opacity:1;stroke-width:0.13944097"
           inkscape:connector-curvature="0"
           d="m 1168.2273,464.43454 -4.6322,2.40954 c -1.3149,-2.73025 -3.5195,-2.77907 -3.829,-2.77907 -3.0859,0 -4.6323,2.03724 -4.6323,6.1131 0,3.28662 1.2843,6.11309 4.6323,6.11309 2.0177,0 3.4372,-0.98863 4.2627,-2.96451 l 4.2599,2.16133 c -0.8604,1.60497 -3.5823,5.43541 -9.0776,5.43541 -3.1514,0 -10.3131,-1.43903 -10.3131,-10.74392 0,-8.18379 5.996,-10.74533 10.1276,-10.74533 4.2836,-0.002 7.3486,1.66632 9.2017,5.00036 z m 19.9471,0 -4.5709,2.40954 c -1.3247,-2.75675 -3.5864,-2.77907 -3.8904,-2.77907 -3.0872,0 -4.6322,2.03724 -4.6322,6.1131 0,3.28384 1.287,6.11309 4.6322,6.11309 2.0149,0 3.4372,-0.98863 4.2585,-2.96451 l 4.3227,2.16133 c -0.2928,0.52291 -2.9827,5.43541 -9.0762,5.43541 -3.1639,0 -10.3131,-1.37628 -10.3131,-10.74392 0,-8.18101 5.9918,-10.74533 10.1276,-10.74533 4.2822,-0.002 7.3318,1.66632 9.1418,5.00036 z m -19.7058,-28.83918 c -19.915,0 -34.52,16.04407 -34.52,34.58135 0,19.31118 15.8404,34.5813 34.52,34.5813 18.1175,0 34.6427,-14.06535 34.6427,-34.5813 0,-19.22472 -14.8672,-34.58135 -34.6427,-34.58135 z m 0.1213,62.86137 c -15.6927,0 -28.4041,-12.97358 -28.4041,-28.28002 0,-14.69986 11.9124,-28.34416 28.4069,-28.34416 15.6912,0 28.2814,12.47439 28.2814,28.34278 0,16.96856 -13.8995,28.2814 -28.2842,28.2814 z"
           id="path4259" />
        <path
           style="fill:#0b486b;fill-opacity:1;stroke-width:0.13944097"
           inkscape:connector-curvature="0"
           d="m 1266.7904,461.58715 v 14.13932 h -3.9462 v 16.80263 h -10.7509 v -16.78869 h -3.9461 v -14.15326 c 0,-0.61354 0.2231,-1.14341 0.6414,-1.57568 0.4323,-0.43227 0.9621,-0.65537 1.5757,-0.65537 h 14.209 c 0.5717,0 1.0876,0.2231 1.5478,0.65537 0.4323,0.44621 0.6693,0.96214 0.6693,1.57568 z m -14.1532,-8.88239 c 0,-3.24897 1.6035,-4.88043 4.8107,-4.88043 3.2071,0 4.8107,1.63146 4.8107,4.88043 0,3.20714 -1.6036,4.81072 -4.8107,4.81072 -3.2072,0 -4.8107,-1.60358 -4.8107,-4.81072 z m 4.7688,-17.1094 c 19.7728,0 34.6372,15.35244 34.6372,34.58135 0,20.51177 -16.5238,34.5814 -34.6372,34.5814 -18.6851,0 -34.5255,-15.26882 -34.5255,-34.5814 0,-18.5317 14.5994,-34.58135 34.5255,-34.58135 z m 0.1116,6.233 c -16.4819,0 -28.4041,13.65128 -28.4041,28.34835 0,15.31062 12.717,28.27863 28.4041,28.27863 14.3903,0 28.2786,-11.30866 28.2786,-28.27863 0.014,-15.86838 -12.5776,-28.34835 -28.2786,-28.34835 z"
           id="path4261" />
        <path
           style="fill:#0b486b;fill-opacity:1;stroke-width:0.13944097"
           inkscape:connector-curvature="0"
           d="m 1346.3379,435.59536 c 19.4939,0 34.6371,15.04568 34.6371,34.58136 0,20.52571 -16.5237,34.58139 -34.6371,34.58139 -18.7548,0 -34.5256,-15.45009 -34.5256,-34.58139 0,-18.5317 14.5995,-34.58136 34.5256,-34.58136 z m -26.7448,25.25276 c -1.0318,2.8446 -1.5477,5.95414 -1.5477,9.3286 0,15.46401 12.8425,28.22285 28.4041,28.22285 17.0675,0 24.7089,-14.19508 24.8902,-14.5158 l -13.0238,-5.80075 c -1.0737,5.17327 -5.745,7.39038 -9.5099,7.72504 v 5.31269 h -4.0159 v -5.32663 c -3.8346,-0.0418 -7.3346,-1.4223 -10.4999,-4.14141 l 4.7549,-4.8107 c 4.4203,4.09956 12.0477,4.43422 12.0477,-0.30678 0,-0.86453 -0.3067,-1.56174 -0.9202,-2.10556 -1.9801,-0.83664 -0.2511,-0.014 -30.5795,-13.58155 z m 26.8564,-19.07553 c -5.3546,0 -15.6732,1.21314 -23.7747,12.96802 l 13.219,5.92624 c 1.3944,-4.36451 5.6334,-5.98202 8.8963,-6.17724 v -5.3127 h 4.0159 v 5.3127 c 3.1653,0.16733 6.0518,1.24103 8.6454,3.20715 l -4.504,4.62943 c -5.9541,-4.16928 -11.6433,-1.11552 -9.7609,1.5478 7.4462,3.36053 6.1076,2.76094 12.9681,5.80075 l 17.7229,7.9063 c 0.5717,-2.42628 0.8645,-4.89438 0.8645,-7.40432 0,-7.94814 -2.7609,-14.6413 -8.2688,-20.06556 -5.4801,-5.56369 -12.1593,-8.33857 -20.0237,-8.33857 z"
           id="path4263" />
        <path
           style="fill:#0b486b;fill-opacity:1;stroke-width:0.13944097"
           inkscape:connector-curvature="0"
           d="m 1435.2697,435.59536 c 19.7728,0 34.6372,15.35245 34.6372,34.58136 0,20.51177 -16.5238,34.58139 -34.6372,34.58139 -18.6851,0 -34.5255,-15.26882 -34.5255,-34.58139 0,-18.5317 14.5994,-34.58136 34.5255,-34.58136 z m 0.1116,6.23301 c -16.4819,0 -28.4041,13.65127 -28.4041,28.34835 0,15.31062 12.717,28.27863 28.4041,28.27863 14.3903,0 28.2787,-11.30867 28.2787,-28.27863 0.014,-15.86838 -12.5777,-28.34835 -28.2787,-28.34835 z m 13.1074,20.12133 v 5.92624 h -25.1412 v -5.92624 z m 0,11.12739 v 5.92624 h -25.1412 v -5.92624 z"
           id="path4265" />
        <g
           aria-label="CC"
           transform="matrix(2.2273435,0,0,2.2273435,468.89572,283.69019)"
           style="font-style:normal;font-variant:normal;font-weight:normal;font-stretch:normal;font-size:26.66666794px;line-height:1;font-family:'Alegreya Sans Light';-inkscape-font-specification:'Alegreya Sans Light, ';text-align:center;letter-spacing:0px;word-spacing:0px;text-anchor:middle;fill:#212529;fill-opacity:1;stroke:none"
           id="flowRoot4273">
          <path
             d="m 308.56984,120.62875 q 1.30667,0 2.50667,0.37333 1.2,0.34667 2.16,1.04 l -0.29333,1.25334 -0.21334,0.0267 q -1.86666,-1.49333 -4.21333,-1.49333 -2.85333,0 -4.37333,1.92 -1.49334,1.92 -1.49334,5.54667 0,3.62666 1.46667,5.54666 1.46667,1.89334 4.21333,1.89334 1.22667,0 2.42667,-0.42667 1.2,-0.45333 2.24,-1.25333 l 0.21333,0.08 -0.10666,1.30666 q -2.29334,1.52 -4.85334,1.52 -3.36,0 -5.2,-2.21333 -1.81333,-2.24 -1.81333,-6.37333 0,-4.18667 1.89333,-6.45334 1.92,-2.29333 5.44,-2.29333 z"
             style=""
             id="path192" />
          <path
             d="m 322.31984,120.62875 q 1.30667,0 2.50667,0.37333 1.2,0.34667 2.16,1.04 l -0.29333,1.25334 -0.21334,0.0267 q -1.86666,-1.49333 -4.21333,-1.49333 -2.85333,0 -4.37333,1.92 -1.49334,1.92 -1.49334,5.54667 0,3.62666 1.46667,5.54666 1.46667,1.89334 4.21333,1.89334 1.22667,0 2.42667,-0.42667 1.2,-0.45333 2.24,-1.25333 l 0.21333,0.08 -0.10666,1.30666 q -2.29334,1.52 -4.85334,1.52 -3.36,0 -5.2,-2.21333 -1.81333,-2.24 -1.81333,-6.37333 0,-4.18667 1.89333,-6.45334 1.92,-2.29333 5.44,-2.29333 z"
             style=""
             id="path194" />
        </g>
        <g
           aria-label="BY"
           transform="matrix(2.2273435,0,0,2.2273435,555.84482,283.69019)"
           style="font-style:normal;font-variant:normal;font-weight:normal;font-stretch:normal;font-size:26.66666794px;line-height:1;font-family:'Alegreya Sans Light';-inkscape-font-specification:'Alegreya Sans Light, ';text-align:center;letter-spacing:0px;word-spacing:0px;text-anchor:middle;fill:#212529;fill-opacity:1;stroke:none"
           id="flowRoot4281">
          <path
             d="m 309.02193,128.89542 q 1.81333,0.29333 2.77333,1.36 0.98667,1.04 0.98667,2.82666 0,2.32 -1.68,3.57334 -1.68,1.22666 -4.88,1.22666 -1.86667,0 -3.38667,-0.08 l 0.08,-5.17333 -0.08,-11.86667 4.05333,-0.0267 q 2.24,0 3.46667,1.04 1.22667,1.04 1.22667,2.98666 0,1.54667 -0.66667,2.58667 -0.66667,1.04 -1.89333,1.54667 z m 1.14666,-4 q 0,-1.46667 -0.88,-2.21334 -0.85333,-0.77333 -2.53333,-0.77333 h -2.50667 l -0.0533,6.50667 3.2,0.0533 q 1.36,-0.29333 2.05333,-1.17333 0.72,-0.90667 0.72,-2.4 z m -3.84,11.81333 q 2.42667,0 3.73334,-0.96 1.33333,-0.96 1.33333,-2.74667 0,-1.49333 -0.96,-2.34666 -0.96,-0.85334 -2.77333,-1.04 l -3.46667,0.0267 -0.0267,2.90667 0.0533,4.08 q 1.04,0.08 2.10666,0.08 z"
             style=""
             id="path197" />
          <path
             d="m 321.27484,132.70875 0.0533,5.09333 h -1.38667 l 0.0533,-5.09333 -0.0267,-1.2 -5.38667,-10.74667 h 1.54667 l 0.32,0.82667 4.16,8.26667 h 0.16 l 4.53333,-8.24 0.34667,-0.85334 h 1.52 l -5.86667,10.69334 z"
             style=""
             id="path199" />
        </g>
        <g
           aria-label="NC"
           transform="matrix(2.2273435,0,0,2.2273435,645.03694,283.69019)"
           style="font-style:normal;font-variant:normal;font-weight:normal;font-stretch:normal;font-size:26.66666794px;line-height:1;font-family:'Alegreya Sans Light';-inkscape-font-specification:'Alegreya Sans Light, ';text-align:center;letter-spacing:0px;word-spacing:0px;text-anchor:middle;fill:#212529;fill-opacity:1;stroke:none"
           id="flowRoot4289">
          <path
             d="m 313.4688,132.94875 v 4.85333 h -1.41333 l -9.76,-14.72 h -0.13334 l -0.0267,9.25334 0.0267,5.46666 h -1.28 l 0.0533,-5.06666 -0.0267,-11.97334 h 1.44 l 9.73334,14.72 h 0.13333 l 0.0267,-14.64 1.30666,-0.10666 z"
             style=""
             id="path202" />
          <path
             d="m 324.22089,120.62875 q 1.30666,0 2.50666,0.37333 1.2,0.34667 2.16,1.04 l -0.29333,1.25334 -0.21333,0.0267 q -1.86667,-1.49333 -4.21334,-1.49333 -2.85333,0 -4.37333,1.92 -1.49333,1.92 -1.49333,5.54667 0,3.62666 1.46666,5.54666 1.46667,1.89334 4.21334,1.89334 1.22666,0 2.42666,-0.42667 1.2,-0.45333 2.24,-1.25333 l 0.21334,0.08 -0.10667,1.30666 q -2.29333,1.52 -4.85333,1.52 -3.36,0 -5.2,-2.21333 -1.81334,-2.24 -1.81334,-6.37333 0,-4.18667 1.89334,-6.45334 1.92,-2.29333 5.44,-2.29333 z"
             style=""
             id="path204" />
        </g>
        <g
           aria-label="ND"
           transform="matrix(2.2273435,0,0,2.2273435,734.41709,283.69019)"
           style="font-style:normal;font-variant:normal;font-weight:normal;font-stretch:normal;font-size:26.66666794px;line-height:1;font-family:'Alegreya Sans Light';-inkscape-font-specification:'Alegreya Sans Light, ';text-align:center;letter-spacing:0px;word-spacing:0px;text-anchor:middle;fill:#212529;fill-opacity:1;stroke:none"
           id="flowRoot4297">
          <path
             d="m 311.5938,132.94875 v 4.85333 h -1.41333 l -9.76,-14.72 h -0.13334 l -0.0267,9.25334 0.0267,5.46666 h -1.28 l 0.0533,-5.06666 -0.0267,-11.97334 h 1.44 l 9.73334,14.72 h 0.13333 l 0.0267,-14.64 1.30666,-0.10666 z"
             style=""
             id="path207" />
          <path
             d="m 322.86672,120.65542 q 3.62667,0 5.54667,2.08 1.94666,2.08 1.94666,5.97333 0,4.45333 -2.05333,6.85333 -2.05333,2.37334 -5.89333,2.37334 -0.98667,0 -2.53334,-0.0533 -1.52,-0.0267 -2.8,-0.08 l 0.08,-5.17333 -0.08,-11.86667 z m -0.26667,16.10666 q 3.06667,0 4.69334,-2 1.65333,-2 1.65333,-5.81333 0,-3.52 -1.57333,-5.30667 -1.57334,-1.81333 -4.58667,-1.81333 -0.74667,0 -2,0.0533 -1.25333,0.0267 -2.29333,0.08 l -0.08,10.58667 0.0533,4.05333 q 1.09333,0.0533 2.24,0.10667 1.17333,0.0533 1.89333,0.0533 z"
             style=""
             id="path209" />
        </g>
        <g
           aria-label="ATTRIBUTION"
           transform="matrix(0,2.3839995,-2.3839995,0,1565.7338,61.666184)"
           style="font-style:normal;font-variant:normal;font-weight:normal;font-stretch:normal;font-size:26.66666794px;line-height:1;font-family:'Alegreya Sans Light';-inkscape-font-specification:'Alegreya Sans Light, ';text-align:center;letter-spacing:0px;word-spacing:0px;text-anchor:middle;fill:#212529;fill-opacity:1;stroke:none"
           id="flowRoot4305">
          <path
             d="m 256.00151,137.80208 h -1.44 l -0.37334,-1.44 -1.28,-3.68 -4.05333,-0.0533 -3.65333,0.0533 -1.38667,3.62667 -0.4,1.49333 h -1.44 l 6.50667,-17.04 h 1.57333 z m -3.52,-6.34666 -3.17334,-9.09334 h -0.16 l -3.46666,9.09334 3.33333,0.0267 z"
             style=""
             id="path212" />
          <path
             d="m 267.32984,120.92208 -0.13333,1.06667 -2.85334,-0.08 h -2.08 l -0.08,10.64 0.0533,5.25333 h -1.38667 l 0.08,-5.17333 -0.08,-10.72 h -2.08 l -2.90667,0.08 -0.10666,-0.16 0.13333,-1.06667 h 11.30667 z"
             style=""
             id="path214" />
          <path
             d="m 280.19442,120.92208 -0.13333,1.06667 -2.85333,-0.08 h -2.08 l -0.08,10.64 0.0533,5.25333 h -1.38667 l 0.08,-5.17333 -0.08,-10.72 h -2.08 l -2.90666,0.08 -0.10667,-0.16 0.13333,-1.06667 h 11.30667 z"
             style=""
             id="path216" />
          <path
             d="m 289.37901,130.81542 q 2,3.22666 4.61333,6.66666 v 0.18667 q -0.42666,0.21333 -1.2,0.34667 l -0.21333,-0.10667 q -2.58667,-3.70667 -4.37333,-6.77333 h -3.36 v 1.41333 l 0.0533,5.25333 h -1.38667 l 0.08,-5.17333 -0.08,-11.86667 4.53334,-0.0267 q 2.42666,0 3.73333,1.22666 1.30667,1.22667 1.30667,3.54667 0,1.86667 -0.96,3.25333 -0.96,1.36 -2.74667,2.05334 z m -4.50667,-0.90667 3.46667,0.0533 q 1.62667,-0.45333 2.48,-1.54666 0.85333,-1.12 0.85333,-2.82667 0,-1.78667 -0.98666,-2.69333 -0.96,-0.93334 -2.8,-0.98667 l -2.96,0.0533 z"
             style=""
             id="path218" />
          <path
             d="m 299.16859,132.54875 0.0533,5.25333 h -1.38666 l 0.08,-5.17333 -0.08,-11.86667 h 1.41333 z"
             style=""
             id="path220" />
          <path
             d="m 310.84484,128.89542 q 1.81334,0.29333 2.77334,1.36 0.98666,1.04 0.98666,2.82666 0,2.32 -1.68,3.57334 -1.68,1.22666 -4.88,1.22666 -1.86666,0 -3.38666,-0.08 l 0.08,-5.17333 -0.08,-11.86667 4.05333,-0.0267 q 2.24,0 3.46667,1.04 1.22666,1.04 1.22666,2.98666 0,1.54667 -0.66666,2.58667 -0.66667,1.04 -1.89334,1.54667 z m 1.14667,-4 q 0,-1.46667 -0.88,-2.21334 -0.85333,-0.77333 -2.53333,-0.77333 h -2.50667 l -0.0533,6.50667 3.2,0.0533 q 1.36,-0.29333 2.05333,-1.17333 0.72,-0.90667 0.72,-2.4 z m -3.84,11.81333 q 2.42667,0 3.73333,-0.96 1.33334,-0.96 1.33334,-2.74667 0,-1.49333 -0.96,-2.34666 -0.96,-0.85334 -2.77334,-1.04 l -3.46666,0.0267 -0.0267,2.90667 0.0533,4.08 q 1.04,0.08 2.10667,0.08 z"
             style=""
             id="path222" />
          <path
             d="m 330.08818,129.45542 v 2.05333 q 0.0533,3.06667 -1.57333,4.74667 -1.62667,1.68 -4.64,1.68 -2.93334,0 -4.50667,-1.62667 -1.54667,-1.62667 -1.52,-4.69333 v -10.85334 h 1.36 l -0.0533,10.72 q -0.0267,2.56 1.2,3.89334 1.22666,1.33333 3.6,1.33333 2.37333,0 3.6,-1.30667 1.25333,-1.30666 1.22666,-3.78666 l -0.0533,-10.85334 h 1.38667 z"
             style=""
             id="path224" />
          <path
             d="m 344.46526,120.92208 -0.13333,1.06667 -2.85334,-0.08 h -2.08 l -0.08,10.64 0.0533,5.25333 h -1.38667 l 0.08,-5.17333 -0.08,-10.72 h -2.08 l -2.90667,0.08 -0.10666,-0.16 0.13333,-1.06667 h 11.30667 z"
             style=""
             id="path226" />
          <path
             d="m 349.11651,132.54875 0.0533,5.25333 h -1.38667 l 0.08,-5.17333 -0.08,-11.86667 h 1.41333 z"
             style=""
             id="path228" />
          <path
             d="m 359.9786,120.60208 q 3.44,0 5.28,2.18667 1.84,2.16 1.84,6.18667 0,4.34666 -1.94667,6.66666 -1.94666,2.32 -5.54667,2.32 -3.38666,0 -5.22666,-2.21333 -1.84,-2.24 -1.84,-6.37333 0,-4.21334 1.92,-6.48 1.94666,-2.29334 5.52,-2.29334 z m -0.08,1.17334 q -2.93334,0 -4.45334,1.89333 -1.52,1.89333 -1.52,5.57333 0,3.76 1.46667,5.68 1.46667,1.92 4.32,1.92 2.93334,0 4.45334,-1.94666 1.52,-1.94667 1.52,-5.70667 0,-3.68 -1.46667,-5.54667 -1.46667,-1.86666 -4.32,-1.86666 z"
             style=""
             id="path230" />
          <path
             d="m 383.49485,132.94875 v 4.85333 h -1.41334 l -9.76,-14.72 h -0.13333 l -0.0267,9.25334 0.0267,5.46666 h -1.28 l 0.0533,-5.06666 -0.0267,-11.97334 h 1.44 l 9.73333,14.72 h 0.13333 l 0.0267,-14.64 1.30667,-0.10666 z"
             style=""
             id="path232" />
        </g>
        <g
           aria-label="NONCOMMERCIAL"
           transform="matrix(0,2.3839995,-2.3839995,0,1654.6656,119.3391)"
           style="font-style:normal;font-variant:normal;font-weight:normal;font-stretch:normal;font-size:26.66666794px;line-height:1;font-family:'Alegreya Sans Light';-inkscape-font-specification:'Alegreya Sans Light, ';text-align:center;letter-spacing:0px;word-spacing:0px;text-anchor:middle;fill:#212529;fill-opacity:1;stroke:none"
           id="flowRoot4313">
          <path
             d="m 230.36984,132.94875 v 4.85333 h -1.41333 l -9.76,-14.72 h -0.13334 l -0.0267,9.25334 0.0267,5.46666 h -1.28 l 0.0533,-5.06666 -0.0267,-11.97334 h 1.44 l 9.73333,14.72 h 0.13334 l 0.0267,-14.64 1.30667,-0.10666 z"
             style=""
             id="path235" />
          <path
             d="m 241.22859,120.60208 q 3.44,0 5.28,2.18667 1.84,2.16 1.84,6.18667 0,4.34666 -1.94667,6.66666 -1.94666,2.32 -5.54666,2.32 -3.38667,0 -5.22667,-2.21333 -1.84,-2.24 -1.84,-6.37333 0,-4.21334 1.92,-6.48 1.94667,-2.29334 5.52,-2.29334 z m -0.08,1.17334 q -2.93333,0 -4.45333,1.89333 -1.52,1.89333 -1.52,5.57333 0,3.76 1.46666,5.68 1.46667,1.92 4.32,1.92 2.93334,0 4.45334,-1.94666 1.52,-1.94667 1.52,-5.70667 0,-3.68 -1.46667,-5.54667 -1.46667,-1.86666 -4.32,-1.86666 z"
             style=""
             id="path237" />
          <path
             d="m 264.74484,132.94875 v 4.85333 h -1.41333 l -9.76,-14.72 h -0.13334 l -0.0267,9.25334 0.0267,5.46666 h -1.28 l 0.0533,-5.06666 -0.0267,-11.97334 h 1.44 l 9.73333,14.72 h 0.13334 l 0.0267,-14.64 1.30667,-0.10666 z"
             style=""
             id="path239" />
          <path
             d="m 275.49693,120.62875 q 1.30666,0 2.50666,0.37333 1.2,0.34667 2.16,1.04 l -0.29333,1.25334 -0.21333,0.0267 q -1.86667,-1.49333 -4.21334,-1.49333 -2.85333,0 -4.37333,1.92 -1.49333,1.92 -1.49333,5.54667 0,3.62666 1.46666,5.54666 1.46667,1.89334 4.21334,1.89334 1.22666,0 2.42666,-0.42667 1.2,-0.45333 2.24,-1.25333 l 0.21334,0.08 -0.10667,1.30666 q -2.29333,1.52 -4.85333,1.52 -3.36,0 -5.2,-2.21333 -1.81334,-2.24 -1.81334,-6.37333 0,-4.18667 1.89334,-6.45334 1.92,-2.29333 5.44,-2.29333 z"
             style=""
             id="path241" />
          <path
             d="m 289.35359,120.60208 q 3.44,0 5.28,2.18667 1.84,2.16 1.84,6.18667 0,4.34666 -1.94666,6.66666 -1.94667,2.32 -5.54667,2.32 -3.38667,0 -5.22667,-2.21333 -1.84,-2.24 -1.84,-6.37333 0,-4.21334 1.92,-6.48 1.94667,-2.29334 5.52,-2.29334 z m -0.08,1.17334 q -2.93333,0 -4.45333,1.89333 -1.52,1.89333 -1.52,5.57333 0,3.76 1.46667,5.68 1.46666,1.92 4.32,1.92 2.93333,0 4.45333,-1.94666 1.52,-1.94667 1.52,-5.70667 0,-3.68 -1.46667,-5.54667 -1.46666,-1.86666 -4.32,-1.86666 z"
             style=""
             id="path243" />
          <path
             d="m 316.70985,137.80208 h -1.28 l -0.45334,-5.2 -1.04,-9.44 h -0.16 l -5.2,12.58667 h -1.25333 l -5.01333,-12.58667 h -0.16 l -1.04,9.36 -0.50667,5.28 h -1.22667 l 1.84,-17.04 h 1.57334 l 0.96,2.61334 4.18666,10.53333 h 0.13334 l 4.42666,-10.74667 0.90667,-2.4 h 1.57333 z"
             style=""
             id="path245" />
          <path
             d="m 337.64735,137.80208 h -1.28 l -0.45334,-5.2 -1.04,-9.44 h -0.16 l -5.2,12.58667 h -1.25333 l -5.01333,-12.58667 h -0.16 l -1.04,9.36 -0.50667,5.28 h -1.22667 l 1.84,-17.04 h 1.57334 l 0.96,2.61334 4.18666,10.53333 h 0.13334 l 4.42666,-10.74667 0.90667,-2.4 h 1.57333 z"
             style=""
             id="path247" />
          <path
             d="m 351.27818,136.70875 -0.13333,1.09333 h -8.98667 l 0.08,-5.17333 -0.08,-11.86667 h 8.96 l 0.10667,0.16 -0.16,1.09334 -3.97334,-0.0533 -3.52,0.0267 -0.0533,6.42667 3.33333,0.0267 2.85334,-0.0267 0.10666,0.13333 -0.13333,1.09333 -6.16,-0.0267 -0.0267,2.93333 0.0533,4.05333 3.44,0.0267 4.18666,-0.08 z"
             style=""
             id="path249" />
          <path
             d="m 360.52485,130.81542 q 2,3.22666 4.61334,6.66666 v 0.18667 q -0.42667,0.21333 -1.2,0.34667 l -0.21334,-0.10667 q -2.58666,-3.70667 -4.37333,-6.77333 h -3.36 v 1.41333 l 0.0533,5.25333 h -1.38666 l 0.08,-5.17333 -0.08,-11.86667 4.53333,-0.0267 q 2.42667,0 3.73333,1.22666 1.30667,1.22667 1.30667,3.54667 0,1.86667 -0.96,3.25333 -0.96,1.36 -2.74667,2.05334 z m -4.50666,-0.90667 3.46666,0.0533 q 1.62667,-0.45333 2.48,-1.54666 0.85334,-1.12 0.85334,-2.82667 0,-1.78667 -0.98667,-2.69333 -0.96,-0.93334 -2.8,-0.98667 l -2.96,0.0533 z"
             style=""
             id="path251" />
          <path
             d="m 374.50735,120.62875 q 1.30667,0 2.50667,0.37333 1.2,0.34667 2.16,1.04 l -0.29333,1.25334 -0.21334,0.0267 q -1.86666,-1.49333 -4.21333,-1.49333 -2.85333,0 -4.37333,1.92 -1.49334,1.92 -1.49334,5.54667 0,3.62666 1.46667,5.54666 1.46667,1.89334 4.21333,1.89334 1.22667,0 2.42667,-0.42667 1.2,-0.45333 2.24,-1.25333 l 0.21333,0.08 -0.10666,1.30666 q -2.29334,1.52 -4.85334,1.52 -3.36,0 -5.2,-2.21333 -1.81333,-2.24 -1.81333,-6.37333 0,-4.18667 1.89333,-6.45334 1.92,-2.29333 5.44,-2.29333 z"
             style=""
             id="path253" />
          <path
             d="m 383.96027,132.54875 0.0533,5.25333 h -1.38666 l 0.08,-5.17333 -0.08,-11.86667 h 1.41333 z"
             style=""
             id="path255" />
          <path
             d="m 401.20984,137.80208 h -1.44 l -0.37333,-1.44 -1.28,-3.68 -4.05333,-0.0533 -3.65334,0.0533 -1.38666,3.62667 -0.4,1.49333 h -1.44 l 6.50666,-17.04 h 1.57334 z m -3.52,-6.34666 -3.17333,-9.09334 h -0.16 l -3.46667,9.09334 3.33334,0.0267 z"
             style=""
             id="path257" />
          <path
             d="m 412.63402,136.76208 -0.16,1.04 h -7.97334 l 0.08,-5.17333 -0.08,-11.86667 h 1.41334 l -0.08,11.78667 0.0533,4.05333 h 6.61333 z"
             style=""
             id="path259" />
        </g>
        <g
           aria-label="NODERIVATIVES"
           transform="matrix(0,2.3840043,-2.3840043,0,1743.5982,87.675503)"
           style="font-style:normal;font-variant:normal;font-weight:normal;font-stretch:normal;font-size:26.66666794px;line-height:1;font-family:'Alegreya Sans Light';-inkscape-font-specification:'Alegreya Sans Light, ';text-align:center;letter-spacing:0px;word-spacing:0px;text-anchor:middle;fill:#212529;fill-opacity:1;stroke:none"
           id="flowRoot4321">
          <path
             d="m 243.65109,132.94875 v 4.85333 h -1.41333 l -9.76,-14.72 h -0.13334 l -0.0267,9.25334 0.0267,5.46666 h -1.28 l 0.0533,-5.06666 -0.0267,-11.97334 h 1.44 l 9.73333,14.72 h 0.13334 l 0.0267,-14.64 1.30667,-0.10666 z"
             style=""
             id="path262" />
          <path
             d="m 254.50984,120.60208 q 3.44,0 5.28,2.18667 1.84,2.16 1.84,6.18667 0,4.34666 -1.94667,6.66666 -1.94666,2.32 -5.54666,2.32 -3.38667,0 -5.22667,-2.21333 -1.84,-2.24 -1.84,-6.37333 0,-4.21334 1.92,-6.48 1.94667,-2.29334 5.52,-2.29334 z m -0.08,1.17334 q -2.93333,0 -4.45333,1.89333 -1.52,1.89333 -1.52,5.57333 0,3.76 1.46666,5.68 1.46667,1.92 4.32,1.92 2.93334,0 4.45334,-1.94666 1.52,-1.94667 1.52,-5.70667 0,-3.68 -1.46667,-5.54667 -1.46667,-1.86666 -4.32,-1.86666 z"
             style=""
             id="path264" />
          <path
             d="m 271.22609,120.65542 q 3.62667,0 5.54667,2.08 1.94666,2.08 1.94666,5.97333 0,4.45333 -2.05333,6.85333 -2.05333,2.37334 -5.89333,2.37334 -0.98667,0 -2.53334,-0.0533 -1.52,-0.0267 -2.8,-0.08 l 0.08,-5.17333 -0.08,-11.86667 z m -0.26667,16.10666 q 3.06667,0 4.69334,-2 1.65333,-2 1.65333,-5.81333 0,-3.52 -1.57333,-5.30667 -1.57334,-1.81333 -4.58667,-1.81333 -0.74667,0 -2,0.0533 -1.25333,0.0267 -2.29333,0.08 l -0.08,10.58667 0.0533,4.05333 q 1.09333,0.0533 2.24,0.10667 1.17333,0.0533 1.89333,0.0533 z"
             style=""
             id="path266" />
          <path
             d="m 291.69485,136.70875 -0.13334,1.09333 h -8.98667 l 0.08,-5.17333 -0.08,-11.86667 h 8.96001 l 0.10666,0.16 -0.16,1.09334 -3.97333,-0.0533 -3.52,0.0267 -0.0533,6.42667 3.33334,0.0267 2.85333,-0.0267 0.10667,0.13333 -0.13333,1.09333 -6.16001,-0.0267 -0.0267,2.93333 0.0533,4.05333 3.44,0.0267 4.18667,-0.08 z"
             style=""
             id="path268" />
          <path
             d="m 300.94151,130.81542 q 2,3.22666 4.61334,6.66666 v 0.18667 q -0.42667,0.21333 -1.2,0.34667 l -0.21334,-0.10667 q -2.58666,-3.70667 -4.37333,-6.77333 h -3.36 v 1.41333 l 0.0533,5.25333 h -1.38667 l 0.08,-5.17333 -0.08,-11.86667 4.53334,-0.0267 q 2.42667,0 3.73333,1.22666 1.30667,1.22667 1.30667,3.54667 0,1.86667 -0.96,3.25333 -0.96,1.36 -2.74667,2.05334 z m -4.50667,-0.90667 3.46667,0.0533 q 1.62667,-0.45333 2.48,-1.54666 0.85334,-1.12 0.85334,-2.82667 0,-1.78667 -0.98667,-2.69333 -0.96,-0.93334 -2.8,-0.98667 l -2.96,0.0533 z"
             style=""
             id="path270" />
          <path
             d="m 310.73109,132.54875 0.0533,5.25333 h -1.38667 l 0.08,-5.17333 -0.08,-11.86667 h 1.41333 z"
             style=""
             id="path272" />
          <path
             d="m 320.97985,137.80208 h -1.57334 l -5.94667,-17.04 h 1.44 l 0.37334,1.46667 4.90667,14 h 0.13333 l 5.33333,-13.94667 0.4,-1.52 h 1.44 z"
             style=""
             id="path274" />
          <path
             d="m 341.73068,137.80208 h -1.44 l -0.37333,-1.44 -1.28,-3.68 -4.05334,-0.0533 -3.65333,0.0533 -1.38667,3.62667 -0.4,1.49333 h -1.44 l 6.50667,-17.04 h 1.57333 z m -3.52,-6.34666 -3.17333,-9.09334 h -0.16 l -3.46667,9.09334 3.33333,0.0267 z"
             style=""
             id="path276" />
          <path
             d="m 353.05901,120.92208 -0.13333,1.06667 -2.85333,-0.08 h -2.08 l -0.08,10.64 0.0533,5.25333 h -1.38667 l 0.08,-5.17333 -0.08,-10.72 h -2.08 l -2.90667,0.08 -0.10666,-0.16 0.13333,-1.06667 h 11.30667 z"
             style=""
             id="path278" />
          <path
             d="m 357.71026,132.54875 0.0533,5.25333 h -1.38667 l 0.08,-5.17333 -0.08,-11.86667 h 1.41333 z"
             style=""
             id="path280" />
          <path
             d="m 367.95902,137.80208 h -1.57334 l -5.94666,-17.04 h 1.44 l 0.37333,1.46667 4.90667,14 h 0.13333 l 5.33333,-13.94667 0.4,-1.52 h 1.44 z"
             style=""
             id="path282" />
          <path
             d="m 386.5386,136.70875 -0.13334,1.09333 h -8.98667 l 0.08,-5.17333 -0.08,-11.86667 h 8.96001 l 0.10666,0.16 -0.16,1.09334 -3.97333,-0.0533 -3.52,0.0267 -0.0533,6.42667 3.33334,0.0267 2.85333,-0.0267 0.10667,0.13333 -0.13333,1.09333 -6.16001,-0.0267 -0.0267,2.93333 0.0533,4.05333 3.44,0.0267 4.18667,-0.08 z"
             style=""
             id="path284" />
          <path
             d="m 394.0786,120.65542 q 1.76,0 3.54666,0.8 l -0.24,1.28 -0.26666,0.08 q -0.74667,-0.48 -1.6,-0.72 -0.82667,-0.26667 -1.6,-0.26667 -1.12,0 -1.97334,0.48 -0.82667,0.45333 -1.28,1.2 -0.42667,0.74667 -0.42667,1.52 0,0.82667 0.48,1.44 0.48,0.61333 1.17334,1.06667 0.72,0.42666 1.92,0.98666 1.41333,0.69334 2.26667,1.25334 0.88,0.53333 1.49333,1.41333 0.61333,0.85333 0.61333,2.08 0,1.25333 -0.69333,2.34667 -0.66667,1.06666 -1.92,1.70666 -1.22667,0.61334 -2.77333,0.61334 -1.09334,0 -2.24001,-0.29334 -1.14666,-0.32 -2.08,-0.90666 l 0.16,-1.41334 0.18667,-0.08 q 0.88,0.77334 1.97333,1.17334 1.09334,0.37333 2.10667,0.37333 1.17334,0 2.05334,-0.48 0.88,-0.48 1.36,-1.25333 0.48,-0.77334 0.48,-1.62667 0,-0.88 -0.50667,-1.52 -0.48,-0.66667 -1.2,-1.09333 -0.69333,-0.42667 -1.94667,-1.04 -1.38667,-0.66667 -2.24,-1.2 -0.85333,-0.53334 -1.44,-1.38667 -0.58667,-0.85333 -0.58667,-2.05333 0,-1.22667 0.64,-2.24 0.66667,-1.04 1.84,-1.62667 1.20001,-0.61333 2.72001,-0.61333 z"
             style=""
             id="path286" />
        </g>
      </g>
    </g>
  </g>
</svg>
