<?xml version="1.0" encoding="UTF-8" standalone="no"?>
<!-- Created with Inkscape (http://www.inkscape.org/) -->

<svg
   xmlns:dc="http://purl.org/dc/elements/1.1/"
   xmlns:cc="http://creativecommons.org/ns#"
   xmlns:rdf="http://www.w3.org/1999/02/22-rdf-syntax-ns#"
   xmlns:svg="http://www.w3.org/2000/svg"
   xmlns="http://www.w3.org/2000/svg"
   xmlns:sodipodi="http://sodipodi.sourceforge.net/DTD/sodipodi-0.dtd"
   xmlns:inkscape="http://www.inkscape.org/namespaces/inkscape"
   width="147mm"
   height="289mm"
   viewBox="0 0 147 289"
   version="1.1"
   id="svg8"
   inkscape:version="0.92.3 (unknown)"
   sodipodi:docname="cc-by.svg">
  <defs
     id="defs2" />
  <sodipodi:namedview
     id="base"
     pagecolor="#ffffff"
     bordercolor="#666666"
     borderopacity="1.0"
     inkscape:pageopacity="0.0"
     inkscape:pageshadow="2"
     inkscape:zoom="0.16"
     inkscape:cx="476.9174"
     inkscape:cy="938.475"
     inkscape:document-units="mm"
     inkscape:current-layer="g4733"
     showgrid="false"
     inkscape:window-width="1366"
     inkscape:window-height="768"
     inkscape:window-x="0"
     inkscape:window-y="0"
     inkscape:window-maximized="1" />
  <metadata
     id="metadata5">
    <rdf:RDF>
      <cc:Work
         rdf:about="">
        <dc:format>image/svg+xml</dc:format>
        <dc:type
           rdf:resource="http://purl.org/dc/dcmitype/StillImage" />
        <dc:title />
      </cc:Work>
    </rdf:RDF>
  </metadata>
  <g
     inkscape:label="Layer 1"
     inkscape:groupmode="layer"
     id="layer1"
     transform="translate(0,-8)">
    <g
       id="g2557"
       transform="matrix(0.42911236,0,0,0.42911236,-485.1733,-186.91932)">
      <g
         id="g4733"
         transform="translate(1802.0997,18.643049)">
        <path
           id="path958-3"
           d="m -544.94046,464.43455 -4.63223,2.40954 c -1.31493,-2.73025 -3.51949,-2.77906 -3.82905,-2.77906 -3.08583,0 -4.63223,2.03723 -4.63223,6.11309 0,3.28663 1.28425,6.11309 4.63223,6.11309 2.01771,0 3.43722,-0.98863 4.2627,-2.96451 l 4.25993,2.16133 c -0.86036,1.60497 -3.58224,5.43541 -9.07761,5.43541 -3.15136,0 -10.31305,-1.43903 -10.31305,-10.74393 0,-8.18378 5.99596,-10.74532 10.12759,-10.74532 4.28363,-0.002 7.34854,1.66632 9.20172,5.00036 z m 19.94703,0 -4.57088,2.40954 c -1.32469,-2.75675 -3.58642,-2.77906 -3.8904,-2.77906 -3.08723,0 -4.63223,2.03723 -4.63223,6.11309 0,3.28384 1.28704,6.11309 4.63223,6.11309 2.01492,0 3.43722,-0.98863 4.25852,-2.96451 l 4.32268,2.16133 c -0.29283,0.52291 -2.98265,5.43541 -9.07622,5.43541 -3.16391,0 -10.31305,-1.37628 -10.31305,-10.74393 0,-8.18099 5.99178,-10.74532 10.12759,-10.74532 4.28223,-0.002 7.33181,1.66632 9.14176,5.00036 z m -19.7058,-28.83918 c -19.91497,0 -34.52001,16.04407 -34.52001,34.58136 0,19.31118 15.84049,34.58136 34.52001,34.58136 18.11756,0 34.64272,-14.06541 34.64272,-34.58136 0,-19.22473 -14.8672,-34.58136 -34.64272,-34.58136 z m 0.12131,62.86138 c -15.69268,0 -28.40412,-12.97359 -28.40412,-28.28002 0,-14.69987 11.91243,-28.34417 28.40691,-28.34417 15.69129,0 28.28142,12.47439 28.28142,28.34278 -0.002,16.96856 -13.89948,28.28141 -28.28421,28.28141 z"
           inkscape:connector-curvature="0"
           style="opacity:0.95999995;fill:#0b486b;fill-opacity:1;stroke-width:0.13944097" />
        <path
           id="path815-9"
           d="m -446.37738,461.58716 v 14.13932 h -3.94618 v 16.80264 h -10.7509 v -16.7887 h -3.94618 v -14.15326 c 0,-0.61354 0.22311,-1.14341 0.64143,-1.57568 0.43227,-0.43227 0.96214,-0.65537 1.57568,-0.65537 h 14.20904 c 0.5717,0 1.08764,0.2231 1.54779,0.65537 0.43227,0.44621 0.66932,0.96214 0.66932,1.57568 z m -14.15326,-8.88239 c 0,-3.24897 1.60357,-4.88043 4.81071,-4.88043 3.20715,0 4.81072,1.63146 4.81072,4.88043 0,3.20715 -1.60357,4.81072 -4.81072,4.81072 -3.20714,0 -4.81071,-1.60357 -4.81071,-4.81072 z m 4.76888,-17.1094 c 19.77273,0 34.63715,15.35245 34.63715,34.58136 0,20.51176 -16.52377,34.58136 -34.63715,34.58136 -18.68509,0 -34.52558,-15.26879 -34.52558,-34.58136 0,-18.53171 14.59947,-34.58136 34.52558,-34.58136 z m 0.11156,6.23301 c -16.48193,0 -28.40414,13.65127 -28.40414,28.34835 0,15.31062 12.71703,28.27863 28.40414,28.27863 14.39031,0 28.27865,-11.30867 28.27865,-28.27863 0.0137,-15.86838 -12.5776,-28.34835 -28.27865,-28.34835 z"
           inkscape:connector-curvature="0"
           style="fill:#0b486b;fill-opacity:1;stroke-width:0.13944097" />
        <g
           aria-label="CC"
           transform="matrix(2.2273435,0,0,2.2273435,-1244.2721,283.69019)"
           style="font-style:normal;font-variant:normal;font-weight:normal;font-stretch:normal;font-size:26.66666794px;line-height:1;font-family:'Alegreya Sans Light';-inkscape-font-specification:'Alegreya Sans Light, ';text-align:center;letter-spacing:0px;word-spacing:0px;text-anchor:middle;fill:#212529;fill-opacity:1;stroke:none"
           id="flowRoot6821-8-3">
          <path
             d="m 308.56984,120.62875 q 1.30667,0 2.50667,0.37333 1.2,0.34667 2.16,1.04 l -0.29333,1.25334 -0.21334,0.0267 q -1.86666,-1.49333 -4.21333,-1.49333 -2.85333,0 -4.37333,1.92 -1.49334,1.92 -1.49334,5.54667 0,3.62666 1.46667,5.54666 1.46667,1.89334 4.21333,1.89334 1.22667,0 2.42667,-0.42667 1.2,-0.45333 2.24,-1.25333 l 0.21333,0.08 -0.10666,1.30666 q -2.29334,1.52 -4.85334,1.52 -3.36,0 -5.2,-2.21333 -1.81333,-2.24 -1.81333,-6.37333 0,-4.18667 1.89333,-6.45334 1.92,-2.29333 5.44,-2.29333 z"
             style=""
             id="path53" />
          <path
             d="m 322.31984,120.62875 q 1.30667,0 2.50667,0.37333 1.2,0.34667 2.16,1.04 l -0.29333,1.25334 -0.21334,0.0267 q -1.86666,-1.49333 -4.21333,-1.49333 -2.85333,0 -4.37333,1.92 -1.49334,1.92 -1.49334,5.54667 0,3.62666 1.46667,5.54666 1.46667,1.89334 4.21333,1.89334 1.22667,0 2.42667,-0.42667 1.2,-0.45333 2.24,-1.25333 l 0.21333,0.08 -0.10666,1.30666 q -2.29334,1.52 -4.85334,1.52 -3.36,0 -5.2,-2.21333 -1.81333,-2.24 -1.81333,-6.37333 0,-4.18667 1.89333,-6.45334 1.92,-2.29333 5.44,-2.29333 z"
             style=""
             id="path55" />
        </g>
        <g
           aria-label="BY"
           transform="matrix(2.2273435,0,0,2.2273435,-1157.323,283.69019)"
           style="font-style:normal;font-variant:normal;font-weight:normal;font-stretch:normal;font-size:26.66666794px;line-height:1;font-family:Static;-inkscape-font-specification:Static;text-align:center;letter-spacing:0px;word-spacing:0px;text-anchor:middle;fill:#212529;fill-opacity:1;stroke:none"
           id="flowRoot6821-8-8">
          <path
             d="m 309.02193,128.89542 q 1.81333,0.29333 2.77333,1.36 0.98667,1.04 0.98667,2.82666 0,2.32 -1.68,3.57334 -1.68,1.22666 -4.88,1.22666 -1.86667,0 -3.38667,-0.08 l 0.08,-5.17333 -0.08,-11.86667 4.05333,-0.0267 q 2.24,0 3.46667,1.04 1.22667,1.04 1.22667,2.98666 0,1.54667 -0.66667,2.58667 -0.66667,1.04 -1.89333,1.54667 z m 1.14666,-4 q 0,-1.46667 -0.88,-2.21334 -0.85333,-0.77333 -2.53333,-0.77333 h -2.50667 l -0.0533,6.50667 3.2,0.0533 q 1.36,-0.29333 2.05333,-1.17333 0.72,-0.90667 0.72,-2.4 z m -3.84,11.81333 q 2.42667,0 3.73334,-0.96 1.33333,-0.96 1.33333,-2.74667 0,-1.49333 -0.96,-2.34666 -0.96,-0.85334 -2.77333,-1.04 l -3.46667,0.0267 -0.0267,2.90667 0.0533,4.08 q 1.04,0.08 2.10666,0.08 z"
             style="font-style:normal;font-variant:normal;font-weight:normal;font-stretch:normal;font-family:'Alegreya Sans Light';-inkscape-font-specification:'Alegreya Sans Light, ';fill:#212529;fill-opacity:1"
             id="path48" />
          <path
             d="m 321.27484,132.70875 0.0533,5.09333 h -1.38667 l 0.0533,-5.09333 -0.0267,-1.2 -5.38667,-10.74667 h 1.54667 l 0.32,0.82667 4.16,8.26667 h 0.16 l 4.53333,-8.24 0.34667,-0.85334 h 1.52 l -5.86667,10.69334 z"
             style="font-style:normal;font-variant:normal;font-weight:normal;font-stretch:normal;font-family:'Alegreya Sans Light';-inkscape-font-specification:'Alegreya Sans Light, ';fill:#212529;fill-opacity:1"
             id="path50" />
        </g>
        <g
           aria-label="ATTRIBUTION"
           transform="matrix(0,2.3839995,-2.3839995,0,-147.43397,61.666184)"
           style="font-style:normal;font-variant:normal;font-weight:normal;font-stretch:normal;font-size:26.66666794px;line-height:1;font-family:Static;-inkscape-font-specification:Static;text-align:center;letter-spacing:0px;word-spacing:0px;text-anchor:middle;fill:#212529;fill-opacity:1;stroke:none"
           id="flowRoot6821-8-6-3-2">
          <path
             d="m 256.00151,137.80208 h -1.44 l -0.37334,-1.44 -1.28,-3.68 -4.05333,-0.0533 -3.65333,0.0533 -1.38667,3.62667 -0.4,1.49333 h -1.44 l 6.50667,-17.04 h 1.57333 z m -3.52,-6.34666 -3.17334,-9.09334 h -0.16 l -3.46666,9.09334 3.33333,0.0267 z"
             style="font-style:normal;font-variant:normal;font-weight:normal;font-stretch:normal;font-family:'Alegreya Sans Light';-inkscape-font-specification:'Alegreya Sans Light, ';fill:#212529;fill-opacity:1"
             id="path25" />
          <path
             d="m 267.32984,120.92208 -0.13333,1.06667 -2.85334,-0.08 h -2.08 l -0.08,10.64 0.0533,5.25333 h -1.38667 l 0.08,-5.17333 -0.08,-10.72 h -2.08 l -2.90667,0.08 -0.10666,-0.16 0.13333,-1.06667 h 11.30667 z"
             style="font-style:normal;font-variant:normal;font-weight:normal;font-stretch:normal;font-family:'Alegreya Sans Light';-inkscape-font-specification:'Alegreya Sans Light, ';fill:#212529;fill-opacity:1"
             id="path27" />
          <path
             d="m 280.19442,120.92208 -0.13333,1.06667 -2.85333,-0.08 h -2.08 l -0.08,10.64 0.0533,5.25333 h -1.38667 l 0.08,-5.17333 -0.08,-10.72 h -2.08 l -2.90666,0.08 -0.10667,-0.16 0.13333,-1.06667 h 11.30667 z"
             style="font-style:normal;font-variant:normal;font-weight:normal;font-stretch:normal;font-family:'Alegreya Sans Light';-inkscape-font-specification:'Alegreya Sans Light, ';fill:#212529;fill-opacity:1"
             id="path29" />
          <path
             d="m 289.37901,130.81542 q 2,3.22666 4.61333,6.66666 v 0.18667 q -0.42666,0.21333 -1.2,0.34667 l -0.21333,-0.10667 q -2.58667,-3.70667 -4.37333,-6.77333 h -3.36 v 1.41333 l 0.0533,5.25333 h -1.38667 l 0.08,-5.17333 -0.08,-11.86667 4.53334,-0.0267 q 2.42666,0 3.73333,1.22666 1.30667,1.22667 1.30667,3.54667 0,1.86667 -0.96,3.25333 -0.96,1.36 -2.74667,2.05334 z m -4.50667,-0.90667 3.46667,0.0533 q 1.62667,-0.45333 2.48,-1.54666 0.85333,-1.12 0.85333,-2.82667 0,-1.78667 -0.98666,-2.69333 -0.96,-0.93334 -2.8,-0.98667 l -2.96,0.0533 z"
             style="font-style:normal;font-variant:normal;font-weight:normal;font-stretch:normal;font-family:'Alegreya Sans Light';-inkscape-font-specification:'Alegreya Sans Light, ';fill:#212529;fill-opacity:1"
             id="path31" />
          <path
             d="m 299.16859,132.54875 0.0533,5.25333 h -1.38666 l 0.08,-5.17333 -0.08,-11.86667 h 1.41333 z"
             style="font-style:normal;font-variant:normal;font-weight:normal;font-stretch:normal;font-family:'Alegreya Sans Light';-inkscape-font-specification:'Alegreya Sans Light, ';fill:#212529;fill-opacity:1"
             id="path33" />
          <path
             d="m 310.84484,128.89542 q 1.81334,0.29333 2.77334,1.36 0.98666,1.04 0.98666,2.82666 0,2.32 -1.68,3.57334 -1.68,1.22666 -4.88,1.22666 -1.86666,0 -3.38666,-0.08 l 0.08,-5.17333 -0.08,-11.86667 4.05333,-0.0267 q 2.24,0 3.46667,1.04 1.22666,1.04 1.22666,2.98666 0,1.54667 -0.66666,2.58667 -0.66667,1.04 -1.89334,1.54667 z m 1.14667,-4 q 0,-1.46667 -0.88,-2.21334 -0.85333,-0.77333 -2.53333,-0.77333 h -2.50667 l -0.0533,6.50667 3.2,0.0533 q 1.36,-0.29333 2.05333,-1.17333 0.72,-0.90667 0.72,-2.4 z m -3.84,11.81333 q 2.42667,0 3.73333,-0.96 1.33334,-0.96 1.33334,-2.74667 0,-1.49333 -0.96,-2.34666 -0.96,-0.85334 -2.77334,-1.04 l -3.46666,0.0267 -0.0267,2.90667 0.0533,4.08 q 1.04,0.08 2.10667,0.08 z"
             style="font-style:normal;font-variant:normal;font-weight:normal;font-stretch:normal;font-family:'Alegreya Sans Light';-inkscape-font-specification:'Alegreya Sans Light, ';fill:#212529;fill-opacity:1"
             id="path35" />
          <path
             d="m 330.08818,129.45542 v 2.05333 q 0.0533,3.06667 -1.57333,4.74667 -1.62667,1.68 -4.64,1.68 -2.93334,0 -4.50667,-1.62667 -1.54667,-1.62667 -1.52,-4.69333 v -10.85334 h 1.36 l -0.0533,10.72 q -0.0267,2.56 1.2,3.89334 1.22666,1.33333 3.6,1.33333 2.37333,0 3.6,-1.30667 1.25333,-1.30666 1.22666,-3.78666 l -0.0533,-10.85334 h 1.38667 z"
             style="font-style:normal;font-variant:normal;font-weight:normal;font-stretch:normal;font-family:'Alegreya Sans Light';-inkscape-font-specification:'Alegreya Sans Light, ';fill:#212529;fill-opacity:1"
             id="path37" />
          <path
             d="m 344.46526,120.92208 -0.13333,1.06667 -2.85334,-0.08 h -2.08 l -0.08,10.64 0.0533,5.25333 h -1.38667 l 0.08,-5.17333 -0.08,-10.72 h -2.08 l -2.90667,0.08 -0.10666,-0.16 0.13333,-1.06667 h 11.30667 z"
             style="font-style:normal;font-variant:normal;font-weight:normal;font-stretch:normal;font-family:'Alegreya Sans Light';-inkscape-font-specification:'Alegreya Sans Light, ';fill:#212529;fill-opacity:1"
             id="path39" />
          <path
             d="m 349.11651,132.54875 0.0533,5.25333 h -1.38667 l 0.08,-5.17333 -0.08,-11.86667 h 1.41333 z"
             style="font-style:normal;font-variant:normal;font-weight:normal;font-stretch:normal;font-family:'Alegreya Sans Light';-inkscape-font-specification:'Alegreya Sans Light, ';fill:#212529;fill-opacity:1"
             id="path41" />
          <path
             d="m 359.9786,120.60208 q 3.44,0 5.28,2.18667 1.84,2.16 1.84,6.18667 0,4.34666 -1.94667,6.66666 -1.94666,2.32 -5.54667,2.32 -3.38666,0 -5.22666,-2.21333 -1.84,-2.24 -1.84,-6.37333 0,-4.21334 1.92,-6.48 1.94666,-2.29334 5.52,-2.29334 z m -0.08,1.17334 q -2.93334,0 -4.45334,1.89333 -1.52,1.89333 -1.52,5.57333 0,3.76 1.46667,5.68 1.46667,1.92 4.32,1.92 2.93334,0 4.45334,-1.94666 1.52,-1.94667 1.52,-5.70667 0,-3.68 -1.46667,-5.54667 -1.46667,-1.86666 -4.32,-1.86666 z"
             style="font-style:normal;font-variant:normal;font-weight:normal;font-stretch:normal;font-family:'Alegreya Sans Light';-inkscape-font-specification:'Alegreya Sans Light, ';fill:#212529;fill-opacity:1"
             id="path43" />
          <path
             d="m 383.49485,132.94875 v 4.85333 h -1.41334 l -9.76,-14.72 h -0.13333 l -0.0267,9.25334 0.0267,5.46666 h -1.28 l 0.0533,-5.06666 -0.0267,-11.97334 h 1.44 l 9.73333,14.72 h 0.13333 l 0.0267,-14.64 1.30667,-0.10666 z"
             style="font-style:normal;font-variant:normal;font-weight:normal;font-stretch:normal;font-family:'Alegreya Sans Light';-inkscape-font-specification:'Alegreya Sans Light, ';fill:#212529;fill-opacity:1"
             id="path45" />
        </g>
      </g>
      <g
         style="fill:#212529;fill-opacity:1"
         transform="matrix(5.3285521,0,0,5.3285521,1046.4725,-434.84441)"
         id="g2833" />
      <g
         style="fill:#212529;fill-opacity:1"
         transform="translate(23.18588)"
         id="g1762" />
    </g>
  </g>
</svg>
