<?xml version="1.0" encoding="UTF-8" standalone="no"?>
<!-- Created with Inkscape (http://www.inkscape.org/) -->

<svg
   xmlns:dc="http://purl.org/dc/elements/1.1/"
   xmlns:cc="http://creativecommons.org/ns#"
   xmlns:rdf="http://www.w3.org/1999/02/22-rdf-syntax-ns#"
   xmlns:svg="http://www.w3.org/2000/svg"
   xmlns="http://www.w3.org/2000/svg"
   xmlns:sodipodi="http://sodipodi.sourceforge.net/DTD/sodipodi-0.dtd"
   xmlns:inkscape="http://www.inkscape.org/namespaces/inkscape"
   width="147mm"
   height="250mm"
   viewBox="0 0 147 250"
   version="1.1"
   id="svg8"
   inkscape:version="0.92.3 (unknown)"
   sodipodi:docname="cc-by-nd.svg">
  <defs
     id="defs2" />
  <sodipodi:namedview
     id="base"
     pagecolor="#ffffff"
     bordercolor="#666666"
     borderopacity="1.0"
     inkscape:pageopacity="0.0"
     inkscape:pageshadow="2"
     inkscape:zoom="0.32"
     inkscape:cx="-165.6558"
     inkscape:cy="322.5932"
     inkscape:document-units="mm"
     inkscape:current-layer="flowRoot6821-8-6-3-3"
     showgrid="false"
     inkscape:window-width="1366"
     inkscape:window-height="768"
     inkscape:window-x="0"
     inkscape:window-y="0"
     inkscape:window-maximized="1" />
  <metadata
     id="metadata5">
    <rdf:RDF>
      <cc:Work
         rdf:about="">
        <dc:format>image/svg+xml</dc:format>
        <dc:type
           rdf:resource="http://purl.org/dc/dcmitype/StillImage" />
        <dc:title></dc:title>
      </cc:Work>
    </rdf:RDF>
  </metadata>
  <g
     inkscape:label="Layer 1"
     inkscape:groupmode="layer"
     id="layer1"
     transform="translate(0,-47)">
    <g
       id="g2557"
       transform="matrix(0.42911236,0,0,0.42911236,-485.1733,-186.91932)">
      <g
         style="fill:#212529;fill-opacity:1"
         transform="matrix(5.3285521,0,0,5.3285521,1046.4725,-434.84441)"
         id="g2833" />
      <g
         style="fill:#212529;fill-opacity:1"
         transform="translate(23.18588)"
         id="g1762" />
      <g
         id="g4492"
         transform="translate(0,18.643049)">
        <g
           id="g862"
           transform="translate(0,90.885287)">
          <path
             style="opacity:0.95999995;fill:#0b486b;fill-opacity:1;stroke-width:0.13944097"
             inkscape:connector-curvature="0"
             d="m 1212.6933,464.43455 -4.6322,2.40954 c -1.315,-2.73025 -3.5195,-2.77906 -3.8291,-2.77906 -3.0858,0 -4.6322,2.03723 -4.6322,6.11309 0,3.28663 1.2842,6.1131 4.6322,6.1131 2.0177,0 3.4372,-0.98864 4.2627,-2.96452 l 4.2599,2.16134 c -0.8603,1.60496 -3.5822,5.4354 -9.0776,5.4354 -3.1513,0 -10.313,-1.43903 -10.313,-10.74392 0,-8.18379 5.996,-10.74533 10.1276,-10.74533 4.2836,-0.002 7.3485,1.66632 9.2017,5.00036 z m 19.947,0 -4.5708,2.40954 c -1.3247,-2.75675 -3.5865,-2.77906 -3.8904,-2.77906 -3.0873,0 -4.6323,2.03723 -4.6323,6.11309 0,3.28384 1.2871,6.1131 4.6323,6.1131 2.0149,0 3.4372,-0.98864 4.2585,-2.96452 l 4.3227,2.16134 c -0.2929,0.5229 -2.9827,5.4354 -9.0763,5.4354 -3.1639,0 -10.313,-1.37628 -10.313,-10.74392 0,-8.18101 5.9918,-10.74533 10.1276,-10.74533 4.2822,-0.002 7.3318,1.66632 9.1417,5.00036 z m -19.7058,-28.83918 c -19.9149,0 -34.52,16.04408 -34.52,34.58135 0,19.31119 15.8405,34.58137 34.52,34.58137 18.1176,0 34.6428,-14.06541 34.6428,-34.58137 0,-19.22472 -14.8672,-34.58135 -34.6428,-34.58135 z m 0.1213,62.86138 c -15.6926,0 -28.4041,-12.97359 -28.4041,-28.28003 0,-14.69986 11.9125,-28.34416 28.4069,-28.34416 15.6913,0 28.2815,12.47439 28.2815,28.34278 0,16.96856 -13.8995,28.28141 -28.2843,28.28141 z"
             id="path958-5" />
          <path
             style="fill:#0b486b;fill-opacity:1;stroke-width:0.13944097"
             inkscape:connector-curvature="0"
             d="m 1311.2564,461.58716 v 14.13932 h -3.9462 v 16.80263 h -10.7509 v -16.78869 h -3.9462 v -14.15326 c 0,-0.61354 0.2231,-1.14341 0.6415,-1.57568 0.4322,-0.43227 0.9621,-0.65537 1.5756,-0.65537 h 14.2091 c 0.5717,0 1.0876,0.2231 1.5478,0.65537 0.4322,0.44621 0.6693,0.96214 0.6693,1.57568 z m -14.1533,-8.88239 c 0,-3.24897 1.6036,-4.88043 4.8107,-4.88043 3.2072,0 4.8107,1.63146 4.8107,4.88043 0,3.20715 -1.6035,4.81072 -4.8107,4.81072 -3.2071,0 -4.8107,-1.60357 -4.8107,-4.81072 z m 4.7689,-17.1094 c 19.7727,0 34.6371,15.35245 34.6371,34.58135 0,20.51177 -16.5237,34.58137 -34.6371,34.58137 -18.6851,0 -34.5256,-15.26879 -34.5256,-34.58137 0,-18.5317 14.5995,-34.58135 34.5256,-34.58135 z m 0.1116,6.23301 c -16.482,0 -28.4042,13.65127 -28.4042,28.34834 0,15.31062 12.717,28.27863 28.4042,28.27863 14.3903,0 28.2786,-11.30866 28.2786,-28.27863 0.014,-15.86838 -12.5776,-28.34834 -28.2786,-28.34834 z"
             id="path815-0" />
          <path
             style="fill:#0b486b;fill-opacity:1;stroke-width:0.13944097"
             inkscape:connector-curvature="0"
             d="m 1390.8039,435.59537 c 19.7727,0 34.6371,15.35245 34.6371,34.58136 0,20.51177 -16.5238,34.58136 -34.6371,34.58136 -18.6851,0 -34.5256,-15.26879 -34.5256,-34.58136 0,-18.5317 14.5994,-34.58136 34.5256,-34.58136 z m 0.1115,6.23301 c -16.4819,0 -28.4041,13.65127 -28.4041,28.34835 0,15.31062 12.717,28.27863 28.4041,28.27863 14.3903,0 28.2787,-11.30866 28.2787,-28.27863 0.014,-15.86838 -12.5777,-28.34835 -28.2787,-28.34835 z m 13.1075,20.12134 v 5.92624 h -25.1413 v -5.92624 z m 0,11.12739 v 5.92624 h -25.1413 v -5.92624 z"
             id="path859" />
          <g
             aria-label="CC"
             transform="matrix(2.2273435,0,0,2.2273435,513.58581,281.70887)"
             style="font-style:normal;font-variant:normal;font-weight:normal;font-stretch:normal;font-size:26.66666794px;line-height:1;font-family:'IBM Plex Mono';-inkscape-font-specification:'IBM Plex Mono';text-align:center;letter-spacing:0px;word-spacing:0px;text-anchor:middle;fill:#212529;fill-opacity:1;stroke:none"
             id="flowRoot6821-8">
            <path
               d="m 307.79219,137.5345 q -2.83468,0 -4.22987,-2.05957 -1.37305,-2.05957 -1.37305,-5.93511 0,-3.87554 1.37305,-5.93512 1.39519,-2.05957 4.22987,-2.05957 1.06301,0 1.83812,0.2879 0.7751,0.28789 1.32875,0.7751 0.55365,0.48722 0.93013,1.1073 0.37648,0.59794 0.66438,1.21803 l -1.59451,0.73082 q -0.19931,-0.50936 -0.46506,-0.95228 -0.26575,-0.46507 -0.64223,-0.79725 -0.35434,-0.35434 -0.8637,-0.55365 -0.48721,-0.19932 -1.19588,-0.19932 -1.83811,0 -2.7461,1.3952 -0.88583,1.39519 -0.88583,3.72052 v 2.52463 q 0,2.32533 0.88583,3.72052 0.90799,1.3952 2.7461,1.3952 0.70867,0 1.19588,-0.19932 0.50936,-0.19931 0.8637,-0.5315 0.37648,-0.35433 0.64223,-0.79725 0.26575,-0.46507 0.46506,-0.97442 l 1.59451,0.73081 q -0.2879,0.64223 -0.66438,1.24018 -0.37648,0.59794 -0.93013,1.08515 -0.55365,0.48721 -1.32875,0.77511 -0.77511,0.28789 -1.83812,0.28789 z"
               style="font-style:normal;font-variant:normal;font-weight:normal;font-stretch:normal;font-size:22.1459465px;font-family:'IBM Plex Mono';-inkscape-font-specification:'IBM Plex Mono';fill:#212529;fill-opacity:1"
               id="path864" />
            <path
               d="m 321.07111,137.5345 q -2.83468,0 -4.22988,-2.05957 -1.37304,-2.05957 -1.37304,-5.93511 0,-3.87554 1.37304,-5.93512 1.3952,-2.05957 4.22988,-2.05957 1.06301,0 1.83811,0.2879 0.77511,0.28789 1.32876,0.7751 0.55365,0.48722 0.93013,1.1073 0.37648,0.59794 0.66438,1.21803 l -1.59451,0.73082 q -0.19931,-0.50936 -0.46506,-0.95228 -0.26576,-0.46507 -0.64224,-0.79725 -0.35433,-0.35434 -0.86369,-0.55365 -0.48721,-0.19932 -1.19588,-0.19932 -1.83811,0 -2.7461,1.3952 -0.88584,1.39519 -0.88584,3.72052 v 2.52463 q 0,2.32533 0.88584,3.72052 0.90799,1.3952 2.7461,1.3952 0.70867,0 1.19588,-0.19932 0.50936,-0.19931 0.86369,-0.5315 0.37648,-0.35433 0.64224,-0.79725 0.26575,-0.46507 0.46506,-0.97442 l 1.59451,0.73081 q -0.2879,0.64223 -0.66438,1.24018 -0.37648,0.59794 -0.93013,1.08515 -0.55365,0.48721 -1.32876,0.77511 -0.7751,0.28789 -1.83811,0.28789 z"
               style="font-style:normal;font-variant:normal;font-weight:normal;font-stretch:normal;font-size:22.1459465px;font-family:'IBM Plex Mono';-inkscape-font-specification:'IBM Plex Mono';fill:#212529;fill-opacity:1"
               id="path866" />
          </g>
          <g
             aria-label="BY"
             transform="matrix(2.2273435,0,0,2.2273435,600.96387,281.11695)"
             style="font-style:normal;font-variant:normal;font-weight:normal;font-stretch:normal;font-size:26.66666794px;line-height:1;font-family:'IBM Plex Mono';-inkscape-font-specification:'IBM Plex Mono';text-align:center;letter-spacing:0px;word-spacing:0px;text-anchor:middle;fill:#212529;fill-opacity:1;stroke:none"
             id="flowRoot6821-8-3">
            <path
               d="m 302.58789,121.81088 h 5.24859 q 1.99314,0 3.12258,1.08515 1.12945,1.08515 1.12945,2.90112 0,1.3952 -0.68653,2.19245 -0.66438,0.79725 -1.72738,1.12944 v 0.0664 q 1.30661,0.31004 2.14815,1.17374 0.84155,0.84154 0.84155,2.4582 0,0.93013 -0.31004,1.74953 -0.31005,0.8194 -0.88584,1.41734 -0.55365,0.59794 -1.32876,0.95227 -0.75296,0.33219 -1.6388,0.33219 h -5.91297 z m 5.35932,13.84122 q 1.28447,0 2.01529,-0.5758 0.73081,-0.57579 0.73081,-1.77167 v -0.90799 q 0,-1.17373 -0.73081,-1.74953 -0.73082,-0.59794 -2.01529,-0.59794 h -3.49906 v 5.60293 z m -0.31004,-7.131 q 1.17374,0 1.83811,-0.50935 0.66438,-0.53151 0.66438,-1.59451 v -0.86369 q 0,-1.06301 -0.66438,-1.59451 -0.66437,-0.53151 -1.83811,-0.53151 h -3.18902 v 5.09357 z"
               style="font-style:normal;font-variant:normal;font-weight:normal;font-stretch:normal;font-size:22.1459465px;font-family:'IBM Plex Mono';-inkscape-font-specification:'IBM Plex Mono';fill:#212529;fill-opacity:1"
               id="path869" />
            <path
               d="m 319.63162,137.26875 v -6.06799 l -5.33717,-9.38988 h 2.12601 l 2.2146,4.03056 1.8824,3.52121 h 0.0886 l 1.9267,-3.52121 2.2146,-4.03056 h 2.08172 l -5.33718,9.38988 v 6.06799 z"
               style="font-style:normal;font-variant:normal;font-weight:normal;font-stretch:normal;font-size:22.1459465px;font-family:'IBM Plex Mono';-inkscape-font-specification:'IBM Plex Mono';fill:#212529;fill-opacity:1"
               id="path871" />
          </g>
          <g
             aria-label="ND"
             transform="matrix(2.2273435,0,0,2.2273435,691.05495,281.11695)"
             style="font-style:normal;font-variant:normal;font-weight:normal;font-stretch:normal;font-size:26.66666794px;line-height:1;font-family:'IBM Plex Mono';-inkscape-font-specification:'IBM Plex Mono';text-align:center;letter-spacing:0px;word-spacing:0px;text-anchor:middle;fill:#212529;fill-opacity:1;stroke:none"
             id="flowRoot6821-8-35">
            <path
               d="m 304.24884,124.1805 h -0.15502 v 13.08825 h -1.68309 v -15.45787 h 2.63536 l 5.27074,12.95538 h 0.15502 v -12.95538 h 1.68309 v 15.45787 h -2.63536 z"
               style="font-style:normal;font-variant:normal;font-weight:normal;font-stretch:normal;font-size:22.1459465px;font-family:'IBM Plex Mono';-inkscape-font-specification:'IBM Plex Mono';fill:#212529;fill-opacity:1"
               id="path874" />
            <path
               d="m 316.02183,121.81088 h 4.31846 q 2.83468,0 4.22988,1.94884 1.39519,1.94885 1.39519,5.7801 0,3.83124 -1.39519,5.78009 -1.3952,1.94884 -4.22988,1.94884 h -4.31846 z m 4.22988,13.84122 q 1.86026,0 2.79039,-1.28447 0.95227,-1.28446 0.95227,-3.63193 v -2.39177 q 0,-2.34747 -0.95227,-3.63193 -0.93013,-1.28447 -2.79039,-1.28447 h -2.36962 v 12.22457 z"
               style="font-style:normal;font-variant:normal;font-weight:normal;font-stretch:normal;font-size:22.1459465px;font-family:'IBM Plex Mono';-inkscape-font-specification:'IBM Plex Mono';fill:#212529;fill-opacity:1"
               id="path876" />
          </g>
          <g
             aria-label="NODERIVATIVES"
             transform="matrix(0,2.3839995,-2.3839995,0,1689.7809,78.45627)"
             style="font-style:normal;font-variant:normal;font-weight:normal;font-stretch:normal;font-size:20.69070435px;line-height:1;font-family:Static;-inkscape-font-specification:Static;text-align:center;letter-spacing:0px;word-spacing:0px;text-anchor:middle;fill:#212529;fill-opacity:1;stroke:none"
             id="flowRoot6821-8-6-3-2">
            <path
               d="m 236.64934,120.37929 h -0.14483 v 12.22821 h -1.5725 v -14.44211 h 2.4622 l 4.92438,12.10406 h 0.14484 v -12.10406 h 1.57249 v 14.44211 h -2.46219 z"
               style="font-style:normal;font-variant:normal;font-weight:normal;font-stretch:normal;font-size:20.69070435px;font-family:'IBM Plex Mono';-inkscape-font-specification:'IBM Plex Mono';fill:#212529;fill-opacity:1"
               id="path879" />
            <path
               d="m 251.89031,132.85579 q -1.32421,0 -2.27598,-0.49658 -0.95177,-0.51727 -1.57249,-1.46904 -0.62072,-0.95177 -0.91039,-2.33805 -0.28967,-1.38628 -0.28967,-3.16568 0,-1.75871 0.28967,-3.14498 0.28967,-1.40697 0.91039,-2.35874 0.62072,-0.95178 1.57249,-1.44835 0.95177,-0.51727 2.27598,-0.51727 1.3242,0 2.27598,0.51727 0.95177,0.49657 1.57249,1.44835 0.62072,0.95177 0.91039,2.35874 0.28967,1.38627 0.28967,3.14498 0,1.7794 -0.28967,3.16568 -0.28967,1.38628 -0.91039,2.33805 -0.62072,0.95177 -1.57249,1.46904 -0.95178,0.49658 -2.27598,0.49658 z m 0,-1.51042 q 0.86901,0 1.46904,-0.33105 0.60003,-0.35175 0.99315,-0.97247 0.39313,-0.62072 0.55865,-1.48973 0.18622,-0.8897 0.18622,-1.98631 v -2.35874 q 0,-1.07591 -0.18622,-1.96561 -0.16552,-0.8897 -0.55865,-1.51042 -0.39312,-0.62073 -0.99315,-0.95178 -0.60003,-0.35174 -1.46904,-0.35174 -0.86901,0 -1.46904,0.35174 -0.60003,0.33105 -0.99316,0.95178 -0.39312,0.62072 -0.57933,1.51042 -0.16553,0.8897 -0.16553,1.96561 v 2.35874 q 0,1.09661 0.16553,1.98631 0.18621,0.86901 0.57933,1.48973 0.39313,0.62072 0.99316,0.97247 0.60003,0.33105 1.46904,0.33105 z"
               style="font-style:normal;font-variant:normal;font-weight:normal;font-stretch:normal;font-size:20.69070435px;font-family:'IBM Plex Mono';-inkscape-font-specification:'IBM Plex Mono';fill:#212529;fill-opacity:1"
               id="path881" />
            <path
               d="m 260.05505,118.16539 h 4.03469 q 2.64841,0 3.95193,1.82078 1.30351,1.82078 1.30351,5.40027 0,3.5795 -1.30351,5.40028 -1.30352,1.82078 -3.95193,1.82078 h -4.03469 z m 3.95193,12.93169 q 1.73802,0 2.60703,-1.20006 0.8897,-1.20006 0.8897,-3.39328 v -2.23459 q 0,-2.19322 -0.8897,-3.39328 -0.86901,-1.20006 -2.60703,-1.20006 h -2.21391 v 11.42127 z"
               style="font-style:normal;font-variant:normal;font-weight:normal;font-stretch:normal;font-size:20.69070435px;font-family:'IBM Plex Mono';-inkscape-font-specification:'IBM Plex Mono';fill:#212529;fill-opacity:1"
               id="path883" />
            <path
               d="m 272.35794,132.6075 v -14.44211 h 8.897 v 1.51042 h -7.15898 v 4.86231 h 6.9107 v 1.51043 h -6.9107 v 5.04853 h 7.15898 v 1.51042 z"
               style="font-style:normal;font-variant:normal;font-weight:normal;font-stretch:normal;font-size:20.69070435px;font-family:'IBM Plex Mono';-inkscape-font-specification:'IBM Plex Mono';fill:#212529;fill-opacity:1"
               id="path885" />
            <path
               d="m 286.5023,132.6075 h -1.73802 v -14.44211 h 5.25544 q 2.007,0 3.06223,1.09661 1.05522,1.0966 1.05522,3.06222 0,1.75871 -0.91039,2.81394 -0.91039,1.05522 -2.64841,1.22075 l 3.68295,6.24859 h -1.94493 l -3.51742,-6.16583 h -2.29667 z m 3.47604,-7.63487 q 1.09661,0 1.69664,-0.53796 0.62072,-0.55865 0.62072,-1.57249 v -1.07592 q 0,-1.01384 -0.62072,-1.5518 -0.60003,-0.55865 -1.69664,-0.55865 h -3.47604 v 5.29682 z"
               style="font-style:normal;font-variant:normal;font-weight:normal;font-stretch:normal;font-size:20.69070435px;font-family:'IBM Plex Mono';-inkscape-font-specification:'IBM Plex Mono';fill:#212529;fill-opacity:1"
               id="path887" />
            <path
               d="m 297.04648,132.6075 v -1.38628 h 3.60018 v -11.66956 h -3.60018 v -1.38627 h 8.93838 v 1.38627 h -3.60018 v 11.66956 h 3.60018 v 1.38628 z"
               style="font-style:normal;font-variant:normal;font-weight:normal;font-stretch:normal;font-size:20.69070435px;font-family:'IBM Plex Mono';-inkscape-font-specification:'IBM Plex Mono';fill:#212529;fill-opacity:1"
               id="path889" />
            <path
               d="m 312.74264,132.6075 -4.28298,-14.44211 h 1.84148 l 2.04838,7.22105 1.5518,5.46235 h 0.10345 l 1.55181,-5.46235 2.04838,-7.22105 h 1.7794 l -4.28298,14.44211 z"
               style="font-style:normal;font-variant:normal;font-weight:normal;font-stretch:normal;font-size:20.69070435px;font-family:'IBM Plex Mono';-inkscape-font-specification:'IBM Plex Mono';fill:#212529;fill-opacity:1"
               id="path891" />
            <path
               d="m 330.07337,132.6075 -1.22075,-4.11745 h -5.06923 l -1.22075,4.11745 h -1.80009 l 4.42781,-14.44211 h 2.29667 l 4.42781,14.44211 z m -3.66226,-12.60064 h -0.18621 l -2.02769,6.97277 h 4.24159 z"
               style="font-style:normal;font-variant:normal;font-weight:normal;font-stretch:normal;font-size:20.69070435px;font-family:'IBM Plex Mono';-inkscape-font-specification:'IBM Plex Mono';fill:#212529;fill-opacity:1"
               id="path893" />
            <path
               d="m 339.6037,119.67581 v 12.93169 h -1.73802 v -12.93169 h -4.82093 v -1.51042 h 11.37989 v 1.51042 z"
               style="font-style:normal;font-variant:normal;font-weight:normal;font-stretch:normal;font-size:20.69070435px;font-family:'IBM Plex Mono';-inkscape-font-specification:'IBM Plex Mono';fill:#212529;fill-opacity:1"
               id="path895" />
            <path
               d="m 346.67184,132.6075 v -1.38628 h 3.60018 v -11.66956 h -3.60018 v -1.38627 h 8.93839 v 1.38627 h -3.60019 v 11.66956 h 3.60019 v 1.38628 z"
               style="font-style:normal;font-variant:normal;font-weight:normal;font-stretch:normal;font-size:20.69070435px;font-family:'IBM Plex Mono';-inkscape-font-specification:'IBM Plex Mono';fill:#212529;fill-opacity:1"
               id="path897" />
            <path
               d="m 362.36801,132.6075 -4.28298,-14.44211 h 1.84147 l 2.04838,7.22105 1.55181,5.46235 h 0.10345 l 1.5518,-5.46235 2.04838,-7.22105 h 1.7794 l -4.28297,14.44211 z"
               style="font-style:normal;font-variant:normal;font-weight:normal;font-stretch:normal;font-size:20.69070435px;font-family:'IBM Plex Mono';-inkscape-font-specification:'IBM Plex Mono';fill:#212529;fill-opacity:1"
               id="path899" />
            <path
               d="m 371.60866,132.6075 v -14.44211 h 8.897 v 1.51042 h -7.15898 v 4.86231 h 6.9107 v 1.51043 h -6.9107 v 5.04853 h 7.15898 v 1.51042 z"
               style="font-style:normal;font-variant:normal;font-weight:normal;font-stretch:normal;font-size:20.69070435px;font-family:'IBM Plex Mono';-inkscape-font-specification:'IBM Plex Mono';fill:#212529;fill-opacity:1"
               id="path901" />
            <path
               d="m 388.31867,132.85579 q -1.94493,0 -3.18637,-0.70349 -1.24144,-0.72417 -2.04838,-1.84147 l 1.26213,-1.03453 q 0.84832,1.05522 1.77941,1.57249 0.95177,0.51727 2.25528,0.51727 1.5725,0 2.40012,-0.72418 0.82763,-0.72417 0.82763,-2.02769 0,-1.05522 -0.60003,-1.63456 -0.60003,-0.60003 -2.08976,-0.84832 l -1.61387,-0.26898 q -1.05523,-0.18622 -1.77941,-0.55865 -0.70348,-0.37243 -1.13798,-0.8897 -0.43451,-0.53796 -0.62072,-1.15868 -0.18622,-0.64141 -0.18622,-1.3242 0,-1.98631 1.30351,-3.00016 1.30352,-1.01384 3.51742,-1.01384 1.73802,0 2.91739,0.57934 1.20006,0.57934 1.92424,1.63456 l -1.22075,1.05523 q -0.60003,-0.78625 -1.44835,-1.28282 -0.84832,-0.49658 -2.19322,-0.49658 -1.46904,0 -2.25528,0.62072 -0.78625,0.62072 -0.78625,1.86216 0,0.97247 0.57934,1.59319 0.60003,0.60003 2.13114,0.86901 l 1.5518,0.26898 q 1.05523,0.18621 1.7794,0.55865 0.72418,0.37243 1.15868,0.8897 0.4552,0.51726 0.64142,1.15868 0.18621,0.64141 0.18621,1.34489 0,2.007 -1.3242,3.14499 -1.30352,1.13799 -3.72433,1.13799 z"
               style="font-style:normal;font-variant:normal;font-weight:normal;font-stretch:normal;font-size:20.69070435px;font-family:'IBM Plex Mono';-inkscape-font-specification:'IBM Plex Mono';fill:#212529;fill-opacity:1"
               id="path903" />
          </g>
          <g
             aria-label="ATTRIBUTION"
             transform="matrix(0,2.3839995,-2.3839995,0,1600.849,51.296566)"
             style="font-style:normal;font-variant:normal;font-weight:normal;font-stretch:normal;font-size:20.69070435px;line-height:1;font-family:Static;-inkscape-font-specification:Static;text-align:center;letter-spacing:0px;word-spacing:0px;text-anchor:middle;fill:#212529;fill-opacity:1;stroke:none"
             id="flowRoot6821-8-6-3-3">
            <path
               d="m 255.63533,132.6075 -1.22076,-4.11745 h -5.06922 l -1.22075,4.11745 h -1.80009 l 4.42781,-14.44211 h 2.29667 l 4.42781,14.44211 z m -3.66226,-12.60064 h -0.18622 l -2.02768,6.97277 h 4.24159 z"
               style="font-style:normal;font-variant:normal;font-weight:normal;font-stretch:normal;font-size:20.69070435px;font-family:'IBM Plex Mono';-inkscape-font-specification:'IBM Plex Mono';fill:#212529;fill-opacity:1"
               id="path906" />
            <path
               d="m 265.16566,119.67581 v 12.93169 h -1.73802 v -12.93169 h -4.82093 v -1.51042 h 11.37988 v 1.51042 z"
               style="font-style:normal;font-variant:normal;font-weight:normal;font-stretch:normal;font-size:20.69070435px;font-family:'IBM Plex Mono';-inkscape-font-specification:'IBM Plex Mono';fill:#212529;fill-opacity:1"
               id="path908" />
            <path
               d="m 277.572,119.67581 v 12.93169 h -1.73802 v -12.93169 h -4.82093 v -1.51042 h 11.37988 v 1.51042 z"
               style="font-style:normal;font-variant:normal;font-weight:normal;font-stretch:normal;font-size:20.69070435px;font-family:'IBM Plex Mono';-inkscape-font-specification:'IBM Plex Mono';fill:#212529;fill-opacity:1"
               id="path910" />
            <path
               d="m 286.5023,132.6075 h -1.73802 v -14.44211 h 5.25544 q 2.007,0 3.06222,1.09661 1.05523,1.0966 1.05523,3.06222 0,1.75871 -0.91039,2.81394 -0.91039,1.05522 -2.64841,1.22075 l 3.68294,6.24859 h -1.94492 l -3.51742,-6.16583 h -2.29667 z m 3.47604,-7.63487 q 1.09661,0 1.69664,-0.53796 0.62072,-0.55865 0.62072,-1.57249 v -1.07592 q 0,-1.01384 -0.62072,-1.5518 -0.60003,-0.55865 -1.69664,-0.55865 h -3.47604 v 5.29682 z"
               style="font-style:normal;font-variant:normal;font-weight:normal;font-stretch:normal;font-size:20.69070435px;font-family:'IBM Plex Mono';-inkscape-font-specification:'IBM Plex Mono';fill:#212529;fill-opacity:1"
               id="path912" />
            <path
               d="m 297.04648,132.6075 v -1.38628 h 3.60018 v -11.66956 h -3.60018 v -1.38627 h 8.93838 v 1.38627 h -3.60018 v 11.66956 h 3.60018 v 1.38628 z"
               style="font-style:normal;font-variant:normal;font-weight:normal;font-stretch:normal;font-size:20.69070435px;font-family:'IBM Plex Mono';-inkscape-font-specification:'IBM Plex Mono';fill:#212529;fill-opacity:1"
               id="path914" />
            <path
               d="m 309.53558,118.16539 h 4.9037 q 1.86216,0 2.91739,1.01384 1.05523,1.01385 1.05523,2.71048 0,1.30352 -0.64142,2.04838 -0.62072,0.74487 -1.61387,1.05523 v 0.0621 q 1.22075,0.28967 2.007,1.09661 0.78624,0.78625 0.78624,2.29667 0,0.86901 -0.28967,1.63456 -0.28967,0.76556 -0.82762,1.32421 -0.51727,0.55865 -1.24145,0.8897 -0.70348,0.31036 -1.53111,0.31036 h -5.52442 z m 5.00715,12.93169 q 1.20006,0 1.88286,-0.53796 0.68279,-0.53796 0.68279,-1.65526 v -0.84832 q 0,-1.0966 -0.68279,-1.63456 -0.6828,-0.55865 -1.88286,-0.55865 h -3.26913 v 5.23475 z m -0.28967,-6.66241 q 1.09661,0 1.71733,-0.47589 0.62072,-0.49657 0.62072,-1.48973 v -0.80693 q 0,-0.99316 -0.62072,-1.48973 -0.62072,-0.49658 -1.71733,-0.49658 h -2.97946 v 4.75886 z"
               style="font-style:normal;font-variant:normal;font-weight:normal;font-stretch:normal;font-size:20.69070435px;font-family:'IBM Plex Mono';-inkscape-font-specification:'IBM Plex Mono';fill:#212529;fill-opacity:1"
               id="path916" />
            <path
               d="m 323.51441,118.16539 v 8.6694 q 0,1.05523 0.0621,1.88286 0.0621,0.82763 0.33105,1.42766 0.26898,0.57934 0.82763,0.8897 0.57934,0.31036 1.59318,0.31036 1.01384,0 1.57249,-0.31036 0.57934,-0.31036 0.84832,-0.8897 0.26898,-0.60003 0.33105,-1.42766 0.0621,-0.82763 0.0621,-1.88286 v -8.6694 h 1.73802 v 8.25559 q 0,1.61387 -0.16553,2.81393 -0.14484,1.20007 -0.64141,2.007 -0.47589,0.80694 -1.38628,1.22075 -0.8897,0.39313 -2.35874,0.39313 -1.46904,0 -2.37943,-0.39313 -0.8897,-0.41381 -1.38628,-1.22075 -0.47588,-0.80693 -0.64141,-2.007 -0.14483,-1.20006 -0.14483,-2.81393 v -8.25559 z"
               style="font-style:normal;font-variant:normal;font-weight:normal;font-stretch:normal;font-size:20.69070435px;font-family:'IBM Plex Mono';-inkscape-font-specification:'IBM Plex Mono';fill:#212529;fill-opacity:1"
               id="path918" />
            <path
               d="m 339.6037,119.67581 v 12.93169 h -1.73802 v -12.93169 h -4.82093 v -1.51042 h 11.37989 v 1.51042 z"
               style="font-style:normal;font-variant:normal;font-weight:normal;font-stretch:normal;font-size:20.69070435px;font-family:'IBM Plex Mono';-inkscape-font-specification:'IBM Plex Mono';fill:#212529;fill-opacity:1"
               id="path920" />
            <path
               d="m 346.67184,132.6075 v -1.38628 h 3.60018 v -11.66956 h -3.60018 v -1.38627 h 8.93839 v 1.38627 h -3.60019 v 11.66956 h 3.60019 v 1.38628 z"
               style="font-style:normal;font-variant:normal;font-weight:normal;font-stretch:normal;font-size:20.69070435px;font-family:'IBM Plex Mono';-inkscape-font-specification:'IBM Plex Mono';fill:#212529;fill-opacity:1"
               id="path922" />
            <path
               d="m 363.54737,132.85579 q -1.3242,0 -2.27597,-0.49658 -0.95178,-0.51727 -1.5725,-1.46904 -0.62072,-0.95177 -0.91039,-2.33805 -0.28967,-1.38628 -0.28967,-3.16568 0,-1.75871 0.28967,-3.14498 0.28967,-1.40697 0.91039,-2.35874 0.62072,-0.95178 1.5725,-1.44835 0.95177,-0.51727 2.27597,-0.51727 1.32421,0 2.27598,0.51727 0.95177,0.49657 1.5725,1.44835 0.62072,0.95177 0.91039,2.35874 0.28967,1.38627 0.28967,3.14498 0,1.7794 -0.28967,3.16568 -0.28967,1.38628 -0.91039,2.33805 -0.62073,0.95177 -1.5725,1.46904 -0.95177,0.49658 -2.27598,0.49658 z m 0,-1.51042 q 0.86901,0 1.46904,-0.33105 0.60004,-0.35175 0.99316,-0.97247 0.39312,-0.62072 0.55865,-1.48973 0.18621,-0.8897 0.18621,-1.98631 v -2.35874 q 0,-1.07591 -0.18621,-1.96561 -0.16553,-0.8897 -0.55865,-1.51042 -0.39312,-0.62073 -0.99316,-0.95178 -0.60003,-0.35174 -1.46904,-0.35174 -0.869,0 -1.46904,0.35174 -0.60003,0.33105 -0.99315,0.95178 -0.39312,0.62072 -0.57934,1.51042 -0.16552,0.8897 -0.16552,1.96561 v 2.35874 q 0,1.09661 0.16552,1.98631 0.18622,0.86901 0.57934,1.48973 0.39312,0.62072 0.99315,0.97247 0.60004,0.33105 1.46904,0.33105 z"
               style="font-style:normal;font-variant:normal;font-weight:normal;font-stretch:normal;font-size:20.69070435px;font-family:'IBM Plex Mono';-inkscape-font-specification:'IBM Plex Mono';fill:#212529;fill-opacity:1"
               id="path924" />
            <path
               d="m 373.11909,120.37929 h -0.14484 v 12.22821 h -1.57249 v -14.44211 h 2.4622 l 4.92438,12.10406 h 0.14484 v -12.10406 h 1.57249 v 14.44211 h -2.46219 z"
               style="font-style:normal;font-variant:normal;font-weight:normal;font-stretch:normal;font-size:20.69070435px;font-family:'IBM Plex Mono';-inkscape-font-specification:'IBM Plex Mono';fill:#212529;fill-opacity:1"
               id="path926" />
          </g>
        </g>
      </g>
    </g>
  </g>
</svg>
