<?xml version="1.0" encoding="UTF-8" standalone="no"?>
<!-- Created with Inkscape (http://www.inkscape.org/) -->

<svg
   xmlns:dc="http://purl.org/dc/elements/1.1/"
   xmlns:cc="http://creativecommons.org/ns#"
   xmlns:rdf="http://www.w3.org/1999/02/22-rdf-syntax-ns#"
   xmlns:svg="http://www.w3.org/2000/svg"
   xmlns="http://www.w3.org/2000/svg"
   xmlns:sodipodi="http://sodipodi.sourceforge.net/DTD/sodipodi-0.dtd"
   xmlns:inkscape="http://www.inkscape.org/namespaces/inkscape"
   width="30mm"
   height="35.463074mm"
   viewBox="0 0 30 35.463074"
   version="1.1"
   id="svg4812"
   inkscape:version="0.92.3 (unknown)"
   sodipodi:docname="stack-of-books.svg">
  <defs
     id="defs4806">
    <clipPath
       clipPathUnits="userSpaceOnUse"
       id="clipPath1700">
      <path
         d="m 3260.38,2802.5 c -0.4,0 -0.8,0 -1.21,0.01 -4.34,0.13 -8.52,0.81 -12.55,2.05 -4.04,1.24 -7.86,2.9 -11.47,4.98 l -24.21,13.98 c -1.2,0.7 -1.83,1.43 -1.87,2.2 l 1.22,1.89 87.72,50.65 c 0.88,0.5 1.82,0.76 2.84,0.76 0.27,0 0.55,-0.02 0.83,-0.06 1.33,-0.17 2.46,-0.53 3.41,-1.08 l 21.13,-12.19 c 3.6,-2.09 6.71,-4.2 9.33,-6.36 2.62,-2.16 4.32,-4.4 5.09,-6.73 0.77,-2.33 0.43,-4.71 -1.03,-7.14 -1.46,-2.43 -4.46,-4.96 -9.01,-7.59 -5.41,-3.12 -10.96,-5.15 -16.62,-6.09 -2.69,-0.45 -5.28,-0.67 -7.76,-0.67 -2.74,0 -5.35,0.27 -7.82,0.82 1.2,-1.59 2.01,-3.2 2.44,-4.84 0.43,-1.63 0.36,-3.28 -0.19,-4.94 -0.56,-1.67 -1.74,-3.39 -3.54,-5.17 -1.81,-1.78 -4.34,-3.62 -7.6,-5.5 l -2.32,-1.34 c -4.89,-2.83 -9.71,-4.84 -14.43,-6.03 -4.29,-1.08 -8.41,-1.61 -12.38,-1.61 m 2.47,45.79 -39.55,-22.83 18.68,-10.79 c 5.66,-3.27 11.59,-4.96 17.77,-5.06 0.16,0 0.31,0 0.46,0 6.04,0 12.33,1.89 18.86,5.66 l 2.19,1.26 c 6.7,3.87 9.83,7.51 9.41,10.93 -0.43,3.42 -3.48,6.77 -9.15,10.04 l -18.67,10.79 m 38.89,22.46 -31.55,-18.22 16.87,-9.75 c 5.92,-3.42 11.55,-5.25 16.87,-5.5 0.35,-0.02 0.7,-0.02 1.05,-0.02 5.03,0 10.43,1.67 16.21,5 2.92,1.69 4.9,3.35 5.93,4.98 1.03,1.64 1.33,3.25 0.9,4.84 -0.43,1.59 -1.53,3.13 -3.29,4.65 -1.76,1.51 -3.97,3.04 -6.63,4.57 l -16.36,9.45"
         id="path1698"
         inkscape:connector-curvature="0" />
    </clipPath>
    <radialGradient
       fx="0"
       fy="0"
       cx="0"
       cy="0"
       r="1"
       gradientUnits="userSpaceOnUse"
       gradientTransform="matrix(2277.4,0,0,-2277.4,2250,2250)"
       spreadMethod="pad"
       id="radialGradient1706">
      <stop
         style="stop-opacity:1;stop-color:#b3e2da"
         offset="0"
         id="stop1702" />
      <stop
         style="stop-opacity:1;stop-color:#80dbde"
         offset="1"
         id="stop1704" />
    </radialGradient>
    <clipPath
       clipPathUnits="userSpaceOnUse"
       id="clipPath1652">
      <path
         d="m 3882.87,2599.05 c -1.25,0 -2.27,0.23 -3.08,0.7 l -87.72,50.65 c -1.11,0.64 -1.52,1.34 -1.22,2.12 0.3,0.76 0.92,1.42 1.86,1.97 l 21.13,12.19 c 3.61,2.09 7.27,3.88 11.01,5.39 3.74,1.51 7.62,2.49 11.66,2.94 1.39,0.15 2.8,0.23 4.22,0.23 2.67,0 5.39,-0.27 8.14,-0.82 4.21,-0.85 8.59,-2.58 13.14,-5.21 5.41,-3.12 8.93,-6.32 10.56,-9.59 1.64,-3.27 1.55,-6.27 -0.25,-9 2.74,0.69 5.53,1.16 8.37,1.41 1.23,0.11 2.46,0.16 3.7,0.16 1.62,0 3.23,-0.09 4.86,-0.27 2.88,-0.32 5.86,-1 8.96,-2.04 3.08,-1.05 6.26,-2.51 9.53,-4.39 l 2.32,-1.34 c 4.89,-2.82 8.37,-5.6 10.43,-8.33 2.06,-2.73 2.98,-5.34 2.77,-7.84 -0.22,-2.51 -1.4,-4.93 -3.54,-7.26 -2.15,-2.33 -5.03,-4.53 -8.64,-6.61 l -24.21,-13.99 c -1.2,-0.69 -2.47,-1.05 -3.8,-1.07 -0.07,0 -0.13,0 -0.2,0 m -1.76,47.13 c -0.35,0 -0.71,-0.01 -1.07,-0.02 -5.92,-0.25 -11.72,-2.01 -17.39,-5.28 l -18.67,-10.79 39.54,-22.83 18.67,10.79 c 5.67,3.27 8.59,6.69 8.77,10.26 0.17,3.57 -3.1,7.29 -9.79,11.15 l -2.19,1.27 c -6.3,3.63 -12.25,5.45 -17.87,5.45 m -41.27,21.65 c -0.82,0 -1.63,-0.03 -2.43,-0.11 -2.75,-0.24 -5.43,-0.88 -8.05,-1.89 -2.62,-1.02 -5.26,-2.3 -7.92,-3.83 l -16.36,-9.45 31.56,-18.22 16.87,9.75 c 5.92,3.42 9.1,6.66 9.53,9.74 0.43,3.07 -2.45,6.39 -8.63,9.96 -2.92,1.69 -5.8,2.83 -8.63,3.42 -2,0.42 -3.98,0.63 -5.94,0.63"
         id="path1650"
         inkscape:connector-curvature="0" />
    </clipPath>
    <radialGradient
       fx="0"
       fy="0"
       cx="0"
       cy="0"
       r="1"
       gradientUnits="userSpaceOnUse"
       gradientTransform="matrix(2277.4,0,0,-2277.4,2250,2250)"
       spreadMethod="pad"
       id="radialGradient1658">
      <stop
         style="stop-opacity:1;stop-color:#b3e2da"
         offset="0"
         id="stop1654" />
      <stop
         style="stop-opacity:1;stop-color:#80dbde"
         offset="1"
         id="stop1656" />
    </radialGradient>
    <clipPath
       clipPathUnits="userSpaceOnUse"
       id="clipPath428">
      <path
         d="m 3385.02,2795.12 -2.59,1.5 c -0.97,0.56 -1.69,1.4 -2.1,2.37 1.65,-0.07 3.23,-0.95 4.14,-2.48 0.26,-0.45 0.44,-0.91 0.55,-1.39"
         id="path426"
         inkscape:connector-curvature="0" />
    </clipPath>
    <radialGradient
       fx="0"
       fy="0"
       cx="0"
       cy="0"
       r="1"
       gradientUnits="userSpaceOnUse"
       gradientTransform="matrix(2277.4,0,0,-2277.4,2250,2250)"
       spreadMethod="pad"
       id="radialGradient434">
      <stop
         style="stop-opacity:1;stop-color:#f9fdfc"
         offset="0"
         id="stop430" />
      <stop
         style="stop-opacity:1;stop-color:#f5fcfc"
         offset="1"
         id="stop432" />
    </radialGradient>
    <clipPath
       clipPathUnits="userSpaceOnUse"
       id="clipPath412">
      <path
         d="m 3477.25,2272.35 v 7.16 c 0.32,-0.31 0.6,-0.67 0.84,-1.08 1.17,-2.02 0.76,-4.52 -0.84,-6.08 m 22.49,13.58 c -1.72,0 -3.41,0.9 -4.33,2.5 -1.39,2.4 -0.57,5.45 1.83,6.83 l 17.32,10 c 0.79,0.46 1.65,0.68 2.5,0.68 1.72,0 3.4,-0.9 4.33,-2.51 1.38,-2.39 0.56,-5.45 -1.83,-6.83 l -17.32,-10 -2.5,-0.67 m 43.3,25.01 c -1.72,0 -3.41,0.9 -4.33,2.5 -1.39,2.39 -0.57,5.45 1.83,6.83 l 17.32,10 c 0.79,0.45 1.65,0.67 2.5,0.67 1.73,0 3.4,-0.89 4.33,-2.5 1.38,-2.39 0.56,-5.45 -1.83,-6.83 l -17.32,-10 -2.5,-0.67 m 43.3,25 c -1.72,0 -3.41,0.9 -4.33,2.5 -1.38,2.39 -0.56,5.45 1.83,6.83 l 17.32,10 c 0.79,0.46 1.65,0.68 2.5,0.68 1.73,0 3.41,-0.9 4.33,-2.51 1.39,-2.39 0.56,-5.45 -1.83,-6.83 l -17.32,-10 -2.5,-0.67 m 43.3,25 c -1.72,0 -3.41,0.9 -4.33,2.5 -1.38,2.39 -0.56,5.45 1.83,6.83 l 17.32,10 c 0.79,0.46 1.66,0.67 2.51,0.67 1.72,0 3.4,-0.89 4.32,-2.5 1.39,-2.39 0.57,-5.45 -1.83,-6.83 l -17.32,-10 -2.5,-0.67 m 43.3,25 c -1.72,0 -3.41,0.9 -4.33,2.5 -1.38,2.39 -0.56,5.45 1.83,6.83 l 17.32,10 c 0.79,0.45 1.66,0.67 2.51,0.67 1.72,0 3.4,-0.89 4.32,-2.5 1.39,-2.39 0.57,-5.45 -1.83,-6.83 l -17.32,-10 -2.5,-0.67 m 43.3,25 c -1.72,0 -3.41,0.9 -4.33,2.5 -1.38,2.39 -0.56,5.45 1.83,6.83 l 17.32,10 c 0.79,0.45 1.65,0.67 2.5,0.67 1.72,0 3.41,-0.9 4.33,-2.5 1.39,-2.39 0.57,-5.45 -1.83,-6.83 l -17.32,-10 -2.5,-0.67 m 43.3,25 c -1.72,0 -3.41,0.9 -4.33,2.5 -1.38,2.4 -0.56,5.45 1.83,6.83 l 17.33,10 c 0.78,0.46 1.63,0.67 2.48,0.67 1.73,0 3.42,-0.89 4.34,-2.5 1.39,-2.39 0.57,-5.45 -1.83,-6.83 l -17.32,-10 -2.5,-0.67 m 43.3,25 c -1.72,0 -3.41,0.9 -4.32,2.5 -1.39,2.4 -0.57,5.45 1.82,6.83 l 17.33,10 c 0.78,0.46 1.64,0.67 2.49,0.67 1.72,0 3.41,-0.89 4.33,-2.5 1.39,-2.39 0.57,-5.45 -1.82,-6.83 l -17.33,-10 -2.5,-0.67 m 43.3,25 c -1.72,0 -3.41,0.9 -4.32,2.5 -1.39,2.4 -0.57,5.45 1.82,6.83 l 17.33,10 c 0.79,0.46 1.65,0.68 2.5,0.68 1.72,0 3.4,-0.9 4.32,-2.51 1.39,-2.39 0.57,-5.45 -1.82,-6.83 l -17.33,-10 -2.5,-0.67 m 32.42,25 -2.5,0.67 -17.32,10 c -2.39,1.38 -3.21,4.44 -1.83,6.83 0.93,1.61 2.61,2.5 4.34,2.5 0.84,0 1.7,-0.22 2.49,-0.67 l 17.32,-10 c 2.4,-1.38 3.22,-4.44 1.83,-6.83 -0.92,-1.6 -2.61,-2.5 -4.33,-2.5 m -43.3,25 -2.5,0.67 -17.32,10 c -2.39,1.38 -3.21,4.44 -1.83,6.83 0.93,1.61 2.61,2.5 4.34,2.5 0.85,0 1.71,-0.22 2.49,-0.67 l 17.32,-10 c 2.4,-1.38 3.22,-4.44 1.83,-6.83 -0.92,-1.6 -2.61,-2.5 -4.33,-2.5 m -43.3,25 -2.5,0.67 -17.32,10 c -2.39,1.38 -3.21,4.44 -1.83,6.83 0.92,1.61 2.6,2.5 4.33,2.5 0.85,0 1.71,-0.21 2.5,-0.67 l 17.32,-10 c 2.4,-1.38 3.22,-4.44 1.83,-6.83 -0.92,-1.6 -2.61,-2.5 -4.33,-2.5 m -43.3,25 -2.5,0.67 -17.32,10 c -2.39,1.38 -3.21,4.44 -1.83,6.83 0.93,1.6 2.61,2.49 4.34,2.49 0.85,0 1.7,-0.21 2.49,-0.66 l 17.32,-10 c 2.39,-1.38 3.22,-4.44 1.83,-6.83 -0.92,-1.6 -2.61,-2.5 -4.33,-2.5 m -43.3,25.01 -2.5,0.67 -17.32,10 c -2.4,1.38 -3.22,4.43 -1.83,6.83 0.93,1.6 2.61,2.49 4.33,2.49 0.85,0 1.71,-0.22 2.5,-0.66 l 17.32,-10 c 2.39,-1.38 3.21,-4.44 1.83,-6.83 -0.92,-1.6 -2.61,-2.5 -4.33,-2.5 m -43.3,25 -2.5,0.67 -17.32,10 c -2.4,1.38 -3.22,4.43 -1.83,6.83 0.92,1.6 2.61,2.49 4.34,2.49 0.84,0 1.7,-0.21 2.49,-0.66 l 17.32,-10 c 2.39,-1.38 3.21,-4.44 1.83,-6.83 -0.92,-1.6 -2.61,-2.5 -4.33,-2.5 m -43.3,25 -2.5,0.67 -17.32,10 c -2.4,1.38 -3.22,4.43 -1.83,6.83 0.92,1.6 2.6,2.49 4.33,2.49 0.85,0 1.71,-0.21 2.5,-0.66 l 17.32,-10 c 2.39,-1.38 3.21,-4.44 1.83,-6.83 -0.92,-1.6 -2.61,-2.5 -4.33,-2.5 m -43.3,25 -2.5,0.67 -17.33,10 c -2.39,1.38 -3.21,4.43 -1.82,6.83 0.92,1.6 2.61,2.49 4.34,2.49 0.84,0 1.7,-0.21 2.49,-0.66 l 17.32,-10 c 2.39,-1.38 3.21,-4.44 1.82,-6.83 -0.91,-1.6 -2.6,-2.5 -4.32,-2.5 m -43.3,25 -2.5,0.67 -17.33,10 c -2.39,1.38 -3.21,4.44 -1.82,6.83 0.92,1.6 2.6,2.49 4.33,2.49 0.85,0 1.71,-0.21 2.49,-0.66 l 17.33,-10 c 2.39,-1.38 3.21,-4.44 1.82,-6.83 -0.91,-1.6 -2.6,-2.5 -4.32,-2.5 m -43.3,25 -2.5,0.67 -17.33,10 c -2.39,1.38 -3.21,4.44 -1.82,6.83 0.92,1.6 2.61,2.49 4.34,2.49 0.84,0 1.7,-0.21 2.48,-0.66 l 17.33,-10 c 2.39,-1.38 3.21,-4.44 1.82,-6.83 -0.91,-1.6 -2.6,-2.5 -4.32,-2.5 m -43.3,25 -2.5,0.67 -17.33,10 c -2.39,1.38 -3.21,4.44 -1.82,6.83 0.91,1.6 2.6,2.49 4.33,2.49 0.85,0 1.71,-0.21 2.49,-0.66 l 17.33,-10 c 2.39,-1.38 3.21,-4.44 1.82,-6.83 -0.92,-1.6 -2.61,-2.5 -4.32,-2.5 m -43.3,25 -2.5,0.67 -14.74,8.5 c -0.11,0.48 -0.29,0.94 -0.55,1.39 -0.91,1.53 -2.49,2.41 -4.14,2.48 -0.59,1.39 -0.55,3.04 0.28,4.46 0.92,1.6 2.6,2.49 4.33,2.49 0.85,0 1.71,-0.21 2.49,-0.66 l 17.33,-10 c 2.39,-1.38 3.21,-4.44 1.82,-6.83 -0.92,-1.6 -2.61,-2.5 -4.32,-2.5"
         id="path410"
         inkscape:connector-curvature="0" />
    </clipPath>
    <radialGradient
       fx="0"
       fy="0"
       cx="0"
       cy="0"
       r="1"
       gradientUnits="userSpaceOnUse"
       gradientTransform="matrix(2277.4,0,0,-2277.4,2250,2250)"
       spreadMethod="pad"
       id="radialGradient418">
      <stop
         style="stop-opacity:1;stop-color:#e0f3f0"
         offset="0"
         id="stop414" />
      <stop
         style="stop-opacity:1;stop-color:#ccf0f2"
         offset="1"
         id="stop416" />
    </radialGradient>
    <clipPath
       clipPathUnits="userSpaceOnUse"
       id="clipPath140">
      <path
         d="m 2151.16,2937.27 -2.47,0.65 -5.42,3.09 7.55,4.37 c 0.78,0.45 1.64,0.67 2.49,0.67 0.45,0 0.9,-0.06 1.33,-0.18 1.61,-1.55 2.03,-4.04 0.87,-6.08 -0.92,-1.61 -2.61,-2.52 -4.35,-2.52"
         id="path138"
         inkscape:connector-curvature="0" />
    </clipPath>
    <radialGradient
       fx="0"
       fy="0"
       cx="0"
       cy="0"
       r="1"
       gradientUnits="userSpaceOnUse"
       gradientTransform="matrix(2277.4,0,0,-2277.4,2250,2250)"
       spreadMethod="pad"
       id="radialGradient146">
      <stop
         style="stop-opacity:1;stop-color:#f9fdfc"
         offset="0"
         id="stop142" />
      <stop
         style="stop-opacity:1;stop-color:#f5fcfc"
         offset="1"
         id="stop144" />
    </radialGradient>
  </defs>
  <sodipodi:namedview
     id="base"
     pagecolor="#ffffff"
     bordercolor="#666666"
     borderopacity="1.0"
     inkscape:pageopacity="0.0"
     inkscape:pageshadow="2"
     inkscape:zoom="3.959798"
     inkscape:cx="24.976525"
     inkscape:cy="11.151156"
     inkscape:document-units="mm"
     inkscape:current-layer="layer1"
     showgrid="false"
     fit-margin-top="0"
     fit-margin-left="0"
     fit-margin-right="0"
     fit-margin-bottom="0"
     inkscape:window-width="1366"
     inkscape:window-height="768"
     inkscape:window-x="0"
     inkscape:window-y="0"
     inkscape:window-maximized="1" />
  <metadata
     id="metadata4809">
    <rdf:RDF>
      <cc:Work
         rdf:about="">
        <dc:format>image/svg+xml</dc:format>
        <dc:type
           rdf:resource="http://purl.org/dc/dcmitype/StillImage" />
        <dc:title />
      </cc:Work>
    </rdf:RDF>
  </metadata>
  <g
     inkscape:label="Layer 1"
     inkscape:groupmode="layer"
     id="layer1"
     transform="translate(9.792201,-110.71184)">
    <g
       id="g6055"
       transform="matrix(1.9071069,0,0,1.9071069,8.882574,-132.59629)">
      <path
         inkscape:connector-curvature="0"
         id="path2126"
         style="fill:#2e5370;fill-opacity:1;fill-rule:nonzero;stroke:none;stroke-width:0.03527778"
         d="m -7.3249542,140.96969 h -0.8879416 v 1.5561 h 0.8879416 v -1.5561" />
      <path
         inkscape:connector-curvature="0"
         id="path2128"
         style="fill:#4379a3;fill-opacity:1;fill-rule:nonzero;stroke:none;stroke-width:0.03527778"
         d="m -8.2128958,142.73181 5.9633554,3.44311 7.7473522,-4.47286 v -0.20603 l -5.96370802,-3.23708 -7.74699958,4.26684 v 0.20602" />
      <path
         inkscape:connector-curvature="0"
         id="path2130"
         style="fill:#5191c6;fill-opacity:1;fill-rule:nonzero;stroke:none;stroke-width:0.03527778"
         d="m -8.2128958,142.52579 5.9633554,3.44311 7.7473522,-4.47287 -5.96370802,-3.44311 -7.74699958,4.47287" />
      <path
         inkscape:connector-curvature="0"
         id="path2132"
         style="fill:#d1b855;fill-opacity:1;fill-rule:nonzero;stroke:none;stroke-width:0.03527778"
         d="m 4.8430568,141.41595 -7.192786,4.15431 v -1.50988 l 7.192786,-4.15432 v 1.50989" />
      <path
         inkscape:connector-curvature="0"
         id="path2134"
         style="fill:#f6d864;fill-opacity:1;fill-rule:nonzero;stroke:none;stroke-width:0.03527778"
         d="m -2.3497292,145.57026 -5.5601303,-3.21345 v -1.55363 l 5.5601303,3.21345 v 1.55363" />
      <path
         inkscape:connector-curvature="0"
         id="path2136"
         style="fill:#4379a3;fill-opacity:1;fill-rule:nonzero;stroke:none;stroke-width:0.03527778"
         d="m -8.2128958,141.17571 5.9633554,3.44311 7.7473522,-4.47287 v -0.20602 l -5.96370802,-3.23709 -7.74699958,4.26685 v 0.20602" />
      <path
         inkscape:connector-curvature="0"
         id="path2138"
         style="fill:#579cd4;fill-opacity:1;fill-rule:nonzero;stroke:none;stroke-width:0.03527778"
         d="m -8.2128958,140.96969 5.9633554,3.44311 7.7473522,-4.47287 -5.96370802,-3.44311 -7.74699958,4.47287" />
      <path
         inkscape:connector-curvature="0"
         id="path2140"
         style="fill:#4379a3;fill-opacity:1;fill-rule:nonzero;stroke:none;stroke-width:0.03527778"
         d="m -6.4620598,140.96969 5.99616358,-3.46216 4.21287202,2.4324 -5.9961633,3.46216 -4.2128723,-2.4324" />
      <path
         inkscape:connector-curvature="0"
         id="path2142"
         style="fill:#4379a3;fill-opacity:1;fill-rule:nonzero;stroke:none;stroke-width:0.03527778"
         d="m -8.3914012,142.6288 0.1785054,0.10301 v -1.76212 l -0.1785054,-0.10301 c -0.1471083,0.47096 -0.1601613,1.0481 0,1.76212" />
      <path
         inkscape:connector-curvature="0"
         id="path2144"
         style="fill:#4379a3;fill-opacity:1;fill-rule:nonzero;stroke:none;stroke-width:0.03527778"
         d="m -0.46589622,136.49682 -7.74699958,4.47287 -0.1785054,-0.10301 7.74699998,-4.47287 0.178505,0.10301" />
      <path
         inkscape:connector-curvature="0"
         id="path2146"
         style="fill:#853d32;fill-opacity:1;fill-rule:nonzero;stroke:none;stroke-width:0.03527778"
         d="m -6.8843345,139.06716 h -0.8879417 v 1.5561 h 0.8879417 v -1.5561" />
      <path
         inkscape:connector-curvature="0"
         id="path2148"
         style="fill:#b85445;fill-opacity:1;fill-rule:nonzero;stroke:none;stroke-width:0.03527778"
         d="m -7.7722762,140.82928 5.963708,3.44312 7.747,-4.47287 v -0.20603 l -5.96370802,-3.23708 -7.74699998,4.26684 v 0.20602" />
      <path
         inkscape:connector-curvature="0"
         id="path2150"
         style="fill:#db6552;fill-opacity:1;fill-rule:nonzero;stroke:none;stroke-width:0.03527778"
         d="m -7.7722762,140.62326 5.963708,3.44311 7.747,-4.47287 -5.96370802,-3.44311 -7.74699998,4.47287" />
      <path
         inkscape:connector-curvature="0"
         id="path2152"
         style="fill:#d1b855;fill-opacity:1;fill-rule:nonzero;stroke:none;stroke-width:0.03527778"
         d="m 5.2836758,139.51342 -7.192786,4.15467 v -1.51024 l 7.192786,-4.15432 v 1.50989" />
      <path
         inkscape:connector-curvature="0"
         id="path2154"
         style="fill:#f6d864;fill-opacity:1;fill-rule:nonzero;stroke:none;stroke-width:0.03527778"
         d="m -1.9091102,143.66809 -5.56013,-3.21346 v -1.55398 l 5.56013,3.21345 v 1.55399" />
      <path
         inkscape:connector-curvature="0"
         id="path2156"
         style="fill:#b85445;fill-opacity:1;fill-rule:nonzero;stroke:none;stroke-width:0.03527778"
         d="m -7.7722762,139.27318 5.963708,3.44347 7.747,-4.47287 v -0.20638 l -5.96370802,-3.23709 -7.74699998,4.26685 v 0.20602" />
      <path
         inkscape:connector-curvature="0"
         id="path2158"
         style="fill:#e96b57;fill-opacity:1;fill-rule:nonzero;stroke:none;stroke-width:0.03527778"
         d="m -7.7722762,139.06716 5.963708,3.44311 7.747,-4.47287 -5.96370802,-3.44311 -7.74699998,4.47287" />
      <path
         inkscape:connector-curvature="0"
         id="path2160"
         style="fill:#b85445;fill-opacity:1;fill-rule:nonzero;stroke:none;stroke-width:0.03527778"
         d="m -6.0214402,139.06716 5.99616398,-3.46216 4.21287202,2.4324 -5.996164,3.46216 -4.212872,-2.4324" />
      <path
         inkscape:connector-curvature="0"
         id="path2162"
         style="fill:#b85445;fill-opacity:1;fill-rule:nonzero;stroke:none;stroke-width:0.03527778"
         d="m -7.9507818,140.72627 0.1785056,0.10301 v -1.76212 l -0.1785056,-0.10301 c -0.1471084,0.47096 -0.1598084,1.0481 0,1.76212" />
      <path
         inkscape:connector-curvature="0"
         id="path2164"
         style="fill:#b85445;fill-opacity:1;fill-rule:nonzero;stroke:none;stroke-width:0.03527778"
         d="m -0.02527622,134.59429 -7.74699998,4.47287 -0.1785056,-0.10301 7.74699958,-4.47287 0.178506,0.10301" />
      <path
         inkscape:connector-curvature="0"
         id="path2166"
         style="fill:#00a683;fill-opacity:1;fill-rule:nonzero;stroke:none;stroke-width:0.03527778"
         d="m -1.3115042,142.08094 -7.4496083,-2.62008 v -0.23354 l 5.8945637,-5.35375 7.4492556,2.38618 v 0.2339 l -5.894211,5.58729" />
      <path
         inkscape:connector-curvature="0"
         id="path2168"
         style="fill:#009677;fill-opacity:1;fill-rule:nonzero;stroke:none;stroke-width:0.03527778"
         d="m -1.3115042,141.84705 -7.4496083,-2.61973 5.8945637,-5.58729 7.4492556,2.61972 -5.894211,5.5873" />
      <path
         inkscape:connector-curvature="0"
         id="path2170"
         style="fill:#00785f;fill-opacity:1;fill-rule:nonzero;stroke:none;stroke-width:0.03527778"
         d="m -8.4009262,138.13935 h -0.144639 v 1.16382 l 0.144639,-0.17498 v -0.98884" />
      <path
         inkscape:connector-curvature="0"
         id="path2172"
         style="fill:#f6d864;fill-opacity:1;fill-rule:nonzero;stroke:none;stroke-width:0.03527778"
         d="m -1.4737822,141.49815 -6.927144,-2.36996 v -1.518 l 6.927144,2.28776 v 1.6002" />
      <path
         inkscape:connector-curvature="0"
         id="path2174"
         style="fill:#d1b855;fill-opacity:1;fill-rule:nonzero;stroke:none;stroke-width:0.03527778"
         d="m 4.0284928,136.32184 -5.502275,5.17631 v -1.6002 l 5.502275,-5.17631 v 1.6002" />
      <path
         inkscape:connector-curvature="0"
         id="path2176"
         style="fill:#00a683;fill-opacity:1;fill-rule:nonzero;stroke:none;stroke-width:0.03527778"
         d="m -8.5455652,139.53671 -0.2155473,-0.078 c -0.142875,-0.60678 -0.163336,-1.1363 0,-1.54976 l 0.2155473,0.0956 v 1.53212" />
      <path
         inkscape:connector-curvature="0"
         id="path2178"
         style="fill:#00a683;fill-opacity:1;fill-rule:nonzero;stroke:none;stroke-width:0.03527778"
         d="m -1.3115042,140.76261 -7.4496083,-2.61973 v -0.23389 l 5.8945637,-5.3534 7.4492556,2.38619 v 0.23354 l -5.894211,5.58729" />
      <path
         inkscape:connector-curvature="0"
         id="path2180"
         style="fill:#24b898;fill-opacity:1;fill-rule:nonzero;stroke:none;stroke-width:0.03527778"
         d="m 4.5830598,134.94213 -5.894211,5.58729 -7.21995,-2.53859 -0.2307167,-0.0818 5.8945637,-5.58764 0.2271888,0.0801 7.2231252,2.5407" />
      <path
         inkscape:connector-curvature="0"
         id="path2182"
         style="fill:#00a683;fill-opacity:1;fill-rule:nonzero;stroke:none;stroke-width:0.03527778"
         d="m -7.0166262,137.53681 4.3769137,-4.14867 5.4772273,1.92652 -4.376561,4.14832 -5.47758,-1.92617" />
      <path
         inkscape:connector-curvature="0"
         id="path2184"
         style="fill:#00a683;fill-opacity:1;fill-rule:nonzero;stroke:none;stroke-width:0.03527778"
         d="m -2.6400654,132.40142 -5.8910358,5.58941 -0.014817,0.0131 -0.2159,-0.0949 5.8945637,-5.58764 0.2271888,0.0801" />
      <path
         inkscape:connector-curvature="0"
         id="path2186"
         style="fill:#2e5370;fill-opacity:1;fill-rule:nonzero;stroke:none;stroke-width:0.03527778"
         d="m -7.7652208,135.27656 h -0.8879417 v 1.55611 h 0.8879417 v -1.55611" />
      <path
         inkscape:connector-curvature="0"
         id="path2188"
         style="fill:#4379a3;fill-opacity:1;fill-rule:nonzero;stroke:none;stroke-width:0.03527778"
         d="m -8.6531625,137.03869 5.9637083,3.44311 7.747,-4.47287 v -0.20602 l -5.96370802,-3.23709 -7.74700028,4.26685 v 0.20602" />
      <path
         inkscape:connector-curvature="0"
         id="path2190"
         style="fill:#5191c6;fill-opacity:1;fill-rule:nonzero;stroke:none;stroke-width:0.03527778"
         d="m -8.6531625,136.83267 5.9637083,3.44311 7.747,-4.47287 -5.96370802,-3.44311 -7.74700028,4.47287" />
      <path
         inkscape:connector-curvature="0"
         id="path2192"
         style="fill:#d1b855;fill-opacity:1;fill-rule:nonzero;stroke:none;stroke-width:0.03527778"
         d="m 4.4027898,135.72283 -7.1927856,4.15431 v -1.50989 l 7.1927856,-4.15431 v 1.50989" />
      <path
         inkscape:connector-curvature="0"
         id="path2194"
         style="fill:#f6d864;fill-opacity:1;fill-rule:nonzero;stroke:none;stroke-width:0.03527778"
         d="m -2.7899958,139.87714 -5.5601304,-3.21346 v -1.55363 l 5.5601304,3.21345 v 1.55364" />
      <path
         inkscape:connector-curvature="0"
         id="path2196"
         style="fill:#4379a3;fill-opacity:1;fill-rule:nonzero;stroke:none;stroke-width:0.03527778"
         d="m -8.6531625,135.48258 5.9637083,3.44312 7.747,-4.47287 v -0.20603 l -5.96370802,-3.23708 -7.74700028,4.26684 v 0.20602" />
      <path
         inkscape:connector-curvature="0"
         id="path2198"
         style="fill:#579cd4;fill-opacity:1;fill-rule:nonzero;stroke:none;stroke-width:0.03527778"
         d="m -8.6531625,135.27656 5.9637083,3.44311 7.747,-4.47287 -5.96370802,-3.44311 -7.74700028,4.47287" />
      <path
         inkscape:connector-curvature="0"
         id="path2200"
         style="fill:#4379a3;fill-opacity:1;fill-rule:nonzero;stroke:none;stroke-width:0.03527778"
         d="m -6.9023262,135.27656 5.99616398,-3.46216 4.21287202,2.4324 -5.996164,3.46217 -4.212872,-2.43241" />
      <path
         inkscape:connector-curvature="0"
         id="path2202"
         style="fill:#4379a3;fill-opacity:1;fill-rule:nonzero;stroke:none;stroke-width:0.03527778"
         d="m -8.8316679,136.93568 0.1785054,0.10301 v -1.76213 l -0.1785054,-0.10301 c -0.1471083,0.47096 -0.1598083,1.0481 0,1.76213" />
      <path
         inkscape:connector-curvature="0"
         id="path2204"
         style="fill:#4379a3;fill-opacity:1;fill-rule:nonzero;stroke:none;stroke-width:0.03527778"
         d="m -0.90616222,130.80369 -7.74700028,4.47287 -0.1785054,-0.10301 7.7469997,-4.47287 0.17850598,0.10301" />
      <path
         inkscape:connector-curvature="0"
         id="path2206"
         style="fill:#f07934;fill-opacity:1;fill-rule:nonzero;stroke:none;stroke-width:0.03527778"
         d="m -8.6104762,133.72787 h -0.8879417 v 1.55575 h 0.8879417 v -1.55575" />
      <path
         inkscape:connector-curvature="0"
         id="path2208"
         style="fill:#f07934;fill-opacity:1;fill-rule:nonzero;stroke:none;stroke-width:0.03527778"
         d="m -9.4984179,135.48964 5.9637081,3.44346 7.7469996,-4.47322 v -0.20602 l -5.963708,-3.23709 -7.7469997,4.26685 v 0.20602" />
      <path
         inkscape:connector-curvature="0"
         id="path2210"
         style="fill:#f89f26;fill-opacity:1;fill-rule:nonzero;stroke:none;stroke-width:0.03527778"
         d="m -9.4984179,135.28362 5.9637081,3.44311 7.7469996,-4.47287 -5.963708,-3.44311 -7.7469997,4.47287" />
      <path
         inkscape:connector-curvature="0"
         id="path2212"
         style="fill:#d1b855;fill-opacity:1;fill-rule:nonzero;stroke:none;stroke-width:0.03527778"
         d="m 3.5575348,134.17413 -7.1927863,4.15431 v -1.50989 l 7.1927863,-4.15466 v 1.51024" />
      <path
         inkscape:connector-curvature="0"
         id="path2214"
         style="fill:#f6d864;fill-opacity:1;fill-rule:nonzero;stroke:none;stroke-width:0.03527778"
         d="m -3.6352515,138.32844 -5.5601303,-3.21345 v -1.55363 l 5.5601303,3.21345 v 1.55363" />
      <path
         inkscape:connector-curvature="0"
         id="path2216"
         style="fill:#f07934;fill-opacity:1;fill-rule:nonzero;stroke:none;stroke-width:0.03527778"
         d="m -9.4984179,133.93389 5.9637081,3.44311 7.7469996,-4.47287 v -0.20602 l -5.963708,-3.23709 -7.7469997,4.26685 v 0.20602" />
      <path
         inkscape:connector-curvature="0"
         id="path2218"
         style="fill:#f89f26;fill-opacity:1;fill-rule:nonzero;stroke:none;stroke-width:0.03527778"
         d="m -9.4984179,133.72787 5.9637081,3.44311 7.7469996,-4.47287 -5.963708,-3.44311 -7.7469997,4.47287" />
      <path
         inkscape:connector-curvature="0"
         id="path2220"
         style="fill:#f07934;fill-opacity:1;fill-rule:nonzero;stroke:none;stroke-width:0.03527778"
         d="m -7.7475818,133.72787 5.9961636,-3.46216 4.212872,2.4324 -5.9961636,3.46216 -4.212872,-2.4324" />
      <path
         inkscape:connector-curvature="0"
         id="path2222"
         style="fill:#f07934;fill-opacity:1;fill-rule:nonzero;stroke:none;stroke-width:0.03527778"
         d="m -9.6769235,135.38663 0.1785056,0.10301 v -1.76177 l -0.1785056,-0.10301 c -0.1471083,0.4706 -0.1601611,1.04775 0,1.76177" />
      <path
         inkscape:connector-curvature="0"
         id="path2224"
         style="fill:#f07934;fill-opacity:1;fill-rule:nonzero;stroke:none;stroke-width:0.03527778"
         d="m -1.7514182,129.255 -7.7469997,4.47287 -0.1785056,-0.10301 7.7469993,-4.47287 0.178506,0.10301" />
      <path
         inkscape:connector-curvature="0"
         id="path2226"
         style="fill:#28324e;fill-opacity:1;fill-rule:nonzero;stroke:none;stroke-width:0.03527778"
         d="m -2.9236988,137.3389 7.4492556,-2.61973 v -0.23389 l -5.894564,-5.3534 -7.4492553,2.38619 v 0.23354 l 5.8945637,5.58729" />
      <path
         inkscape:connector-curvature="0"
         id="path2228"
         style="fill:#485678;fill-opacity:1;fill-rule:nonzero;stroke:none;stroke-width:0.03527778"
         d="m -2.9236988,137.10536 7.4492556,-2.62008 -5.894564,-5.58729 -7.4492553,2.62008 5.8945637,5.58729" />
      <path
         inkscape:connector-curvature="0"
         id="path2230"
         style="fill:#485678;fill-opacity:1;fill-rule:nonzero;stroke:none;stroke-width:0.03527778"
         d="m 4.1653708,133.39732 h 0.144639 v 1.16381 l -0.144639,-0.17498 v -0.98883" />
      <path
         inkscape:connector-curvature="0"
         id="path2232"
         style="fill:#f6d864;fill-opacity:1;fill-rule:nonzero;stroke:none;stroke-width:0.03527778"
         d="m -2.7617738,136.75647 6.9271446,-2.37032 v -1.518 l -6.9271446,2.28812 v 1.6002" />
      <path
         inkscape:connector-curvature="0"
         id="path2234"
         style="fill:#d1b855;fill-opacity:1;fill-rule:nonzero;stroke:none;stroke-width:0.03527778"
         d="m -8.2640485,131.5798 5.5022747,5.17667 v -1.6002 l -5.4310137,-5.10929 -0.071261,1.53282" />
      <path
         inkscape:connector-curvature="0"
         id="path2236"
         style="fill:#28324e;fill-opacity:1;fill-rule:nonzero;stroke:none;stroke-width:0.03527778"
         d="m 4.3100098,134.79502 0.215547,-0.0783 c 0.142875,-0.60678 0.163336,-1.1363 0,-1.5494 l -0.215547,0.0952 v 1.53247" />
      <path
         inkscape:connector-curvature="0"
         id="path2238"
         style="fill:#28324e;fill-opacity:1;fill-rule:nonzero;stroke:none;stroke-width:0.03527778"
         d="m -2.9236988,136.02092 7.4492556,-2.61972 v -0.2339 l -5.894564,-5.3534 -7.4492553,2.38584 v 0.23389 l 5.8945637,5.58729" />
      <path
         inkscape:connector-curvature="0"
         id="path2240"
         style="fill:#485678;fill-opacity:1;fill-rule:nonzero;stroke:none;stroke-width:0.03527778"
         d="m -8.8186152,130.20009 5.8945637,5.58765 7.2195973,-2.53894 0.230716,-0.0818 -5.894563,-5.5873 -0.226836,0.0801 -7.223478,2.54035" />
      <path
         inkscape:connector-curvature="0"
         id="path2242"
         style="fill:#28324e;fill-opacity:1;fill-rule:nonzero;stroke:none;stroke-width:0.03527778"
         d="m 2.7810708,132.79512 -4.376561,-4.14902 -5.4775806,1.92652 4.376561,4.14867 5.4775806,-1.92617" />
      <path
         inkscape:connector-curvature="0"
         id="path2244"
         style="fill:#28324e;fill-opacity:1;fill-rule:nonzero;stroke:none;stroke-width:0.03527778"
         d="m -1.5951372,127.65974 5.890683,5.58906 0.01482,0.0131 0.2159,-0.0949 -5.894563,-5.5873 -0.226836,0.0801" />
    </g>
  </g>
</svg>
