<?xml version="1.0" encoding="UTF-8" standalone="no"?>
<!-- Created with Inkscape (http://www.inkscape.org/) -->

<svg
   xmlns:dc="http://purl.org/dc/elements/1.1/"
   xmlns:cc="http://creativecommons.org/ns#"
   xmlns:rdf="http://www.w3.org/1999/02/22-rdf-syntax-ns#"
   xmlns:svg="http://www.w3.org/2000/svg"
   xmlns="http://www.w3.org/2000/svg"
   xmlns:sodipodi="http://sodipodi.sourceforge.net/DTD/sodipodi-0.dtd"
   xmlns:inkscape="http://www.inkscape.org/namespaces/inkscape"
   width="225.9975mm"
   height="63.778748mm"
   viewBox="0 0 225.9975 63.778748"
   version="1.1"
   id="svg1480"
   inkscape:version="0.92.4 (5da689c313, 2019-01-14)"
   sodipodi:docname="to-bo-1.svg">
  <defs
     id="defs1474" />
  <sodipodi:namedview
     id="base"
     pagecolor="#ffffff"
     bordercolor="#666666"
     borderopacity="1.0"
     inkscape:pageopacity="0.0"
     inkscape:pageshadow="2"
     inkscape:zoom="0.35"
     inkscape:cx="525.65332"
     inkscape:cy="140.52678"
     inkscape:document-units="mm"
     inkscape:current-layer="layer1"
     showgrid="false"
     fit-margin-top="0"
     fit-margin-left="0"
     fit-margin-right="0"
     fit-margin-bottom="0"
     inkscape:window-width="1366"
     inkscape:window-height="768"
     inkscape:window-x="1920"
     inkscape:window-y="312"
     inkscape:window-maximized="1" />
  <metadata
     id="metadata1477">
    <rdf:RDF>
      <cc:Work
         rdf:about="">
        <dc:format>image/svg+xml</dc:format>
        <dc:type
           rdf:resource="http://purl.org/dc/dcmitype/StillImage" />
        <dc:title></dc:title>
      </cc:Work>
    </rdf:RDF>
  </metadata>
  <g
     inkscape:label="Layer 1"
     inkscape:groupmode="layer"
     id="layer1"
     transform="translate(167.42732,-122.23563)">
    <g
       style="clip-rule:evenodd;fill-rule:evenodd;image-rendering:optimizeQuality;shape-rendering:geometricPrecision;text-rendering:geometricPrecision"
       id="g1096"
       transform="matrix(0.00564896,0,0,0.00564896,-106.01183,150.31295)">
      <g
         id="Layer_x0020_1">
        <metadata
           id="CorelCorpID_0Corel-Layer" />
        <path
           id="path822"
           d="m 15809,3820 c 11,107 53,313 34,394 -16,66 -53,89 -79,125 -82,115 -61,177 -311,355 -92,65 -199,100 -284,152 -425,262 -1227,278 -1323,-53 -71,-246 29,-456 165,-642 206,-280 147,-215 472,-402 249,-143 779,-283 1063,-92 112,75 145,48 263,163 z M 2691,4063 c -6,-126 70,-209 147,-261 297,-199 773,-107 1088,-4 312,103 542,304 718,551 45,64 129,237 122,321 -37,471 -924,359 -1208,225 -96,-46 -182,-89 -274,-137 -180,-96 -139,-34 -284,-158 -152,-130 -299,-333 -309,-538 z m 7083,-973 c 84,-83 112,-61 186,-122 70,-57 73,-117 176,-106 64,342 137,590 221,897 43,160 49,319 95,468 168,544 187,346 -162,817 l -61,89 c -47,85 -32,125 -123,166 -96,-141 -77,-347 -90,-532 -13,-175 -50,-379 -90,-547 -25,-103 5,-196 -23,-293 -95,-318 -49,-407 -108,-690 -8,-40 -22,-81 -18,-147 z M 8475,5232 c -90,-26 -143,-134 -203,-210 -77,-98 -261,-297 -353,-351 -16,-189 -6,-161 50,-284 20,-43 33,-82 52,-123 l 57,-134 c 231,-495 131,-494 165,-578 103,-127 95,-157 133,-317 19,-83 74,-283 123,-347 l 311,202 c 14,229 -124,847 -169,1072 -38,189 -104,984 -167,1069 z m 1800,-2346 c 25,70 1,81 40,163 37,79 48,68 55,162 -72,-52 -50,-63 -100,-260 -14,-55 -34,-23 5,-65 z m -59,-127 19,50 z m -2104,627 266,-647 c 25,51 -15,91 -34,148 -13,41 -13,50 -23,103 l -21,87 c -101,249 -62,289 -188,308 z m -512,780 c -164,-13 -113,-81 -222,-199 -226,-245 -420,-322 -100,-688 56,-64 28,-33 48,-75 l 167,-250 c 34,-40 66,-40 101,-90 39,-56 32,-89 69,-147 53,-83 95,-171 149,-269 79,-144 61,-1 147,-258 143,-18 186,23 237,107 154,253 55,352 11,475 l -44,100 c -24,50 -22,62 -41,113 -28,73 -51,91 -89,173 -40,85 -42,131 -86,208 -65,114 -104,280 -149,412 -26,77 -65,124 -99,192 -42,84 -41,119 -100,198 z m 2676,-1660 c 46,-87 209,-356 340,-308 123,99 324,592 378,751 81,239 400,726 406,749 -14,159 -118,192 -227,285 -80,69 -62,55 -108,142 -196,369 -312,-201 -331,-253 l -242,-801 c -40,-138 -28,-8 -67,-177 -47,-201 -74,-31 -149,-388 z m -3381,762 c -72,-5 -127,-101 -152,-141 -109,-180 -247,-170 5,-377 l 251,-288 c 46,-50 39,-55 82,-109 198,-248 185,-157 513,-91 -42,137 -110,88 -180,232 -43,89 -244,314 -287,373 l -233,401 z m 3886,-1060 c 67,31 44,15 68,73 -104,-29 -6,24 -68,-73 z m 188,-43 c 275,-118 105,-47 254,-177 83,61 389,599 451,704 66,110 108,121 161,227 16,205 -94,218 -175,363 -73,-20 -35,3 -87,-34 -95,-66 -140,-259 -152,-280 -27,-51 -23,-23 -52,-69 -71,-112 -225,-342 -255,-435 -43,-135 -144,-184 -146,-299 z m -2741,-97 c 67,-84 65,-43 242,-155 472,-299 937,-475 1467,-115 77,52 135,89 235,154 78,51 217,92 267,140 -16,40 -7,27 -54,57 -123,80 -91,75 -193,200 -36,44 -216,667 -867,658 -128,-2 -308,-15 -429,-70 -486,-220 -249,-213 -483,-537 -41,-57 -169,-243 -184,-332 z m 3393,-84 c 214,132 551,193 624,254 l -243,284 c -140,-77 -208,-312 -300,-394 -59,-53 -67,-35 -81,-144 z m -283,-118 68,98 c -64,-32 -60,-19 -68,-98 z m -4905,650 c -5,-5 -13,-20 -15,-15 0,0 -140,-152 -162,-221 559,-169 682,-434 813,-411 13,32 37,-45 11,46 l -541,526 c -63,61 -15,43 -105,76 z m 15309,-631 c 0,-12 -14,-36 41,-38 116,-5 40,8 58,26 l -100,12 z M -3797,1767 c 8,-78 36,-100 89,-139 68,33 87,17 84,112 -71,39 -91,28 -173,28 z m 11033,203 c -22,-265 18,-220 192,-316 96,-53 254,-138 367,-131 43,67 29,77 107,102 201,65 403,-72 594,-115 475,-106 763,-361 1423,-179 28,8 55,17 91,35 5,3 11,6 16,9 120,65 280,165 400,186 282,49 175,41 360,-70 l 425,260 c -11,129 -223,296 -400,301 -217,6 -554,-209 -722,-333 -79,-58 -120,-105 -219,-146 -317,-132 -276,-81 -617,-102 -198,-12 -625,135 -733,228 -112,96 -628,378 -737,402 -338,76 -423,-43 -548,-132 z m 5005,-292 c 33,28 -12,32 116,35 -103,45 -280,-15 -380,-109 262,-91 431,-148 573,-473 8,225 -210,392 -309,546 z M 8118,1478 c -11,-146 -59,-183 -129,-262 24,-94 88,-235 164,-299 224,-190 273,-288 639,-328 137,-15 268,-51 438,-59 261,-12 466,89 613,117 201,38 343,103 506,227 116,88 195,76 254,244 -26,27 13,11 -62,54 -33,19 -52,11 -77,38 -53,56 -38,108 -28,192 -112,10 -148,-60 -231,-110 -81,-49 -181,-78 -274,-97 -282,-56 -288,-95 -669,-50 -385,45 -883,308 -1145,333 z m 12389,-417 117,-33 z m -326,-137 c 89,-34 155,-31 210,21 -80,9 -150,23 -210,-21 z M 19094,677 c 342,56 310,193 517,326 146,94 578,56 785,45 -39,74 -202,158 -280,201 -187,103 -246,10 -404,-16 -272,-44 -382,-21 -478,-241 -50,-113 -14,-82 -122,-126 58,-99 -5,-63 -17,-189 z M 5555,384 h 179 c 167,382 110,835 562,1140 53,36 122,50 150,105 -104,30 -249,-78 -326,-145 -73,-64 -44,-59 -158,-62 29,182 225,253 401,304 213,61 627,0 830,-139 205,-141 469,-282 734,-262 -33,83 -218,56 -316,97 -183,78 -423,253 -559,318 l -278,160 c -100,69 -146,116 -277,163 -416,152 -411,124 -613,-57 -80,-72 -92,-23 -262,-158 -34,-376 219,-601 5,-1310 -13,-42 -4,-26 -28,-69 -4,-7 -17,-23 -21,-30 -1,-3 -22,-49 -26,-55 z m 2614,237 c -41,132 23,38 -88,128 -106,87 -212,331 -272,457 -244,20 -307,124 -477,134 46,-98 20,-17 92,-105 41,-49 32,-72 57,-141 121,-81 89,-49 187,-150 147,-153 274,-205 382,-299 95,-84 57,-8 157,-87 150,-119 364,-181 546,-229 391,-103 1009,-43 1397,92 l 286,125 c 204,106 339,223 468,389 69,88 237,270 236,367 -145,-17 -158,-120 -349,-166 -62,-191 -149,-250 -297,-359 -319,-235 -795,-339 -1193,-381 -135,-14 -663,52 -781,109 l -351,115 z m 4836,-370 410,815 c 39,87 42,160 70,224 l 312,638 c 22,44 24,52 49,93 119,194 126,269 278,509 51,81 12,61 96,215 l 52,98 c 37,55 16,5 48,95 33,93 61,113 112,203 71,125 195,247 319,308 -25,27 -3,18 -44,39 -48,24 -81,11 -227,91 l -201,102 c -52,-308 -50,-484 -201,-741 -89,-151 13,-98 -140,-375 -192,-347 -281,-820 -421,-1059 -76,-130 -126,-286 -181,-399 -64,-133 -343,-714 -330,-854 z m -2448,1037 c 163,-173 416,85 599,164 l 668,235 c 73,22 143,77 248,112 170,57 522,109 493,-147 l -117,-37 c 50,-56 38,-49 73,-102 97,-151 106,-91 192,-369 51,-164 159,-412 152,-610 -87,-162 -57,-319 59,-408 -6,85 -42,206 -47,291 -8,116 8,58 31,132 26,82 -5,61 13,154 32,171 144,212 84,561 -36,205 -158,579 -316,712 l -226,133 c -523,58 -1491,-707 -1617,-756 -96,-37 -213,-25 -290,-65 z m 1961,-1452 159,45 5,143 101,43 c -47,341 -466,124 -266,-231 z m -15573,102 139,-62 c -35,50 -48,74 -139,62 z m 23900,655 c 11,88 1,100 -39,150 -141,38 -269,78 -428,70 l -22,-144 c -289,-176 -222,-259 -43,-479 155,-191 250,-267 497,-354 226,-80 465,-116 724,-86 336,39 315,-11 584,-52 34,-5 65,-9 100,-6 15,1 35,5 47,8 137,39 112,297 195,546 49,149 55,89 124,192 145,219 86,312 -167,363 -133,27 -155,39 -263,84 -182,76 -73,-14 -202,136 -1,1 -313,239 9,332 127,37 307,2 391,119 5,7 245,260 -24,263 -78,-141 -107,-244 -316,-243 33,184 186,174 149,282 -49,61 -44,56 -125,60 -249,-409 -312,-213 -621,-234 -48,-95 -124,-154 37,-351 19,-23 135,-109 163,-129 l 157,-83 c 7,-4 25,-15 31,-19 92,-58 252,-221 294,-291 76,-129 -213,-580 -244,-602 L 21680,6 c -373,-190 -701,-188 -956,131 l -52,96 c -37,88 -55,134 0,220 49,79 102,109 177,141 z M 8530,-53 c -16,-107 -12,-217 16,-321 140,-522 303,-63 476,2 l 241,96 c 108,43 170,26 243,-32 290,-235 311,7 350,-308 77,-13 117,-3 167,46 139,139 193,311 157,517 -219,27 -168,-199 -408,-202 -98,-1 -177,39 -250,85 -101,64 -110,54 -100,194 214,-6 133,-161 407,-89 204,53 118,100 352,147 l 95,-94 c 59,23 6,-72 86,119 l 214,338 c -190,17 -309,-355 -1582,-267 -286,20 -144,38 -299,57 -365,45 -345,149 -533,195 20,-131 112,-47 235,-364 139,3 167,53 268,-23 58,-43 73,-98 180,-109 173,-18 181,153 357,141 5,0 17,2 21,-6 4,-8 14,-6 21,-8 16,-39 26,55 17,-57 -5,-60 -38,-75 -112,-117 -405,-230 -467,66 -619,61 z M -3821,509 c 3,1 44,121 150,-57 121,-204 135,-158 242,-249 73,-62 15,-76 129,-101 -61,110 -255,237 -301,363 -30,83 -15,178 -6,263 85,0 99,91 202,157 104,67 163,79 252,159 l 9,200 c -154,76 -192,62 -322,85 -215,39 -431,263 -553,418 l -153,-4 -102,-109 c 18,-147 206,-374 287,-409 90,-39 219,-1 308,9 110,13 220,-42 307,-20 29,-426 -554,-455 -617,-559 -29,-112 -5,-308 21,-432 83,-383 -71,-366 146,-531 69,-52 131,-55 230,-34 412,86 905,-13 985,-1 285,44 375,209 474,323 101,117 -33,-101 248,291 l 276,309 c 109,90 61,124 305,186 269,69 173,25 189,84 -241,65 -256,-39 -428,-57 -311,-32 -457,410 -529,-212 -38,-330 -331,-759 -599,-838 -222,-66 -902,324 -1064,592 -49,81 -73,59 -87,173 z M 4583,-585 c 41,-40 -3,8 51,-55 155,-11 97,46 218,58 174,18 390,-79 450,198 l 255,-12 c 95,108 9,85 205,244 183,148 180,31 296,36 16,297 -761,308 -1247,-86 -155,-126 -242,-213 -228,-383 z m 24151,75 c -33,-59 -24,-32 -25,-122 -2,-140 10,-95 38,-131 13,116 109,179 -13,253 z m -15666,-79 c 143,-5 133,11 243,-45 98,-50 25,16 86,-68 31,-44 13,-27 40,-70 139,1 185,55 292,49 140,-8 110,-83 291,-46 140,264 -168,347 -453,533 -113,74 -235,89 -362,148 -123,57 -255,81 -407,67 -9,-54 -23,-140 -25,-185 206,-154 279,-158 295,-384 z m 14876,-8 69,22 z M 6067,117 c 47,390 -169,677 197,848 l -7,341 c -216,-23 -366,-773 -346,-953 -92,-43 -140,-106 -277,-82 -167,29 -135,80 -196,204 l -55,56 c -8,15 -46,209 -108,329 -236,458 -167,461 -334,786 -44,86 -61,118 -96,203 -32,78 -71,91 -97,198 -76,313 -261,693 -297,845 -42,177 -91,245 -145,401 -51,148 -89,293 -159,420 -94,9 -344,-99 -367,-116 25,-154 80,-84 179,-263 160,-290 499,-1099 521,-1130 194,-276 39,-23 218,-392 45,-92 73,-71 105,-209 13,-54 167,-452 228,-527 39,-47 2,2 33,-42 66,-93 36,-69 69,-147 15,-35 5,-16 26,-49 l 203,-330 c 91,-129 2,-129 2,-130 -140,45 -64,127 -242,123 L 4532,154 c -341,-263 -317,-864 -165,-983 4,-3 11,-7 15,-10 54,-34 82,-27 125,-8 99,44 12,-3 57,43 -37,205 -268,155 -23,483 257,345 882,626 1326,526 104,-23 55,-68 203,-88 z m 7998,-1018 c 185,-134 554,121 299,659 -53,113 -180,269 -263,324 -151,100 -727,361 -883,282 -71,-79 -111,-199 -132,-292 104,-47 280,-70 364,-106 602,-261 474,-179 723,-521 48,-66 57,-99 63,-200 -45,-42 -31,-28 -86,-56 -128,-64 -47,-25 -85,-90 z m 14488,-230 c 133,-2 203,104 235,208 -85,-28 -60,-41 -157,-91 -49,-26 -79,-37 -78,-117 z m -28803,35 c 11,-4 301,87 344,122 -104,43 -271,-79 -344,-122 z m 23075,851 c -11,-116 11,-179 66,-250 163,-210 124,-156 277,-256 82,-54 58,-73 128,-141 79,-76 97,-46 168,-97 l 148,-122 c 158,-143 144,-232 282,-241 40,94 64,206 26,307 l -161,205 c -311,271 -152,239 -254,485 -150,-157 22,-368 39,-510 -117,10 -145,47 -186,134 -24,51 -74,137 -74,192 0,39 51,198 69,227 34,56 84,57 137,124 566,28 496,-46 842,-348 76,-66 103,-25 227,-163 20,-22 26,-32 45,-51 l 52,-46 c 82,-66 126,-62 232,-162 126,-119 101,-52 239,-144 43,-28 14,-15 59,-36 l 68,-27 c 87,-28 253,-33 335,-5 -36,75 15,16 -95,70 -281,137 -146,105 -261,175 -110,67 6,-41 -179,113 -87,73 -111,44 -201,91 -67,51 -32,61 -106,114 -124,89 -81,-3 -324,260 -67,72 -39,46 -113,105 -23,18 -36,30 -58,47 -23,18 -26,17 -52,39 -182,151 -299,319 -495,194 -130,-83 -505,-95 -657,-147 -181,-62 -114,-133 -226,-138 z M -1287,379 c 4,-3 10,-8 14,-11 46,-38 56,-34 76,-93 78,-234 -141,-329 -84,-713 42,-279 61,-276 148,-391 l 199,-411 c 59,-96 98,-442 483,-468 628,-43 530,50 907,139 445,105 69,-29 497,194 78,41 132,72 141,173 -29,24 -140,102 -171,110 -127,32 -83,-35 -223,50 -211,127 -504,-29 -679,-89 -41,-14 -73,-15 -116,-32 -123,-48 -396,-157 -526,-114 -81,27 -184,171 -223,225 -55,77 -61,45 -127,119 -36,40 -58,82 -94,131 3,177 -30,220 24,396 156,508 422,501 478,688 l 12,132 -88,57 c -101,66 -135,225 -345,243 -83,7 -260,-23 -326,-49 -5,-2 -11,-4 -16,-6 -154,-71 -159,-91 -178,-148 l 216,-130 z m -9400,-1061 c -10,-97 -20,-84 42,-151 265,-291 386,-242 549,-427 63,-72 147,-146 235,-152 -22,91 -82,98 -141,153 -97,92 -22,50 -152,110 -109,458 3,327 60,625 109,30 114,56 183,85 68,28 136,19 192,-3 9,-178 -39,20 -33,-179 l 130,-11 c 4,-90 24,-78 -39,-126 -60,-46 -50,-23 -115,-45 51,-92 49,-71 229,-72 5,85 1,29 62,96 3,108 41,204 6,319 -64,217 -13,145 23,289 -90,71 -239,163 -334,198 -115,-21 -440,-195 -526,-279 -22,-21 -118,-214 -272,-334 -65,-51 -55,-38 -100,-95 z m 37185,-787 80,9 c -124,73 -79,1 -80,-9 z m -9022,179 c 123,-50 128,-45 271,-65 109,-15 141,-53 256,-92 235,-79 855,-328 1085,-267 162,43 231,188 288,323 57,138 235,110 291,319 l 67,167 c 27,62 -5,133 -6,223 -3,208 -203,362 -277,471 -258,380 -407,570 -62,797 74,48 64,70 140,108 l 380,152 c 89,27 152,8 187,78 -88,35 -329,17 -415,-15 -35,-20 -280,-286 -465,-339 -265,-76 -691,-235 -349,-535 73,-64 31,8 183,-162 179,-200 324,-318 151,-672 -68,-139 -89,-102 -147,-193 -73,-113 -27,-106 -179,-164 -150,-57 -144,-44 -311,-34 28,-71 201,-171 276,-212 224,-122 249,2 422,4 -11,-67 23,-11 -18,-76 l -38,-34 c -207,-142 -427,45 -519,98 l -419,280 c -210,158 -196,140 -383,128 -237,-14 -418,-13 -411,-287 z m 2977,155 c 23,-34 18,-26 69,-50 172,-82 351,-135 525,-181 93,-25 72,-46 189,-78 464,-127 1122,-581 1704,-447 99,23 159,1 260,42 240,98 48,-3 379,148 40,18 244,49 154,300 -24,67 -60,74 -105,113 -335,295 -239,30 -518,-115 -120,-62 -203,-136 -320,-189 -248,-112 -575,-96 -849,-27 -168,42 -234,89 -387,125 -256,61 -675,256 -726,265 -112,19 -98,-1 -207,45 -60,25 -96,52 -166,50 z m -29667,-641 c 163,-195 583,-164 800,-82 81,31 101,24 183,33 94,10 219,53 343,63 387,29 391,192 583,226 l 335,85 c 35,20 57,54 114,74 117,41 58,-8 157,63 163,117 64,16 253,190 3,3 8,8 12,11 l 436,314 c 93,44 222,69 306,112 l 227,155 c 150,135 425,231 636,193 49,-9 91,-31 144,-59 28,-15 34,-12 59,-33 50,-41 32,-15 55,-83 -71,-53 -125,-54 -225,-25 -114,32 -82,54 -223,26 -15,-117 80,-259 -127,-480 -43,-46 -78,-81 -115,-128 -110,-140 -142,-51 -191,-248 -21,-86 -22,-121 11,-194 3,-7 15,-25 18,-32 l 74,-119 c 7,96 54,108 144,194 285,273 154,118 466,455 58,63 15,7 69,52 67,56 17,34 63,83 34,37 242,187 264,271 -18,168 -44,111 -93,196 -49,84 -70,408 -445,485 22,-56 0,-28 44,-58 l 182,-112 c -63,-90 12,-113 -270,73 -80,53 -188,91 -315,107 -392,49 -353,-180 -511,-327 -32,-30 -228,-126 -269,-143 -107,-44 -163,-91 -267,-147 -54,-29 -71,-56 -101,-91 l -476,-378 c -63,-45 -83,-42 -131,-89 l -233,-180 c -101,-67 -168,-107 -257,-155 -5,-3 -11,-6 -15,-8 l -49,-28 c -194,-92 -479,-7 -654,-101 -105,-56 -140,-146 -273,-140 -186,8 22,81 -323,13 -189,-37 -165,-18 -307,-15 -123,3 -91,-12 -109,-20 z m 21220,0 c 78,-128 202,-227 359,-116 l 47,47 c 41,54 4,-16 40,78 -203,-11 -210,-9 -341,57 -40,21 -7,18 -69,13 l -36,-81 z m -8588,-241 c 164,4 159,46 144,194 -151,0 -47,-34 -167,-60 -57,-12 -123,5 -191,3 12,-76 -14,-18 25,-62 51,-58 110,-77 189,-75 z m 1075,235 c -38,-83 -39,-84 5,-152 84,-127 119,-261 329,-276 238,-17 473,113 453,348 -616,-165 -496,82 -788,80 z m 8786,-30 c -77,-272 174,-387 201,-407 295,-217 577,39 576,287 -172,4 -280,-79 -436,23 -59,38 -182,196 -341,98 z M 1633,-1963 c -29,-108 12,-116 96,-136 -4,61 10,70 -28,121 -35,48 18,22 -69,15 z m 18030,541 c 157,30 414,-86 537,-182 136,-105 314,-191 460,-270 68,-37 152,-91 253,-137 233,-105 730,-145 871,-225 836,-473 641,18 1309,168 91,20 63,30 147,42 124,18 573,150 593,284 -21,1 -394,-147 -473,-173 -101,-33 -157,-41 -273,-71 l -218,-51 c -5,-2 -11,-4 -16,-6 -166,-54 -190,-2 -361,29 -7,1 -28,3 -36,4 l -207,42 c -152,38 -350,118 -485,176 -169,73 -300,128 -474,206 -151,68 -345,87 -498,159 l -351,146 c -59,19 -83,22 -136,45 -136,59 -325,156 -472,183 -62,-78 6,-32 -108,-175 -47,-59 -74,-85 -119,-139 l 57,-58 z m -24876,-452 c 126,-80 434,-154 603,-195 l 225,-39 c 108,-14 134,-78 287,-65 128,10 428,124 550,170 344,130 294,86 514,159 94,31 448,164 499,205 67,53 141,132 191,176 725,632 871,535 994,614 6,4 31,-80 34,70 -176,59 -383,-91 -489,-149 -107,-59 -193,-157 -411,-296 l -908,-504 c -233,-178 -651,-391 -1037,-355 -191,18 -654,140 -805,267 -70,59 -93,142 -148,178 -87,-72 -111,-112 -100,-234 z m 770,-371 c 14,-9 43,-23 50,-26 41,-18 52,-15 100,-40 436,-227 208,-82 483,-154 69,-18 169,-67 227,-79 214,-45 319,58 515,100 205,43 99,31 223,101 51,29 156,45 218,69 99,39 100,54 219,100 423,166 202,157 394,239 182,77 212,187 254,230 379,392 448,278 685,384 15,117 -68,277 -128,363 -254,13 -672,-265 -790,-394 -79,-86 -101,-54 -167,-126 -15,-17 -43,-55 -68,-74 l -159,-127 c -13,-13 -4,-8 -39,-38 -181,-157 -351,-159 -474,-211 l -1123,-347 c -31,-4 -259,12 -291,19 -51,11 -141,59 -195,67 49,-55 -11,-7 65,-55 z m 20854,1218 c -26,-47 -38,-46 -71,-128 -34,-84 -38,-67 -79,-136 -76,-128 -142,-440 -282,-692 -136,-246 -35,-197 -160,-228 -54,70 -11,40 -49,121 -125,-17 -277,-64 -373,37 -80,83 -108,192 -255,199 -55,-64 -170,-406 -171,-506 l 120,-94 c 4,-3 10,-7 15,-11 142,-102 300,-194 480,-51 170,135 336,268 469,436 l 217,244 c 40,53 37,64 95,118 208,193 79,78 201,237 39,51 47,79 86,133 353,485 187,583 803,971 365,230 577,88 869,19 127,-30 50,-26 160,-72 l 377,-176 c 157,-75 51,-72 215,-103 -43,105 7,15 -249,169 -202,122 -271,177 -532,241 -220,53 -96,85 -246,149 -81,35 -86,10 -158,57 -345,222 -437,200 -717,72 -94,-43 -179,-84 -234,-152 -383,-472 -265,-361 -534,-855 z M -930,-706 c 121,-50 319,102 427,153 l 220,146 c 178,151 530,132 790,184 202,40 299,-1 405,-95 231,-205 329,-164 431,-300 32,-43 61,-91 105,-136 98,-100 253,-222 314,-322 l 151,-212 c 210,-285 70,-155 178,-312 3,-4 7,-9 10,-13 3,-4 7,-10 10,-14 l 18,-30 c 3,-5 6,-11 9,-16 171,-302 223,-242 336,-509 41,-98 107,-237 190,-297 l 154,-92 c 166,-122 329,-31 575,43 101,30 259,71 336,142 -5,102 -52,154 -87,275 -172,30 -316,-197 -614,220 -228,6 -316,-11 -460,190 -18,26 -25,37 -37,53 -117,167 -49,99 -100,226 -30,72 -43,57 -71,121 -55,127 -70,227 -186,328 -227,199 -69,121 -246,261 l -319,286 c -281,274 -419,174 -573,182 -71,4 -239,76 -319,84 -382,41 -737,224 -987,-23 -236,-233 -136,-175 -415,-387 -183,-139 -168,-81 -244,-139 z m 5407,-1492 c 300,-675 872,-14 812,89 -104,-52 23,-18 -152,-122 -35,-21 -168,-89 -194,-94 -221,-43 -290,102 -466,127 z m 1806,472 c 143,-9 136,18 233,-65 109,-93 207,-248 281,-380 70,-123 182,-203 269,-311 25,-30 15,-17 34,-40 l 68,-101 c 25,-39 35,-47 69,-77 400,-360 165,-203 735,-627 l 69,-51 c 48,-31 56,-31 113,-60 51,-25 44,-24 101,-68 l 523,-282 c 431,-191 797,-262 1226,-18 l 234,154 c 92,64 95,47 197,140 l 133,115 c 2,1 31,30 34,34 92,92 166,115 350,305 40,41 51,57 88,85 93,69 155,170 228,257 184,223 180,279 258,396 64,97 10,-24 80,93 60,100 92,226 166,318 114,144 117,297 257,383 138,-21 58,-16 142,-82 45,-35 92,-69 172,-50 299,69 44,822 -21,969 l -44,131 c -20,91 -30,92 -53,165 -58,184 -158,482 -137,680 12,116 81,222 40,321 -72,90 -143,-3 -200,-67 -87,-98 -65,-125 -224,-116 -3,154 104,453 166,561 41,70 50,56 84,112 67,112 84,242 189,311 -103,110 -305,117 -477,68 -174,-49 -295,-31 -378,-203 -38,-79 -56,-151 -88,-228 -68,-163 -214,-287 -307,-418 l -188,-274 c -52,-71 -25,-18 -70,-76 -233,-296 -224,-546 -319,-699 -12,-19 -16,-21 -32,-41 -293,-367 -89,-284 -492,-275 -43,-47 -117,-146 -119,-237 -2,-109 62,-218 75,-268 49,-182 -141,-294 -64,-600 50,-200 295,-175 412,-288 115,-111 264,-384 -10,-399 -45,109 22,86 0,240 -96,108 -229,118 -369,201 -146,86 -178,140 -203,325 -51,382 151,323 20,632 -156,369 238,340 93,554 -150,220 -433,167 -618,15 48,-95 79,-120 152,-192 327,-326 -25,-236 -11,-634 83,-59 153,-169 161,-268 28,-370 -427,-490 -666,-650 l 3,-183 c -93,-3 -120,-21 -155,64 -3,6 -5,12 -7,19 -10,36 -11,28 -9,67 3,60 51,133 98,172 198,161 594,162 543,537 -14,99 -62,115 -83,196 -73,282 93,306 112,452 l -280,289 c -130,-51 -196,-296 -428,119 -129,231 50,333 -288,776 l -165,180 c -91,94 -167,183 -238,249 -48,44 -71,66 -119,123 -24,29 -31,43 -56,70 -29,33 -25,27 -48,46 -142,116 -127,144 -214,272 -42,61 -59,56 -105,136 -39,68 -35,98 -65,155 -178,205 -534,149 -720,1 -14,-115 -26,-325 -7,-390 l 68,-124 c 34,-68 4,-64 75,-119 1,-72 18,-131 -53,-155 -129,-44 -77,153 -278,142 -110,-321 24,-849 -74,-1186 -104,-355 -387,-784 -287,-965 31,-25 63,-54 88,-93 46,-71 -2,-54 81,-117 161,-42 165,31 325,17 -3,-168 -18,-42 -75,-170 z M 5069,-713 c -504,80 -223,-161 -491,-274 -136,-57 -263,-21 -341,78 -123,156 -196,510 -98,727 94,207 214,343 396,498 66,56 166,128 255,187 62,42 60,43 147,69 74,21 130,29 186,59 -10,109 -27,89 -69,180 -233,500 -232,553 -426,343 -5,-5 -39,-45 -59,-65 L 4208,794 c -55,-54 -52,-70 -98,-119 -135,-143 -120,-45 -216,-248 -35,-75 -283,-305 -303,-598 -16,-242 -91,-601 -68,-827 6,-60 31,-103 38,-176 27,-270 -41,-28 62,-374 74,-248 185,-595 291,-824 l 50,-99 c 7,-21 4,-31 12,-59 l 262,-422 c 1,-1 30,-39 43,-54 l 148,-190 c 66,-103 88,-204 157,-296 105,38 73,41 98,68 l 242,242 c 30,29 22,21 48,44 77,71 223,207 327,258 l 238,127 c 218,89 14,52 426,154 541,134 494,41 707,72 15,196 -115,461 -273,593 -85,71 -206,74 -312,124 -39,18 -110,79 -130,95 -217,178 -191,163 -241,437 -68,371 365,721 305,1009 l -168,43 c -246,-266 45,-194 -73,-312 -22,-12 42,-31 -66,-16 -72,10 -267,93 -434,-68 -117,-113 -20,-199 77,-381 19,-36 37,-69 58,-118 l 53,-140 c 128,-367 -85,-478 -81,-564 3,-56 147,-66 9,-395 -21,-51 2,-1 -39,-56 -69,-92 -85,-164 -207,-231 -720,-398 -901,518 -814,719 2,5 5,12 8,17 26,57 51,105 110,130 225,93 453,-295 731,-147 l 31,19 c 155,103 161,375 77,580 -44,107 -81,136 -134,212 -61,88 -52,172 -89,265 z m 7993,-1390 c 268,-3 10,-126 313,-321 475,-305 863,104 767,293 -38,-70 -58,-97 -132,-140 -19,-11 -25,-18 -59,-40 -334,-221 -619,31 -750,322 -128,282 -186,268 -90,596 28,95 87,185 154,255 82,85 114,150 83,296 -206,113 -176,100 -413,88 l 2,259 c -149,102 -141,147 -371,211 -61,17 -96,18 -151,44 -161,303 19,524 206,679 20,278 -106,532 -257,748 -86,123 -44,103 -166,152 -25,-60 -29,-92 -48,-148 -17,-50 -29,-65 -72,-121 l -91,-198 c -17,-37 -8,13 -27,-61 146,45 139,72 224,-47 45,-62 54,-43 75,-146 43,-213 -85,-273 -22,-504 l 288,-878 c 79,-164 147,-521 98,-707 -56,-213 114,-235 -79,-409 -365,-329 -365,-144 -592,-80 -121,-214 -158,-480 -179,-726 108,16 79,33 164,47 182,30 364,8 538,-42 l 592,-216 c 198,-85 342,-184 523,-277 116,-60 412,-334 478,-344 92,196 124,192 229,371 53,91 83,87 131,165 37,60 25,39 59,88 30,43 31,66 54,112 l 413,804 c 18,96 27,150 45,245 42,216 55,167 106,510 17,112 -25,736 -70,827 -229,459 -64,373 -311,592 l -377,432 c -211,288 -673,418 -814,305 -66,-54 -77,-205 -133,-281 -36,-49 -32,-36 -53,-91 166,-111 612,-86 937,-439 207,-225 325,-358 321,-729 -2,-152 -15,-264 -123,-364 -66,-62 -261,-131 -360,-116 -96,14 -210,147 -272,204 -138,71 -297,17 -347,-131 -20,-59 -13,-47 -50,-95 -144,-183 -314,-324 -253,-612 158,8 141,129 393,4 114,-56 178,-157 373,-99 200,59 203,12 289,-162 66,-132 84,-247 -10,-386 -64,-95 -139,-182 -246,-236 -181,-91 -457,-80 -627,36 -124,85 -295,305 -309,463 z m 1777,-680 c 225,-123 130,-84 356,-249 346,-253 428,-296 942,-224 l 207,421 c 49,160 78,318 154,485 77,168 244,413 358,591 118,184 336,40 148,-124 -4,-4 -10,-8 -14,-12 -7,-6 -39,-35 -40,-36 -150,-114 -128,-18 -275,-349 296,55 482,298 508,554 39,392 -24,91 92,444 l 104,192 c 3,4 7,10 10,13 l 40,52 c 19,21 40,46 60,65 100,96 238,129 398,139 419,27 509,-161 602,-202 253,-112 392,-10 519,197 -17,18 -12,16 -39,38 l -28,20 c -33,23 -38,25 -80,45 -53,24 -96,40 -147,70 -261,156 -740,317 -1027,226 -174,-55 -289,-180 -392,-294 l -453,-635 c -134,-268 -455,-510 -644,-725 -144,-164 -123,-171 -301,-350 l -320,-239 c -4,-3 -10,-7 -14,-10 -58,-37 6,-16 -64,-36 -114,-33 -271,37 -337,88 -37,29 -86,74 -121,97 -63,42 -58,47 -151,31 -27,-40 -103,-175 -124,-223 l 71,-59 z m -13270,956 c 120,3 184,-75 293,-217 66,-87 120,-303 140,-437 24,-159 50,-162 95,-278 2,-6 5,-12 7,-18 59,-160 97,-252 227,-354 83,-65 126,-152 259,-166 136,-14 137,20 211,71 81,56 277,96 386,147 220,103 216,247 768,303 -16,104 -26,67 -77,147 -30,48 -4,10 -30,64 l -42,66 c -166,-15 -145,-68 -258,-110 -92,-35 -187,-50 -278,-86 -370,-145 -463,-96 -755,187 -52,50 -49,36 -90,104 -107,177 -62,194 -194,344 -150,171 -255,348 -373,546 l -139,227 c -126,152 -494,614 -583,682 -125,95 -313,171 -439,284 -58,4 -395,-43 -469,-58 -300,-62 -234,0 -410,-130 l -535,-271 c -73,-25 -118,-30 -169,-72 33,-134 39,-97 145,-167 76,-50 108,-89 219,-109 71,4 263,211 550,274 254,55 852,-34 1033,-166 65,-48 78,-87 135,-133 224,-181 109,-227 178,-597 43,-233 -10,-146 79,-314 77,-144 185,-262 372,-238 -12,120 -148,54 -256,177 -98,112 -107,210 1,297 z m 10561,-970 c 53,-85 338,-84 425,-65 -51,65 -374,146 -425,65 z m -26,-259 c 26,-89 25,-75 68,-124 127,-8 96,18 198,38 158,32 16,-28 205,54 l -10,103 c -49,16 -446,82 -495,72 l 35,-144 z m -5347,692 c 27,-135 58,-197 71,-359 12,-151 -11,-284 -6,-438 96,6 151,53 258,79 l 228,21 c 71,12 39,13 58,22 l -245,273 c -174,161 -298,353 -365,403 z m 4373,-768 c 518,31 439,-76 645,-89 2,136 -93,248 -93,424 -2,329 6,186 23,398 10,129 0,56 -18,83 -56,-73 -77,-166 -124,-235 -50,-74 -76,-135 -125,-209 -180,-270 -273,-241 -307,-372 z m 1266,-105 c -94,-24 -115,-25 -141,-94 67,-24 293,17 324,97 -57,22 -123,12 -183,-3 z m -5374,27 c 79,-43 202,-53 299,-86 l 256,-33 c 42,4 39,14 54,22 -121,99 -439,201 -610,97 z m -188,-457 c 118,-41 469,-171 546,-168 64,78 203,295 209,393 -74,24 -238,21 -357,59 -103,33 -198,78 -312,67 -75,-119 -171,-241 -180,-307 l 93,-44 z m 4973,290 c 72,-212 84,-81 190,-296 57,-115 126,-187 225,-259 87,19 22,26 121,32 84,6 69,-11 170,14 l 3,141 c -72,50 -113,141 -186,206 -34,31 -193,167 -217,196 -251,313 -151,449 -138,576 l -177,-16 c -11,-111 -8,-238 37,-329 l 67,-128 c 71,-139 42,36 64,-158 l -160,22 z m -5150,-368 c 101,-69 399,-234 546,-208 -35,66 -468,217 -486,220 -114,18 -31,3 -60,-12 z m -1412,657 c -7,-127 59,-176 28,-340 l -67,-297 c -8,-63 40,-443 220,-454 9,131 9,238 66,326 251,8 126,-194 260,-253 108,-48 491,214 543,257 55,45 39,57 108,110 60,46 48,33 96,97 316,419 96,43 165,580 13,99 14,315 11,410 -789,10 -382,-91 -500,-396 -27,-69 -120,-188 -161,-254 l -201,-399 c -12,-71 5,-122 19,-155 107,-19 92,15 187,-7 l 42,-96 c -47,-15 -132,-23 -201,-36 -265,-48 -159,473 -159,474 85,82 57,81 108,180 32,62 70,108 108,162 78,109 164,264 69,421 -115,12 -610,-236 -743,-329 z m 322,-1051 c -54,-500 467,-441 746,-403 472,65 555,94 780,438 l -417,215 c -46,33 -75,38 -146,34 l -546,-393 c -163,-53 -418,109 -418,109 z m 6790,102 c 121,-49 184,-48 327,-48 159,67 -19,145 219,126 -55,-439 -584,-261 -847,24 l -63,83 c -50,61 -61,66 -106,114 -178,189 -163,398 -442,457 -322,68 -443,4 -677,-147 25,-52 -3,-37 70,-74 171,-85 312,-235 446,-429 l 108,-158 c 80,-123 209,-346 374,-343 14,195 -6,268 179,252 -36,-393 -136,-312 -18,-560 376,-22 285,38 426,54 45,-105 35,-109 184,-122 371,-31 368,112 609,310 20,276 33,170 129,365 22,175 -306,277 -594,724 -55,85 -143,46 -284,-19 25,-108 52,-35 153,-209 221,-379 -86,-342 -192,-399 z m -4537,592 c -175,-80 -144,-291 -268,-421 l -338,-364 c -134,-174 -88,-247 -349,-359 -160,-69 -436,-128 -591,-102 -202,35 -546,4 -678,87 l -31,17 c -84,44 -94,78 -151,138 l -143,151 c -102,141 -97,102 -171,236 -168,301 60,636 31,841 -118,7 -101,-51 -150,-111 -37,-46 -111,-92 -167,-152 l -132,-158 c -80,-83 -235,-282 -282,94 -21,167 -24,127 -106,220 l -245,403 c -173,-3 -65,1 -163,-39 -234,-95 -93,69 -522,-210 -141,-92 -348,-122 -516,-195 -105,-46 -274,-217 -498,-6 -59,56 -70,61 -137,110 l -176,186 c -37,71 -4,15 -46,74 -126,175 -81,368 -161,565 l -203,7 c -27,134 -279,172 -352,400 -50,156 -35,505 -52,691 -62,-7 -79,-18 -120,-57 l -98,-101 c -155,-147 -340,-175 -554,-224 -126,-29 -184,-82 -306,-109 -282,-63 -745,-85 -971,128 -84,79 -100,131 -166,236 -225,40 -348,-89 -503,-206 l -140,-146 c -148,-178 -475,-426 -680,-493 -59,-19 -83,-8 -141,-32 l -372,-188 c -89,-42 -195,-37 -290,-69 -199,-67 -302,-232 -701,-40 -149,71 -248,21 -418,148 -307,229 -462,178 -834,263 -58,107 -67,94 -189,140 -133,50 -222,189 -281,315 l -19,46 c -144,304 -76,319 -72,328 112,259 115,138 199,333 32,72 232,235 303,294 -3,77 0,182 -6,252 -142,10 -270,-141 -382,-217 -4,-3 -10,-7 -14,-10 -238,-160 -365,-123 -416,-147 -184,-85 -407,-532 -1140,-755 -260,-79 -401,-188 -683,-267 -127,-35 -260,-39 -390,-62 l -393,-103 c -235,-62 -556,-15 -750,147 -36,30 -13,17 -43,52 -83,96 -276,162 -392,220 -75,38 -78,57 -130,98 -168,130 -230,111 -433,286 -65,56 -76,34 -159,80 -230,128 -235,218 -340,393 -59,99 -68,7 -71,192 238,117 256,330 460,442 56,31 21,10 60,38 4,3 9,8 14,12 4,3 10,8 14,11 l 182,129 c 114,69 195,67 293,164 102,0 159,-19 248,-61 l 231,-157 c 67,-61 179,-596 166,-659 -16,-78 -89,-133 -141,-177 -141,-120 -280,-126 -493,-110 -55,72 -108,160 -192,186 -11,-315 -54,-340 272,-550 5,-3 11,-7 15,-9 l 342,-171 c 308,-125 642,-38 973,-41 112,33 160,191 462,197 128,3 206,-47 334,1 l 303,183 c 142,107 116,44 293,216 l 96,76 c 116,90 190,164 337,206 -24,69 37,97 93,142 l 520,305 c 92,39 90,59 135,135 44,74 72,101 133,161 144,143 228,96 414,143 168,42 294,34 440,-37 52,-25 106,-46 181,-82 56,-27 121,-89 162,-134 195,-219 378,-455 359,-774 -47,-36 -38,-30 -81,-82 -37,-45 -3,-8 -35,-39 -124,-123 -288,-125 -384,-249 -42,-54 -253,-229 -269,-277 4,-240 114,-288 321,-368 96,-37 427,-104 554,-130 56,-12 422,104 511,149 l 105,61 c 108,55 200,149 317,195 102,39 218,153 326,181 180,47 196,107 345,172 84,37 172,74 230,111 74,46 106,84 172,164 90,110 88,66 214,128 20,10 73,61 94,75 40,27 54,29 123,44 149,33 174,2 260,94 -66,184 -80,240 -56,461 9,83 39,123 69,198 26,64 11,152 9,228 -139,89 -112,71 -291,70 -63,-81 -151,-127 -218,-213 -82,-104 -14,-84 -178,-259 -54,-57 -155,-145 -235,-203 -349,-257 -761,-98 -1155,-129 -139,-11 -251,-79 -389,-56 -98,16 -201,121 -260,196 -6,107 -1,161 -13,273 -23,207 97,136 -24,335 -7,11 -43,77 -47,86 -88,166 -58,305 79,422 156,133 503,63 562,321 -295,-15 -300,-126 -616,15 -181,81 -212,251 -369,382 -4,153 59,220 133,329 86,128 514,189 698,96 56,-28 91,-33 153,-67 86,-47 54,-52 128,-112 3,-184 -34,-231 -226,-185 20,-91 3,-92 145,-123 151,-33 292,32 408,-99 357,-401 -200,-518 -377,-683 -86,-80 -60,-169 70,-307 56,-59 44,-77 89,-127 49,-55 6,-8 53,-43 l 194,-123 c 83,-55 199,-129 316,-126 96,2 156,38 226,92 121,93 146,208 200,354 51,139 85,135 80,333 -5,158 33,250 121,322 208,170 382,-143 676,-50 62,20 113,18 180,17 28,0 66,-1 94,-5 132,-17 273,-94 367,-187 L -550,586 C -196,275 -569,265 -692,-20 l -114,-356 c -16,-67 -14,-38 -47,-97 64,-23 30,-12 85,-32 136,65 13,-11 96,76 36,37 58,46 105,89 68,62 96,145 161,203 87,77 9,-4 110,61 45,29 46,51 107,89 240,148 358,42 556,-15 292,-83 917,-117 986,-141 l 468,-256 c 352,-325 287,-324 536,-582 162,-168 115,-231 334,-591 140,-230 217,-85 426,-153 140,-46 213,-32 321,22 16,203 -29,388 -68,577 -62,308 -57,827 96,1106 51,93 142,213 153,300 l 5,111 c 14,74 452,520 503,558 l 294,212 c 178,163 127,108 321,188 7,111 -67,183 -122,280 l -292,528 c -33,78 -9,82 -61,160 -41,61 -56,64 -90,128 -37,69 -102,221 -127,283 -51,127 -119,187 -163,279 -119,250 -161,354 -322,522 -292,-12 -635,-115 -865,134 -70,76 -128,94 -169,201 -92,238 -78,348 27,548 184,350 482,470 821,615 64,27 162,83 277,95 344,35 676,-11 997,-48 380,-45 378,-563 70,-905 -116,-128 -288,-203 -328,-380 -66,-291 236,-800 307,-1115 l 186,-517 c 99,-175 120,-352 214,-513 93,-158 72,-53 89,-255 12,-140 76,-282 128,-404 l 65,-133 c 43,-85 58,-182 97,-261 42,17 39,-24 62,71 36,154 15,326 10,483 -18,496 -351,661 129,924 94,51 106,86 183,135 l 158,77 c 39,12 49,11 91,25 58,144 183,300 316,385 78,-29 92,-53 144,-116 129,-157 244,-237 374,-400 49,-61 86,-140 187,-152 49,96 -25,109 -121,217 -69,77 -102,146 -169,220 -284,313 -507,389 -250,761 87,126 151,179 311,172 l 152,-187 c 113,-145 299,-353 384,-514 58,-111 196,-396 310,-412 2,65 7,37 -22,86 l -192,253 c -74,113 -95,225 -205,379 l -279,375 c -96,115 -135,259 -53,423 68,75 80,59 145,162 122,192 208,407 403,400 75,-3 93,-11 130,-43 90,-77 163,-301 204,-432 l 40,-105 c 42,-98 86,-265 195,-284 19,131 -101,371 -155,500 l -95,239 c -53,193 -20,109 -151,220 l 18,161 c 2,8 9,12 11,15 2,3 8,10 10,14 l 298,354 c 57,81 59,116 159,208 52,48 133,115 173,185 61,3 109,15 158,-10 112,-56 103,-388 122,-510 l 64,-466 c 4,-97 37,-154 53,-247 41,-241 48,-639 128,-856 36,147 -31,460 -54,617 l -15,219 c -72,399 -51,857 -147,1267 -37,157 -138,382 134,329 28,-195 17,-424 86,-595 54,-132 23,-168 22,-320 -1,-92 -12,-283 3,-359 43,-220 64,-404 61,-639 l 71,-639 c 103,-25 358,-19 433,30 33,96 14,205 31,314 13,87 51,174 61,276 11,120 6,241 7,361 0,122 39,195 43,340 8,246 8,441 55,642 106,449 -77,367 -123,610 l 244,-17 c 115,-187 60,-268 31,-501 -21,-170 -19,-379 -47,-531 -23,-127 -138,-960 -120,-997 57,80 73,304 92,432 13,85 15,146 17,240 4,144 36,135 57,246 50,262 40,903 295,837 146,-82 73,-107 176,-222 206,-231 499,-402 392,-768 -89,-304 -235,-571 -282,-894 l -42,-313 332,907 c 49,178 81,346 307,263 156,-57 287,-378 391,-508 27,-34 7,-6 35,-39 57,-66 120,-156 58,-240 -16,-22 -9,-3 -30,-40 -48,-86 -52,-194 -111,-260 -128,-141 -92,-174 -171,-313 l -207,-401 c -40,-92 -92,-152 -116,-253 62,40 309,525 381,642 52,84 87,142 131,211 250,392 374,255 546,-31 46,-77 25,1 62,-107 67,-196 -41,-216 -145,-349 l -286,-442 c -41,-103 -90,-164 -128,-251 107,3 64,21 160,146 l 278,377 c 282,371 347,-164 513,-259 173,-99 580,-50 720,-750 27,-134 78,-343 56,-496 -14,-101 -39,-75 6,-143 -3,120 444,1326 527,1550 23,62 75,146 98,222 l 92,305 c 2,5 5,11 7,16 79,180 269,651 142,829 -87,123 -195,203 -276,322 -44,65 -39,147 -142,177 9,166 -58,239 -20,441 32,172 108,186 195,270 122,119 162,83 331,127 242,63 202,42 448,32 291,-11 154,-32 365,-84 8,-2 34,-6 42,-8 169,-47 515,-190 613,-290 131,-132 136,-114 287,-184 89,-187 186,-353 179,-591 -6,-215 -65,-337 -216,-461 -26,-21 -26,-21 -55,-45 -308,-250 -745,-60 -949,-222 -230,-183 -438,-638 -608,-923 l -133,-258 c -106,-227 -176,-445 -329,-639 -47,-59 -31,-24 -66,-132 -29,-88 -96,-208 -90,-271 181,-33 342,-14 480,-80 211,-102 340,-189 462,-365 180,-259 59,142 369,-484 l 102,-165 c 103,-204 237,-357 255,-599 13,-181 -8,-380 -5,-561 5,-323 -248,-424 128,-700 116,-85 97,-159 312,-144 36,65 99,124 146,210 80,147 225,357 254,517 26,143 71,178 120,309 65,174 154,243 216,362 234,448 43,216 411,585 25,25 184,156 217,177 97,60 170,63 315,66 344,8 494,-139 731,-257 124,-62 288,-90 393,-195 81,-81 -12,-33 118,-76 51,-17 -2,5 68,-27 19,-8 52,-23 68,-31 124,-62 122,-92 311,-124 -30,360 -529,377 -507,850 116,96 170,236 284,325 91,71 74,71 124,164 215,399 25,148 463,458 201,143 333,13 445,168 199,-24 213,34 348,-87 75,-68 149,-114 194,-200 601,-91 356,-110 550,-463 67,-122 54,-155 -2,-268 -99,-17 -117,-23 -187,-56 -61,-319 220,-468 581,-388 240,53 181,53 331,207 56,57 73,64 102,161 40,136 -22,81 76,183 15,322 -205,302 -419,444 -210,140 -376,484 -335,577 51,115 274,173 378,174 -12,128 -73,58 -39,184 12,44 71,113 123,135 122,52 343,2 450,-30 201,-60 383,-111 518,-264 126,-143 162,-164 6,-307 -112,-102 -49,-59 -128,-167 -113,-154 -258,-101 -455,-131 -16,-122 156,-140 241,-187 33,-18 73,-49 114,-58 102,-23 184,-4 274,-39 110,-43 139,-36 249,-64 3,-41 -45,-320 -57,-348 -104,-235 -233,-153 -249,-625 -7,-212 -20,-196 -128,-316 11,-58 19,-58 19,-122 -78,-36 -361,-100 -398,8 -47,138 -68,120 -226,140 -237,30 -527,-51 -755,22 -47,15 -88,43 -133,56 -162,47 -157,8 -323,92 -59,30 -112,29 -163,60 -129,77 -183,241 -266,342 -101,124 -204,255 -209,437 74,28 154,78 166,174 -123,3 -394,-130 -506,-186 -96,-48 -102,-33 -150,-97 -57,-98 -92,-266 -32,-379 38,-71 70,-57 113,-131 42,-72 24,-84 92,-150 40,-39 27,-21 59,-59 69,-83 109,-104 159,-212 156,-344 76,-168 35,-383 73,-40 165,-41 245,-88 133,-79 140,-5 251,6 -21,-86 -33,-40 25,-118 265,-29 537,-119 745,-202 103,-41 224,-88 331,-132 94,-39 605,-170 781,-164 280,9 197,-3 408,77 124,47 594,259 535,428 -16,46 -372,248 -540,522 -63,102 -40,199 -39,329 443,275 412,155 831,292 103,33 148,113 247,134 261,56 328,-82 506,-231 l 347,-305 c 22,-22 26,-31 47,-53 l 291,-270 c 42,-37 -2,-2 53,-40 l 414,-246 c 30,-22 94,-52 127,-68 197,-98 271,-188 511,-242 124,-28 142,-72 324,-76 125,-2 219,-15 274,-99 403,5 603,-15 951,199 l 258,202 c 57,50 87,52 95,142 -218,3 -420,-107 -575,150 -78,129 -31,133 9,271 l 59,126 c 49,85 14,86 98,151 26,-34 30,10 35,-63 6,-86 -63,-147 -80,-222 -32,-144 32,-163 72,-286 84,-14 242,-84 347,-28 -2,91 -114,71 -122,170 36,166 256,204 375,97 34,-197 5,-350 -106,-473 -218,-242 -275,-240 -487,-382 -142,-95 -355,-160 -568,-170 l -133,-13 c -3,-1 -10,-5 -14,-8 161,-87 455,-12 623,31 185,48 429,64 610,132 197,74 462,378 499,593 28,161 -86,355 144,373 97,8 167,-15 192,-108 10,-36 11,-102 7,-139 -15,-147 -55,-96 -81,-230 110,17 126,104 136,207 5,51 -11,260 -20,301 -4,20 -31,106 -44,132 -52,106 -211,140 -285,223 -87,97 15,31 -88,77 -467,205 -602,-50 -891,-78 -107,-10 -49,5 -78,19 28,115 97,102 184,140 61,27 169,65 253,85 179,41 422,52 577,-41 66,-40 34,-14 112,-40 37,-13 74,-40 108,-58 18,-10 34,-15 50,-24 l 152,-113 c 90,-122 144,-335 131,-534 -19,-283 -141,-479 -344,-628 l -104,-64 c -176,-110 -187,7 -414,-151 -12,-9 -46,-28 -61,-37 -99,-62 -297,-110 -376,-130 -69,-17 -219,-22 -304,-35 -96,-15 -205,-48 -273,-55 -188,-19 -420,-40 -599,18 -288,94 -129,-48 -503,151 -359,191 -551,89 -865,159 l -839,473 -253,233 c -128,119 -340,407 -526,188 66,-206 280,-192 381,-557 69,-251 -10,-213 -14,-414 -4,-204 28,-244 -66,-385 -193,-291 -368,-193 -603,-327 -114,-65 -236,-66 -354,-107 -62,-21 -106,-41 -154,-65 -42,-21 -38,-20 -77,-44 -6,-4 -23,-16 -28,-19 -46,-25 0,-5 -44,-18 20,-94 39,-34 29,-118 -132,-3 -37,39 -178,-40 -170,-96 -519,-52 -684,26 -109,51 -220,132 -364,165 -113,25 -310,73 -445,93 -337,49 -747,409 -1061,549 l -229,114 c -8,6 -38,24 -41,26 -71,52 -105,99 -202,61 -301,-119 20,-543 -1018,-313 -138,31 -142,57 -248,91 -179,58 -268,127 -477,186 -65,-51 -36,-43 -136,-62 -32,102 18,71 -61,128 -52,38 -113,45 -196,32 -78,-221 -30,-274 -142,-483 -79,-148 -118,-288 -262,-372 -177,-103 -153,-65 -357,-83 -51,-114 -49,-365 -205,-698 -139,-295 -202,-329 -541,-376 -261,-37 -297,-18 -490,106 -57,37 -95,49 -156,84 l -402,285 c -60,63 -50,84 -140,92 l -459,-648 c -68,-116 -45,-53 -62,-194 -9,-75 12,30 -8,-47 -34,-131 -166,-18 -204,51 -61,110 -185,217 -288,288 -45,31 -43,16 -90,53 -38,30 -4,6 -35,33 -20,18 -21,17 -43,36 l -173,120 c -170,113 -376,200 -583,284 l -63,-39 c -18,-80 10,-209 46,-289 l 286,-393 c 81,-75 115,-63 191,-151 60,-70 72,-124 141,-197 77,-82 96,-114 41,-221 -93,-181 -83,-331 -211,-496 l -136,-127 c -434,-312 -519,-41 -886,-84 -210,-24 -401,66 -470,194 l -489,556 c -141,174 -258,457 -508,531 -152,45 -123,-21 -224,-85 -42,-27 -57,-24 -103,-62 -310,-255 -744,-441 -1156,-381 -148,22 -430,103 -526,178 -101,79 -490,254 -653,367 -75,51 -148,109 -218,157 z"
           class="fil0"
           inkscape:connector-curvature="0"
           style="fill:#202428;fill-opacity:0.99215686" />
        <path
           id="path866"
           d="m 7479,-799 c 45,-49 141,-102 209,-157 216,-172 547,-295 844,-292 -31,32 -5,17 -49,44 l -143,47 c -131,60 -448,309 -560,420 -4,4 -9,9 -12,12 l -142,121 c -78,74 -273,183 -317,176 -92,-14 -220,-193 -73,-387 121,2 76,40 243,16 z m -118,-101 c 19,-368 603,-786 827,-845 339,-90 575,16 513,392 -365,61 -168,-192 -900,195 -29,15 -54,26 -84,41 -22,11 -34,18 -49,25 -127,66 -192,174 -308,192 z m -93,-197 c -12,-77 28,-560 71,-644 14,-27 68,-123 89,-157 108,-167 327,-179 532,-34 35,25 -5,1 40,32 l 29,18 c 50,35 35,10 54,61 l -477,303 c -147,122 -259,404 -338,422 z m 1386,-141 c 24,-8 25,-5 48,-13 138,-44 186,-145 155,-294 -74,-358 -347,-370 -605,-417 -255,-46 -409,-377 -775,-172 -473,265 -316,880 -341,1163 l -157,146 c 22,123 1,45 85,122 -11,134 -84,264 89,405 145,119 411,-21 506,-105 l 305,-277 c 290,-301 368,-337 722,-424 14,-82 -4,-79 -31,-134 z"
           class="fil0"
           inkscape:connector-curvature="0"
           style="fill:#202428;fill-opacity:0.99215686" />
        <path
           id="path878"
           d="m 10002,-1555 c 46,-135 192,-204 350,-221 227,-25 440,222 545,280 88,49 87,70 141,158 35,57 93,107 112,150 11,25 38,200 40,233 -161,-42 -11,-136 -431,-352 -471,-242 -620,59 -756,-248 z m 809,-219 219,-177 c 174,-11 246,89 287,258 39,164 3,302 -36,464 -129,15 13,-26 -209,-263 l -260,-282 z m -841,422 c 331,87 665,41 998,347 42,39 69,92 106,116 100,67 71,-16 153,88 -111,224 -457,189 -675,-31 -97,-98 -135,-89 -275,-234 l -191,-173 c -64,-41 -31,-30 -133,-31 11,165 36,52 127,178 41,56 5,27 63,82 82,77 139,152 241,221 216,146 303,306 647,280 206,-16 302,-109 357,-276 82,-15 71,-3 130,-42 -15,-126 15,-23 -37,-84 -156,-184 -122,-188 -26,-418 28,-66 56,-116 43,-225 -18,-159 -77,-248 -130,-359 -39,-80 -35,-87 -115,-131 -154,-85 -226,-65 -415,54 l -45,30 c -1,1 -66,22 -80,26 -193,60 -581,-81 -771,212 -33,51 -60,105 -56,189 6,111 60,152 84,180 z"
           class="fil0"
           inkscape:connector-curvature="0"
           style="fill:#202428;fill-opacity:0.99215686" />
        <path
           id="path908"
           d="m 14165,4280 c 148,-1 114,-80 301,-162 265,-116 304,-130 524,-50 l 127,70 c 175,120 18,88 191,262 354,-20 298,-302 215,-403 -165,-202 -246,-202 -472,-232 -434,-57 -918,211 -886,515 z"
           class="fil0"
           inkscape:connector-curvature="0"
           style="fill:#202428;fill-opacity:0.99215686" />
        <path
           id="path918"
           d="m 3480,3881 c -1,2 -50,9 -15,80 48,99 85,-4 266,109 22,14 22,22 60,38 69,30 159,20 238,127 134,184 70,140 58,342 -21,342 848,23 72,-479 -119,-77 -546,-264 -678,-219 z"
           class="fil0"
           inkscape:connector-curvature="0"
           style="fill:#202428;fill-opacity:0.99215686" />
        <path
           id="path934"
           d="m 8941,-3011 c -23,170 67,150 183,174 200,42 511,136 770,-48 66,-47 33,20 51,-57 53,-224 -285,-11 -499,22 -309,47 -282,-129 -505,-91 z"
           class="fil0"
           inkscape:connector-curvature="0"
           style="fill:#202428;fill-opacity:0.99215686" />
        <path
           id="path938"
           d="m 9916,-2746 c -17,-16 24,-74 -103,-25 -553,214 -681,-64 -977,-32 7,89 -1,87 59,126 157,102 574,157 804,86 123,-38 207,-55 217,-154 z"
           class="fil0"
           inkscape:connector-curvature="0"
           style="fill:#202428;fill-opacity:0.99215686" />
        <path
           id="path952"
           d="m 9214,-3062 c 302,138 510,-72 154,-154 -75,-17 -54,-15 -129,-5 -44,94 -47,46 -25,160 z"
           class="fil0"
           inkscape:connector-curvature="0"
           style="fill:#202428;fill-opacity:0.99215686" />
        <path
           id="path962"
           d="m 14437,4389 c -80,13 -52,23 -83,62 24,36 9,97 128,81 70,-9 69,-25 90,-99 -45,-32 -48,-60 -136,-45 z"
           class="fil0"
           inkscape:connector-curvature="0"
           style="fill:#202428;fill-opacity:0.99215686" />
        <path
           id="path978"
           d="m 14165,4403 c -82,-6 -36,16 -55,49 115,73 90,12 108,0 -11,-17 3,-45 -54,-49 z"
           class="fil0"
           inkscape:connector-curvature="0"
           style="fill:#202428;fill-opacity:0.99215686" />
        <polygon
           id="polygon986"
           points="10216,2759 10235,2810 "
           class="fil1"
           style="fill:#202428;fill-opacity:0.99215686" />
        <polygon
           id="polygon988"
           points="20507,1063 20624,1030 "
           class="fil1"
           style="fill:#202428;fill-opacity:0.99215686" />
        <path
           id="path990"
           d="m 9583,5753 c 157,-109 238,-115 244,-17 -239,269 -470,464 -693,584 -338,-189 -493,-394 -466,-615 53,-95 113,-131 179,-109 -13,190 11,340 71,449 132,65 214,114 246,146 240,-188 380,-334 419,-438 z"
           class="fil0"
           inkscape:connector-curvature="0"
           style="fill:#202428;fill-opacity:0.99215686" />
      </g>
    </g>
  </g>
</svg>
