<?xml version="1.0" encoding="UTF-8" standalone="no"?>
<svg
   xmlns:dc="http://purl.org/dc/elements/1.1/"
   xmlns:cc="http://creativecommons.org/ns#"
   xmlns:rdf="http://www.w3.org/1999/02/22-rdf-syntax-ns#"
   xmlns:svg="http://www.w3.org/2000/svg"
   xmlns="http://www.w3.org/2000/svg"
   xmlns:sodipodi="http://sodipodi.sourceforge.net/DTD/sodipodi-0.dtd"
   xmlns:inkscape="http://www.inkscape.org/namespaces/inkscape"
   width="584.06"
   height="528.75"
   version="1.1"
   viewBox="0 0 584.0625 528.75"
   id="svg4"
   sodipodi:docname="book-1299123.svg"
   inkscape:version="0.92.4 (5da689c313, 2019-01-14)">
  <metadata
     id="metadata10">
    <rdf:RDF>
      <cc:Work
         rdf:about="">
        <dc:format>image/svg+xml</dc:format>
        <dc:type
           rdf:resource="http://purl.org/dc/dcmitype/StillImage" />
        <dc:title />
      </cc:Work>
    </rdf:RDF>
  </metadata>
  <defs
     id="defs8">
    <style
       id="style817"
       type="text/css">  .fil1 {fill:#FEFEFE} .fil0 {fill:black}  </style>
    <style
       id="style1098"
       type="text/css">  .fil0 {fill:#FEFEFE} .fil1 {fill:#282829}  </style>
  </defs>
  <sodipodi:namedview
     pagecolor="#ffffff"
     bordercolor="#666666"
     borderopacity="1"
     objecttolerance="10"
     gridtolerance="10"
     guidetolerance="10"
     inkscape:pageopacity="0"
     inkscape:pageshadow="2"
     inkscape:window-width="1366"
     inkscape:window-height="768"
     id="namedview6"
     showgrid="false"
     inkscape:pagecheckerboard="true"
     inkscape:zoom="0.315607"
     inkscape:cx="335.72284"
     inkscape:cy="432.57351"
     inkscape:window-x="1920"
     inkscape:window-y="312"
     inkscape:window-maximized="1"
     inkscape:current-layer="svg4" />
  <path
     d="m282.63 527.95c-0.50112-0.4646-2.486-1.348-4.411-1.963-1.9621-0.62691-4.386-2.3627-5.5166-3.9506-1.1092-1.5578-3.7531-3.6024-5.8752-4.5436-2.1221-0.94119-5.4288-3.1901-7.3483-4.9976s-4.4507-3.5863-5.625-3.9529c-1.1743-0.36661-3.4784-1.838-5.1203-3.2698s-3.9622-2.8966-5.1562-3.2552c-1.194-0.35854-4.4913-2.3997-7.3272-4.5358-7.0559-5.3149-10.971-7.3757-12.902-6.7909-0.89618 0.27143-4.773 0.57562-8.6151 0.67598s-8.4828 0.51406-10.312 0.91933c-1.8297 0.40528-4.4335 0.9663-5.7862 1.2467-1.5915 0.32992-2.8711 1.5037-3.6259 3.326-0.64156 1.5489-2.6989 3.7474-4.5718 4.8855-1.8729 1.1382-4.8819 3.2207-6.6866 4.6279-4.3819 3.4167-11.873 4.7335-20.272 3.5634-8.3139-1.1583-10.667-2.9338-13.048-9.846-3.615-10.493-5.3406-14.372-7.1025-15.966-0.97083-0.8786-1.7652-2.1188-1.7652-2.7559 0-1.4708-12.98-2.2804-18.235-1.1375-2.0371 0.44307-7.8217 0.95098-12.855 1.1287-7.4358 0.26257-9.7795 0.7116-12.505 2.3958-2.0974 1.2963-5.5347 2.2616-9.1765 2.577-9.6249 0.83379-20.794 0.56761-22.873-0.54512-1.0747-0.57518-3.4529-3.3038-5.2847-6.0636-4.0183-6.0539-5.6359-7.494-7.8548-6.993-2.813 0.63515-6.53-1.8355-9.5959-6.3782-2.9056-4.3052-5.9835-10.723-5.1429-10.723 0.24474 0-0.22829-1.302-1.0512-2.8933-1.9027-3.6794-1.6193-10.698 0.59138-14.645 0.92626-1.654 2.1049-4.3962 2.6193-6.0938 1.8198-6.006 3.9213-11.22 7.025-17.428 1.7275-3.4557 3.6321-7.7995 4.2325-9.653 1.2596-3.8886 9.567-13.146 13.699-15.265 1.5469-0.79339 7.7644-6.0665 13.817-11.718 6.6052-6.1678 12.32-10.71 14.297-11.362 2.2466-0.74144 3.2927-1.6593 3.2927-2.889 0-1.513-0.68213-1.8023-4.2489-1.8023-5.2659 0-10.382-2.0488-11.149-4.4643-0.59841-1.8854-4.7706-6.0361-8.9349-8.8889-2.8153-1.9286-11.265-2.2366-13.027-0.47493-1.526 1.5259-15.33 1.4431-19.999-0.11988-2.5981-0.86971-3.5954-1.8064-4.0299-3.7846-0.6107-2.7805-3.7965-6.1987-8.455-9.0717-1.5469-0.95398-4.373-2.9603-6.2803-4.4586-2.5263-1.9845-4.1487-2.5939-5.9759-2.2446-1.3795 0.2637-3.9322 0.0863-5.6729-0.39438-4.178-1.1536-4.1421-3.6223 0.1165-8.0072 3.2058-3.301 4.0509-4.966 2.5205-4.966-0.4184 0-1.7055-0.88016-2.8601-1.9559-1.6608-1.5472-1.8696-2.2328-0.99948-3.2812 1.8302-2.2052 3.6142-1.5309 7.9658 3.0108 4.2931 4.4807 4.4557 4.823 4.2015 8.8492-0.12559 1.9898 1.1275 3.3397 7.2717 7.8337 4.0829 2.9863 7.8445 5.7013 8.3591 6.0334 0.51459 0.33207 1.6475 1.993 2.5176 3.6909s2.7035 3.5136 4.0743 4.0347c3.4063 1.2951 17.026 1.3012 18.319 8e-3 0.57-0.57021 3.7534-1.0366 7.0742-1.0366h6.0378l6.9944 7.1088c6.6123 6.7205 7.2636 7.1365 11.923 7.6175 4.8804 0.5037 4.9393 0.47881 5.9878-2.529 1.3241-3.7982 0.98621-4.3306-3.253-5.1259-2.2385-0.41995-5.0722-2.1937-8.2135-5.1411-2.6377-2.475-6.2724-5.2471-8.0771-6.1602-1.8047-0.91311-4.2874-2.4443-5.5171-3.4026-2.6745-2.0844-4.9443-2.1672-9.9517-0.36323-6.1598 2.2191-11.253 1.78-18.026-1.5542-3.3996-1.6736-7.256-4.4566-8.7689-6.3281-1.4853-1.8374-4.1852-5.1736-5.9998-7.4138s-3.2993-4.6511-3.2993-5.3576c0-2.466-8.0065-5.7439-16.256-6.6553-5.7098-0.63084-7.3678-2.0554-5.2967-4.5509 1.5536-1.872 4.2864-1.7579 12.898 0.53881 8.9667 2.3914 10.468 3.3513 14.104 9.0184 1.5939 2.4845 3.7622 5.4514 4.8183 6.5931s1.9202 2.2827 1.9202 2.5355c0 2.2144 10.468 8.908 14.016 8.9618 1.8265 0.0277 0.13154-1.5393-2.2969-2.1234-1.3869-0.33359-1.1878-0.47931 0.76476-0.55975 1.4519-0.0598 3.5094 0.35668 4.5724 0.92555 1.0678 0.57149 2.1939 0.66782 2.5165 0.21528 1.9571-2.7451 8.179-3.3083 11.122-1.0067 0.63966 0.50025 4.5314 2.5434 8.6483 4.5403s9.4266 5.1126 11.799 6.9238c4.8086 3.6705 6.6351 4.083 7.3168 1.6524 1.4235-5.0757 1.5735-23.723 0.25099-31.219-1.5278-8.6601-2.6734-30.99-2.7993-54.562-0.058482-10.951-0.37431-14.765-1.2227-14.765-1.627 0-4.0627-3.7785-4.0627-6.3024 0-2.4399 1.5237-2.6957 4.1636-0.69909 1.0143 0.76715 3.8155 1.3764 6.3281 1.3764 4.1839 0 4.5083-0.16868 4.5083-2.3438 0-1.9888-0.46148-2.3662-3.0469-2.4923-1.6758-0.0816-3.8906-0.0667-4.9219 0.0334-1.0312 0.10004-3.4322-0.5188-5.3354-1.3752-5.1058-2.2975-5.4262-4.505-0.99272-6.8398 2.7119-1.4281 2.6646-2.3659-0.18479-3.6642-3.6847-1.6788-5.3618-5.1784-5.5817-11.647-0.11012-3.2395-0.49071-6.5228-0.84576-7.2962-0.38075-0.82943 0.51427-3.4252 2.182-6.3281 2.2141-3.8541 3.3319-4.9219 5.1523-4.9219 1.2786-4e-5 2.3248-0.42192 2.3248-0.93754 0-0.51563-0.40864-0.9375-0.90808-0.9375s-0.70678-0.52734-0.46075-1.1719c0.66882-1.7521-2.0033-20.745-3.2451-23.066-0.59239-1.1069-1.6752-2.0125-2.4062-2.0125-1.6631 0-6.1049 1.9853-6.1049 2.7286 0 0.30395-1.1602 0.61899-2.5781 0.70007-1.418 0.0811-4.5077 0.44399-6.8661 0.80644-5.4166 0.83245-11.571-1.9278-12.494-5.6032-0.34595-1.3784-2.1908-3.3866-4.3816-4.7696l-3.7841-2.3888-3.2522 2.01c-3.2775 2.0256-6.0192 6.0709-6.0192 8.8811 0 2.2874-4.5344 9.8068-8.4675 14.042-1.9155 2.0625-4.9677 6.1135-6.7825 9.0023-4.9959 7.9522-13.792 12.611-18.27 9.6773-2.9578-1.938-2.6485-6.9878 0.51252-8.3671 2.1518-0.93895 3.6536-4.2904 2.65-5.9141-0.29383-0.47545-2.0734-1.1142-3.9545-1.4195-4.1176-0.6682-6.9377-3.0086-6.9377-5.7576 0-3.3804 2.092-5.0205 7.6846-6.0244 9.7316-1.7468 17.601-7.1097 17.642-12.023 0.04742-5.6222 7.0144-15.513 13.888-19.716 2.6562-1.6242 4.8328-2.0981 9.5356-2.0762 7.0268 0.0328 8.4162 0.66533 15.043 6.8485 4.7462 4.4287 4.9772 4.5265 9.1974 3.8936 2.3809-0.35705 5.4737-1.2412 6.8728-1.9647s3.1896-1.3155 3.9789-1.3155c2.4067 0 2.7904-4.65 1.197-14.506-2.7958-17.294-2.7968-16.436 0.02669-22.056l2.5907-5.1562 9.375-0.08222c8.5681-0.07509 9.6978 0.12662 13.125 2.3437 2.0625 1.3343 4.301 3.0588 4.9744 3.8322 1.0198 1.1713 1.125 0.49727 0.62948-4.0339-0.4002-3.6595-0.2264-5.8843 0.53101-6.7969 1.7632-2.1245 5.9338-1.6342 8.3964 0.98706 1.211 1.2891 2.5705 2.3438 3.0212 2.3438s3.6466 2.8626 7.1022 6.3613 9.2796 8.6667 12.942 11.484 9.9908 8.0117 14.062 11.542c4.0717 3.5305 9.0906 7.2781 11.153 8.3279 4.2343 2.1553 9.308 5.9078 15.388 11.381l4.1384 3.7254 0.90338-2.2707c0.49685-1.2489 1.2543-4.3281 1.6833-6.8427 0.42895-2.5146 1.4113-5.2697 2.183-6.1224 1.7648-1.9501 2.2744-16.287 0.64846-18.246-0.59574-0.71782-1.7532-3.7811-2.5722-6.8072-3.3968-12.552-0.37187-33.718 6.9496-48.627 1.5192-3.0938 3.081-6.6797 3.4706-7.9688 0.38961-1.2891 1.7136-4.5711 2.9422-7.2934s2.2337-5.1524 2.2337-5.4002c0-0.53783 5.4869-8.4236 10.411-14.963 6.1078-8.1109 18.59-16.499 28.751-19.321 3.9844-1.1065 10.197-3.0019 13.807-4.2121 5.3672-1.7995 8.5234-2.2005 17.328-2.2016 5.921-6.9986e-4 12.409 0.44115 14.417 0.98189 2.0081 0.54074 7.2887 1.1214 11.735 1.2903 4.4458 0.16893 10.987 0.6932 14.536 1.1651 5.8951 0.78376 6.7691 1.197 10.112 4.7807 2.0125 2.1575 4.5012 3.9228 5.5304 3.9228 3.5749 0 8.6278 2.8374 12.122 6.8068 1.9327 2.1957 5.4648 4.9664 7.8492 6.1572 4.7953 2.3949 5.0774 2.6404 10.434 9.078 6.984 8.3938 9.1579 13.242 9.4547 21.083 0.15663 4.1385-0.28715 8.9333-1.0787 11.655-0.73963 2.5428-1.3448 6.918-1.3448 9.7228 0 4.5661 0.65048 6.2399 6.2187 16.002 3.4203 5.9962 6.8224 12.168 7.5603 13.715 0.73791 1.5469 1.7364 3.545 2.2188 4.4404s0.86794 5.1141 0.85661 9.375c-0.024 9.0287-1.8792 14.125-6.4255 17.652-1.6188 1.2557-4.6708 3.657-6.7823 5.3362s-4.808 3.2963-5.9922 3.5936c-3.9269 0.98558-3.8962 8.822 0.0345 8.822 1.1868 0 2.8192 0.25382 3.6276 0.56406 1.0106 0.38781 1.7687-0.22183 2.4262-1.9512 0.52597-1.3834 1.4811-2.3353 2.1224-2.1154 1.2832 0.43994 1.2752 3.5083-0.0267 10.299-0.54306 2.8328-0.52359 4.4531 0.0535 4.4531 0.79071 0 8.0266-3.7344 23.171-11.958 2.3203-1.26 4.8516-2.7945 5.625-3.41 0.77344-0.6155 2.6719-1.7337 4.2188-2.4849s4.5-2.4649 6.5625-3.8082 6.9141-4.0734 10.781-6.0669c6.4904-3.3456 11.886-6.5885 26.692-16.041 6.5367-4.1735 15.637-11.228 19.885-15.415 4.6751-4.6076 6.0914-3.3262 5.84 5.284-0.1132 3.8769 0.0423 7.297 0.34548 7.6002 0.3032 0.30322 3.093-0.32833 6.1996-1.4034 6.0803-2.1042 8.1422-1.8954 9.0342 0.91512 0.42955 1.3534 1.4495 1.7884 4.1934 1.7884 8.0734 0 11.011 3.7515 9.4146 12.022-0.46546 2.4112-1.0782 10.984-1.3616 19.052-0.60424 17.2-0.5631 17.292 7.3256 16.478 7.7519-0.80007 10.572-2.6552 11.331-7.4533 1.2894-8.1552 2.658-11.098 7.2213-15.526 3.8323-3.7186 5.1712-4.4416 8.472-4.5748 2.1562-0.087 5.1657 0.48576 6.6878 1.2728 2.3163 1.1978 3.3416 1.2416 6.2904 0.26833 1.9377-0.6395 4.7184-0.93201 6.1794-0.65005 3.7769 0.72891 10.835-2.5286 12.842-5.9274 2.9636-5.017 4.7338-3.6138 5.8258 4.618 0.59068 4.4527 0.48018 4.7441-3.3909 8.9438-3.831 4.1561-3.9255 4.3986-2.2174 5.6914 0.98125 0.74267 2.0857 1.3637 2.4542 1.3801 1.2928 0.0576 2.709 3.8695 2.1232 5.7152-1.2355 3.8928-4.0379 4.6678-13.14 3.6336-9.6158-1.0926-17.275-4.1517-19.714-7.8732-1.173-1.7903-2.2829-2.4019-3.9875-2.1976-2.1492 0.25764-2.5509 1.0552-4.4583 8.8515-1.1529 4.7126-2.8054 9.6507-3.6722 10.974-2.845 4.342-8.5954 6.8552-17.126 7.4852-4.2583 0.31444-8.552 1.005-9.5415 1.5346-0.98953 0.52957-2.4755 0.70332-3.3021 0.38611-1.3094-0.50247-1.4353-2.1154-0.97736-12.524 0.7981-18.139 1.5654-40.515 1.4794-43.143-0.16973-5.1898-4.8526-5.6062-13.666-1.2151-2.5781 1.2845-8.2734 3.6196-12.656 5.1891-4.3828 1.5695-8.6016 3.3935-9.375 4.0533-0.77344 0.65977-3.6791 2.0934-6.457 3.1858s-5.9304 2.6023-7.0055 3.3553-2.8586 1.3691-3.9634 1.3691-3.0148 0.78877-4.2445 1.7528c-1.2297 0.96406-3.6492 2.0616-5.3766 2.4389-1.7275 0.37733-4.8915 1.8374-7.0312 3.2446s-6.4515 3.4688-9.5816 4.5814c-6.0846 2.1627-9.5698 3.9535-19.944 10.248-3.6119 2.1914-7.6387 3.9844-8.9484 3.9844-1.4217 0-2.7856 0.75551-3.3847 1.875-0.55191 1.0312-1.9378 1.8772-3.0799 1.8799-1.142 3e-3 -3.168 0.741-4.5021 1.6406-9.7528 6.5765-11.735 7.7294-13.29 7.7294-0.96507 0-4.1504 1.9515-7.0785 4.3367s-5.9582 4.5574-6.7336 4.8272c-0.77543 0.26976-2.2843 1.2746-3.353 2.233s-4.6546 3.1288-7.9688 4.8232-8.4311 4.6442-11.371 6.5553c-2.9401 1.911-5.6424 3.4746-6.0053 3.4746s-2.1423 1.1308-3.9543 2.513c-6.5833 5.0213-19.197 10.413-15.13 6.4676 1.8743-1.8184 28.319-18.299 34.454-21.472 2.7261-1.4099 7.7886-4.5633 11.25-7.0077s9.0357-5.8877 12.387-7.6519c3.3516-1.7642 9.6797-5.318 14.062-7.8975 4.3828-2.5795 10.922-6.2357 14.531-8.125 17.687-9.2581 25.288-13.077 26.027-13.077 0.44584 0 5.1236-2.0597 10.395-4.5772s12.944-5.9136 17.05-7.547 8.5202-3.568 9.8092-4.299 3.8203-2.0209 5.625-2.8665c1.8047-0.84555 6.6562-3.1536 10.781-5.1289s8.4492-3.8568 9.6094-4.1809c1.1602-0.32418 2.1094-1.1938 2.1094-1.9325 0-1.7007 0.3824-1.7558-6.941 1.0007-3.4247 1.2891-6.8997 2.3438-7.7222 2.3438-0.82251 0-2.8881 1.2228-4.5903 2.7173-1.7701 1.5541-4.7486 2.9967-6.9584 3.37-2.1249 0.35901-6.0614 2.1343-8.7477 3.9452-5.1865 3.4962-13.804 8.0411-17.306 9.1272-3.6569 1.1341-2.4668-1.9252 1.4062-3.6148 1.9336-0.84352 5.4141-2.764 7.7344-4.2678 8.3584-5.417 23.169-13.556 26.03-14.304 1.3972-0.36537 2.1674-1.7839 2.95-5.4333 0.58255-2.7163 0.85968-5.1383 0.61583-5.3822-0.98413-0.98413-8.8685 3.1604-10.429 5.482-1.4278 2.1245-6.6708 5.8075-14.01 9.8417-1.0312 0.56683-6.0938 3.5654-11.25 6.6635s-11.652 6.7654-14.435 8.1496c-2.7831 1.3842-6.728 3.8376-8.7664 5.4521-2.0384 1.6144-6.3004 4.144-9.471 5.6211s-6.8195 3.2991-8.1086 4.0487-4.3304 2.359-6.7585 3.5764-5.1212 2.8068-5.9848 3.532c-0.86352 0.7252-3.1689 2.1623-5.123 3.1935-9.9501 5.251-13.667 7.3543-14.946 8.4584-0.77344 0.66738-5.625 3.4112-10.781 6.0975s-10.219 5.6085-11.25 6.494c-1.0312 0.88547-3.5625 2.3801-5.625 3.3214-4.7526 2.1691-7.9201 4.4472-14.344 10.316-8.9108 8.1413-22.687 22.393-22.687 23.47 0 2.1515-5.275 11.026-6.9143 11.632-4.1241 1.5256-7.0832-1.3458-5.742-5.5717 0.32731-1.0312 0.23229-1.875-0.21113-1.875-0.44343 0-1.314 1.8984-1.9346 4.2188-1.5871 5.9341-3.948 5.7659-3.948-0.28125 0-2.475 0.48277-4.9828 1.0728-5.5728 1.6202-1.6202-0.62411-6.3057-6.177-12.896-2.6068-3.0938-5.0311-5.8454-5.3873-6.1148-0.35622-0.26939-4.575-4.1506-9.375-8.625-8.6788-8.0899-13.647-11.529-38.727-26.812-7.2188-4.3988-13.336-8.3024-13.594-8.6747-0.25781-0.37227-2.9664-2.0467-6.019-3.7209s-7.0605-4.045-8.9062-5.2684-4.1536-2.744-5.1284-3.379c-0.97483-0.63507-3.717-2.7446-6.0938-4.6879-2.3767-1.9433-7.4854-5.6422-11.353-8.2199-11.528-7.6841-12.358-8.3185-24.472-18.7-3.9206-3.36-8.7421-7.3748-10.714-8.9217-1.9723-1.5469-7.1808-6.082-11.574-10.078-7.9924-7.2692-10.289-8.7034-9.0061-5.625 0.37593 0.90234 1.0915 3.5391 1.5901 5.8594 0.9937 4.6241 6.4539 10.755 12.16 13.653 1.711 0.86911 4.7984 2.9296 6.8609 4.5788s6.7031 4.974 10.312 7.3883c11.652 7.7942 23.255 16.478 31.07 23.253 4.198 3.6393 8.898 7.3865 10.445 8.327 1.5466 0.94053 3.1099 2.1921 3.474 2.7814 0.36416 0.58923 1.5704 1.4599 2.6804 1.9348 2.3272 0.9956 5.8088 3.156 16.17 10.034 4.0759 2.7057 7.9171 4.9205 8.536 4.9219 0.61891 9.3e-4 1.4627 0.53996 1.875 1.1969 0.90184 1.4367 4.7267 3.9514 11.062 7.273 2.5781 1.3516 6.375 3.4318 8.4375 4.6226s6.4078 3.6054 9.6563 5.3658c7.0945 3.8446 9.3055 5.5849 16.437 12.937 9.3176 9.606 9.9694 10.717 10.233 17.444 0.21418 5.4604 0.0651 6.0069-1.6394 6.0069-1.438 0-1.9445-0.72444-2.1733-3.1081-0.16409-1.7095 0.16441-3.6657 0.72999-4.3472 0.78629-0.94742 0.35229-1.8079-1.8439-3.6559l-2.8722-2.4168-1.9264 1.9264-1.9264 1.9264 1.8793 2.0251c1.0336 1.1138 2.1691 3.9955 2.5233 6.4037 0.76714 5.2158 2.7509 7.5691 8.6435 10.253 3.5169 1.6021 5.562 1.9053 10.292 1.5256 8.3026-0.66646 11.869-3.4715 13.017-10.238 0.81337-4.7956 1.0736-5.1346 6.9388-9.0407 3.3516-2.2321 7.8358-4.9742 9.9649-6.0938 2.1291-1.1195 6.7698-3.9847 10.312-6.367 3.5428-2.3824 9.9514-6.2726 14.241-8.645 4.29-2.3724 9.3525-5.5306 11.25-7.0183s5.1375-3.4712 7.2-4.4078c2.0625-0.93662 5.6661-3.078 8.008-4.7585 3.6861-2.6452 34.697-18.182 36.291-18.182 1.262 0 9.2459-4.2312 10.932-5.7938 0.98645-0.91395 3.3068-2.1555 5.1562-2.759 1.8495-0.60353 6.0883-2.512 9.4195-4.241s6.4193-3.1437 6.8623-3.1437c0.44306 0 2.6451-1.2656 4.8934-2.8125s4.4553-2.8125 4.9044-2.8125c0.44913 0 4.8028-2.0352 9.6748-4.5227s11.389-5.486 14.483-6.6632c10.882-4.1408 19.703-7.9586 21.168-9.1613 0.81404-0.6684 3.0289-1.2153 4.9219-1.2153 4.7292 0 4.6179 2.3848-0.14691 3.1467-1.9738 0.31563-6.0871 1.8408-9.1406 3.3892-3.0536 1.5484-6.0266 2.8207-6.6067 2.8272-1.2284 0.0139-13.582 5.7995-17.695 8.287-3.2881 1.9887-9.9019 5.3485-17.812 9.0486-7.2047 3.3699-7.5036 3.5184-25.312 12.577-8.25 4.1964-15.949 7.623-17.109 7.6146-1.1602-8e-3 -2.1094 0.31061-2.1094 0.70898 0 0.80103-2.4702 2.1358-13.594 7.345-6.2332 2.9191-18.846 10.337-22.5 13.234-2.4633 1.9524-6.1432 4.0096-7.1722 4.0096-0.62944 0-2.0154 0.81597-3.0799 1.8133-1.0645 0.99731-4.994 3.3234-8.7323 5.1691s-6.7969 3.6734-6.7969 4.0614-2.4258 2.1283-5.3906 3.8671-7.3024 4.7379-9.639 6.6647c-2.3366 1.9267-6.7785 4.7804-9.871 6.3414-3.0924 1.5611-6.152 3.8285-6.7989 5.0388-1.4312 2.6772-2.2158 10.079-2.5188 23.763-0.12559 5.6719-0.49934 19.594-0.83057 30.938-0.47927 16.414-0.67589 99.27-0.27586 116.25 0.0486 2.0625-0.25342 11.766-0.67114 21.562-0.88549 20.768-0.81082 40.946 0.26445 71.455 0.12506 3.5483 1.4199 3.4147 6.7167-0.693 1.831-1.42 6.2607-4.1088 9.8438-5.9752s7.1475-3.803 7.9209-4.3036c0.77344-0.50055 5.6455-2.9454 10.827-5.4331 5.1813-2.4876 10.443-5.2392 11.693-6.1147 1.2498-0.87542 2.8205-1.5917 3.4903-1.5917 1.602 0 17.38-9.9679 21.702-13.71 1.8602-1.6109 6.7572-4.7367 10.882-6.9463 4.125-2.2096 8.6198-4.794 9.9885-5.743 1.3687-0.94908 2.9118-1.7256 3.4293-1.7256 0.9079 0 11.117-9.6952 16.289-15.469 5.4639-6.0996 8.6048-7.4147 15.807-6.6185 3.4054 0.37647 6.4807 0.12792 8.9062-0.71982 2.0376-0.71217 6.3803-1.5926 9.6504-1.9565 6.0162-0.66947 8.2837-1.426 18.429-6.1491 3.0938-1.4402 7.5818-3.5264 9.9735-4.636 2.5661-1.1905 5.3326-3.4449 6.7493-5.5 2.569-3.7265 4.8006-11.792 3.9071-14.121-0.29858-0.77807-0.10683-7.3513 0.4261-14.607 2.8404-38.672 3.8331-61.08 4.3326-97.799l0.55149-40.544-3.8568-3.4623c-3.2175-2.8884-3.8402-4.0156-3.7565-6.7996 0.0552-1.8355-0.38854-6.1927-0.98608-9.6827-1.032-6.0273-0.95739-6.6744 1.4868-12.904 3.8044-9.6968 14.904-20.186 19.496-18.424 2.6834 1.0297 5.2705 9.5763 5.2705 17.411 0 3.22 0.42913 6.6563 0.95362 7.6363s0.6817 3.4823 0.34935 5.5607c-0.69373 4.3384-3.8469 6.8325-10.539 8.336-3.8737 0.87036-7.6393 3.3195-7.6393 4.9685 0 0.90884 6.9288 1.0453 10.088 0.19862 1.2716-0.34074 2.3549-1.5546 2.7077-3.0341 0.85973-3.6051 1.2931-4.0797 2.6766-2.9315 0.90067 0.74749 1.0147 1.8291 0.41368 3.9247-1.1962 4.171-3.5233 6.3342-7.4976 6.9697-3.4746 0.55562-3.484 0.56954-4.2266 6.3139-0.40936 3.1664-0.82256 17.148-0.91823 31.07-0.0957 13.922-0.49051 33.438-0.87742 43.37-0.79197 20.329-0.66166 20.849 5.2266 20.849 4.3249 0 7.0575-3.1539 6.086-7.0244-0.70065-2.7916-3.3667-3.1682-3.3667-0.47558 0 2.6579-3.3732 2.4649-4.0966-0.23438-2.5398-9.4772 2.9506-18.098 12.69-19.925 3.5996-0.67529 10.317 1.57 13.139 4.3916 2.1273 2.1273 2.4204 2.1197 6.1584-0.15941 2.4913-1.519 3.0469-2.4484 3.0469-5.0974 0-1.7818 0.44586-3.5153 0.99079-3.852 1.8507-1.1438 5.5321 0.47582 5.9674 2.6253 1.4589 7.2051 1.3074 6.9842 5.2166 7.6093 3.2806 0.52459 3.7627 0.91618 3.7627 3.0561 0 2.7832-6.2123 9.8512-10.781 12.266-5.4427 2.877-11.763 4.0228-16.128 2.9238-2.2154-0.55784-4.028-1.3507-4.028-1.7618s-1.6767-2.5457-3.726-4.7434c-4.1268-4.4256-3.8264-6.4739 0.94955-6.4739 1.9332 0 3.3927 0.97693 5.574 3.731 5.2336 6.608 13.151 6.9523 18.756 0.81567 3.71-4.062 3.6461-5.5557-0.225-5.2534-2.5397 0.19834-3.0191-0.0719-2.8799-1.6234 0.26545-2.9588-1.5441-3.2582-5.1016-0.844-4.3788 2.9716-9.2264 2.9326-13.347-0.10718-3.8736-2.8578-4.6802-2.8945-7.4246-0.33775-1.7428 1.6236-2.0494 2.6452-1.609 5.3596 0.29931 1.8445 1.4959 4.6332 2.6592 6.1971 2.8973 3.8954 2.7255 12.876-0.3655 19.104l-2.1663 4.3649-7.0312 0.69713c-3.8672 0.38341-7.5057 0.8772-8.0855 1.0973-1.3032 0.49472-2.1264 5.8255-2.6905 17.424-0.5046 10.375-0.20217 11.817 2.6274 12.527 1.1532 0.28945 3.7748 2.504 5.8258 4.9212s5.0989 5.9138 6.7732 7.7701 4.9184 7.172 7.209 11.813c3.6642 7.4233 4.2401 9.4517 4.791 16.875 0.34439 4.6406 1.1697 9.4922 1.8341 10.781 1.3283 2.5772 1.6634 5.0194 1.5068 10.983-0.0786 2.993-0.80973 4.7558-3.0134 7.2656-1.6003 1.8226-3.7306 3.3139-4.734 3.3139-5.3674 0-9.2313 4.6793-9.2313 11.179 0 1.9751-0.57871 4.0714-1.286 4.6584-0.7073 0.58702-1.5358 2.6066-1.8411 4.4879-0.53741 3.3116-1.6974 4.627-14.774 16.752-1.5469 1.4344-9.5188 3.7992-14.443 4.2842-2.8735 0.28309-10.496-1.5547-12.19-2.939-0.51709-0.42258-1.7195-0.19848-2.672 0.498-1.247 0.91182-3.5218 1.1163-8.1258 0.73028-3.5167-0.29484-10.963-0.0478-16.547 0.54886-5.584 0.59671-12.473 1.2413-15.309 1.4325-9.9562 0.67117-12.013 1.4324-15.557 5.7576-5.8299 7.1146-12.93 9.3398-22.825 7.1532-2.2898-0.506-4.6566-1.5948-5.2596-2.4194-0.60303-0.82469-2.202-1.4994-3.5533-1.4994-1.9183 0-2.5808-0.56516-3.0218-2.5781-1.0638-4.8551-3.6092-8.7377-6.0333-9.2031-1.2891-0.24745-4.2636-0.87941-6.61-1.4043-2.3464-0.52494-9.7293-1.0207-16.406-1.1017-10.05-0.12191-12.866 0.1594-16.359 1.6342-3.5174 1.4853-11.422 6.3575-16.726 10.309-2.8412 2.1169-8.5865 8.1072-8.5865 8.9527 0 1.5392-5.2689 6.5161-6.8984 6.5161-0.84652 0-1.5391 0.42187-1.5391 0.9375 0 0.51562-0.63854 0.9375-1.419 0.9375-1.382 0-5.1405 1.7892-6.081 2.8947-0.25781 0.30304-1.3125 0.78252-2.3438 1.0655-1.0312 0.283-2.5197 0.78255-3.3076 1.1101-0.78795 0.32759-1.8426 0.21548-2.3438-0.24913zm11.331-9.9735c6.9109-3.2795 8.8514-5.2194 8.8514-8.8486 0-1.4206-0.60107-1.9366-2.256-1.9366-1.8223 0-2.1581-0.37433-1.7468-1.9471 0.28005-1.0709 1.2952-2.438 2.256-3.038 1.129-0.70504 1.7468-2.1816 1.7468-4.1747v-3.0838l-2.6558 1.9635c-1.9087 1.4112-4.6119 2.1079-9.6094 2.4769-6.1816 0.45638-7.2398 0.28599-9.5317-1.5347-4.7163-3.7468-2.7463-6.1673 2.7053-3.324 1.4769 0.77025 4.7055 1.4031 7.1747 1.4062 3.9317 5e-3 4.9792-0.45109 8.4319-3.6717 4.2527-3.9669 4.1535-6.113-0.1646-3.5622-3.7521 2.2164-12.471 3.0923-16.045 1.6118-2.7542-1.1408-4.6805-3.4293-4.6805-5.5605 0-1.5886 3.5682-1.1574 4.5217 0.54637 0.6851 1.2242 2.1616 1.5098 7.1019 1.3739 7.4405-0.2047 10.383-1.184 11.862-3.9476 0.70039-1.3087 1.1753-8.2218 1.3072-19.029 0.11395-9.3356 0.55503-25.306 0.98018-35.489 0.66793-15.999 0.58607-18.516-0.60225-18.516-0.75639 0-2.1942 0.6194-3.1951 1.3764-2.5437 1.924-15.505 1.922-19.227-3e-3 -2.2036-1.1395-2.878-1.1883-3.2405-0.23438-0.49624 1.3061-0.99778 18.646-0.78055 26.986 0.0739 2.8359-9.3e-4 17.977-0.16619 33.646-0.28127 26.667-0.1849 28.706 1.5063 31.861 2.1674 4.044 2.1854 4.2926 0.4365 6.0415-1.5427 1.5427-0.75162 5.7226 1.8282 9.6599 2.0181 3.08 4.9882 2.8439 13.191-1.0485zm-12.344-7.4308c-0.64606-1.6836 1.1993-5.2295 2.7216-5.2295 0.63127 0 1.7212 0.91824 2.4221 2.0405 1.1142 1.7842 1.0612 2.1964-0.42242 3.2812-2.2067 1.6136-4.0807 1.577-4.7213-0.0923zm9.0377-0.77639c0.0164-1.1602 0.63603-2.9102 1.377-3.8891 1.1139-1.4716 1.5957-1.5734 2.7827-0.58834 2.7446 2.2778 1.1079 6.5868-2.5019 6.5868-1.1338 0-1.6777-0.69208-1.6577-2.1094zm-21.685-3.142c1.0551-1.3414 2.1322-3.7672 2.3934-5.3906 0.59117-3.6732 1.4363-67.847 1.6871-128.11 0.18388-44.179-0.60921-98.668-1.6581-113.92-0.38741-5.6331-0.18683-7.964 0.80169-9.3159 1.3-1.7778 1.3254-1.7776 1.8241 0.0129 0.95907 3.4439 2.4201 11.196 2.4627 13.066 0.17319 7.6174 0.0286 11.046-0.50208 11.905-0.35617 0.57631-0.0669 0.79955 0.6877 0.53085 0.71631-0.25503 3.9893 0.53398 7.2734 1.7534 7.6422 2.8376 11.614 2.8035 16.642-0.1431 3.1887-1.8687 4.1574-3.0535 4.6519-5.6895 0.51583-2.7495 0.27778-3.5723-1.3668-4.7242-2.4095-1.6877-2.613-5.6103-0.41699-8.0369 0.94803-1.0476 1.6584-3.6085 1.7855-6.4367 0.23448-5.219 0.29217-5.2004-7.1099-2.2921-14.83 5.8265-26.722 0.63136-28.696-12.536-0.79268-5.2859-3.0166-8.4225-8.6837-12.247-2.3863-1.6106-6.2372-4.3888-8.5575-6.1738s-5.1741-3.6608-6.3417-4.1686c-1.1676-0.50775-3.277-1.7069-4.6875-2.6649-10.995-7.4672-14.181-9.5444-14.639-9.5444-0.50652 0-9.2278-5.9755-19.549-13.394-2.7167-1.9528-6.416-4.5887-8.2207-5.8576-1.8047-1.269-6.4453-4.8486-10.312-7.9548-6.7546-5.4254-21.987-15.855-32.812-22.468-2.8359-1.7322-6.4219-4.2886-7.9688-5.681s-5.1328-4.0654-7.9688-5.94-6.4219-4.4348-7.9688-5.6892c-5.8954-4.7807-11.38-9.0154-14.817-11.441l-3.5667-2.5167-3.9918 4.1427c-5.2186 5.4158-8.7558 8.2605-12.479 10.036-1.6676 0.79521-3.2157 1.9247-3.4403 2.51s0.0083 3.9965 0.51751 7.5804c0.50924 3.5839 0.88815 8.6256 0.84202 11.204-0.09281 5.1847 2.2407 22.952 3.8764 29.515 0.67702 2.7165 2.4548 5.7068 5.0284 8.4583 7.6792 8.2096 6.1153 12.852-4.3795 12.999-6.648 0.0936-8.6355 1.1966-6.3229 3.5092 0.93512 0.93513 3.8235 1.686 7.675 1.9951 5.452 0.43763 6.2522 0.28862 6.8296-1.2717 0.92417-2.4977 2.2959-3.1867 4.2558-2.1378 1.8891 1.011 2.1913 3.7778 0.71401 6.5382-0.63283 1.1824-0.66177 2.3893-0.0821 3.425 0.6263 1.1192 0.42712 2.4522-0.6635 4.4407-0.86631 1.5795-1.5585 4.9233-1.5585 7.529 0 4.6546-0.0318 4.7039-4.5288 7.0312-2.4908 1.2891-4.8711 2.9766-5.2894 3.75-0.41837 0.77344-0.1022 15.117 0.70261 31.875 2.2232 46.291 1.8384 99.721-0.78985 109.69-0.47593 1.8047-0.86768 7.3696-0.87055 12.367-0.0028 5.0396-0.4227 9.3433-0.94273 9.6647-1.4826 0.91627-1.0938 3.7867 0.73738 5.4439 0.92119 0.83367 4.1907 2.1358 7.2656 2.8936 12.788 3.1516 15.868 4.7604 15.216 7.9482-0.25838 1.2626-1.4832 1.4943-7.0781 1.3389-5.1032-0.14178-6.7656 0.11883-6.7656 1.0606 0 0.68671-1.444 2.3499-3.2088 3.696s-4.796 5.0876-6.736 8.3144-4.5038 7.1724-5.6975 8.7679c-1.1937 1.5956-2.1703 3.3885-2.1703 3.9844 0 1.2584-1.5354 1.4538-2.2565 0.28711-0.27066-0.43794 0.97006-3.8473 2.7572-7.5764 1.7871-3.7291 3.2493-7.3132 3.2493-7.9647 0-0.65151 0.90551-1.9882 2.0122-2.9705 2.4316-2.1581 7.3628-8.7854 7.3628-9.8953 0-0.43827-0.95059-0.79684-2.1124-0.79684-2.6725 0-7.2474-4.7692-7.3425-7.6543-0.03967-1.2042 0.37645-5.9864 0.92472-10.627 1.3669-11.569 1.3442-27.656-0.039038-27.656-1.6651 0-9.2433 3.9889-9.2433 4.8653 0 0.43064-2.4258 2.3326-5.3906 4.2266s-5.9481 3.9982-6.6295 4.6759c-0.68136 0.67771-1.7801 1.2322-2.4416 1.2322-1.3489 0-12.726 12.436-12.726 13.911 0 0.51995-0.99808 2.1379-2.218 3.5954-2.6625 3.1812-7.157 11.871-7.157 13.837 0 1.3918-0.56745 2.884-4.7661 12.534-2.0394 4.6873-2.1035 5.4363-1.1223 13.125 1.1369 8.9092 2.1298 11.386 6.6083 16.487 2.4896 2.8355 3.5857 3.3859 6.7435 3.3859 3.5738 0 3.9165 0.25843 6.5651 4.9515 5.8741 10.408 9.8618 12.114 22.247 9.5145l7.8028-1.6375-0.12797-5.9016c-0.09398-4.3343 0.33957-6.6346 1.6326-8.662 2.5064-3.9299 13.846-12.764 20.78-16.188l5.8941-2.9109-0.577-5.7548c-0.31735-3.1651-0.73705-6.2702-0.93266-6.9002-1.4168-4.5632 5.9604-11.294 17.064-15.569 7.0965-2.7321 9.9177-1.868 18.164 5.5635 7.5662 6.8186 12.004 12.534 12.792 16.473 0.62247 3.1124 7.7143 11.076 9.8796 11.094 0.65811 6e-3 5.4153 2.959 10.572 6.5634s10.948 7.2462 12.87 8.0929c1.9222 0.84672 3.7452 2.3278 4.051 3.2913s3.3737 3.6447 6.8175 5.9583 8.7506 5.9183 11.793 8.0106c3.0423 2.0923 7.1556 4.6327 9.1406 5.6454s3.6091 2.2129 3.6091 2.6671c0 0.73025 5.4693 4.5621 7.9688 5.583 0.51562 0.21061 2.2014 1.272 3.7461 2.3586s4.2869 2.7669 6.0938 3.7338c1.8068 0.96697 3.4961 2.0658 3.7539 2.4418 0.79226 1.1556 6.0026 3.6915 7.6663 3.7312 0.86492 0.0206 2.4359-1.0599 3.491-2.4013zm-183.69-34.159c-1.3648-1.3648-1.7063-2.5587-1.2678-4.4319 0.8871-3.7895 3.2692-8.6576 4.2365-8.6576 0.46445 0 1.6105-1.2597 2.5468-2.7993s3.3559-4.0194 5.3768-5.5106c2.021-1.4912 4.5507-3.5549 5.6215-4.586 2.7624-2.6597 6.0217-3.579 6.0217-1.6985 0 1.4834-1.255 2.8204-6.6594 7.0944-1.63 1.2891-5.0548 4.4357-7.6107 6.9925-4.643 4.6446-4.6465 4.653-4.0423 9.489 0.70505 5.643-1.015 7.3162-4.2231 4.108zm-11.676-0.30278c-3.955-1.1876-5.47-3.8058-2.631-4.5468 2.8112-0.73377 8.2485 1.5632 8.2485 3.4844 0 2.2276-1.0659 2.4292-5.6175 1.0624zm4.342-10.91c-3.8565-0.91112-6.2046-3.1041-5.4446-5.0848 1.3176-3.4336 10.939 0.36817 10.939 4.3224 0 1.8255-0.6266 1.9124-5.4943 0.76243zm0.1037-15.968c-1.1602-0.46633-2.1094-1.199-2.1094-1.6281 0-1.3778 2.1961-3.0302 4.0272-3.0302 2.4217 0 7.2228 2.9386 7.2228 4.4209 0 1.4023-5.8636 1.5546-9.1406 0.23741zm5.3906-12.158c0-2.1468 3.5509-2.6366 5.4375-0.75 1.886 1.886 1.279 2.625-2.1562 2.625-2.6562 0-3.2812-0.35714-3.2812-1.875zm4.6875-6.8687c0-1.6502 2.2658-2.6573 4.2584-1.8926 2.1631 0.83008 1.1011 2.6264-1.7525 2.9642-1.707 0.20208-2.5058-0.13954-2.5058-1.0716zm27.451-14.928c-2.3573-3.0572-6.6466-11.817-7.175-14.653-0.32469-1.7427-2.0665-4.8026-3.8707-6.7996s-3.2803-4.2109-3.2803-4.9197c0-2.1648 2.4786-3.638 4.3952-2.6123 2.5247 1.3512 15.829 28.37 14.583 29.616-0.95339 0.9534-3.7196 0.57799-4.652-0.63135zm171.01-144.34c-1.1808-1.6851-1.6825-1.8746-2.3515-0.88823-0.46775 0.68964-1.8574 1.1115-3.0882 0.9375-1.7784-0.25145-2.2999-0.96628-2.5404-3.4825-0.16647-1.7413 0.0927-3.5614 0.57589-4.0446 1.1069-1.1069 3.9374 1.5779 3.9664 3.7621 0.0161 1.2159 0.43341 1.0408 1.8356-0.77009 2.4357-3.1457 5.1748-1.6443 5.1748 2.8366 0 3.7976-1.562 4.5187-3.5726 1.6493zm8.739-0.25495c-1.2521-1.5087-0.56524-6.1059 0.91227-6.1059 1.4506 0 2.9765 3.6791 2.3476 5.6604-0.69759 2.1979-1.6927 2.3339-3.2599 0.44552zm107.08 240.28c2.1358-0.63988 4.3716-2.1363 5.2529-3.5156 0.84391-1.3208 2.077-2.9688 2.7403-3.6622 0.66323-0.69339 1.8094-2.4277 2.547-3.8541 1.3034-2.5206 8.3447-8.9602 15.953-14.59 2.0592-1.5237 5.6013-4.6744 7.8712-7.0016 4.7399-4.8594 14.166-22.182 14.166-26.033 0-4.3476-1.7076-8.8582-4.4347-11.714-2.2306-2.336-14.34-9.1406-16.267-9.1406-1.0374 0-11.282 10.517-10.757 11.042 0.25925 0.25927 2.2754-1.287 4.4803-3.4362 2.4821-2.4193 4.7194-3.8084 5.8743-3.6473 4.0014 0.55819 2.0691 4.9256-5.0516 11.418-1.7524 1.5977-4.7055 4.5693-6.5625 6.6034-1.857 2.0342-4.2519 4.5654-5.322 5.625s-2.496 3.9304-3.1687 6.3796c-0.67268 2.4492-1.5444 4.4531-1.9371 4.4531-0.39272 0-1.0029 1.1602-1.3559 2.5781-0.86776 3.4855-6.1227 11.22-10.35 15.234-4.1724 3.9619-5.3986 6.7247-5.2529 11.836 0.13739 4.8199-1.4509 6.4085-5.0422 5.0431-2.4397-0.92757-2.5306-1.1855-1.9068-5.4108 0.94692-6.4146 4.6884-12.636 10.792-17.944 4.6526-4.0467 5.7187-5.651 8.2999-12.49 1.6289-4.3158 2.9616-8.3185 2.9616-8.895 0-0.57648 1.8939-3.2668 4.2086-5.9786s4.0498-5.0893 3.8557-5.2833c-1.6065-1.6065-13.932 10.555-16.848 16.623-0.86705 1.8047-4.1334 5.9896-7.2586 9.2997-6.0103 6.3661-7.3502 6.4884-7.3813 0.6741-0.0139-2.5891-0.13665-2.6598-3.53-2.03-1.9336 0.35883-4.1817 1.2495-4.9957 1.9793-0.81404 0.72982-2.0797 1.3309-2.8125 1.3357-2.2016 0.0145-11.176 5.5589-11.176 6.9045 0 1.5433 4.2224 6.2117 5.6182 6.2117 0.56114 0 2.2678-0.92236 3.7926-2.0497 2.6729-1.9762 2.8901-1.9935 6.0558-0.48392 3.0184 1.4394 3.2834 1.8988 3.2834 5.692 0 2.2694 0.71775 6.3486 1.595 9.0649 1.5059 4.6629 1.9117 5.0853 7.2656 7.5646 6.3024 2.9185 9.3061 3.2429 14.797 1.5979zm15.478-26.626c-1.1178-1.1178 1.1811-4.135 3.1506-4.135 1.4416 0 1.8341 0.51495 1.6076 2.1094-0.29235 2.0585-3.4018 3.3822-4.7583 2.0257zm-1.9151-6.6026c-1.2751-1.2751-0.63566-4.0406 1.156-4.9994 2.7287-1.4604 3.0188-1.238 2.6992 2.0687-0.28016 2.8983-2.3295 4.4563-3.8551 2.9307zm-2.5324-10.085c0-0.71631 0.81381-2.2983 1.8085-3.5156 1.4298-1.7498 2.0526-1.9732 2.9746-1.0668 0.89852 0.88336 0.9184 1.6901 0.0866 3.5156-1.1484 2.5205-4.8697 3.3357-4.8697 1.0668zm-234.97 41.137c2.2173-2.2173 1.998-9.5249-0.40403-13.465-2.0027-3.285-1.859-5.7444 0.33558-5.7444 1.8288 0 5.1036 3.7895 5.8403 6.7584 1.718 6.923 6.437 3.6861 7.2758-4.9908 0.44614-4.6152 0.20121-5.7241-1.9885-9.0019-1.3735-2.0561-3.7629-4.834-5.3098-6.1731-2.7707-2.3985-2.7894-2.4762-1.2566-5.2234 1.8399-3.2975 1.4693-3.8693-2.5075-3.8693-2.4408 0-3.8604-0.97365-7.8125-5.3581-2.6563-2.9469-4.8297-5.9446-4.8297-6.6615 0-0.71691-1.0436-2.5437-2.3191-4.0596s-2.749-4.3525-3.2743-6.3036c-0.89021-3.306-3.6125-6.8421-11.725-15.23-4.6336-4.791-9.4369-5.4653-16.013-2.2478-8.9276 4.3678-9.7982 5.4413-9.7633 12.038 0.0172 3.2467 0.82757 8.057 1.8444 10.948 0.99758 2.8359 1.8276 6.5153 1.8444 8.1764 0.0622 6.1363 7.0348 18.132 11.332 19.496 1.0142 0.32191 2.4831 1.821 3.2642 3.3314s2.0113 2.7461 2.734 2.7461c2.493 0 6.9776 6.7292 8.0845 12.131 1.5402 7.5165 3.3002 11.302 5.2712 11.336 0.92866 0.0164 2.3782 0.5548 3.2213 1.1964 0.84307 0.64163 4.4785 1.2869 8.0787 1.4339 5.0637 0.20673 6.8925-0.0793 8.0765-1.2634zm-8.5616-23.681c-1.4613-1.4284-3.3686-4.3759-4.2384-6.5498-0.86985-2.174-2.458-4.8291-3.5292-5.9004-1.6577-1.6577-1.9086-2.9065-1.6848-8.3866 0.20394-4.9953-0.0923-6.8314-1.3215-8.1896-0.87141-0.96291-2.234-3.5918-3.0279-5.842-0.79391-2.2502-1.8717-4.6073-2.3951-5.238-1.4821-1.7858-5.5774-10.137-5.5818-11.382-7e-3 -2.0755 1.7491-2.2173 3.5479-0.2864 0.98375 1.0559 3.6284 5.6004 5.877 10.099 2.2486 4.4985 4.8925 9.3671 5.8753 10.819 1.1093 1.639 1.891 4.661 2.0613 7.9688 0.18021 3.5002 1.1081 6.9109 2.7044 9.9405 1.3365 2.5366 2.4301 5.1055 2.4301 5.7087s1.4766 2.4404 3.2812 4.0826c3.6379 3.3104 3.9953 4.3408 1.7983 5.1838-2.3935 0.91847-2.9993 0.70653-5.7968-2.0281zm-27.877-11.465c0.31868-0.51563 0.97639-0.9375 1.4616-0.9375s0.88217 0.42187 0.88217 0.9375c0 0.51562-0.65771 0.9375-1.4616 0.9375s-1.2008-0.42188-0.88217-0.9375zm5.6571-3.6981c-0.90493-1.4642 0.28572-2.8644 2.4357-2.8644 1.2891 0 1.7888 0.51726 1.5745 1.6299-0.35975 1.868-3.0978 2.7109-4.0103 1.2346zm6.2023-6.5675c0.20625-0.61875 0.68086-1.0934 1.0547-1.0547 1.121 0.11596 0.90388 1.4018-0.30468 1.8047-0.61875 0.20626-0.95625-0.13124-0.75001-0.75zm338.27 33.063c3.034-1.9429 8.4866-7.5216 10.624-10.87 3.1421-4.9218 5.5907-14.764 4.9754-20-0.70655-6.0117-0.10919-6.5406 8.0942-7.1665 3.4803-0.26552 7.3577-1.1576 8.6164-1.9823 2.1221-1.3905 2.2544-1.9267 1.8184-7.3736-0.25858-3.2307-0.86409-7.3506-1.3456-9.1553-0.4815-1.8047-0.88238-4.7578-0.89083-6.5625-0.0348-7.4338-7.8721-24.44-13.825-30-1.9324-1.8047-4.6224-4.7081-5.9779-6.452l-2.4645-3.1708-1.0264 3.1708c-0.60463 1.8678-0.82669 6.6381-0.54037 11.608 0.35142 6.1001 0.0448 10.326-1.1068 15.254-1.3907 5.9512-2.1819 7.415-6.2327 11.53-4.5359 4.6081-6.9168 5.4778-6.6631 2.434 0.22183-2.661-5.3249-2.9197-11.982-0.55877-3.2764 1.162-6.3579 2.4663-6.8477 2.8985-0.48985 0.43218-2.5247 0.7858-4.5219 0.7858-2.926 0-3.5711-0.31238-3.3215-1.6084 0.17036-0.88462 1.3614-2.1354 2.6469-2.7795 12.764-6.3955 12.441-6.2951 19.681-6.1292 3.8672 0.0886 7.9383-0.0375 9.0469-0.28026 2.2591-0.49466 4.0781-4.6619 4.0781-9.3426 0-3.5941-0.63603-4.3847-2.6792-3.3302-0.84676 0.43701-3.227 1.2437-5.2896 1.7926s-6.0561 2.4868-8.8746 4.3065-5.9826 3.3118-7.0312 3.3158c-3.2953 0.0126-13.943 5.9286-15.419 8.5674-1.2 2.1447-1.2198 3.5173-0.14633 10.128 1.2296 7.5714 1.216 7.7085-1.3851 13.925-1.4448 3.4532-3.1861 7.1108-3.8696 8.1278-0.6835 1.0171-1.2427 2.7564-1.2427 3.8652 0 3.0135 3.5862 10.538 5.5141 11.57 0.92808 0.49669 5.2576 0.90308 9.6211 0.90308 12.478 0 15.802 2.2533 15.802 10.712v4.5757l4.8997-0.59677c2.6948-0.32823 5.9644-1.2786 7.2656-2.1119zm-10.279-0.29074c-1.1043-0.68251-1.1139-1.2262-0.061-3.4552 4.3136-9.1324 2.0533-20.414-4.8694-24.304-2.9776-1.6731-12.96-11.891-12.619-12.916 0.75487-2.2675 3.3668-1.39 9.354 3.1424 10.791 8.169 13.397 11.15 15.183 17.37 0.88859 3.0938 2.0493 6.1523 2.5793 6.7969 0.6623 0.8054 0.65562 1.1719-0.0214 1.1719-0.54178 0-1.4911 2.2612-2.1096 5.0249-1.2092 5.4032-4.7582 8.8247-7.4366 7.1694zm18.346-44.884c-0.57008-0.92242 5.1079-7.0697 7.9202-8.5748 1.534-0.82098 1.8477-0.68969 1.8477 0.7733 0 2.0488-3.3111 6.0455-6.2665 7.5641-2.4637 1.266-2.8496 1.2921-3.5014 0.23741zm-6.8727-6.3686c-0.64453-0.26007-1.1719-1.2008-1.1719-2.0906 0-2.6741 2.1392-4.5304 5.8594-5.0845 3.0564-0.45525 3.5156-0.28086 3.5156 1.335 0 2.1179-3.9894 6.4983-5.8168 6.3869-0.66796-0.0407-1.7418-0.2868-2.3864-0.54687zm-34.677 50.308c1.9241-1.0312 4.5546-1.875 5.8455-1.875 1.4613 0 2.3471-0.53071 2.3471-1.4062 0-1.8492-7.5663-1.8955-15.938-0.0976-7.7884 1.6727-9.3746 2.3407-9.3746 3.9479 0 2.1849 12.774 1.7603 17.12-0.56905zm-252.9-12.514c0-1.0802-1.5881-2.6163-4.2188-4.0806-2.3203-1.2916-4.8848-2.9378-5.6988-3.6584-1.756-1.5543-5.5512-1.7476-5.5512-0.28287 0 2.3222 3.9434 6.4728 6.1496 6.4728 1.2742 0 2.7901 0.83838 3.4518 1.909 1.5154 2.452 5.8673 2.1849 5.8673-0.36005zm-103.36-1.7834c3.2562-1.5348 4.2532-4.0686 3.412-8.6719-0.3769-2.0625-0.45915-4.8047-0.18279-6.0938 0.45849-2.1386 0.1599-2.0096-3.4108 1.4737-3.329 3.2476-3.9686 4.4963-4.2838 8.3647-0.52286 6.4166 0.02438 7.0204 4.4654 4.9272zm22.051-0.58985c2.4858-1.3304 2.76-2.321 0.44602-1.6116-0.90235 0.27664-3.3281 0.0617-5.3906-0.47765-6.49-1.6971-10.781-0.67836-10.781 2.5595 0 1.6214 12.517 1.2471 15.726-0.47022zm177.27-71.212 2.8765-2.4947 0.2694-25.079c0.14818-13.793-0.0229-25.078-0.38013-25.078-0.35724 3e-4 -2.0447 0.80425-3.75 1.7866-3.2007 1.8438-10.119 3.4053-13.413 3.0272-2.9532-0.33901-7.0312-2.1412-7.0312-3.1074 0-0.4835-0.42188-0.61835-0.9375-0.29968-0.51563 0.31867-0.9375 2.6639-0.9375 5.2116 0 3.5458 0.33858 4.6322 1.4436 4.6322 0.79398 0 3.0975 0.84375 5.1189 1.875 4.9643 2.5326 9.3038 2.382 13.505-0.46875 1.8995-1.2891 3.8568-2.3438 4.3496-2.3438 1.7749 0 0.84034 2.5149-1.9157 5.1553-3.5848 3.4344-11.883 4.3581-17.818 1.9833-4.4086-1.764-4.7187-1.4204-4.5577 5.0489 0.0577 2.3203-0.10203 10.758-0.35501 18.75-0.32624 10.306-0.18169 13.918 0.49711 12.422 1.1399-2.5123 4.0472-2.7379 6.514-0.50541 1.7537 1.5871 9.1266 3.0059 12.104 2.3294 0.8479-0.19264 2.836-1.4729 4.4181-2.8449zm-16.741-8.3328c-4.5002-0.81903-7.8265-5.8806-3.8645-5.8806 0.96828 0 3.3643 0.67013 5.3246 1.4892 3.3971 1.4194 6.7931 1.3914 11.431-0.0945 1.6144-0.51726 2.1094-0.309 2.1094 0.88759 0 3.0658-7.7333 4.9209-15 3.5984zm10.132-44.45c2.4197-0.5883 5.0323-1.5879 5.8058-2.2214 0.77344-0.63347 1.9338-1.3124 2.5786-1.5086 0.89301-0.27184 1.2862-7.5041 1.6503-30.357 0.26292-16.5 0.68908-31.476 0.94702-33.281 0.71015-4.9686-0.3735-5.969-4.5673-4.2168-1.9101 0.7981-5.0433 1.4891-6.9627 1.5356-5.2428 0.12691-15.193-1.2237-15.759-2.139-1.8695-3.0249-2.2127 1.3772-1.8361 23.548 0.22752 13.394 0.71338 26.999 1.0797 30.234s0.74198 7.5694 0.83475 9.6319c0.34319 7.6294 0.39612 7.8132 2.1207 7.3622 0.90658-0.23708 3.1214 0.20779 4.9219 0.98857 4.0149 1.7411 3.8062 1.7315 9.1866 0.42339zm-10.364-9.0942c-1.417-0.8552-2.5772-2.3411-2.5781-3.3019-2e-3 -1.4848 0.45564-1.6456 3.0452-1.0712 4.3214 0.95855 11.193 1.0146 13.125 0.10699 3.0839-1.4486 1.7906 1.9969-1.5169 4.041-3.7263 2.303-8.4852 2.3917-12.075 0.22512zm-3.3668-48.474c-1.5625-3.4294-1.4007-7.9246 0.28528-7.9246 1.896 0 3.3142 2.9824 3.3142 6.9696 0 3.9855-1.9794 4.5107-3.5995 0.95502zm5.1061-0.97007c-1.2564-3.2741-0.64572-5.2209 1.5403-4.9104 1.6167 0.22961 2.178 1.0112 2.4032 3.3465 0.24098 2.4993-0.0358 3.0469-1.5403 3.0469-1.0088 0-2.0902-0.66731-2.4032-1.4829zm9.0403-1.013c-1.8996-0.76652-1.3447-2.7494 1.0784-3.8534 2.501-1.1396 3.3748-0.69481 3.3748 1.7178 0 1.2507-2.1819 3.1245-3.1236 2.6825-0.0867-0.0407-0.68504-0.2868-1.3296-0.54687zm219.22 54.635c1.8184-0.40136 2.6961-1.4451 3.5156-4.1803 1.4616-4.8782 1.3758-6.7091-0.31407-6.7091-0.77344 0-1.4062 0.34373-1.4062 0.76387 0 1.1584-6.1159 3.83-10.299 4.499-2.5514 0.40799-3.8944 1.1725-4.299 2.4471-0.76581 2.4129 0.2655 3.3224 4.2854 3.7794 3.3812 0.38434 4.375 0.31433 8.5172-0.59997zm-212.6-122.17c2.7487-3.8632 2.7063-4.7515-0.14202-2.9727-1.4606 0.91218-2.417 0.94125-4.0757 0.12389-1.192-0.58739-3.1164-1.3338-4.2766-1.6588-2.318-0.6493-2.767-2.5409-0.9375-3.95 0.64454-0.49641 4.2305-0.93104 7.9688-0.96584 5.7182-0.0532 6.8016 0.18337 6.8267 1.4909 0.0251 1.3096 0.24901 1.2591 1.4225-0.32083 5.615-7.5595 14.224-17.344 15.26-17.344 0.68929 0 5.6562-2.6367 11.038-5.8594 5.3813-3.2227 13.448-8.0154 17.927-10.65 10.844-6.3808 11.02-7.303 1.2847-6.7394-8.5847 0.49697-10.681 1.5976-8.2202 4.3165 2.1808 2.4097 1.9625 3.9327-0.56355 3.9327-2.0831 0-5.8274-2.0868-7.7086-4.2963-1.7416-2.0454-7.9356-2.3332-10.643-0.49462-1.3649 0.92679-4.2746 2.8631-6.466 4.303-2.1914 1.4398-3.9844 2.9824-3.9844 3.4279 0 1.1112 1.6331 1.0224 2.3438-0.1275 1.1586-1.8746 4.0898-0.86317 6.9548 2.3999 3.4728 3.9552 3.0382 5.2582-1.6331 4.897-3.3573-0.25961-3.4285-0.19648-3.1359 2.7812 0.16464 1.6758-0.0477 3.0469-0.47192 3.0469-0.4242 0-2.7584-2.1614-5.187-4.8031-3.2997-3.5892-4.8405-4.6394-6.0963-4.1553-0.92429 0.35633-3.579 1.1259-5.8993 1.7101-5.3673 1.3515-6.5625 2.2621-6.5625 5.0003 0 3.3143-2.8361 9.7479-4.2971 9.7479-1.4713 0-0.97462-4.0216 1.143-9.2551 1.6636-4.1115 1.6859-4.043-1.2044-3.6978-2.8402 0.33924-3.1787 0.88244-5.7351 9.2029-1.2642 4.1147-2.4085 6.2006-3.5234 6.4227-1.3363 0.26621-1.526-0.0913-0.99497-1.875 1.0221-3.433 3.3607-14.246 3.1141-14.399-0.12151-0.0755-1.6183-0.694-3.3262-1.3745-3.0395-1.211-3.1934-1.1507-7.2656 2.8459-2.2882 2.2457-4.1604 4.413-4.1604 4.8162 0 0.40319 4.4793 5.5588 9.954 11.457 5.4747 5.8981 10.742 12.019 11.705 13.603 2.5601 4.2098 6.3212 3.9795 9.5697-0.58613zm-195.09-1.1205c1.2952-0.49243 2.5975-1.823 2.894-2.9568 0.53018-2.0274 0.40715-2.0545-7.4496-1.6422-5.5294 0.29022-8.2478 0.83053-8.8306 1.7552-1.6532 2.6231 8.3674 4.7519 13.386 2.8438zm165.74-2.5352c0-2.6999-9.9696-12.107-15.503-14.628-1.2701-0.57868-2.3092-1.3551-2.3092-1.7254 0-1.0702-5.6135-3.1051-6.3582-2.3048-0.37019 0.39781-0.17269 0.90264 0.4389 1.1218 1.752 0.62797 12.716 8.0747 14.563 9.8916 0.91757 0.90234 1.6645 1.957 1.6598 2.3438-0.01 0.83025 5.7842 5.7975 6.8053 5.8342 0.38672 0.0139 0.70313-0.2261 0.70313-0.53326zm239.34-1.2447c2.5493-0.96923 3.6929-3.088 2.851-5.2819-0.35033-0.91294-1.1298-1.2249-2.08-0.83239-0.83581 0.34526-3.5672 1.1866-6.0698 1.8696-5.3199 1.452-5.7088 1.7387-4.9701 3.6637 0.6334 1.6506 6.5719 1.9866 10.269 0.58099zm-251.53-1.9895c-1.2891-1.0318-4.0312-3.0504-6.0938-4.4858s-5.8594-4.096-8.4375-5.9125c-4.6319-3.2634-9.8438-5.2992-9.8438-3.8449 0 0.41241 1.1602 1.2731 2.5781 1.9127 5.6091 2.5301 12.274 6.5347 14.849 8.9226 1.4906 1.3822 3.1903 2.5131 3.7769 2.5131 0.58666 0 1.5918 0.63281 2.2337 1.4062s1.6428 1.3969 2.2242 1.3854c0.5814-0.0114 3e-3 -0.86503-1.2867-1.8968zm250.97-8.8988c2.7437-1.7977 2.9034-5.121 0.24603-5.121-1.0518 0-3.583 0.85233-5.625 1.894-3.5288 1.8003-4.5528 3.5158-3.016 5.0526 0.94878 0.94878 5.7563-0.0967 8.395-1.8256zm-411.34-7.8764c1.1696-0.7401 1.1696-1.0643 0-2.4746-0.74029-0.89261-2.7171-2.196-4.3928-2.8965-1.6758-0.70049-3.0469-1.9524-3.0469-2.7821 0-1.2346-0.25534-1.2966-1.4062-0.34138-2.1364 1.773-1.7566 6.2108 0.67735 7.9156 2.3108 1.6185 6.1012 1.8872 8.1686 0.579zm133.19-0.0571c0-0.51563-0.34233-0.9375-0.76073-0.9375-0.41839 0-1.5786-0.73828-2.5781-1.6406-3.6024-3.252-9.7136-6.9773-10.834-6.604-0.62901 0.20967 0.72044 1.496 2.9988 2.8585s5.408 3.5385 6.9549 4.8355c3.0372 2.5466 4.2188 2.9634 4.2188 1.4882zm277.12-3.2891c2.2926-2.2926 2.3327-4.2409 0.086-4.1813-1.4677 0.0389-6.2728 4.2907-6.2728 5.5504 0 1.8378 3.8267 0.99102 6.1868-1.3691zm-267.75 0.86126c0-0.84658-4.0892-4.0682-5.2085-4.1035-0.54436-0.0172-2.4428-1.1192-4.2188-2.449s-5.2896-3.5446-7.8081-4.9219c-2.5185-1.3772-5.5617-3.047-6.7626-3.7107-2.9721-1.6424-14.469-9.171-16.783-10.99-1.0312-0.81066-4.5855-3.2496-7.8984-5.4199-10.752-7.0439-11.944-7.9692-15.261-11.844-1.7989-2.1016-3.5811-3.8211-3.9605-3.8211-0.37939 0-2.4483-1.3997-4.5976-3.1105s-6.2281-4.5352-9.064-6.2764-7.1182-4.6657-9.5161-6.4989c-2.3979-1.8331-5.562-4.0636-7.0312-4.9565-15.803-9.6042-25.134-16.145-31.265-21.916-3.9808-3.7469-5.4248-4.4911-8.2031-4.2277-1.672 0.15848-1.4563 1.9861 0.23437 1.9861 0.77344 0 1.4062 0.37602 1.4062 0.83559 0 0.45959 2.3625 3.1981 5.25 6.0856 4.5542 4.5542 13.163 10.621 22.057 15.544 1.4323 0.79278 6.3156 4.3782 10.852 7.9675 4.5361 3.5894 9.5131 7.1842 11.06 7.9885s5.1328 3.1968 7.9688 5.3167 8.1094 5.4244 11.719 7.3433c3.6094 1.9189 9.0364 5.1327 12.06 7.1416s5.6603 3.6526 5.8594 3.6526c0.19906 0 1.1423 0.73828 2.096 1.6406 2.7776 2.6279 5.1051 4.4033 11.187 8.5337 3.1417 2.1335 5.9668 4.291 6.278 4.7945 0.31114 0.50345 2.3412 1.7684 4.5113 2.8109s5.0278 2.6366 6.3505 3.5423c6.4908 4.4445 8.9627 5.8592 10.251 5.867 0.77344 5e-3 2.6719 0.81914 4.2188 1.81 2.9542 1.8923 4.2188 2.3077 4.2188 1.3857zm28.178-4.3436c2.3844-2.6106 3.6108-5.4161 2.3676-5.4161-0.21565 0-1.0594-0.25607-1.875-0.56905-0.92287-0.35412-1.4829-0.06664-1.4829 0.7612 0 0.73163-1.2515 2.2556-2.7812 3.3865-1.7275 1.2772-2.5775 2.5871-2.2434 3.4576 0.85533 2.229 3.0358 1.6417 6.015-1.6201zm32.362-4.2264c0.99192-0.50908 3.2648-1.2034 5.0508-1.543 3.0331-0.57673 8.4714-4.6753 8.4714-6.3846 0-1.4514-2.966-0.75121-7.1129 1.6791-3.9397 2.3088-4.7005 2.4179-14.031 2.0118-10.051-0.43741-14.481-0.089-14.481 1.1389 0 0.63737 5.2269 3.1475 8.4375 4.052 2.396 0.675 11.766 0.0207 13.665-0.95422zm-38.654-0.95533c1.6264-0.90234 3.1198-1.7329 3.3185-1.8457s-0.27748-1.1801-1.0583-2.3718c-1.6396-2.5023-9.2102-4.7787-15.573-4.6825-6.6997 0.10128-6.5932 1.4679 0.47929 6.1498 7.2147 4.7761 8.6336 5.0802 12.833 2.7502zm41.566-6.0352c-0.29927-0.74787-0.52142-0.52573-0.5664 0.56641-0.0407 0.98827 0.18087 1.542 0.49239 1.2305 0.31152-0.31153 0.34482-1.1201 0.074-1.7969zm-284.47-3.3398c5.0769-4.5715 13.826-16.717 13.826-19.192 0-0.76294 0.46917-2.733 1.0426-4.378 1.3848-3.9725 9.8336-9.4765 14.547-9.4765 3.4117 0 3.8057 0.25124 11.456 7.3054 4.7539 4.3834 8.1971 5.1726 13.063 2.9943 1.9276-0.86301 5.1879-1.8837 7.2452-2.2683 4.399-0.82226 6.0843-2.0121 6.0843-4.2959 0-2.0739-2.6339-3.1758-4.2953-1.797-0.68483 0.56836-4.7889 1.2509-9.1202 1.5168-8.8491 0.54321-11.544-0.35614-17.759-5.9268-3.1354-2.8102-4.1082-3.1535-8.9379-3.1535-4.5969 0-6.1913 0.49722-10.504 3.2756-5.6633 3.6486-5.9683 4.0532-8.4125 11.157-0.95023 2.7619-2.5067 5.9486-3.4589 7.0815-2.2253 2.6478-8.1397 6.6197-13.216 8.875-2.1914 0.97371-3.9844 2.1091-3.9844 2.523s1.5165 1.0371 3.3699 1.3848c3.0065 0.56402 3.3241 0.89716 2.9451 3.0894-0.23365 1.3514-0.74055 3.1954-1.1265 4.0978-1.3312 3.1128 2.1635 1.7543 7.2351-2.8125zm185.86 3.5156c-0.31868-0.51563-1.0819-0.93104-1.696-0.92315-0.67088 8e-3 -0.55525 0.37709 0.28971 0.92315 1.801 1.1639 2.1256 1.1639 1.4062 0zm98.744-1.4656c1.6158-0.80609 3.1631-1.83 3.4383-2.2754 0.27524-0.44535 2.0766-1.2893 4.003-1.8754s6.0338-2.3168 9.1276-3.8461c8.2427-4.0744 14.715-13.114 17.389-24.288 1.4581-6.0918 1.9102-6.7132 5.8551-8.0487 2.4238-0.82049 3.0963-1.635 3.4743-4.2081 0.54872-3.735 2.9625-4.684 5.6735-2.2305 2.4459 2.2135 7.9042 1.24 11.303-2.016 3.3185-3.1794 5.7733-13.046 4.6409-18.653-0.9681-4.7938-1.9124-7.0312-2.9675-7.0312-0.46046 0-0.8372-0.63281-0.8372-1.4062 0-2.1152 2.6122-1.6918 5.1367 0.83275 3.39 3.39 3.8163 7.8816 1.5896 16.748-1.0614 4.2264-1.8022 7.8118-1.6463 7.9678 0.15593 0.15592 1.5025-1.31 2.9924-3.2576 2.1767-2.8454 2.7109-4.4948 2.7194-8.3954 0.0113-5.2057 0.95982-7.1918 2.3698-4.9623 1.4882 2.3531 0.98906 9.2497-0.94358 13.038-2.1462 4.2068-7.9644 7.8417-15.32 9.5708-4.791 1.1262-4.9174 1.2469-8.0845 7.714-3.4825 7.1111-4.094 10.438-2.2064 12.004 0.66281 0.55008 1.2192 1.4758 1.2363 2.0572 0.0412 1.3972 2.684 4.4711 5.568 6.4766 1.6347 1.1367 1.8758 1.6118 0.81791 1.6118-0.82503 0-2.0252-0.63281-2.6671-1.4062s-2.1398-1.4062-3.3287-1.4062c-1.7703 0-2.5233-0.96667-4.1595-5.3399-2.2932-6.1292-2.0031-8.2956 1.8822-14.052 1.4828-2.1971 2.2978-4.2408 1.8112-4.5416-0.48663-0.30075-1.3632 0.50314-1.9479 1.7864-0.5847 1.2833-2.1993 2.8039-3.5881 3.3791-1.979 0.81974-2.5353 1.6949-2.5729 4.0477-0.0263 1.651-0.36629 4.7859-0.75545 6.9665-0.74598 4.1798 1.1008 8.6917 3.5577 8.6917 1.1157 0 12.942 4.6243 17.241 6.7414 1.1254 0.55423 2.7892 0.72257 3.6974 0.37406 1.4025-0.53817 1.2001-0.90796-1.343-2.4545-1.6468-1.0015-2.9942-2.2409-2.9942-2.7543 0-1.3138 4.2334-2.2239 7.0528-1.5162 1.8942 0.47541 2.5241 0.16886 3.1621-1.539 0.72409-1.938 0.42573-2.2299-3.2699-3.199-2.2367-0.58648-5.4526-1.885-7.1465-2.8856-2.6745-1.5798-3.0713-2.3031-3.0152-5.4962 0.0871-4.9579 4.2712-11.23 8.401-12.592 5.2498-1.7326 11.296-7.0123 13.05-11.396 1.2494-3.1226 1.461-5.4152 0.96016-10.403-0.92714-9.2321-3.402-13.315-10.288-16.971-12.803-6.7987-15.747-10.26-16.852-19.815-0.37996-3.2855-0.114-5.4906 0.88924-7.3728 1.8785-3.5242 1.8072-5.0909-0.44367-9.7496-1.0312-2.1344-1.875-4.2957-1.875-4.8027 0-0.50706-4.0078-4.9954-8.9062-9.9741-8.0656-8.1978-10.013-11.213-8.33-12.896 0.97909-0.9791 4.7421 2.0518 7.2472 5.8372 1.3125 1.9833 4.0695 4.8102 6.1266 6.2819 2.3074 1.6507 5.1874 5.2141 7.5178 9.3013 3.1585 5.5396 3.8057 7.5637 3.9493 12.351 0.12298 4.0986-0.24063 6.1377-1.2798 7.1768-2.9967 2.9967 0.3127 10.42 7.091 15.907 4.2185 3.4143 5.3688 2.7202 2.4004-1.4485-1.9632-2.757-2.261-4.4675-2.7574-15.837-0.53676-12.294-0.67936-12.994-4.0115-19.698-4.2198-8.4895-11.563-16.529-18.262-19.993-2.751-1.4226-4.53-4.7851-3.7576-7.1022 0.52494-1.5748 14.905 8.7625 18.969 13.636 2.0087 2.4089 4.6689 6.4876 5.9117 9.0638s2.4484 4.4952 2.6791 4.2645c0.23071-0.23071 0.14948-2.3892-0.1805-4.7967-0.4849-3.5378-1.4861-5.3201-5.2205-9.2938-2.5413-2.7041-5.2128-6.0307-5.9368-7.3924-1.5759-2.9643-8.5772-8.3054-10.887-8.3054-0.90405 0-2.0372-0.70303-2.518-1.5623-0.59747-1.0676-1.982-1.5206-4.3728-1.4308-5.9407 0.22333-9.7657-3.5135-5.1092-4.9914 1.5395-0.48861 1.7034-0.87698 0.81968-1.9418-0.94251-1.1357-1.5726-1.0419-4.2919 0.63876-4.0108 2.4788-6.3914 1.7905-5.54-1.6018 0.65627-2.6148-1.4806-6.9232-3.4337-6.9232-0.83418 0-0.82891 0.27448 0.0217 1.125 1.5307 1.5307 1.4153 4.6953-0.25144 6.8989-0.75703 1.0009-1.3898 2.5332-1.4062 3.4051-0.0593 3.1577-2.0532 2.7089-5.6538-1.2725-2.0208-2.2345-3.6915-4.3441-3.7126-4.6878-0.0212-0.34375 1.1217-1.0173 2.5397-1.4969l2.5781-0.87186-4.6875-2.1715c-3.2542-1.5075-6.551-2.202-10.781-2.2714-3.3516-0.054951-6.7266-0.50319-7.5-0.99608-2.6379-1.6811-19.657-1.6996-27.656-0.030062-4.125 0.86087-9.3507 1.7205-11.613 1.9103-5.4872 0.46037-13.773 3.8304-18.387 7.479-2.0625 1.6307-5.0156 3.7109-6.5625 4.6228-5.1556 3.0392-18.702 23.583-20.314 30.808-0.48538 2.1753-2.5618 7.3301-4.6143 11.455-2.4497 4.9233-4.0605 9.7546-4.6886 14.062-0.52626 3.6094-1.5661 9.163-2.3108 12.341-1.9713 8.414-1.9655 8.4798 1.827 20.597 0.8286 2.6473 1.5065 5.681 1.5065 6.7416s0.42187 2.189 0.9375 2.5076c1.1126 0.68765 1.2765-2.0133 0.96014-15.824-0.16721-7.299 0.0629-10.015 0.80935-9.554 0.57366 0.35453 1.043 1.6877 1.043 2.9626s0.89058 4.9414 1.9791 8.1478c3.2011 9.4297 1.548 21.885-3.8222 28.799-6.119 7.877-6.891 23.438-1.1627 23.438 0.79861 0 2.118 0.56143 2.9321 1.2476 0.81404 0.6862 3.4892 2.3946 5.9448 3.7964 3.9905 2.278 4.5291 2.3811 5.0704 0.97057 0.42745-1.1139-0.69866-2.7929-3.8282-5.7077-4.024-3.7479-4.3736-4.4078-3.783-7.1401 1.3562-6.2739 4.9636-11.673 10.728-16.057 4.3995-3.3458 5.8003-4.0054 6.2145-2.926 0.61311 1.5977-3.0816 6.6929-5.4657 7.5374-2.8101 0.99545-6.1722 5.9002-6.8681 10.019-0.64756 3.8329-0.51917 4.131 3.2017 7.4329 3.1576 2.8021 3.9227 4.1323 4.1264 7.1744 0.3012 4.498 1.6905 6.3466 5.9191 7.8757 1.7541 0.63428 3.1892 1.4226 3.1892 1.7519s1.0747 1.0884 2.3883 1.6869c2.1118 0.96219 2.6597 0.7954 4.7319-1.4406 1.5024-1.6211 2.2435-3.3863 2.0648-4.9178-0.23944-2.0517-0.9132-2.5043-4.772-3.2052-3.8103-0.69206-4.9895-1.466-7.7582-5.0921-4.1198-5.3955-4.6605-7.6023-3.079-12.565 1.1411-3.581 4.7904-7.2403 8.4307-8.4538 1.7535-0.58448 2.3376-14.99 0.77449-19.101-0.47848-1.2585-1.8273-3.5825-2.9974-5.1644-1.5244-2.061-2.3035-4.781-2.7486-9.5958-0.34165-3.6957-0.92864-8.7659-1.3044-11.267-0.60949-4.0566-0.50287-4.5119 0.98784-4.2188 1.0141 0.19943 2.1076 1.803 2.7814 4.0786 0.61067 2.0625 1.6419 4.7389 2.2917 5.9476 1.4269 2.6544 8.3251 5.892 11.041 5.1819 2.9961-0.78351 3.4696 1.2449 0.71228 3.0516-2.0974 1.3742-2.916 1.4396-5.6494 0.45123-5.7338-2.0734-6.9439 1.4638-2.3074 6.7445 6.2238 7.0886 6.1215 16.729-0.27171 25.596-3.5543 4.9298-4.6746 8.8087-2.544 8.8087 0.41768 0 0.97951 0.84162 1.2485 1.8703 0.67833 2.5939 3.2226 3.3404 5.221 1.5319 1.5528-1.4052 1.8428-1.33 4.0807 1.0582 1.325 1.414 3.2614 4.2728 4.303 6.3529 1.0417 2.0801 4.6313 6.5464 7.977 9.9252 6.3872 6.4503 5.3673 5.9623 21.273 10.18 1.8047 0.47852 4.125 0.69097 5.1562 0.4721 6.1669-1.3088 9.3292-1.3287 11.249-0.0707 1.136 0.74437 3.4994 1.5282 5.2519 1.7419 1.7525 0.21369 3.227 0.45603 3.2767 0.53855 0.0497 0.0825 1.4124-0.50949 3.0282-1.3156zm-9.5982-11.525c-1.0116-1.6368 0.47039-3.6817 3.0216-4.1694 1.3804-0.26388 2.8102-0.29412 3.1773-0.0672 1.0546 0.6518-0.16011 2.924-1.8936 3.542-0.86668 0.30895-2.0645 0.79467-2.6617 1.0794s-1.3369 0.11156-1.6437-0.38475zm-4.3016-7.4466c0-1.5172 2.3168-3 4.6875-3s4.6875-1.4828 4.6875-3c0-1.5303-4.6235-0.67717-8.5762 1.5824-4.9775 2.8455-9.2363 3.1362-9.2363 0.63054 0-2.062 2.0715-3.0844 10.784-5.3223 8.0161-2.0592 13.591-1.424 13.591 1.5484 0 2.3444-3.5008 5.4248-6.2133 5.4672-1.097 0.0172-2.5198 0.664-3.1617 1.4374-1.205 1.4519-6.5625 1.9877-6.5625 0.65625zm-89.812-8.8125c-1.2992-1.2992-1.5334-9.762-0.29136-10.53 0.45851-0.28338 1.0954-1.5581 1.4153-2.8328 0.31991-1.2746 2.1596-4.4562 4.0882-7.0701 2.9505-3.9989 3.8641-4.6649 5.7614-4.1994 4.8074 1.1793 5.1584-5.7483 0.79205-15.629-2.8082-6.355-3.0331-7.5927-2.871-15.801 0.17736-8.9822 2.7966-21.616 4.6066-22.219 0.6114-0.2038 0.92698 5.2354 0.89381 15.405-0.0491 15.067 0.0558 15.98 2.5268 21.974 2.9911 7.2554 3.2261 11.453 0.9375 16.748-1.5947 3.6897-4.5648 5.5652-6.7118 4.2383-1.2692-0.7844-6.3895 6.3634-7.538 10.523-0.57981 2.0999-0.58287 3.8923-8e-3 4.9656 1.4828 2.7707 1.0877 5.5528-0.78862 5.5528-0.92813 0-2.1938-0.50625-2.8125-1.125zm85.125-8.6184c0-1.6592 2.5506-2.6888 3.3713-1.3608 0.34039 0.55076 0.0375 1.3696-0.67309 1.8197-1.8583 1.177-2.6982 1.0342-2.6982-0.45891zm7.7344-0.80343c0.21485-0.64453 1.1641-1.1719 2.1094-1.1719s1.8945 0.52734 2.1094 1.1719c0.2474 0.7422-0.52604 1.1719-2.1094 1.1719s-2.3568-0.42968-2.1094-1.1719zm51.602-14.062c0.23633-0.64453 0.9711-1.0441 1.6328-0.888 2.3515 0.55479 2.4399-1.8315 0.23818-6.432-2.2088-4.6152-2.2158-4.7247-0.65877-10.274 1.0439-3.7205 1.3604-6.9504 0.93994-9.5935-0.34861-2.1915-0.59828-9.2581-0.55484-15.703 0.0723-10.729-0.73975-18.502-2.375-22.734-1.055-2.7306 2.8401-2.0262 4.1012 0.74172 2.9184 6.4051 3.4777 21.808 1.0261 28.256-0.54887 1.4436-0.29661 4.1757 0.75616 8.1896 1.3839 5.2765 1.4144 6.3324 0.24564 8.5162-0.73379 1.3711-1.3504 4.6742-1.3702 7.3401-0.0319 4.2846 0.20196 4.8811 2.0141 5.139 1.3712 0.19516 2.5744-0.50829 3.6331-2.1241 1.5674-2.3922 1.5481-3.9922-0.15048-12.465-0.80836-4.0319 1.78-4.2224 3.8182-0.28094 1.7051 3.2973 1.7583 5.0407 0.39331 12.879-0.97681 5.6093-1.2673 6.0899-5.0042 8.2799-4.2413 2.4856-9.4263 3.1739-8.6853 1.1531zm-98.711-3.0596c0-0.88346 2.3153-4.6383 4.9058-7.956 5.3104-6.8013 5.2898-6.7879 9.481-6.1438 2.142 0.32917 5.371 0.68857 7.1757 0.79865 3.0834 0.18808 3.299 0.41575 3.5761 3.7756 0.38098 4.6196-0.7158 5.8154-7.1703 7.8172-6.0467 1.8754-9.1301 1.787-11.239-0.32209-1.3288-1.3288-1.6154-1.28-3.0757 0.52329-1.4589 1.8017-3.6535 2.707-3.6535 1.5072zm55.53-10.769c-0.6683-1.0701-2.1863-1.875-3.5362-1.875-3.1849 0-3.9096-2.4111-1.6389-5.4525 3.8634-5.1745 18.665-8.4211 24.541-5.3827 3.6015 1.8624 3.7243 3.1176 0.34313 3.5073-2.0365 0.23473-2.6724 0.88366-3.0469 3.1091-0.38356 2.2797-1.4375 3.3009-5.5632 5.3906-6.0597 3.0693-9.4854 3.2863-11.099 0.70312zm-55.53-4.0236c0-1.6817 7.5017-8.76 10.116-9.5446 1.3996-0.42015 3.4493 0.0343 5.8882 1.3056 2.0577 1.0726 4.5721 1.9501 5.5875 1.9501s1.8461 0.37022 1.8461 0.82271c0 1.9078-2.7222 2.7312-8.593 2.5991-5.1488-0.11582-6.7517 0.23089-9.1027 1.9688-3.1729 2.3456-5.7418 2.7475-5.7418 0.89833zm87.284-5.5858c-0.43716-1.1602-1.1094-3.5859-1.494-5.3906-1.071-5.0267-2.1204-6.4445-5.9017-7.9734-4.062-1.6424-12.664-10.636-14.993-15.674-0.88749-1.9203-1.9109-3.5023-2.2743-3.5156-0.69831-0.02557-1.7354 4.5939-2.1608 9.6243-0.13986 1.6543-0.30055 3.331-0.35707 3.7261-0.0565 0.39506-1.6241 1.4438-3.4835 2.3304l-3.3807 1.6122-2.2408-2.7992c-2.6354-3.2921-5.4612-11.183-4.7078-13.147 0.87999-2.2932 3.3256-1.5398 3.9172 1.2067 0.73788 3.4258 3.4757 8.9099 4.6422 9.2987 0.57905 0.19302 0.93193-3.5055 0.93193-9.7675 0-8.8511 0.32866-10.934 2.6994-17.109 3.2465-8.4565 4.5757-10.18 6.5723-8.5233 0.76836 0.63768 1.5758 2.078 1.7944 3.2007 0.25256 1.2974 0.44913 0.84546 0.53939-1.24 0.15436-3.5661 1.4991-6.4267 2.5344-5.3914 0.3564 0.35641 0.72859 2.9556 0.82708 5.7761 0.0985 2.8204 0.6323 5.6807 1.1863 6.3561 0.55398 0.67542 1.5083 3.1265 2.1208 5.4468 1.4343 5.434 6.4737 13.03 13.362 20.141 3.0049 3.102 5.6783 6.6947 5.941 7.9838 0.26268 1.2891 1.1313 4.9558 1.9302 8.1482 1.6322 6.5225 1.1001 8.7708-1.5157 6.4036-1.4896-1.3481-1.7249-1.3546-2.2212-0.061-0.82346 2.1459-3.3577 1.7524-4.2678-0.66266zm-0.09623-15.24c0-0.26072-2.3944-3.0066-5.3209-6.1019-5.6494-5.9752-11.457-15.153-11.559-18.268-0.0338-1.0312-0.69169-2.9297-1.4618-4.2188-1.3387-2.2407-1.3771-2.1377-0.87425 2.3438 1.5383 13.709 1.6285 13.868 13.105 23.002 4.3477 3.4603 6.1109 4.396 6.1109 3.243zm-90.164 10.569c-1.3794-1.1693-3.8455-4.3476-5.4804-7.0629-2.7758-4.6104-2.9772-5.5406-3.0451-14.063-0.0607-7.6078 0.26405-9.7779 1.9522-13.048 1.1137-2.1573 2.7688-4.479 3.678-5.1593 0.90926-0.68027 3.1242-3.1339 4.9221-5.4526 4.6483-5.9947 12.135-12.164 14.778-12.178 2.5292-0.01333 0.95396 2.9477-3.3556 6.3077-3.7764 2.9443-8.2382 8.32-10.772 12.979-0.30273 0.55654-1.0059 3.863-1.5626 7.3478-0.94651 5.9249-0.86174 6.6498 1.307 11.176 1.2755 2.6618 2.9141 5.5725 3.6412 6.4681 1.1534 1.4208 8.1962 5.0068 13.086 6.6632 1.9707 0.66754 2.1505 2.3528 0.32584 3.053-1.5897 0.61002-14.977-4.8246-16.548-6.7178-1.7851-2.1509-3.6997-1.6024-3.6997 1.0598 0 3.571 1.4857 5.713 4.7523 6.8517 1.6618 0.5793 2.748 1.5294 2.5245 2.208-0.66376 2.0151-3.867 1.8019-6.5035-0.4329zm52.195 1.1553c-0.82513-1.3351 0.17706-2.6135 3.3248-4.2413 1.5054-0.7785 3.388-2.6739 4.1834-4.2121 1.2241-2.3671 1.999-2.7966 5.0457-2.7966 4.8163 0 8.9492 3.1084 7.567 5.6911-0.77239 1.4432-1.9891 1.8089-6.0194 1.8089-4.0203 0-5.6198 0.47838-7.8367 2.3438-2.9195 2.4566-5.2871 2.9881-6.2647 1.4062zm-30.938-8.4359c-4.2985-1.8455-11.376-9.0903-12.239-12.528-0.722-2.8767-0.22739-5.7546 0.989-5.7546 0.50164 0 1.7615 1.7286 2.7997 3.8413 2.5683 5.2265 4.9817 8.0045 9.2025 10.593 3.4987 2.1455 5.8219 2.0778 3.6382-0.10596-0.61015-0.61016-1.112-1.7633-1.1152-2.5625-3e-3 -0.79922-0.63599-2.6615-1.4062-4.1384-1.9168-3.6752-1.7566-5.2835 0.52612-5.2835 1.4246 0 2.4981 1.2922 4.1199 4.9594 2.3659 5.3497 3.6937 6.8331 6.599 7.3724 2.373 0.44046 3.0022 3.4161 0.89336 4.2253-0.87984 0.33763-2.4206 0.1012-3.424-0.5254-1.1201-0.69951-2.2483-0.81279-2.9227-0.29349-2.2397 1.7246-4.0043 1.7709-7.6609 0.20099zm25.371-2.9355c-2.34-1.8406-2.583-1.8649-3.6783-0.36694-0.70228 0.96041-2.0829 1.4742-3.4412 1.2805-3.7975-0.54142-5.7294-6.9654-5.1033-16.97 0.8924-14.26 5.2237-22.382 16.885-31.661 5.5642-4.4275 8.8732-5.8091 8.8732-3.7046 0 0.52615-2.9523 3.9801-6.5608 7.6754-7.6607 7.8452-10.479 13.947-10.437 22.602 0.0342 7.1732 2.2986 14.716 5.2502 17.489 4.1061 3.8575 2.5406 7.0603-1.7871 3.6562zm-30.107-13.098c-2.5224-4.8778-1.254-14.557 3.032-23.137 1.8752-3.7538 3.8695-6.6678 4.4318-6.4754 1.5143 0.51814 0.66545 4.3368-1.9603 8.8181-1.9856 3.3888-2.3507 5.3005-2.5497 13.351-0.12777 5.1678-0.48617 9.6499-0.79645 9.9601-0.31027 0.31027-1.281-0.82225-2.1573-2.5167zm-45.806-17.585c-1.4949-2.4187 5.2254-15.676 11.737-23.153 2.67-3.066 5.2162-5.7152 5.6583-5.887 1.2668-0.49252 0.9367 2.478-0.36812 3.3128-0.64453 0.41234-2.3906 3.07-3.8802 5.906-1.4896 2.8359-3.6743 6.2109-4.855 7.5s-2.4469 3.6094-2.8139 5.1562c-1.4052 5.9237-4.0814 9.4241-5.4778 7.1647zm114.37-4.0435c-3.6945-4.3162-7.1118-12.402-7.1118-16.828 0-3.8136 2.0161-3.078 3.0545 1.1146 1.3224 5.3393 6.4673 14.989 8.8098 16.524 2.665 1.7462 2.8381 3.0997 0.39624 3.0997-0.99107 0-3.308-1.7595-5.1488-3.91zm-81.174-7.5474c0-0.688 0.73828-1.8727 1.6406-2.6328 5.9384-5.0017 10.362-8.4098 10.917-8.4098 0.88448 0 11.905-5.3818 13.901-6.7886 1.1851-0.83516 1.8923-0.86055 2.6574-0.09541 0.76514 0.76514 0.21065 1.6591-2.0836 3.3592-2.8036 2.0776-4.9111 3.2395-14.218 7.8383-1.4598 0.72132-3.1512 1.3115-3.7589 1.3115-0.60762 0-1.5758 0.73828-2.1515 1.6406-1.5587 2.4431-6.9043 5.3673-6.9043 3.777zm87.686-2.027c-4.2139-3.9053-8.8212-20.263-5.7313-20.348 0.47337-0.01304 1.9949 3.3568 3.3812 7.4885 2.9201 8.7031 4.791 11.897 7.4656 12.746 1.0525 0.33404 1.6716 0.99885 1.3759 1.4774-0.96493 1.5613-4.0295 0.91717-6.4914-1.3644zm-97.998-1.1498c0-2.4418 14.13-15.581 20.203-18.786 10.206-5.3869 22.308-8.784 31.547-8.8561 4.5245-0.03529 9.7365 0.43422 11.582 1.0434 1.8457 0.60914 3.5472 0.91608 3.7812 0.6821 0.38401-0.38401-7.7161-4.2127-12.192-5.7629-1.3003-0.45034-1.514-0.9059-0.77261-1.6473 2.0049-2.0049 13.801 1.7971 19.975 6.438 3.0599 2.3002 5.5635 4.5389 5.5635 4.975 0 0.43606 0.94922 0.92784 2.1094 1.0929 2.2845 0.32494 2.3072 0.60836 0.62604 7.7991-1.205 5.154-2.4637 6.5488-4.4342 4.9135-0.90419-0.75041-1.1167-2.1751-0.70673-4.7387 0.69098-4.3212-0.5447-6.2686-3.9776-6.2686-1.3219 0-5.5874-0.8934-9.4788-1.9853-5.2706-1.4789-8.6336-1.8604-13.185-1.4957-7.0866 0.56796-24.433 6.2144-30.796 10.024-2.407 1.4413-6.2748 3.624-8.5951 4.8504-2.678 1.4154-4.9035 3.5074-6.0938 5.728-1.9028 3.55-5.1562 4.8082-5.1562 1.994zm85.756-13.254c0.7452-2.9691 1.1982-3.5947 2.013-2.78 0.888 0.888-0.47871 5.3562-1.6383 5.3562-0.6458 0-0.78356-0.94716-0.37468-2.5762zm-20.6 0.12829c-1.8851-1.4586-8.4492-1.3921-13.359 0.1354-1.1602 0.36091-2.1088 0.29059-2.1081-0.15626 2e-3 -1.3642 10.13-5.0312 13.895-5.0312 4.0564 0 5.7907 1.3197 5.7907 4.4062 0 2.487-1.5354 2.7221-4.2188 0.64583zm-55.781-6.3834c0-0.28608 2.8477-2.0094 6.3281-3.8296 3.4805-1.8202 9.8554-5.484 14.167-8.1417 5.9706-3.6807 8.7632-4.8496 11.719-4.9054 2.8567-0.05391 3.8803 0.29774 3.8803 1.333 0 0.94652-0.76621 1.3186-2.3438 1.138-1.2891-0.14752-4.3601 0.21396-6.8246 0.80328-3.3592 0.80327-4.8152 1.718-5.8164 3.6541-0.98164 1.8983-3.3964 3.4586-9.1129 5.8886-8.7644 3.7256-11.996 4.8193-11.996 4.0596zm-44.062 153.24c0-0.49748-0.94922-1.4026-2.1094-2.0114-2.0981-1.101-2.0998-1.0961-0.32344 0.90451 1.9841 2.2346 2.4328 2.4388 2.4328 1.1069zm326.22-2.8455c3.4999 0 3.6808-0.15863 5.1197-4.4908 0.82039-2.47 1.6244-7.0051 1.7866-10.078 0.16221-3.073 0.77593-6.4815 1.3638-7.5744 1.2001-2.2311 6.486-5.0441 9.4785-5.0441 1.9882 0 5.7177 3.0142 5.7177 4.6211 0 0.4791 1.971 2.2013 4.3801 3.8272 3.9384 2.658 4.8586 2.8978 9.1259 2.3781 6.4538-0.78606 7.0357-1.7888 2.5132-4.3306-2.1074-1.1844-3.8316-2.5169-3.8316-2.961 0-1.7219 4.7185-5.4098 6.9217-5.4098 2.5598 0 5.2658-2.2024 5.2658-4.2857 0-1.8104-0.23363-1.7526-5.9464 1.4715-6.1387 3.4645-18.903 5.1118-19.88 2.5657-0.79984-2.0844-4.588-2.7771-8.8744-1.6229-4.3442 1.1698-7.82 6.274-8.9214 13.101-0.37253 2.309-1.2961 5.1426-2.0523 6.2967-2.0115 3.0699-9.4414 6.9073-14.553 7.5161-4.5172 0.53807-6.9874 2.2064-5.8919 3.979 0.33264 0.53821 3.3221 0.97856 6.6432 0.97856 4.1905 0 6.0472 0.35862 6.0669 1.1719 0.0158 0.65036 0.45376 0.44175 0.98408-0.46875 0.64958-1.1153 2.1174-1.6406 4.5836-1.6406zm-332.4-1.6916c-2.2009-1.485-8.4832-6.3969-10.228-7.9973-1.0317-0.9461-3.1414-2.3381-4.6883-3.0932l-2.8125-1.3731 2.3438 1.9112c1.2891 1.0512 2.9766 2.4744 3.75 3.1627 0.77344 0.68832 3.0938 2.4859 5.1562 3.9946 2.0625 1.5087 4.3276 3.2905 5.0335 3.9596 0.70591 0.66908 1.5374 0.96255 1.8478 0.65215s0.12941-0.85784-0.40222-1.2165zm148.17-4.8133c0.29909-0.48394-0.0363-1.2222-0.74531-1.6406-1.8417-1.0868-3.4378-4.4583-3.4378-7.2616 0-1.323-0.47579-2.4054-1.0573-2.4054-0.71866 0-0.85362 1.2762-0.42137 3.9844 0.95213 5.9653 4.0359 9.954 5.6618 7.3232zm-113.02-14.12c-3.5724-4.2366-5.534-5.6928-5.534-4.1081 0 0.31865 1.2656 2.0208 2.8125 3.7826s2.8125 3.6104 2.8125 4.1081 0.86887 0.90488 1.9308 0.90488c1.6798 0 1.417-0.60928-2.0218-4.6875zm-129.47-32.277c3.1987-2.3548 5.7919-4.5987 5.7628-4.9864-0.10682-1.419-11.286-8.8402-12.573-8.3464-3.8666 1.4838-6.4008 10.768-5.398 19.777l0.516 4.6355 2.9382-3.399c1.616-1.8695 5.5554-5.3257 8.7541-7.6804zm366.51 287.66c-1.0487-1.0487 1.9825-7.7258 6.8311-15.047 2.6732-4.0367 6.4559-10.51 8.406-14.385 3.8288-7.6082 6.9689-11.237 8.4459-9.7597 0.94196 0.94196 0.23786 2.4988-5.5587 12.291-1.7657 2.9828-5.1407 9.0093-7.5 13.392-7.4053 13.757-8.7133 15.42-10.624 13.509zm23.323-255.82c-4.6216-2.7861-10.9-5.3745-16.285-6.7136-1.7373-0.43201-1.4208-2.0261 0.61916-3.1178 2.0921-1.1196 6.3497 0.19096 16.478 5.0724 3.616 1.7427 7.3439 3.4123 8.2844 3.7103 2.4761 0.78453 1.5656 3.773-1.2492 4.1-1.3954 0.16208-4.5546-1.0663-7.8472-3.0512z"
     id="path2"
     style="fill:#202428;fill-opacity:0.99215686" />
</svg>
