<?xml version="1.0" encoding="UTF-8" standalone="no"?>
<!-- Created with Inkscape (http://www.inkscape.org/) -->

<svg
   xmlns:dc="http://purl.org/dc/elements/1.1/"
   xmlns:cc="http://creativecommons.org/ns#"
   xmlns:rdf="http://www.w3.org/1999/02/22-rdf-syntax-ns#"
   xmlns:svg="http://www.w3.org/2000/svg"
   xmlns="http://www.w3.org/2000/svg"
   xmlns:sodipodi="http://sodipodi.sourceforge.net/DTD/sodipodi-0.dtd"
   xmlns:inkscape="http://www.inkscape.org/namespaces/inkscape"
   width="153.45578mm"
   height="80.680023mm"
   viewBox="0 0 153.45578 80.680023"
   version="1.1"
   id="svg2122"
   inkscape:version="0.92.4 (5da689c313, 2019-01-14)"
   sodipodi:docname="to-be-2.svg">
  <defs
     id="defs2116" />
  <sodipodi:namedview
     id="base"
     pagecolor="#ffffff"
     bordercolor="#666666"
     borderopacity="1.0"
     inkscape:pageopacity="0.0"
     inkscape:pageshadow="2"
     inkscape:zoom="0.49497475"
     inkscape:cx="135.94919"
     inkscape:cy="13.228244"
     inkscape:document-units="mm"
     inkscape:current-layer="layer1"
     showgrid="false"
     fit-margin-top="0"
     fit-margin-left="0"
     fit-margin-right="0"
     fit-margin-bottom="0"
     inkscape:window-width="1366"
     inkscape:window-height="768"
     inkscape:window-x="1920"
     inkscape:window-y="312"
     inkscape:window-maximized="1" />
  <metadata
     id="metadata2119">
    <rdf:RDF>
      <cc:Work
         rdf:about="">
        <dc:format>image/svg+xml</dc:format>
        <dc:type
           rdf:resource="http://purl.org/dc/dcmitype/StillImage" />
        <dc:title></dc:title>
      </cc:Work>
    </rdf:RDF>
  </metadata>
  <g
     inkscape:label="Layer 1"
     inkscape:groupmode="layer"
     id="layer1"
     transform="translate(41.954081,-51.040942)">
    <g
       style="clip-rule:evenodd;fill:#202428;fill-opacity:0.99215686;fill-rule:evenodd;image-rendering:optimizeQuality;shape-rendering:geometricPrecision;text-rendering:geometricPrecision"
       id="g1470"
       transform="matrix(0.00613819,0,0,0.00613819,-8.9306193,17.40945)">
      <g
         id="Layer_x0020_1-3"
         style="fill:#202428;fill-opacity:0.99215686">
        <metadata
           id="CorelCorpID_0Corel-Layer-6" />
        <path
           id="path1339"
           d="m 6885,16992 c 114,-54 193,3 370,-88 388,-201 191,-306 521,-99 109,68 112,20 204,117 -42,315 -996,303 -1096,70 z m 1043,888 c 151,-157 288,-273 411,-347 10,-2 20,-4 29,-7 60,-19 129,-49 201,-85 v 0 0 c 276,-138 613,-376 784,-554 90,-94 94,-203 204,-282 24,-110 27,-92 93,-137 14,-193 158,-384 219,-577 90,-284 184,-272 310,-448 75,-190 -168,-468 -193,-1022 83,-87 131,-114 264,-155 9,371 -77,321 119,550 123,144 102,263 357,278 101,-63 133,-135 238,-223 298,-251 189,-243 121,-379 176,-252 118,-219 94,-546 151,-142 326,-405 569,-424 138,140 100,460 500,470 169,-162 63,-180 156,-362 27,-53 141,-283 162,-301 33,-160 2,-27 40,-97 3,-6 17,-7 19,-21 3,-13 15,-11 21,-17 l 43,-168 c 47,-136 78,-159 117,-255 40,-99 82,-574 508,-396 l 35,285 c 60,19 173,176 344,77 246,-142 -16,-334 388,-633 272,-201 167,-177 282,-184 l 79,-134 c 6,-76 -9,-98 64,-148 l 72,-173 c -7,-233 85,31 12,-638 -8,-70 -13,-84 -28,-145 l -35,-122 c -137,-513 271,-347 461,-338 179,9 341,-2 519,-6 70,-89 79,-92 122,-234 46,-168 56,-155 29,-352 -102,-93 -273,-376 34,-398 l 953,-99 c 128,204 129,266 439,265 50,-151 76,-134 155,-265 l -69,-103 c 44,-122 37,-216 111,-313 270,-354 414,-670 466,-734 104,-127 147,-84 278,-148 239,-116 415,-593 474,-716 573,-92 392,-234 692,-415 26,-85 23,-80 53,-153 55,-132 2,-50 78,-122 l 31,-62 47,2 99,-87 c -6,-85 42,-148 110,-212 14,-177 28,-352 -46,-483 -311,-89 -439,179 -800,19 -284,-126 -394,-211 -670,8 -403,320 -350,67 -674,34 -433,-44 -397,149 -598,276 -33,6 -779,25 -802,21 -287,-40 -116,-376 -502,-338 -278,27 -156,383 -288,562 -114,155 -334,266 -554,263 17,-219 101,-184 123,-369 81,-712 -922,-606 -894,258 l -220,57 c -185,-158 -266,-411 -548,-464 -105,-20 -372,-60 -457,-49 -388,52 -70,5 -721,-254 -164,-65 -229,18 -337,87 -111,72 -221,93 -349,179 -126,85 -168,151 -267,243 l -210,-37 c -121,-62 -48,4 -122,-108 -322,-68 -992,-339 -1429,-351 -226,-7 -331,68 -526,70 -410,4 -655,-153 -1130,-15 -180,52 -295,46 -466,133 l -864,300 c -518,106 -226,-474 -1205,-436 -455,18 -610,209 -683,239 -201,83 -577,0 -810,73 -196,62 -217,155 -375,190 -139,-159 -48,-187 -247,-341 -236,-83 -557,295 -740,445 -101,82 -141,91 -276,117 -703,138 -307,117 -875,-129 -141,-61 -134,-85 -260,-127 51,-261 406,-306 -985,-314 -269,-2 -584,130 -882,156 -466,40 -457,-292 -1320,66 -697,290 -297,-91 -858,-166 -349,-47 -320,-47 -568,76 -321,-87 -322,-165 -722,-84 -451,92 -663,-411 -832,332 0,0 79,132 109,106 8,136 200,202 346,257 36,180 48,508 491,507 376,0 281,237 423,514 152,296 526,65 723,122 292,84 99,508 307,693 65,-81 35,-90 106,-149 96,227 34,192 193,365 104,114 164,186 178,379 84,54 6,29 139,33 l -9,-7 c 41,-63 -29,-57 52,-51 l -37,80 14,288 -19,86 -73,30 c 23,144 41,163 58,306 18,157 11,135 104,223 l 129,5 c 56,-51 252,-51 268,2 278,63 414,336 985,608 141,67 357,177 477,264 256,186 3,243 467,277 136,-147 42,-166 221,-196 93,-15 280,-19 377,-13 845,51 310,502 214,733 -134,321 -16,398 -48,640 5,7 10,17 13,22 l 145,149 c 3,-7 14,11 20,18 139,1 218,32 325,123 -30,186 -174,138 -64,367 l 135,103 c 181,-39 178,-1 286,-114 212,-220 460,-717 845,-218 213,276 -97,804 100,1168 116,215 133,363 237,431 84,55 138,49 211,141 85,107 23,97 153,168 285,156 344,231 404,263 351,184 762,12 904,-17 102,-21 179,-4 278,-29 201,-195 115,-397 257,-607 5,-50 6,-108 23,-154 21,-56 17,-24 51,-55 l 40,-163 c 24,-247 33,-295 148,-441 232,-25 341,58 429,220 108,200 103,342 -102,410 -94,74 -249,97 -386,220 -98,88 -156,255 -197,402 -37,133 58,725 11,1147 l 8,317 c 25,87 8,120 66,215 48,79 90,71 110,180 l 134,76 c 156,-9 136,31 287,34 115,2 366,-135 405,461 66,60 52,44 89,146 l 183,185 c 479,391 621,84 893,265 -16,230 -440,115 -321,670 146,53 337,93 457,151 139,67 256,47 400,58 69,-97 68,-143 186,-218 19,-242 -21,-247 -35,-429 l -88,-55 c 25,-37 27,-16 73,-40 z m 401,-578 v 0 c -129,85 -238,164 -326,237 l -13,-2 c -3,4 -26,29 -57,63 -66,61 -117,118 -152,170 -36,42 -64,75 -68,84 -116,244 118,432 -102,419 l -267,-59 c -141,-89 -5,-20 -119,-44 -69,-15 -46,24 -77,-50 l 161,-60 c 95,-57 174,-137 247,-200 23,-172 34,-154 -17,-294 -152,-27 -974,-81 -1091,-369 -51,-36 -36,-5 -81,-99 -112,-72 -136,-318 -91,-434 167,-21 224,198 271,334 l 72,14 13,73 c 6,4 15,9 18,11 l 52,42 c 199,163 484,207 747,214 340,8 601,-90 785,-283 l -45,-261 c -75,-42 -61,-36 -96,-82 -106,-24 -255,-81 -341,-196 l 72,-148 c 149,-21 77,33 260,41 104,-78 108,-172 269,-160 -44,265 -106,140 -62,484 361,103 426,152 633,-77 l 148,-116 c 74,-200 257,-334 360,-608 110,-292 151,-1219 30,-1593 -64,-199 -181,-492 -403,-528 -257,252 -134,323 -413,282 18,-227 294,-509 157,-793 -215,-447 -684,-219 -684,-219 -103,-61 -116,-104 -185,-146 -44,-27 -140,-53 -200,-78 -6,-265 183,-285 443,-331 1516,-268 948,-700 1211,-1041 145,72 94,265 211,419 485,6 1186,-614 889,-1661 -34,-121 -95,-229 -165,-294 -124,-113 -204,-69 -133,-239 193,-57 413,244 509,392 180,277 39,553 117,831 0,0 -1,80 138,3 149,-83 1517,-1652 1792,-2050 74,-106 102,-100 160,-190 65,-100 40,-87 126,-192 111,-136 111,-293 348,-301 l 153,215 c -74,156 -64,114 -165,246 -58,76 -104,157 -163,224 l -1040,1219 c -98,181 153,115 154,115 262,-35 124,-24 173,32 162,185 -361,320 -545,406 -596,279 -835,711 -1096,948 -120,109 -447,263 -604,378 -1,202 59,267 -127,370 -56,31 -1033,135 -1248,361 6,156 233,307 421,552 90,117 114,164 216,277 181,202 52,461 1104,221 439,-100 892,-749 763,-1171 -195,-641 -912,-349 -1019,202 -76,391 195,506 235,729 -182,126 -282,-33 -369,-203 -63,-122 -105,-406 -74,-562 62,-319 357,-633 631,-732 423,-152 790,163 840,486 75,485 -111,714 -302,1004 -359,546 -1223,463 -1401,642 -111,111 -104,414 -78,597 22,157 147,437 97,586 -38,113 -163,298 -227,438 -57,125 -167,543 -405,793 -82,86 -27,30 -99,70 -55,169 -427,375 -598,468 -123,67 -213,125 -277,175 z M -2148,8203 c -11,59 -18,116 -20,171 -6,57 -2,116 8,174 14,100 46,193 94,280 v 0 c 61,132 134,253 177,344 208,434 481,669 924,841 60,23 121,60 205,71 355,46 154,22 420,180 293,174 373,153 714,142 12,-281 -150,-336 -260,-525 -207,-356 -270,-799 -131,-1203 63,-183 148,-380 313,-425 124,137 46,149 6,288 -71,246 -357,609 -134,1047 319,625 419,290 511,764 102,524 8,306 -398,386 -157,31 -190,79 -338,104 -207,-131 -245,-222 -514,-346 l -799,-436 c -448,-300 -218,-423 -769,-437 2,-177 106,-160 47,-357 -35,-116 -103,-188 -152,-301 -74,-169 -110,-166 -108,-357 4,-353 16,-1014 -126,-1209 -40,-55 -161,-190 -227,-231 -107,-65 -206,-39 -215,-158 78,-10 226,42 316,92 163,91 41,166 258,200 179,-146 322,-426 376,-506 59,-88 47,-39 113,-96 124,-108 135,-261 433,-211 -35,271 -218,76 -255,601 -174,110 -324,199 -396,408 -76,220 -136,527 -73,703 z m 163,178 c -21,-50 -32,-111 -34,-185 h 2 c 38,-380 33,-628 253,-840 125,-121 197,-97 267,-260 83,-194 -7,-166 171,-347 296,-32 320,18 427,203 l -51,234 c -85,55 -227,110 -328,163 -761,398 -381,811 -275,855 203,84 201,-41 389,104 239,186 656,-59 1137,-108 24,174 -137,516 -238,580 -281,178 -1027,31 -1392,-155 -225,-115 -297,-194 -326,-245 z m 9937,7791 c 6,-99 -11,-132 92,-96 34,51 51,-71 14,76 -8,4 -18,5 -22,14 -4,9 -20,8 -24,9 -104,9 21,6 -59,-3 z m 963,-636 c 248,73 143,79 396,20 -13,120 -30,142 -170,144 -157,3 -198,-34 -226,-164 z m 164,-175 c -64,-214 85,-290 312,-272 -34,210 -57,443 -312,272 z m -632,1254 c 88,-346 168,-410 -305,-670 -196,-108 -265,94 -411,156 -126,-166 -89,-393 -29,-588 93,-304 71,-279 89,-635 282,-247 445,-131 618,-14 -13,368 -100,97 -275,381 -318,517 170,872 527,633 149,-100 184,-65 376,-26 220,45 138,191 55,316 -164,246 -262,466 -645,446 z m 810,-1693 c -253,73 -234,43 -207,-309 141,-22 162,19 231,81 l -25,228 z m 1645,-334 c -148,22 -333,43 -470,-14 -27,-178 83,-315 168,-385 188,-154 288,-63 431,25 15,210 0,262 -129,374 z m -5686,305 c -96,-348 282,-685 547,-579 -14,185 36,72 -134,156 -99,49 -207,199 -265,299 -89,153 7,137 -149,124 z m 3994,-740 c 97,98 119,158 70,279 l -272,-31 c -98,-182 -100,-299 202,-248 z m -2939,2004 c -48,-591 41,-910 321,-1326 225,-335 629,-677 1007,-689 -54,95 -293,232 -450,366 -335,287 -507,610 -636,1012 -38,117 -95,201 -118,316 -74,376 36,237 -124,322 z m 145,-1877 c -7,119 -11,339 -73,412 8,222 -112,441 -271,535 -218,128 -534,-49 -515,276 283,63 365,21 449,290 77,248 119,375 44,650 -418,75 -685,-11 -749,-434 -26,-173 -53,-399 -18,-589 127,-700 413,-648 538,-724 140,-86 122,-268 166,-467 68,-303 385,-550 721,-480 387,81 503,-173 1017,-63 824,176 664,302 776,495 106,182 209,52 315,321 136,346 101,1257 -493,1256 -163,-192 -192,-270 -34,-463 l 352,-19 c 60,-291 -136,-608 -302,-688 -290,-139 -609,23 -751,185 -65,491 307,562 -331,795 36,242 157,202 237,396 183,446 -333,1017 -765,723 -98,-67 -38,-14 -69,-87 -93,-36 -82,-36 -173,-101 -27,-290 50,-468 259,-574 109,-20 65,80 296,43 -37,-159 -55,-121 -85,-219 l -94,-76 c -8,-2 -123,57 -70,-186 38,-172 329,-354 452,-362 l 33,-211 -102,-67 c 31,-211 194,-344 334,-438 226,-152 287,-186 586,-113 l 74,-77 c -322,-590 -1102,59 -1495,64 -69,-150 9,-142 -106,-257 -90,44 -43,-23 -105,115 -16,36 -34,95 -47,138 z m -2784,-227 c -10,-169 -4,-363 49,-508 26,-72 471,-652 975,-352 8,250 19,479 -55,708 -108,332 -161,353 -391,378 -17,-938 -396,-284 -577,-226 z m 3537,-615 c -15,-205 83,-209 258,-270 530,-186 370,105 666,144 143,19 141,-97 412,-58 134,144 190,279 35,434 -215,15 -404,-125 -650,-168 -228,-40 -551,16 -722,-82 z m -4162,66 c 21,-154 18,-131 72,-219 41,20 119,33 87,135 -25,80 -75,79 -159,84 z m 7152,143 c -246,103 -455,-183 -559,-319 -81,-106 -383,-398 -126,-615 69,-59 245,-142 362,-114 166,40 103,200 97,344 -13,327 225,502 225,704 z m 346,-750 c 570,-25 446,-97 490,-460 331,5 230,563 82,787 -179,272 -593,120 -572,-327 z m -4620,730 c -265,-342 -708,-596 -1143,-686 l -627,-43 c -5,-10 -17,-9 -26,-13 -28,-83 -37,94 -18,-81 20,-192 423,-106 597,-75 353,63 910,311 1156,536 112,103 335,294 309,474 -184,62 -160,-1 -247,-112 z m 419,-563 c 95,132 275,159 168,343 -22,14 44,43 -116,43 -102,0 -168,-77 -258,-145 -118,-89 -178,-137 -287,-240 -187,-179 -430,-258 -622,-404 -73,-419 144,-487 495,-174 90,80 243,172 353,247 185,127 146,164 266,331 z m 4329,-381 c 3,-137 29,-165 163,-166 68,115 51,70 11,189 -81,20 -109,14 -174,-23 z m -6867,-305 c -104,184 -130,38 -136,35 62,-66 -88,-11 55,-69 139,-56 46,11 81,33 z m 1313,852 c 56,266 -29,558 -92,771 l -220,632 c 0,0 -1054,467 -1542,-323 -170,-274 -393,-206 -460,-630 -79,-498 103,-695 99,-950 -163,-175 -250,-110 -437,-363 -68,-92 -125,-119 -120,-307 3,-112 9,-198 83,-235 274,-135 410,201 464,427 227,-21 466,-418 620,-91 96,205 -55,205 -73,456 255,90 520,5 509,354 -6,218 -330,308 -547,280 -83,-36 -267,-473 -429,-34 -73,196 -49,525 16,665 386,37 171,-220 381,-477 l 157,48 c 24,319 -183,444 173,988 l 168,17 c 78,-184 28,-406 168,-487 128,85 44,77 44,239 -1,394 426,238 519,140 25,-26 154,-304 173,-358 242,-690 -16,-577 220,-837 z m 1546,-1125 c 10,87 -13,227 45,281 195,184 93,-356 322,-550 190,36 80,40 215,146 l -41,471 c 272,34 135,-104 354,-178 252,13 102,536 -229,720 -135,75 -223,73 -298,194 -108,175 7,209 -123,340 -304,62 -145,-151 -218,-354 -51,-141 -174,-201 -267,-330 -342,-477 -163,-1135 240,-740 z m 843,-8 c -68,44 -60,58 -141,0 51,-52 -96,-77 82,-67 125,7 25,11 58,67 z m -2474,-313 c 59,-51 130,-99 184,-162 82,-96 24,-108 158,-156 43,49 53,79 104,139 441,526 566,240 613,884 -206,-13 -244,-127 -370,-210 -451,-297 -392,-206 -559,-75 -113,88 -215,67 -216,-70 -2,-186 42,94 86,-350 z m -1994,144 c -19,106 24,65 -80,87 z m 11123,-7 c 5,-61 -6,77 0,0 z m -7443,-70 c 56,-61 -16,-130 138,-35 -56,89 -12,121 -138,35 z m -2444,599 c -12,25 -157,142 -307,69 -57,-89 -22,-65 -47,-170 -44,-190 -882,-646 -421,-626 136,6 871,522 775,727 z m -1504,-709 c 42,-211 231,-250 403,-137 -14,183 -247,176 -403,137 z m -1205,216 c -12,-224 124,-208 323,-280 134,-49 312,-102 461,-38 -20,88 -10,59 -64,118 l -254,169 c -175,72 -295,83 -466,30 z m 5836,-205 c -176,63 -270,-66 -301,-223 -49,-246 32,-320 246,-310 75,164 183,346 55,533 z m 793,-38 c 42,-72 145,-164 245,-227 l 452,18 c -225,163 -319,243 -697,210 z m 3681,1299 c 137,-157 217,-159 335,-388 346,-671 282,-1436 844,-1338 95,265 -264,1002 -343,1240 -36,108 -447,974 -573,1075 -134,-59 -133,-144 -185,-261 -67,-152 -99,-108 -79,-329 z m 1379,-1263 c 8,-200 23,-440 173,-511 159,-75 392,-129 566,-77 79,351 -341,640 -739,588 z m -7724,-552 c 229,-40 359,131 533,213 183,85 402,89 586,150 -63,309 -407,416 -695,236 l -405,-396 c -54,-105 -56,-61 -20,-203 z m 2045,671 c 391,-78 1158,274 1619,-426 40,-61 278,-705 482,-513 73,69 -29,317 243,299 150,-10 157,-153 283,-235 l 140,17 c 64,241 18,295 -134,422 -583,487 -522,-157 -817,-83 -375,263 57,706 -747,912 -227,58 -493,146 -733,52 -136,-53 -330,-380 -336,-446 z m 477,-1524 c 145,-39 177,-133 244,-213 352,-57 500,106 660,251 129,116 220,485 196,728 -243,366 -447,160 -743,156 -100,78 -73,120 -231,218 -107,67 -173,131 -338,132 -336,-74 -598,-936 35,-1400 104,61 68,65 176,129 z m -3523,1074 c 754,97 717,-990 881,-1134 72,130 33,21 36,227 4,332 150,157 -49,584 -95,205 -74,146 -178,280 -81,105 -91,165 -228,231 -543,263 -993,-329 -727,-625 227,-252 74,278 265,436 z m 7444,149 c -7,-288 50,-379 256,-475 216,-100 262,-142 556,-185 202,-29 482,-37 693,-54 525,-43 454,-115 551,9 -166,265 -1207,126 -1536,319 -80,47 -14,10 -60,44 -462,340 -42,388 -116,608 -176,9 -261,-139 -343,-267 z m -5799,-352 c -189,69 -408,-228 -459,-403 l 308,38 c 50,19 42,27 74,43 z m 4806,625 c 10,-155 167,-271 260,-363 197,-194 867,-832 1134,-686 -48,97 -111,85 -220,155 -90,57 -145,113 -208,179 -490,513 161,738 224,1014 25,108 -59,428 -276,455 -53,-66 7,38 -49,-69 -246,-474 -120,-634 -864,-686 z m -7118,-600 c -151,-176 -63,-305 8,-516 63,-188 46,-334 201,-415 111,74 197,316 157,468 -17,63 -88,130 -125,222 -43,106 -31,153 -77,243 l -165,-1 z m 6023,-177 c -78,-89 -91,-379 -35,-506 151,-22 105,4 212,78 l 349,-19 c 40,242 -74,163 -270,220 -192,55 -147,156 -255,227 z m 3509,-528 c 112,-46 201,0 244,103 -69,39 -139,49 -259,28 l 14,-131 z m -8251,14 -15,95 c -34,-16 -61,46 -55,-54 6,-104 14,-19 70,-41 z m 7562,138 c -88,-404 -20,-1191 351,-1239 170,234 181,1015 80,1255 z m -6989,-584 c 61,-270 625,-630 967,-332 26,189 -37,225 43,408 252,58 284,-68 553,-21 260,480 -115,995 -459,1161 -508,244 -541,-526 -633,-665 -190,-36 -472,63 -510,-155 -55,-55 -16,77 -44,-92 -5,-30 -4,-112 -1,-144 11,-126 14,-109 85,-160 z m -4252,1220 c -20,-301 -266,-347 -418,-534 -277,-340 -187,-795 273,-593 l 39,245 106,-1 c 53,-137 20,-212 145,-275 113,-57 162,-19 238,64 64,323 -118,330 -189,581 -159,561 593,323 651,318 126,-11 262,-6 389,-9 131,-3 261,1 390,8 178,9 89,20 253,75 578,194 1561,709 1608,1390 l -384,-73 c -49,-227 -354,-594 -515,-716 -653,-492 -1853,-551 -2443,-163 -158,104 -254,118 -211,392 267,231 422,134 778,113 l -5,199 c -222,150 -241,-8 -416,288 -72,122 7,50 -112,103 -68,-127 -9,-150 -68,-255 -40,-71 -80,-75 -174,-107 -525,-178 -414,-693 66,-1049 z m 8185,-963 c 1,287 19,411 -292,395 -68,-75 -163,-225 -186,-396 163,-53 109,-79 478,1 z m 4388,265 c -143,-164 -398,-219 -695,-216 l -13,-180 c 33,-20 -11,-22 114,-46 193,-37 280,31 369,57 424,125 728,420 616,975 -44,217 -268,529 -401,653 -133,124 -250,107 -365,446 -1,4 -33,105 -34,106 -82,175 71,-31 -43,47 -92,-118 -33,-179 -175,-265 -182,-110 -209,45 -292,-142 132,-210 161,51 713,-245 367,-197 587,-754 205,-1192 z m -4052,-612 c 189,-118 559,183 339,442 -317,22 -413,-141 -339,-442 z m -2531,121 c 93,53 64,-7 78,139 -118,-34 -144,-18 -78,-139 z m -4412,589 c 53,-322 -85,-542 296,-701 382,-159 -16,546 -16,546 -201,438 -331,404 -589,389 -341,-20 -601,68 -926,18 9,-308 111,-163 331,-252 160,-64 180,-123 384,-127 24,8 240,341 520,127 z m 1867,-348 c -74,-164 219,-417 458,-285 -7,195 -58,74 -203,208 -83,76 28,52 -123,96 -171,50 -120,-14 -131,-19 z m 2984,-322 c 75,-131 250,-120 333,-70 -77,66 -217,152 -333,70 z m -1038,-39 c -5,-140 -6,-123 71,-196 101,43 111,72 140,173 z m 491,-67 c -20,-172 56,-262 241,-271 35,112 50,97 18,208 -107,81 -95,78 -259,63 z M 5248,9596 c 226,-284 453,-78 464,-62 58,215 -47,322 -163,415 -234,13 -322,-118 -301,-353 z m 2835,104 c -42,-100 -24,-108 22,-195 l 188,9 -26,188 c -33,17 -23,38 -108,37 -160,-2 -3,14 -76,-39 z m -401,-22 c -343,-219 -199,16 -264,-188 100,-65 146,-42 281,-48 15,38 8,-4 24,83 1,4 6,96 7,102 96,5 144,18 204,53 l -7,149 -204,52 -40,-204 z m -975,-135 c 40,-100 50,-174 147,-262 l 128,15 c 117,282 -54,199 -275,247 z m 1111,-96 c 32,-109 68,-172 214,-120 -5,137 -105,173 -214,120 z M 70,10204 c -227,-27 -436,-185 -536,-329 -282,-30 -492,-10 -705,-150 -270,-179 -379,-233 -369,-447 239,2 334,73 538,101 827,113 638,-104 874,397 90,192 149,151 198,429 z m 15122,-940 c 103,-65 89,11 101,9 l 20,121 -177,-7 c 7,-66 10,-94 56,-122 z m -4322,687 c -97,-35 -69,-26 -142,-107 -213,-237 -833,-399 -246,-867 415,62 666,645 388,974 z M 8205,9334 c -3,-8 -8,-19 -8,-25 -15,-154 64,-252 222,-257 24,104 78,252 -40,305 -159,72 -109,28 -173,-24 z m 345,13 c -4,-155 -21,-119 65,-209 64,14 68,25 101,105 -64,101 -17,81 -166,104 z m -3462,244 c -121,193 69,400 -311,385 -52,-158 -4,-348 13,-529 -130,-118 -172,-178 -173,-397 140,0 203,82 295,197 204,254 62,223 289,205 -42,76 -8,21 -62,84 -55,64 -8,-13 -51,55 z m 1993,-313 c 207,-399 -52,-220 161,-384 215,93 2,63 141,261 67,-40 22,-7 79,-54 l 251,-82 c 28,76 55,114 53,226 -228,201 -196,30 -374,161 14,-37 48,-60 -9,-155 -95,33 -78,60 -118,169 63,50 -72,26 105,56 -104,104 -81,132 -164,299 -99,15 -84,36 -192,-29 -32,-163 -4,-99 137,-256 l -70,-210 z m 755,-109 c 30,-145 173,-178 289,-130 l -23,149 c -136,66 -106,10 -266,-19 z m 6436,161 c 229,-10 155,-524 490,-636 118,-39 176,21 253,68 51,229 57,254 5,441 -43,153 -116,254 -123,387 168,82 607,-162 505,312 -408,208 -559,-14 -844,35 -196,165 -98,247 -199,394 -106,-28 -129,-28 -149,-241 -54,-581 -117,-283 -337,-434 -206,-141 -290,-653 -7,-758 416,-19 333,95 406,432 z M 1393,8850 c 189,229 -45,444 -239,380 -173,-57 -50,-399 239,-380 z m -2461,136 c 231,40 672,19 828,83 -44,215 -184,152 -411,148 -268,-4 -1177,-67 -1207,-408 l 789,177 z m 11128,398 c -20,-17 -292,-326 -298,-338 -45,-96 -31,-484 -3,-582 178,44 170,296 336,438 143,-40 42,-59 227,-98 -62,218 29,44 -107,138 -173,121 -42,266 -156,441 z M 7803,8822 c 94,34 109,28 132,149 l -104,3 c 0,-1 -49,-48 -27,-152 z m -317,-7 c 95,-46 40,-51 146,4 -19,142 -75,131 -181,184 -6,-143 -27,-87 36,-188 z m 3712,-14 c 132,9 298,8 435,-29 136,-37 316,-127 385,-144 245,-60 436,348 289,606 -98,171 -331,371 -489,568 -137,172 -314,472 -533,508 l 308,-735 c 71,-93 272,-163 99,-514 -197,-2 -275,93 -451,-119 -66,-79 -59,-20 -42,-141 z m -3179,18 c 37,-91 59,-87 183,-125 l 157,160 c -90,120 -264,147 -340,-35 z m 830,458 c -32,-366 -319,-319 14,-635 148,-141 498,-194 725,-93 54,232 -22,376 -7,614 107,68 135,47 206,180 184,349 177,583 -193,731 -651,261 -841,-208 -967,-304 -27,-271 112,-347 223,-493 z M 6819,8748 c -6,102 -31,147 -69,212 -78,-62 -112,-71 -93,-205 z m 194,-56 c 47,-36 1,-46 93,-49 70,-3 84,18 90,71 9,84 -111,135 -178,176 16,151 72,162 -22,291 l -184,-13 c 8,-314 119,-9 168,-444 l 34,-32 z m 6303,1350 c 41,-353 -165,-656 -4,-1004 137,-296 447,-638 577,-360 -72,127 -109,19 -288,263 -89,121 -72,327 -46,477 48,280 186,371 361,479 128,79 77,-2 98,161 -253,8 -454,-126 -699,-17 z M 7482,8667 c -189,30 -221,-54 -147,-211 l 146,19 c 31,74 34,119 1,192 z m 289,30 c -105,-69 -112,-64 -85,-222 l 230,-8 c -11,168 -18,182 -145,231 z M 277,8996 c 18,-96 -6,-84 82,-99 75,-105 77,-39 223,-112 307,-154 538,-462 678,-325 9,16 51,-44 27,108 -16,101 -297,307 -391,354 -232,115 -337,182 -651,231 z m 11208,543 c -227,415 -317,841 -556,775 -8,-286 675,-974 -412,-1528 -200,-102 -425,-98 -419,-349 236,-5 658,279 804,387 717,534 122,410 735,389 -20,166 -86,205 -152,326 z M 3150,8388 c 197,-173 329,185 111,297 -75,-99 -104,-183 -111,-297 z m 2273,313 c -43,-166 53,-595 198,-707 81,37 85,-67 115,226 10,98 22,154 22,247 -181,175 -231,238 -335,233 z m 2594,-458 c 94,61 104,71 83,204 h -97 c -50,-113 -56,-105 14,-204 z M 2973,9423 c 285,59 337,-59 518,-230 193,-183 515,-721 653,-971 83,-149 114,-108 190,-196 103,-119 -3,-142 195,-213 l 305,282 c 73,76 117,283 140,433 55,356 244,481 377,724 l -118,109 c -111,-54 -23,3 -106,-82 -615,-627 -201,-783 -564,-797 -96,249 -86,153 -123,470 -21,178 -16,328 19,506 l 186,89 c 20,155 -55,307 -35,505 l 283,835 c 100,180 62,265 -119,341 -289,-96 -335,-506 -471,-808 -203,-451 -126,-525 -181,-781 -29,-133 -28,-119 -132,-153 -116,328 19,374 -192,865 -163,379 -177,882 -511,652 12,-173 327,-530 449,-1559 -205,67 -327,277 -583,500 -343,299 -262,391 -304,600 -24,120 20,3 -48,86 -131,-73 -47,-7 -100,-160 -18,-52 -47,-100 -68,-137 -259,-9 -386,185 -676,211 6,-437 152,-338 448,-498 l 298,-194 c 499,-288 -87,-437 133,-744 154,65 8,17 136,315 z m 7771,-976 c -60,25 -102,56 -211,-23 0,-92 97,-93 207,-70 z m 1762,285 c -310,-405 -256,-543 -54,-791 l 204,15 c 83,86 190,348 207,512 -80,172 -125,279 -357,264 z m -7308,2 c -146,-164 -205,-514 70,-551 45,108 22,458 -70,551 z m 3995,-422 c -9,-241 128,-556 374,-543 52,24 219,328 -30,594 z m 6593,80 c -8,18 14,53 -142,164 -89,63 -178,68 -299,24 -130,-37 -62,-24 -99,-48 -6,-4 -15,-9 -20,-22 -4,-12 -10,-16 -16,-23 -265,-40 74,-769 343,-711 169,-163 354,0 386,169 34,180 -7,346 -153,448 z M -936,8155 c 48,124 -16,56 -33,83 -205,-98 -37,-137 -35,-139 81,43 33,-34 68,56 z m 3822,157 c -37,-266 494,-729 830,-441 173,149 168,70 293,210 -11,136 -100,266 -179,395 -78,127 -131,157 -219,342 -339,709 -827,354 -312,10 344,-230 243,-349 112,-644 -305,27 -295,165 -525,129 z M 327,9338 c 105,-40 65,-43 184,-65 238,252 190,488 704,501 246,6 289,-67 529,-71 310,-5 271,40 457,-135 12,-321 -128,-246 -177,-430 -119,-452 66,-350 -227,-931 -66,-130 -56,-343 -3,-458 121,4 171,70 266,149 26,344 -21,525 123,801 75,144 90,153 194,266 152,165 81,85 265,175 -62,243 26,283 -17,528 -85,88 -374,312 -497,349 -226,67 -144,23 -322,-24 -169,-45 -239,14 -379,46 -155,-46 -214,-135 -405,-71 -159,53 -161,79 -334,-21 -170,-98 -380,-321 -361,-607 z m 645,-60 c 429,334 770,-128 567,-599 -212,-493 -354,-402 -598,-546 l 22,-200 c 356,-22 691,292 805,548 82,184 91,342 102,553 17,321 176,230 148,479 -160,22 -302,6 -441,27 -130,20 -243,73 -398,70 -237,-4 -457,-202 -482,-338 -25,-138 -9,-4 16,-65 94,-120 143,-18 257,71 z M 5917,7770 c 12,-178 248,-285 479,-256 106,13 797,251 632,780 -96,307 -141,231 -461,272 -113,153 -163,147 -31,432 53,114 50,157 76,282 l -48,33 c -153,85 -332,166 -523,182 -117,10 -400,-88 -467,-275 -67,-16 -50,-115 -54,-187 l -152,36 c 72,-214 14,-38 207,-90 51,-176 169,-237 319,-368 39,-231 -39,-280 -4,-552 -46,-36 -54,-56 -49,-150 6,-103 29,-100 78,-138 z M 292,8017 c -27,97 96,63 -95,52 z m -597,64 c 12,-133 26,-111 119,-77 25,106 -3,129 -119,77 z m 15532,727 c 363,-148 1111,234 1940,-498 139,-123 64,-474 380,-389 2,148 -221,458 -282,531 -233,276 -259,93 -282,580 l -65,47 c -95,-81 -143,-210 -377,-156 -206,48 -1068,185 -1261,73 -28,-16 -61,-50 -71,-80 -41,-125 17,-106 18,-108 z m -2138,-650 c -225,3 -342,-246 -234,-454 97,-187 72,-417 333,-432 -15,285 91,724 -99,886 z m -4404,-1064 37,-98 c 46,32 53,-47 34,77 293,5 430,301 415,622 -15,327 -212,518 -379,667 -271,39 -159,38 -352,106 -237,-80 -192,-244 -352,-411 -225,28 -241,194 -564,165 -217,-94 -390,-953 157,-1075 311,-70 313,256 531,210 62,-13 327,-224 475,-262 z m -11529,293 c 3,10 6,21 9,32 1,3 10,79 12,92 89,531 395,728 233,870 -191,-198 -97,-176 -300,-265 -29,-284 -272,-655 18,-792 z m 4059,412 c -317,36 -203,-249 53,-196 9,125 16,101 -53,196 z m -3747,-224 c 69,166 -23,120 -23,121 -37,-65 -56,-97 -58,-200 52,30 81,77 82,79 z m 19048,881 c -106,-233 49,-218 148,-325 109,-118 128,-259 121,-440 -31,-70 -150,-92 -199,-111 l -50,-29 c 33,-272 472,-153 477,-150 70,42 192,386 179,453 -22,114 -130,390 -214,449 -98,69 -357,172 -462,152 z m -1584,23 c -234,82 -201,-123 -175,-315 34,-253 35,-230 171,-394 126,-152 490,-458 696,-359 -1,312 -465,195 -629,705 -59,182 7,227 -62,363 z m -895,-390 c -9,-257 216,-395 461,-642 218,-220 323,-330 744,-254 2,225 54,96 -211,292 -653,484 -233,1257 -994,604 z M 6731,7446 c 0,-574 827,-327 368,160 -142,-1 -262,-90 -368,-160 z m -895,-141 c 25,-192 151,-259 381,-240 197,16 361,47 355,240 -127,70 -280,44 -429,66 -201,30 -209,59 -307,-66 z M 469,8611 c -53,-484 368,-1597 714,-1517 21,290 -165,238 -321,599 -136,316 -119,419 -140,782 -99,79 -111,123 -253,136 z M 16261,7270 c 33,-93 -8,-70 141,-103 165,-36 460,-79 603,-32 l -89,130 c -174,12 -120,-37 -324,16 -148,39 -210,71 -331,-12 z m -2537,139 c -24,-240 102,-475 378,-413 -10,121 -85,148 -164,241 -197,234 -92,155 -214,172 z m 1947,-83 c -122,-65 -102,-77 -193,-157 -107,-93 -116,-24 -237,-114 l -220,-139 c 143,0 176,-43 288,-86 128,-1 634,362 686,389 119,62 155,184 220,304 77,140 118,179 222,276 l 213,-12 c -34,387 -245,81 -322,469 -52,261 -149,359 -427,350 20,-247 173,-87 197,-561 18,-353 -153,-573 -425,-719 z M 7830,6995 c 32,-46 18,-71 126,-101 82,-23 484,-19 602,36 -50,60 -238,179 -334,186 -88,7 -280,-90 -394,-121 z m 1271,98 c -16,-527 607,-583 790,-503 164,436 -344,484 87,1360 86,175 196,212 226,339 l -379,-104 c -7,-154 40,-311 -28,-433 -69,-124 -129,-114 -274,-192 -183,-98 -255,-336 -421,-467 z M 6993,6595 c 45,69 57,223 73,319 -238,45 -171,50 -319,131 -161,-18 -189,-94 -382,-134 -158,-33 -290,0 -471,-24 30,-458 658,-16 994,-88 l 106,-204 z m -3641,546 c 654,-427 1878,-571 2259,-260 -239,70 -567,-34 -839,-12 -147,12 -258,61 -389,78 -203,26 -146,-3 -290,144 l -95,-91 c -292,34 -472,213 -646,142 z m 12275,-364 c 66,-154 620,-413 987,-33 l -47,245 c -170,99 -797,76 -940,-211 z M 834,7101 c -59,98 -137,146 -195,263 -89,183 8,206 -164,287 -107,-25 -102,-37 -166,-139 -103,-165 -325,-224 -502,-420 -137,-150 -568,-764 0,-625 152,172 59,297 246,496 l 227,-5 c 88,-38 140,-242 182,-265 290,-42 554,106 373,407 z m 10070,881 c -1,-225 142,-382 266,-518 358,-394 503,-589 1092,-809 372,-139 253,-36 277,-18 -72,52 -168,90 -263,140 -104,55 -130,69 -219,131 -129,91 -97,145 -186,202 -92,59 -126,27 -230,121 -635,573 -391,679 -737,752 z m -3105,-1253 -135,76 c -91,72 -266,132 -388,122 -7,-10 -90,-86 -86,-215 14,-457 1235,-349 1479,-337 156,284 -140,357 -335,341 -248,-21 -349,23 -534,14 z m -10309,246 c -71,-299 311,-468 565,-529 -23,165 -15,104 -101,204 -208,241 -156,405 -463,325 z m -1725,-445 c 114,-72 271,56 411,107 206,76 268,75 509,93 l 29,125 c -228,-11 -802,-218 -949,-324 z m 5921,457 c -35,-44 -11,50 -57,-86 -21,-60 -18,-94 -23,-159 l 2,-64 c 247,-54 572,-78 738,-251 150,-156 275,-364 604,-351 87,157 89,354 -16,513 -94,141 -272,135 -402,223 -41,162 -2,124 -3,292 -98,66 -186,81 -278,143 -116,79 -59,137 -112,273 -120,31 -290,47 -363,-109 -27,-57 -90,-388 -90,-425 z m 15802,-151 c 336,-114 667,-473 1262,-571 -65,137 -151,151 -321,215 -233,88 -519,286 -599,320 -471,199 -303,76 -343,37 z m -12753,-420 23,79 c -298,266 -823,-54 -1172,53 -140,43 -45,5 -84,88 8,6 18,15 24,19 l 80,37 c 10,3 60,11 75,14 -27,143 39,37 -145,134 l -433,342 c -91,69 -171,176 -271,258 -107,89 -224,119 -188,306 176,7 752,-609 1267,-491 l -14,155 c 374,0 377,-434 979,-310 36,52 60,73 64,134 l -11,157 127,-10 c 12,-22 317,-388 603,-323 63,185 104,294 -2,461 -85,134 -115,287 -229,369 -238,171 -656,158 -707,-243 l -95,-200 -125,10 c -94,178 -202,344 -467,357 -322,16 -423,-590 -1095,89 -174,176 -280,174 -273,498 125,113 236,107 344,209 174,270 -386,613 -720,-16 -202,-381 64,-1214 412,-1456 413,-288 184,-192 425,-566 43,-67 160,-257 236,-293 796,-379 752,129 1144,-192 232,-190 402,-239 794,-188 795,103 664,721 389,783 -239,54 -340,-255 -811,-376 l -134,-8 -11,119 z m 9639,483 c 192,-26 97,2 200,-120 79,-94 58,-51 175,-106 1004,-469 549,-820 910,-803 l 38,237 c 264,129 827,-56 928,64 109,306 -527,205 -825,284 -774,206 -805,489 -1060,629 -216,119 -446,346 -600,531 -28,34 -101,136 -123,158 -185,179 -194,36 -205,24 -108,-214 133,-364 242,-480 l 183,-205 c 129,-115 70,-18 136,-215 z M 101,5980 c 395,44 336,11 436,170 77,122 667,283 932,798 113,220 219,737 112,1008 l -78,-10 c -83,-111 -30,-176 -57,-349 -10,-62 -51,-225 -75,-308 L 1223,6956 C 1132,6728 826,6537 583,6519 227,6492 350,6758 129,6800 23,6590 16,6346 -236,6289 c -218,-49 -569,214 -630,-111 136,-154 293,-67 495,-109 183,-39 198,-120 473,-89 z m -1034,459 91,79 c 87,29 262,212 324,301 86,122 68,278 218,416 66,61 421,229 494,462 79,252 -15,251 -23,256 -125,96 -523,-423 -620,-50 -3,12 -3,59 -12,95 -12,51 -46,101 -79,147 -285,31 -228,-91 -326,-268 -189,8 -110,28 -247,91 -77,36 13,1 -85,23 -44,50 -49,50 -157,43 -131,-9 -95,-23 -137,-81 -18,-15 -45,78 -29,-104 22,-246 285,-305 598,-499 357,-221 61,-653 -124,-813 -492,-424 -1094,-333 -1524,116 l -174,128 c 33,-323 158,-445 409,-563 214,-101 476,-164 733,-200 110,55 258,138 370,209 203,128 213,65 299,211 z m 7029,20 c 31,-30 19,-24 67,-56 239,-158 709,-322 971,-406 386,-123 871,-145 1306,-133 138,4 232,41 350,42 123,1 210,-39 319,-44 129,-5 480,50 621,86 188,48 1011,254 1088,334 -71,72 -404,120 -535,155 -202,55 -371,-44 -612,-44 -580,-1 -674,685 -851,421 -142,-213 505,-524 -101,-543 -253,-8 50,-77 -528,-82 -866,-7 -1699,608 -2096,269 z m -9311,135 c -78,-155 -68,-224 -269,-245 l 13,180 c -343,-37 -354,-110 -601,-208 -169,-67 -491,-49 -603,-180 l 133,-54 c 97,-36 161,-92 316,-70 200,29 211,130 437,137 0,0 224,-221 578,-97 670,236 276,1098 -5,535 z m 17219,-205 c -21,-183 51,-312 163,-401 137,-108 251,-70 425,-41 l 70,160 c -117,166 -24,231 -233,284 -155,39 -278,28 -424,-2 z m -3099,176 c 131,-87 144,-212 275,-359 646,-726 1202,-71 1205,-70 275,30 427,-181 812,6 165,80 376,316 398,528 -124,123 -110,51 -192,137 -46,48 -100,157 -132,243 336,-55 154,-217 421,-339 232,-106 643,-246 876,-83 -144,184 -327,62 -711,280 -233,132 -311,366 -276,716 34,342 412,682 671,810 273,135 211,50 304,139 -33,64 -60,89 -95,133 -139,-2 -179,-30 -281,-94 -83,-52 -159,-72 -239,-115 -515,-278 -596,-746 -622,-945 -34,-252 51,-316 -88,-476 -63,27 -257,96 -328,147 -120,88 -101,156 -153,304 -111,318 -358,109 -548,342 -146,433 71,457 -415,670 -246,107 -633,164 -838,-40 -17,-217 58,-314 172,-406 188,-10 221,48 382,44 366,-10 315,-90 334,-128 -109,-153 44,-21 -227,-92 -278,-74 -13,-539 281,-554 252,-13 594,102 669,-192 -156,-7 -230,45 -388,-7 5,-227 246,-330 440,-405 431,-168 520,-44 585,-229 -131,-159 -480,-113 -704,-71 -202,37 -466,0 -692,27 3,-144 56,-185 61,-339 -387,165 -133,1025 -991,1019 -145,-165 -54,-134 -124,-294 -162,103 -72,485 -40,563 133,332 54,221 82,568 -167,127 -481,245 -624,-20 -79,-148 -256,-506 -244,-676 18,-257 214,-516 329,-622 322,-299 543,-121 657,-118 z M -5025,6100 c 67,-55 165,-16 258,9 l -96,104 c 58,97 164,182 249,262 104,99 156,172 231,255 288,50 603,87 784,273 l -27,183 c 408,-9 212,-183 531,-118 39,319 -208,489 -511,438 -318,-53 -281,-381 -419,-562 -114,-66 -314,-66 -456,-115 -212,-74 -173,-95 -196,-336 -131,-75 -345,-204 -349,-394 z m 22871,22 c 215,-100 151,-256 339,-343 175,-81 398,-5 582,14 l 95,134 c 231,17 272,-99 547,-76 -5,288 -57,256 -202,385 -125,112 -124,225 -201,366 -330,602 -627,60 -715,423 l -14,220 c -113,661 -1344,610 -1030,-137 490,-150 376,151 643,200 -1,-150 -27,-146 -85,-250 76,-232 166,-200 414,-295 280,-107 242,-96 573,-104 12,-261 -123,-208 156,-367 90,-51 249,-167 276,-290 -241,-19 -394,121 -718,105 l -60,-121 c -177,79 -72,214 -347,371 -848,486 -385,23 -827,-17 19,207 127,227 72,417 -144,488 -726,-10 -623,-298 386,-1077 966,-389 1126,-337 z"
           class="fil1"
           inkscape:connector-curvature="0"
           style="fill:#202428;fill-opacity:0.99215686" />
      </g>
    </g>
  </g>
</svg>
